<svg width="24" height="25" viewBox="0 0 24 25" fill="none" xmlns="http://www.w3.org/2000/svg">
<path d="M16.9284 11.5426H12.8569V7.47112C12.8569 7.35326 12.7605 7.25684 12.6426 7.25684H11.3569C11.2391 7.25684 11.1426 7.35326 11.1426 7.47112V11.5426H7.07122C6.95336 11.5426 6.85693 11.639 6.85693 11.7568V13.0426C6.85693 13.1604 6.95336 13.2568 7.07122 13.2568H11.1426V17.3283C11.1426 17.4461 11.2391 17.5426 11.3569 17.5426H12.6426C12.7605 17.5426 12.8569 17.4461 12.8569 17.3283V13.2568H16.9284C17.0462 13.2568 17.1427 13.1604 17.1427 13.0426V11.7568C17.1427 11.639 17.0462 11.5426 16.9284 11.5426Z" fill="#1E1E24"/>
<path d="M12 0.398438C5.37321 0.398438 0 5.77165 0 12.3984C0 19.0252 5.37321 24.3984 12 24.3984C18.6268 24.3984 24 19.0252 24 12.3984C24 5.77165 18.6268 0.398438 12 0.398438ZM12 22.3627C6.49821 22.3627 2.03571 17.9002 2.03571 12.3984C2.03571 6.89665 6.49821 2.43415 12 2.43415C17.5018 2.43415 21.9643 6.89665 21.9643 12.3984C21.9643 17.9002 17.5018 22.3627 12 22.3627Z" fill="#1E1E24"/>
</svg>
