<svg width="98" height="44" viewBox="0 0 98 44" fill="none" xmlns="http://www.w3.org/2000/svg">
<path d="M96.3419 33.5233C95.7276 33.5233 95.2296 32.9993 95.2296 32.3527V19.2041L92.2559 19.6625V32.2558C92.2559 34.0864 93.6764 35.5708 95.4287 35.5708H97.0821V33.5233H96.3419Z" fill="#ED1C24"/>
<path d="M61.9219 35.564H64.8956V23.0484L61.9219 23.5068V35.564Z" fill="#ED1C24"/>
<path d="M66.7969 25.2514V26.1292V35.5708H69.7715V27.3872L69.7544 26.4211C69.7544 24.8939 73.1833 25.1866 73.1833 25.1866L74.2557 22.8464C69.5105 21.4975 66.7969 25.2514 66.7969 25.2514Z" fill="#ED1C24"/>
<path d="M78.1949 32.3527V25.1056H79.9822V22.8309H78.1949V19.2041L75.2207 19.6625V32.2558C75.2207 34.0864 76.6416 35.5708 78.3936 35.5708H80.0478V33.5233H79.3072C78.6932 33.5233 78.1949 32.9993 78.1949 32.3527Z" fill="#ED1C24"/>
<path d="M63.4188 18.0982C62.4022 18.0982 61.5781 18.9223 61.5781 19.9389C61.5781 20.9548 62.4022 21.7788 63.4188 21.7788C64.435 21.7788 65.2591 20.9548 65.2591 19.9389C65.2591 18.9223 64.435 18.0982 63.4188 18.0982Z" fill="#ED1C24"/>
<path d="M86.0547 24.9115C87.7606 24.9115 88.1018 27.3226 88.1018 27.3226H88.0041H84.0071C84.0071 27.3226 84.3483 24.9115 86.0547 24.9115ZM85.6398 33.2485C83.6656 32.4921 83.8121 29.5431 83.8121 29.5431H90.9538C90.9538 25.841 90.0634 22.6413 86.4691 22.6413C82.8741 22.6413 80.7402 25.2804 80.7402 28.9821C80.7402 32.6847 83.0206 35.564 86.6149 35.564C88.0423 35.564 89.9966 35.0901 91.0695 34.2876L90.0516 32.5169C90.0516 32.5169 87.614 34.0038 85.6398 33.2485Z" fill="#ED1C24"/>
<path d="M57.2948 33.0779C57.2948 33.0779 55.345 33.9882 54.0938 33.2399C52.8423 32.4924 52.9888 30.4457 54.1667 29.8114C55.345 29.1779 57.2948 29.5679 57.2948 29.5679V33.0779ZM56.0245 22.732C56.0245 22.732 54.7672 22.7503 53.5006 22.9938C52.3105 23.2218 51.1172 24.0409 51.1172 24.0409L52.0622 25.9846C52.0622 25.9846 53.2816 24.8393 55.1825 24.8393C57.7178 24.8393 57.3599 27.3811 57.3599 27.3811C52.4213 26.369 49.9951 28.9043 50.0639 31.5169C50.0945 32.7041 50.2569 33.9072 51.6074 34.8001C55.93 37.6607 60.1265 33.5001 60.1265 33.5001V26.5986C60.1265 24.5303 58.2898 22.732 56.0245 22.732Z" fill="#ED1C24"/>
<path d="M9.4013 9.51736C-4.05395 21.7048 0.799187 25.7595 4.01643 27.3225C7.23408 28.8852 11.5241 26.7395 16.887 22.5472C22.2495 18.3544 34.6645 10.2624 37.5894 14.2919C40.5147 18.3222 40.5795 26.3173 28.0342 36.8472C15.4893 47.3776 12.8893 41.2187 19.0807 36.3925C25.2717 31.5658 24.1346 28.6572 21.2093 28.235C18.1398 27.7916 15.4893 28.5273 12.7594 33.5347C12.7594 33.5347 8.5805 41.6027 13.9295 43.6726C17.6533 45.1143 28.651 40.6764 36.7283 32.5413C42.6787 26.5482 47.0335 19.3816 45.2111 9.82313C42.8224 -2.70548 22.8566 -2.67088 9.4013 9.51736Z" fill="#ED1C24"/>
</svg>
