<svg width="18" height="18" viewBox="0 0 18 18" fill="none" xmlns="http://www.w3.org/2000/svg">
<path d="M17.5265 8.12751H4.11051L12.1404 1.15695C12.2688 1.0446 12.1908 0.835938 12.0212 0.835938H9.99191C9.90249 0.835938 9.81765 0.868039 9.75115 0.925362L1.08611 8.44393C1.00675 8.51272 0.943101 8.59777 0.899479 8.69331C0.855858 8.78885 0.833282 8.89265 0.833282 8.99768C0.833282 9.10271 0.855858 9.20651 0.899479 9.30205C0.943101 9.39759 1.00675 9.48263 1.08611 9.55142L9.8016 17.1159C9.83599 17.1457 9.87726 17.1617 9.92083 17.1617H12.0189C12.1886 17.1617 12.2665 16.9508 12.1381 16.8407L4.11051 9.87014H17.5265C17.6274 9.87014 17.71 9.7876 17.71 9.68671V8.31094C17.71 8.21005 17.6274 8.12751 17.5265 8.12751Z" fill="#2C7C7A"/>
</svg>
