<svg width="49" height="49" viewBox="0 0 49 49" fill="none" xmlns="http://www.w3.org/2000/svg">
<path d="M22.1436 5.04604C23.1385 3.1435 25.8615 3.1435 26.8564 5.04604C27.7367 6.72931 29.8927 7.26073 31.4544 6.17934C33.2195 4.95709 35.6306 6.22254 35.6274 8.36951C35.6246 10.2691 37.2867 11.7416 39.1721 11.5098C41.303 11.2478 42.8499 13.4888 41.8493 15.3884C40.964 17.0691 41.7515 19.1453 43.5286 19.8163C45.5372 20.5746 45.8654 23.2778 44.0966 24.4948C42.5317 25.5715 42.2641 27.7759 43.5258 29.1958C44.9519 30.8008 43.9863 33.3468 41.8546 33.6024C39.9686 33.8286 38.7072 35.6561 39.1645 37.4998C39.6814 39.5836 37.6432 41.3893 35.6369 40.625C33.8618 39.9487 31.8956 40.9807 31.4437 42.8257C30.933 44.9111 28.2891 45.5627 26.8678 43.9536C25.6103 42.5299 23.3897 42.5299 22.1322 43.9536C20.7109 45.5627 18.067 44.9111 17.5563 42.8257C17.1044 40.9807 15.1382 39.9487 13.3631 40.625C11.3568 41.3893 9.3186 39.5836 9.8355 37.4998C10.2928 35.6561 9.03141 33.8286 7.14537 33.6024C5.01366 33.3468 4.04807 30.8008 5.47417 29.1958C6.73591 27.7759 6.46826 25.5715 4.90336 24.4948C3.13462 23.2778 3.46284 20.5746 5.47143 19.8163C7.24854 19.1453 8.03596 17.0691 7.1507 15.3884C6.15012 13.4888 7.69697 11.2478 9.8279 11.5098C11.7133 11.7416 13.3754 10.2691 13.3726 8.36951C13.3694 6.22254 15.7805 4.95709 17.5456 6.17934C19.1073 7.26073 21.2633 6.72931 22.1436 5.04604Z" fill="white" stroke="#FFB200" stroke-width="0.5"/>
<path d="M22.1436 5.04604C23.1385 3.1435 25.8615 3.1435 26.8564 5.04604C27.7367 6.72931 29.8927 7.26073 31.4544 6.17934C33.2195 4.95709 35.6306 6.22254 35.6274 8.36951C35.6246 10.2691 37.2867 11.7416 39.1721 11.5098C41.303 11.2478 42.8499 13.4888 41.8493 15.3884C40.964 17.0691 41.7515 19.1453 43.5286 19.8163C45.5372 20.5746 45.8654 23.2778 44.0966 24.4948C42.5317 25.5715 42.2641 27.7759 43.5258 29.1958C44.9519 30.8008 43.9863 33.3468 41.8546 33.6024C39.9686 33.8286 38.7072 35.6561 39.1645 37.4998C39.6814 39.5836 37.6432 41.3893 35.6369 40.625C33.8618 39.9487 31.8956 40.9807 31.4437 42.8257C30.933 44.9111 28.2891 45.5627 26.8678 43.9536C25.6103 42.5299 23.3897 42.5299 22.1322 43.9536C20.7109 45.5627 18.067 44.9111 17.5563 42.8257C17.1044 40.9807 15.1382 39.9487 13.3631 40.625C11.3568 41.3893 9.3186 39.5836 9.8355 37.4998C10.2928 35.6561 9.03141 33.8286 7.14537 33.6024C5.01366 33.3468 4.04807 30.8008 5.47417 29.1958C6.73591 27.7759 6.46826 25.5715 4.90336 24.4948C3.13462 23.2778 3.46284 20.5746 5.47143 19.8163C7.24854 19.1453 8.03596 17.0691 7.1507 15.3884C6.15012 13.4888 7.69697 11.2478 9.8279 11.5098C11.7133 11.7416 13.3754 10.2691 13.3726 8.36951C13.3694 6.22254 15.7805 4.95709 17.5456 6.17934C19.1073 7.26073 21.2633 6.72931 22.1436 5.04604Z" fill="url(#paint0_linear_634_2036)" fill-opacity="0.2" stroke="#FFB200" stroke-width="0.5"/>
<path d="M32.7692 28.7655L33.4742 24.6855C33.5156 24.4464 33.5042 24.2011 33.4409 23.9668C33.3776 23.7325 33.2638 23.5149 33.1076 23.3292C32.9514 23.1434 32.7565 22.9941 32.5366 22.8915C32.3166 22.789 32.0769 22.7357 31.8342 22.7355H26.6532C26.5323 22.7355 26.4128 22.7092 26.3031 22.6584C26.1934 22.6076 26.096 22.5336 26.0178 22.4414C25.9396 22.3492 25.8824 22.241 25.8502 22.1245C25.8179 22.0079 25.8115 21.8858 25.8312 21.7665L26.4942 17.7215C26.6018 17.0647 26.5712 16.3927 26.4042 15.7485C26.3328 15.4823 26.1952 15.2385 26.0043 15.0397C25.8134 14.8409 25.5753 14.6936 25.3122 14.6115L25.1672 14.5645C24.8394 14.4592 24.4837 14.4835 24.1732 14.6325C23.8332 14.7965 23.5852 15.0955 23.4932 15.4505L23.0172 17.2845C22.8657 17.8681 22.6455 18.4317 22.3612 18.9635C21.9462 19.7405 21.3042 20.3635 20.6362 20.9385L19.1972 22.1785C18.9976 22.351 18.8417 22.5684 18.7423 22.8128C18.6428 23.0571 18.6027 23.3216 18.6252 23.5845L19.4372 32.9775C19.473 33.3929 19.6633 33.7798 19.9704 34.0618C20.2776 34.3437 20.6793 34.5003 21.0962 34.5005H25.7442C29.2262 34.5005 32.1972 32.0745 32.7692 28.7655Z" fill="url(#paint1_linear_634_2036)"/>
<path fill-rule="evenodd" clip-rule="evenodd" d="M15.4681 21.9856C15.6613 21.9771 15.8504 22.0437 15.9957 22.1713C16.1411 22.299 16.2315 22.4778 16.2481 22.6706L17.2181 33.9066C17.2345 34.0739 17.2167 34.2428 17.1656 34.403C17.1146 34.5632 17.0314 34.7113 16.9212 34.8383C16.811 34.9653 16.6761 35.0684 16.5247 35.1415C16.3733 35.2146 16.2085 35.256 16.0406 35.2633C15.8726 35.2706 15.7049 35.2436 15.5478 35.1839C15.3906 35.1242 15.2472 35.0331 15.1265 34.9161C15.0057 34.7991 14.91 34.6588 14.8453 34.5036C14.7806 34.3484 14.7482 34.1817 14.7501 34.0136V22.7346C14.7502 22.5413 14.8249 22.3554 14.9587 22.2159C15.0924 22.0763 15.2749 21.9938 15.4681 21.9856Z" fill="url(#paint2_linear_634_2036)"/>
<defs>
<linearGradient id="paint0_linear_634_2036" x1="0" y1="0.000488281" x2="53.8504" y2="6.41631" gradientUnits="userSpaceOnUse">
<stop stop-color="#FFD981"/>
<stop offset="1" stop-color="#FFA217"/>
</linearGradient>
<linearGradient id="paint1_linear_634_2036" x1="18.6191" y1="14.5" x2="35.0743" y2="15.9585" gradientUnits="userSpaceOnUse">
<stop stop-color="#FFD981"/>
<stop offset="1" stop-color="#FFA217"/>
</linearGradient>
<linearGradient id="paint2_linear_634_2036" x1="14.75" y1="21.9849" x2="17.5061" y2="22.046" gradientUnits="userSpaceOnUse">
<stop stop-color="#FFD981"/>
<stop offset="1" stop-color="#FFA217"/>
</linearGradient>
</defs>
</svg>
