<svg width="46" height="33" viewBox="0 0 46 33" fill="none" xmlns="http://www.w3.org/2000/svg">
<path d="M45.1153 27.2088C45.1153 28.5144 44.5966 29.7666 43.6734 30.6899C42.7501 31.6132 41.4979 32.1318 40.1922 32.1318H5.7307C4.42501 32.1318 3.17281 31.6132 2.24955 30.6899C1.3263 29.7666 0.807617 28.5144 0.807617 27.2088V5.05491C0.807617 3.74923 1.3263 2.49703 2.24955 1.57377C3.17281 0.650516 4.42501 0.131836 5.7307 0.131836H40.1922C41.4979 0.131836 42.7501 0.650516 43.6734 1.57377C44.5966 2.49703 45.1153 3.74923 45.1153 5.05491V27.2088Z" fill="#006A4D"/>
<path d="M20.4943 24.1312C25.2524 24.1312 29.1097 20.2739 29.1097 15.5158C29.1097 10.7576 25.2524 6.90039 20.4943 6.90039C15.7361 6.90039 11.8789 10.7576 11.8789 15.5158C11.8789 20.2739 15.7361 24.1312 20.4943 24.1312Z" fill="#F42A41"/>
</svg>
