<svg width="37" height="24" viewBox="0 0 37 24" fill="none" xmlns="http://www.w3.org/2000/svg">
<path d="M0.514893 2.08242C0.514893 1.20847 1.22337 0.5 2.09731 0.5H34.9325C35.8064 0.5 36.5149 1.20847 36.5149 2.08242V21.8626C36.5149 22.7366 35.8064 23.4451 34.9325 23.4451H2.09731C1.22337 23.4451 0.514893 22.7366 0.514893 21.8626V2.08242Z" fill="#EB6215"/>
<path d="M32.4599 7.70864C32.3228 7.72345 32.1833 7.73107 32.0419 7.73107C30.0845 7.73107 28.4923 6.27192 28.4474 4.45605H8.85623C8.87204 4.58368 8.88016 4.71349 8.88016 4.84508C8.88016 6.69743 7.2704 8.19906 5.28465 8.19906C5.14323 8.19906 5.00371 8.19145 4.86654 8.17663V16.3335C5.00371 16.3186 5.14323 16.311 5.28465 16.311C7.2428 16.311 8.83534 17.7712 8.87923 19.588H28.4706C28.4546 19.4597 28.4464 19.3293 28.4464 19.197C28.4464 17.3447 30.0562 15.843 32.0419 15.843C32.1833 15.843 32.3228 15.8506 32.4599 15.8655V7.70864Z" fill="white"/>
<path d="M15.2206 11.2293C15.2206 9.22567 16.845 7.60129 18.8487 7.60129C20.8524 7.60129 22.4767 9.22567 22.4767 11.2293C22.4767 13.233 20.8524 14.8574 18.8487 14.8574C16.845 14.8574 15.2206 13.233 15.2206 11.2293Z" fill="#BB6210"/>
<path fill-rule="evenodd" clip-rule="evenodd" d="M21.1574 15.9758C22.9147 15.1193 24.1259 13.3158 24.1259 11.2293C24.1259 8.3147 21.7633 5.95217 18.8487 5.95217C15.9344 5.95217 13.5715 8.3147 13.5715 11.2293C13.5715 13.3161 14.7826 15.1199 16.5403 15.9762V18.8153C16.5402 18.875 16.5564 18.9336 16.5871 18.9848C16.6178 19.036 16.6618 19.078 16.7145 19.1061C16.7671 19.1343 16.8264 19.1477 16.8861 19.1448C16.9457 19.1419 17.0035 19.1228 17.0531 19.0897L18.8487 17.8924L20.6446 19.0897C20.6942 19.1228 20.752 19.1419 20.8116 19.1448C20.8713 19.1477 20.9306 19.1343 20.9832 19.1061C21.0359 19.078 21.0799 19.036 21.1106 18.9848C21.1413 18.9336 21.1575 18.875 21.1574 18.8153V15.9758ZM18.8487 15.8469C21.3989 15.8469 23.4662 13.7795 23.4662 11.2293C23.4662 8.67915 21.3989 6.61182 18.8487 6.61182C16.2985 6.61182 14.2312 8.67915 14.2312 11.2293C14.2312 13.7795 16.2985 15.8469 18.8487 15.8469Z" fill="#BB6210"/>
<path d="M17.7655 9.50172C17.635 9.53043 17.4835 9.53484 17.3852 9.4534C17.2734 9.36077 17.2719 9.20032 17.407 9.13664C17.5511 9.06871 17.7154 9.03022 17.8899 9.03022C18.4581 9.03022 18.9189 9.43839 18.9212 9.94266C18.9212 9.9439 18.9212 9.94514 18.9212 9.94638V10.4808H19.4369C19.5793 10.4808 19.6947 10.5833 19.6947 10.7098C19.6947 10.8363 19.5793 10.9389 19.4369 10.9389H18.9212V12.4657C18.9212 12.7187 19.1521 12.9238 19.4369 12.9238C19.7217 12.9238 19.9525 12.7187 19.9525 12.4657C19.9525 12.394 19.934 12.3261 19.9009 12.2657C19.8153 12.3421 19.6968 12.3894 19.5658 12.3894C19.3047 12.3894 19.0931 12.2015 19.0931 11.9695C19.0931 11.7376 19.3047 11.5496 19.5658 11.5496C19.6581 11.5496 19.7443 11.5732 19.8171 11.6138C20.1985 11.7483 20.4682 12.079 20.4682 12.4657C20.4682 12.9717 20.0065 13.3819 19.4369 13.3819C18.8673 13.3819 18.4055 12.9717 18.4055 12.4657C18.4055 12.4312 18.4077 12.3972 18.4119 12.3637C18.4077 12.3474 18.4055 12.3305 18.4055 12.3131V10.9389H17.8039C17.6615 10.9389 17.5461 10.8363 17.5461 10.7098C17.5461 10.5833 17.6615 10.4808 17.8039 10.4808H18.4055V10.2143C18.4055 10.2131 18.4055 10.2118 18.4055 10.2105V9.94638C18.4055 9.69339 18.1747 9.4883 17.8899 9.4883C17.847 9.4883 17.8053 9.49295 17.7655 9.50172Z" fill="white"/>
</svg>
