<svg width="32" height="21" viewBox="0 0 32 21" fill="none" xmlns="http://www.w3.org/2000/svg">
<path d="M0 1.87931C0 1.11754 0.617538 0.5 1.37931 0.5H30C30.7617 0.5 31.3793 1.11754 31.3793 1.87931V19.1207C31.3793 19.8825 30.7617 20.5 30 20.5H1.37931C0.617538 20.5 0 19.8825 0 19.1207V1.87931Z" fill="white"/>
<path d="M27.8448 6.78339C27.7253 6.7963 27.6037 6.80294 27.4804 6.80294C25.7742 6.80294 24.3865 5.53108 24.3473 3.94828H7.2707C7.28448 4.05953 7.29156 4.17268 7.29156 4.28738C7.29156 5.90198 5.88841 7.21087 4.15755 7.21087C4.03427 7.21087 3.91266 7.20423 3.7931 7.19131V14.3012C3.91266 14.2883 4.03427 14.2816 4.15755 14.2816C5.86436 14.2816 7.25249 15.5544 7.29075 17.138H24.3675C24.3536 17.0262 24.3464 16.9125 24.3464 16.7972C24.3464 15.1826 25.7495 13.8737 27.4804 13.8737C27.6037 13.8737 27.7253 13.8803 27.8448 13.8933V6.78339Z" fill="#2C7C7A"/>
<path d="M12.8182 9.85221C12.8182 8.10571 14.2341 6.68982 15.9806 6.68982C17.7271 6.68982 19.143 8.10571 19.143 9.85221C19.143 11.5987 17.7271 13.0146 15.9806 13.0146C14.2341 13.0146 12.8182 11.5987 12.8182 9.85221Z" fill="white"/>
<path fill-rule="evenodd" clip-rule="evenodd" d="M17.993 13.9895C19.5248 13.2429 20.5804 11.6709 20.5804 9.85221C20.5804 7.31166 18.5211 5.25237 15.9806 5.25237C13.4403 5.25237 11.3808 7.31166 11.3808 9.85221C11.3808 11.6712 12.4364 13.2434 13.9684 13.9898V16.4645C13.9684 16.5165 13.9826 16.5676 14.0093 16.6122C14.0361 16.6569 14.0744 16.6934 14.1203 16.718C14.1662 16.7425 14.2179 16.7542 14.2699 16.7517C14.3219 16.7491 14.3722 16.7325 14.4155 16.7037L15.9806 15.6601L17.546 16.7037C17.5893 16.7325 17.6396 16.7491 17.6916 16.7517C17.7436 16.7542 17.7953 16.7425 17.8412 16.718C17.887 16.6934 17.9254 16.6569 17.9522 16.6122C17.9789 16.5676 17.993 16.5165 17.993 16.4645V13.9895ZM15.9806 13.8771C18.2035 13.8771 20.0054 12.0751 20.0054 9.85221C20.0054 7.62934 18.2035 5.82735 15.9806 5.82735C13.7577 5.82735 11.9557 7.62934 11.9557 9.85221C11.9557 12.0751 13.7577 13.8771 15.9806 13.8771Z" fill="white"/>
<path d="M15.0364 8.34632C14.9227 8.37135 14.7906 8.37519 14.7049 8.3042C14.6075 8.22347 14.6062 8.08361 14.7239 8.0281C14.8495 7.96889 14.9928 7.93535 15.1448 7.93535C15.6401 7.93535 16.0418 8.29113 16.0438 8.73067C16.0438 8.73175 16.0438 8.73283 16.0438 8.73391V9.19973H16.4933C16.6174 9.19973 16.718 9.28912 16.718 9.39937C16.718 9.50963 16.6174 9.59902 16.4933 9.59902H16.0438V10.9299C16.0438 11.1504 16.245 11.3292 16.4933 11.3292C16.7415 11.3292 16.9428 11.1504 16.9428 10.9299C16.9428 10.8674 16.9266 10.8082 16.8977 10.7555C16.8231 10.8222 16.7198 10.8634 16.6056 10.8634C16.3781 10.8634 16.1936 10.6995 16.1936 10.4974C16.1936 10.2953 16.3781 10.1314 16.6056 10.1314C16.6861 10.1314 16.7612 10.1519 16.8247 10.1874C17.1572 10.3045 17.3922 10.5928 17.3922 10.9299C17.3922 11.3709 16.9898 11.7284 16.4933 11.7284C15.9968 11.7284 15.5943 11.3709 15.5943 10.9299C15.5943 10.8998 15.5962 10.8702 15.5998 10.841C15.5962 10.8268 15.5943 10.812 15.5943 10.7969V9.59902H15.0699C14.9458 9.59902 14.8452 9.50963 14.8452 9.39937C14.8452 9.28912 14.9458 9.19973 15.0699 9.19973H15.5943V8.96746C15.5943 8.96636 15.5943 8.96525 15.5943 8.96414V8.73391C15.5943 8.51339 15.3931 8.33463 15.1448 8.33463C15.1074 8.33463 15.0711 8.33868 15.0364 8.34632Z" fill="#2C7C7A"/>
</svg>
