<svg width="181" height="41" viewBox="0 0 181 41" fill="none" xmlns="http://www.w3.org/2000/svg">
<g clip-path="url(#clip0_1565_2803)">
<path d="M41.2311 0.494141H1.23047V40.5063H41.2311V0.494141Z" fill="white"/>
<path d="M34.3485 10.185C27.9609 19.8356 18.6095 32.6282 1.23047 31.5693V0.494141H40.2298C40.2298 0.494141 37.9279 4.74683 34.3485 10.185Z" fill="#0072BC"/>
<path d="M1.23047 33.9244V40.5019H41.2311V1.00195C41.2311 1.00195 28.4155 36.4334 1.23047 33.9244Z" fill="#E5A812"/>
<path d="M14.8056 11.1114C12.4504 11.1013 10.1712 11.9441 8.38932 13.4841C6.6074 15.024 5.44324 17.1571 5.11204 19.4888C4.78083 21.8206 5.30498 24.1934 6.5876 26.1687C7.87021 28.1439 9.82456 29.5881 12.0894 30.2342C16.7273 28.6608 20.9478 26.0557 24.4331 22.615C24.539 22.0358 24.5949 21.4486 24.6 20.8598C24.5909 18.2712 23.5561 15.7917 21.7225 13.9645C19.8888 12.1374 17.4057 11.1114 14.8171 11.1114" fill="#2484C6"/>
<path d="M22.1486 20.8614C22.1578 22.3156 21.7349 23.7398 20.9336 24.9534C20.1323 26.1669 18.9887 27.1153 17.6478 27.6781C16.3068 28.2409 14.829 28.3929 13.4016 28.1148C11.9742 27.8367 10.6615 27.141 9.62994 26.1159C8.5984 25.0909 7.89447 23.7826 7.60739 22.357C7.32031 20.9313 7.46302 19.4525 8.01741 18.1081C8.5718 16.7637 9.51291 15.6141 10.7214 14.8052C11.9299 13.9963 13.3514 13.5645 14.8057 13.5645C16.7457 13.5629 18.6073 14.3297 19.9834 15.6972C21.3595 17.0646 22.138 18.9214 22.1486 20.8614Z" fill="#659AD2"/>
<path d="M19.6972 20.8607C19.7029 21.8307 19.4204 22.7806 18.8855 23.5898C18.3506 24.3991 17.5874 25.0312 16.6927 25.4061C15.7981 25.781 14.8122 25.8818 13.8602 25.6956C12.9082 25.5095 12.0329 25.0448 11.3454 24.3605C10.6578 23.6762 10.189 22.8031 9.99835 21.852C9.8077 20.9008 9.9038 19.9145 10.2745 19.0181C10.6452 18.1217 11.2737 17.3555 12.0804 16.8168C12.8872 16.2781 13.8357 15.9911 14.8057 15.9922C15.447 15.9892 16.0825 16.1129 16.6759 16.3562C17.2692 16.5995 17.8086 16.9576 18.2631 17.41C18.7176 17.8624 19.0783 18.4001 19.3244 18.9923C19.5705 19.5844 19.6972 20.2194 19.6972 20.8607Z" fill="#95B6DF"/>
<path d="M17.2517 20.8602C17.2563 21.3449 17.1167 21.82 16.8508 22.2252C16.5848 22.6304 16.2045 22.9475 15.758 23.1361C15.3115 23.3248 14.819 23.3765 14.3431 23.2848C13.8672 23.193 13.4292 22.9619 13.0849 22.6208C12.7405 22.2797 12.5053 21.844 12.4091 21.3689C12.3128 20.8939 12.3599 20.401 12.5443 19.9527C12.7287 19.5045 13.0422 19.1211 13.4448 18.8514C13.8475 18.5816 14.3213 18.4375 14.806 18.4375C15.1256 18.436 15.4425 18.4975 15.7384 18.6184C16.0343 18.7393 16.3035 18.9174 16.5306 19.1424C16.7577 19.3673 16.9383 19.6348 17.062 19.9296C17.1857 20.2243 17.2502 20.5406 17.2517 20.8602Z" fill="#C7D6EE"/>
<path d="M54.041 15.8646H56.786C57.4775 15.9296 58.1703 15.7549 58.7483 15.3697C58.9375 15.2065 59.0875 15.0027 59.1871 14.7736C59.2867 14.5444 59.3334 14.2958 59.3238 14.0461C59.3292 13.8087 59.2802 13.5732 59.1804 13.3578C59.0807 13.1423 58.9328 12.9525 58.7483 12.8031C58.1572 12.4354 57.4618 12.2716 56.7687 12.337H54.0352L54.041 15.8646ZM54.041 9.02804H56.3831C57.0011 9.08897 57.6212 8.93446 58.1383 8.59068C58.306 8.43081 58.4367 8.23619 58.5212 8.02047C58.6057 7.80475 58.6419 7.57316 58.6275 7.34193C58.6389 7.11958 58.601 6.89744 58.5165 6.69148C58.4319 6.48551 58.3027 6.30083 58.1383 6.15071C57.6297 5.81262 57.0194 5.66207 56.4119 5.72487H54.0295L54.041 9.02804ZM48.6201 2.19727H58.6908C60.3673 2.19727 61.6544 2.61351 62.5521 3.44602C62.9857 3.83264 63.3306 4.30849 63.563 4.8409C63.7954 5.37331 63.91 5.9497 63.8987 6.53052C63.9206 7.50375 63.5778 8.44997 62.9377 9.18341C62.4261 9.7274 61.7784 10.1248 61.0617 10.3343C62.1292 10.5318 63.1008 11.0783 63.8239 11.8881C64.4357 12.6756 64.7496 13.6539 64.7101 14.6503C64.7206 15.5012 64.5041 16.3394 64.0829 17.0788C63.6712 17.7976 63.0753 18.3936 62.3565 18.8052C61.7179 19.1241 61.0247 19.3193 60.3136 19.3807C59.5165 19.5031 58.7136 19.5837 57.9081 19.6224H48.6201V2.19727Z" fill="#0072BC"/>
<path d="M72.9969 9.25281H75.2642C75.7444 9.2158 76.2202 9.13489 76.6856 9.01111C77.036 8.94606 77.3497 8.7533 77.5661 8.47017C77.8122 8.12539 77.9271 7.70406 77.8902 7.28206C77.8533 6.86006 77.6669 6.46511 77.3647 6.16831C76.7645 5.80285 76.0608 5.64511 75.3621 5.71944H72.9969V9.25281ZM67.5933 19.6112V2.19759H76.559C77.8429 2.15236 79.1264 2.29583 80.3686 2.62343C81.2363 2.89933 81.9861 3.45867 82.4978 4.21172C83.0518 5.04345 83.3333 6.02687 83.3035 7.02574C83.3258 7.90022 83.1131 8.76467 82.6877 9.52902C82.2697 10.2429 81.6752 10.8374 80.9613 11.2554C80.3723 11.5832 79.7353 11.8163 79.0738 11.946C79.5698 12.0912 80.0426 12.3063 80.4779 12.5847C80.7973 12.8565 81.0849 13.1634 81.3354 13.4997C81.6196 13.8383 81.872 14.2024 82.0892 14.5874L84.6903 19.6285H78.6422L75.7649 14.3054C75.5347 13.7973 75.2038 13.3412 74.7923 12.9646C74.4029 12.6977 73.9408 12.5571 73.4688 12.5617H72.9969V19.6285L67.5933 19.6112Z" fill="#0072BC"/>
<path d="M96.0214 12.9642L94.105 6.70892L92.2003 12.9642H96.0214ZM97.1435 16.7278H91.0378L90.1804 19.6051H84.6904L91.2335 2.19727H97.109L103.646 19.6051H97.9952L97.1435 16.7278Z" fill="#0072BC"/>
<path d="M116.502 12.4822L121.215 13.9036C120.96 15.1031 120.45 16.2336 119.719 17.2183C119.054 18.0894 118.182 18.7799 117.181 19.2267C115.959 19.7183 114.647 19.9477 113.331 19.9C111.744 19.9566 110.163 19.6761 108.693 19.077C107.396 18.4473 106.316 17.4456 105.591 16.1997C104.661 14.5911 104.207 12.7507 104.285 10.8939C104.285 8.00508 105.052 5.79146 106.587 4.25305C108.121 2.71464 110.287 1.94735 113.084 1.95119C115.282 1.95119 117.008 2.39237 118.263 3.27475C119.613 4.29963 120.592 5.73575 121.054 7.36632L116.306 8.41942C116.192 8.01102 116.016 7.62277 115.783 7.26849C115.494 6.86935 115.116 6.544 114.678 6.31897C113.946 5.97424 113.115 5.90071 112.334 6.11151C111.553 6.32232 110.873 6.80375 110.414 7.4699C109.93 8.20074 109.683 9.34016 109.683 10.8939C109.683 12.8121 109.974 14.1376 110.557 14.8704C111.174 15.5229 112.021 15.9096 112.918 15.9482C113.815 15.9869 114.692 15.6746 115.363 15.0776C115.969 14.3306 116.362 13.434 116.502 12.4822Z" fill="#0072BC"/>
<path d="M131.925 2.19727H146.34V5.91478H137.317V8.68277H145.696V12.2334H137.317V15.6574H146.599V19.6051H131.925V2.19727Z" fill="#0072BC"/>
<path d="M154.88 9.62077H156.198C156.967 9.69 157.737 9.49955 158.385 9.07983C158.584 8.91087 158.743 8.69875 158.849 8.4595C158.954 8.22024 159.004 7.9601 158.995 7.69872C159 7.44287 158.954 7.18855 158.86 6.95048C158.767 6.71241 158.626 6.49534 158.448 6.31184C158.064 5.9282 157.38 5.73638 156.394 5.73638H154.863L154.88 9.62077ZM149.477 2.19727H158.419C160.37 2.19727 161.832 2.6634 162.799 3.58414C163.302 4.10618 163.692 4.72722 163.942 5.40781C164.193 6.08841 164.299 6.81368 164.255 7.53759C164.296 8.29765 164.176 9.05794 163.903 9.7682C163.629 10.4785 163.207 11.1226 162.666 11.6579C161.611 12.6477 160 13.1426 157.832 13.1426H154.886V19.6051H149.482L149.477 2.19727Z" fill="#0072BC"/>
<path d="M167.062 2.19727H172.443V15.3179H180.833V19.6051H167.062V2.19727Z" fill="#0072BC"/>
<path d="M49.4718 37.7787V31.6787H48.5913V30.6602H51.578V31.6787H50.7033V37.7787H51.578V38.803H48.5913V37.7787H49.4718Z" fill="#020202"/>
<path d="M53.2699 37.7787V31.6787H52.1074V30.6602H54.8812L58.4491 36.9845V31.6787H57.2924V30.6602H60.6358V31.6787H59.4331V38.8836H58.1728L54.2712 31.9377V37.7787H55.4336V38.803H52.1074V37.7787H53.2699Z" fill="#020202"/>
<path d="M64.4568 38.8836L61.7234 31.6787H60.7163V30.6602H63.9274V31.6787H62.9894L65.0611 37.1457L67.0752 31.6787H66.1257V30.6602H69.2505V31.6787H68.2607L65.5848 38.8836H64.4568Z" fill="#020202"/>
<path d="M70.6835 37.7787V31.6787H69.6304V30.6602H76.3921V33.1116H75.385V31.6787H71.915V34.1014H74.9304V35.12H71.915V37.7787H75.385V36.2997H76.3921V38.803H69.6304V37.7787H70.6835Z" fill="#020202"/>
<path d="M77.2784 38.8041V35.8462H78.2912V36.5656C78.4526 36.9454 78.7182 37.2718 79.0573 37.507C79.3964 37.7423 79.7952 37.8767 80.2075 37.8949C80.5794 37.9039 80.9411 37.7724 81.2203 37.5266C81.3564 37.4063 81.4638 37.2569 81.5345 37.0896C81.6052 36.9223 81.6375 36.7413 81.6289 36.5598C81.6452 36.4046 81.6239 36.2478 81.5668 36.1025C81.5097 35.9573 81.4185 35.828 81.3009 35.7254C80.9023 35.4862 80.4666 35.3151 80.0118 35.219C79.4585 35.0761 78.9192 34.8835 78.4005 34.6435C78.0566 34.4771 77.7643 34.2206 77.5546 33.9012C77.3402 33.5564 77.2321 33.1561 77.2439 32.7502C77.2316 32.4443 77.2866 32.1394 77.4049 31.8571C77.5232 31.5747 77.702 31.3217 77.9287 31.1159C78.4047 30.6988 79.0227 30.4804 79.6551 30.5059C80.3145 30.5104 80.9539 30.733 81.4735 31.1389V30.598H82.4576V33.061H81.4678V32.4855C81.2857 32.1932 81.0309 31.9531 80.7283 31.7887C80.4257 31.6243 80.0857 31.5412 79.7414 31.5475C79.3746 31.5248 79.0117 31.6329 78.717 31.8525C78.6067 31.9412 78.5175 32.0532 78.4558 32.1806C78.3941 32.308 78.3614 32.4476 78.3603 32.5891C78.3592 32.7947 78.4215 32.9956 78.5387 33.1646C78.6587 33.3274 78.8223 33.453 79.0105 33.5271C79.3692 33.661 79.7364 33.7706 80.1097 33.8551C80.6453 33.9812 81.1675 34.1585 81.6692 34.3845C82.0216 34.5657 82.3136 34.8456 82.5094 35.1902C82.7477 35.5836 82.8695 36.0366 82.8604 36.4965C82.8695 36.8198 82.8089 37.1414 82.6828 37.4392C82.5567 37.7371 82.368 38.0044 82.1296 38.2229C81.6347 38.677 80.9825 38.9206 80.3111 38.902C79.5657 38.902 78.8487 38.6157 78.3085 38.102V38.7811L77.2784 38.8041Z" fill="#020202"/>
<path d="M86.1405 37.7787V31.6787H84.4544V33.7619H83.4531V30.6602H90.0422V33.7619H89.0409V31.6787H87.3605V37.7787H88.4194V38.803H85.0932V37.7787H86.1405Z" fill="#020202"/>
<path d="M91.5271 37.7787V31.6787H90.5488V30.6602H93.3341L95.4748 36.2364L97.6386 30.6602H100.447V31.6787H99.4685V37.7787H100.447V38.803H97.3854V37.7787H98.3579V31.6787L95.5496 38.8836H95.3137L92.5342 31.6787V37.7787H93.4262V38.803H90.5488V37.7787H91.5271Z" fill="#020202"/>
<path d="M102.202 37.7787V31.6787H101.149V30.6602H107.905V33.1116H106.898V31.6787H103.428V34.1014H106.449V35.12H103.428V37.7787H106.898V36.2997H107.905V38.803H101.149V37.7787H102.202Z" fill="#020202"/>
<path d="M109.614 37.7787V31.6787H108.446V30.6602H111.225L114.793 36.9845V31.6787H113.637V30.6602H116.974V31.6787H115.777V38.8836H114.523L110.615 31.9377V37.7787H111.778V38.803H108.446V37.7787H109.614Z" fill="#020202"/>
<path d="M119.909 37.7787V31.6787H118.234V33.7619H117.222V30.6602H123.811V33.7619H122.809V31.6787H121.141V37.7787H122.199V38.803H118.868V37.7787H119.909Z" fill="#020202"/>
<path d="M124.467 38.8036V35.8457H125.479V36.565C125.64 36.9444 125.904 37.2706 126.242 37.5058C126.581 37.7411 126.978 37.8758 127.39 37.8943C127.763 37.9031 128.127 37.7717 128.408 37.526C128.545 37.406 128.653 37.2569 128.725 37.0896C128.797 36.9223 128.83 36.7411 128.823 36.5592C128.838 36.4036 128.815 36.2466 128.757 36.1014C128.699 35.9563 128.607 35.8271 128.489 35.7248C128.094 35.4863 127.662 35.3151 127.211 35.2184C126.654 35.077 126.111 34.8844 125.589 34.6429C125.245 34.4779 124.955 34.221 124.749 33.9006C124.531 33.5569 124.423 33.1558 124.438 32.7497C124.424 32.4446 124.477 32.1402 124.593 31.8578C124.709 31.5754 124.886 31.322 125.111 31.1153C125.589 30.7018 126.206 30.4839 126.837 30.5053C127.495 30.508 128.134 30.7309 128.65 31.1384V30.5974H129.64V33.0604H128.65V32.485C128.469 32.1915 128.215 31.9504 127.912 31.7859C127.609 31.6213 127.268 31.5389 126.924 31.5469C126.557 31.5243 126.194 31.6323 125.899 31.8519C125.79 31.9409 125.701 32.0532 125.641 32.1806C125.58 32.308 125.548 32.4474 125.548 32.5885C125.547 32.7941 125.61 32.995 125.727 33.164C125.843 33.3277 126.005 33.4538 126.193 33.5265C126.551 33.6613 126.919 33.7709 127.292 33.8546C127.827 33.9816 128.35 34.1589 128.852 34.384C129.205 34.5634 129.498 34.8438 129.692 35.1896C129.932 35.5824 130.056 36.0355 130.049 36.4959C130.058 36.8198 129.997 37.1418 129.869 37.4398C129.742 37.7379 129.552 38.0048 129.312 38.2223C128.817 38.6764 128.165 38.92 127.493 38.9014C126.749 38.8991 126.032 38.6131 125.491 38.1015V38.7805L124.467 38.8036Z" fill="#020202"/>
<path d="M134.773 37.7787V31.6787H133.714V30.6602H137.046V31.6787H136.045V37.7787H138.531V35.0107H139.682V38.803H133.714V37.7787H134.773Z" fill="#020202"/>
<path d="M141.126 37.7787V31.6787H140.251V30.6602H143.232V31.6787H142.358V37.7787H143.232V38.803H140.251V37.7787H141.126Z" fill="#020202"/>
<path d="M144.97 37.7787V31.6787H143.992V30.6602H146.783L148.918 36.2364L151.076 30.6602H153.896V31.6787H152.912V37.7787H153.896V38.803H150.829V37.7787H151.801V31.6787L148.993 38.8836H148.751L145.978 31.6787V37.7787H146.87V38.803H143.992V37.7787H144.97Z" fill="#020202"/>
<path d="M155.525 37.7787V31.6787H154.65V30.6602H157.625V31.6787H156.75V37.7787H157.625V38.803H154.65V37.7787H155.525Z" fill="#050606"/>
<path d="M160.922 37.7787V31.6787H159.242V33.7619H158.235V30.6602H164.83V33.7619H163.823V31.6787H162.148V37.7787H163.207V38.803H159.881V37.7787H160.922Z" fill="#020202"/>
<path d="M166.429 37.7787V31.6787H165.371V30.6602H172.132V33.1116H171.131V31.6787H167.649V34.1014H170.676V35.12H167.649V37.7787H171.131V36.2997H172.132V38.803H165.371V37.7787H166.429Z" fill="#020202"/>
<path d="M175.107 37.7793H175.752C176.33 37.7917 176.909 37.7474 177.478 37.647C177.861 37.5733 178.222 37.4161 178.537 37.1866C178.854 36.9286 179.096 36.5909 179.239 36.2083C179.427 35.7162 179.517 35.1924 179.504 34.666C179.522 34.0391 179.371 33.4189 179.067 32.8706C178.82 32.4152 178.408 32.0714 177.916 31.9096C177.226 31.7241 176.512 31.6445 175.798 31.6736H175.107V37.7793ZM173.882 37.7793V31.6736H172.777V30.6608H175.925C176.597 30.6463 177.269 30.6925 177.933 30.7989C178.424 30.9013 178.887 31.1073 179.291 31.4032C179.751 31.7394 180.116 32.1896 180.35 32.7095C180.621 33.2971 180.754 33.9386 180.741 34.5855C180.759 35.3037 180.632 36.0182 180.367 36.6859C180.166 37.2132 179.821 37.6736 179.372 38.0153C178.929 38.3167 178.43 38.5243 177.904 38.6252C177.19 38.7547 176.466 38.8144 175.74 38.8036H172.777V37.7793H173.882Z" fill="#020202"/>
<path d="M41.2311 0.494141H1.23047V40.5063H41.2311V0.494141Z" stroke="white" stroke-width="1.38"/>
</g>
<defs>
<clipPath id="clip0_1565_2803">
<rect width="180" height="40.8063" fill="white" transform="translate(0.833496 0.0976562)"/>
</clipPath>
</defs>
</svg>
