<svg width="22" height="37" viewBox="0 0 22 37" fill="none" xmlns="http://www.w3.org/2000/svg">
<g clip-path="url(#clip0_3174_9534)">
<path d="M15.9277 0.398438H5.15988C5.07148 0.398438 4.99916 0.470759 4.99916 0.559152V1.68415C4.99916 1.77254 5.07148 1.84487 5.15988 1.84487H15.1242V15.6663C15.1242 15.7547 15.1965 15.827 15.2849 15.827H16.4099C16.4983 15.827 16.5706 15.7547 16.5706 15.6663V1.04129C16.5706 0.685714 16.2833 0.398438 15.9277 0.398438ZM13.3563 2.96987H3.07059C2.71501 2.96987 2.42773 3.25714 2.42773 3.61272V14.2741C2.42773 14.4449 2.49604 14.6076 2.61657 14.7281L6.09805 18.2096C6.14224 18.2538 6.19247 18.29 6.24671 18.3201V18.3583H6.33108C6.4014 18.3844 6.47573 18.3984 6.55206 18.3984H13.3563C13.7119 18.3984 13.9992 18.1112 13.9992 17.7556V3.61272C13.9992 3.25714 13.7119 2.96987 13.3563 2.96987ZM6.2447 16.3132L4.51501 14.5815H6.2447V16.3132ZM12.5527 16.952H7.53041V14.0993C7.53041 13.6554 7.17081 13.2958 6.72684 13.2958H3.87416V4.41629H12.5527V16.952Z" fill="#2C7C7A"/>
</g>
<path d="M6.18588 27.4518H5.09815C5.06713 27.2734 5.00993 27.1154 4.92656 26.9777C4.84318 26.8381 4.73945 26.7198 4.61536 26.6229C4.49127 26.5259 4.34973 26.4532 4.19074 26.4047C4.03368 26.3543 3.86403 26.3291 3.68177 26.3291C3.35797 26.3291 3.07101 26.4106 2.82089 26.5734C2.57077 26.7344 2.37494 26.9709 2.23339 27.2831C2.09185 27.5933 2.02108 27.9724 2.02108 28.4203C2.02108 28.8759 2.09185 29.2598 2.23339 29.572C2.37687 29.8822 2.57271 30.1168 2.82089 30.2758C3.07101 30.4329 3.357 30.5114 3.67886 30.5114C3.85724 30.5114 4.02399 30.4881 4.1791 30.4416C4.33615 30.3931 4.47673 30.3223 4.60082 30.2293C4.72685 30.1362 4.83252 30.0218 4.91783 29.8861C5.00508 29.7504 5.06519 29.5952 5.09815 29.4207L6.18588 29.4266C6.14517 29.7096 6.05695 29.9753 5.92122 30.2235C5.78744 30.4716 5.61196 30.6907 5.3948 30.8807C5.17765 31.0688 4.92365 31.2162 4.63281 31.3228C4.34197 31.4275 4.01914 31.4799 3.66432 31.4799C3.14081 31.4799 2.67353 31.3587 2.26248 31.1163C1.85143 30.874 1.52763 30.524 1.29108 30.0664C1.05453 29.6088 0.936257 29.0601 0.936257 28.4203C0.936257 27.7785 1.0555 27.2298 1.29399 26.7741C1.53248 26.3165 1.85724 25.9666 2.2683 25.7242C2.67935 25.4818 3.14469 25.3606 3.66432 25.3606C3.99587 25.3606 4.30416 25.4072 4.58918 25.5002C4.8742 25.5933 5.1282 25.73 5.35118 25.9103C5.57415 26.0887 5.75738 26.3078 5.90086 26.5676C6.04628 26.8255 6.14129 27.1202 6.18588 27.4518ZM9.07609 31.4857C8.63983 31.4857 8.26174 31.3897 7.94182 31.1978C7.6219 31.0058 7.37372 30.7373 7.19727 30.3921C7.02277 30.047 6.93552 29.6437 6.93552 29.1823C6.93552 28.7208 7.02277 28.3165 7.19727 27.9695C7.37372 27.6224 7.6219 27.3529 7.94182 27.1609C8.26174 26.969 8.63983 26.873 9.07609 26.873C9.51234 26.873 9.89043 26.969 10.2104 27.1609C10.5303 27.3529 10.7775 27.6224 10.952 27.9695C11.1284 28.3165 11.2167 28.7208 11.2167 29.1823C11.2167 29.6437 11.1284 30.047 10.952 30.3921C10.7775 30.7373 10.5303 31.0058 10.2104 31.1978C9.89043 31.3897 9.51234 31.4857 9.07609 31.4857ZM9.0819 30.6423C9.31845 30.6423 9.51622 30.5773 9.67521 30.4474C9.83421 30.3156 9.95248 30.1391 10.03 29.9181C10.1095 29.697 10.1493 29.4508 10.1493 29.1793C10.1493 28.906 10.1095 28.6587 10.03 28.4377C9.95248 28.2147 9.83421 28.0373 9.67521 27.9055C9.51622 27.7736 9.31845 27.7077 9.0819 27.7077C8.83954 27.7077 8.63789 27.7736 8.47696 27.9055C8.31797 28.0373 8.19873 28.2147 8.11923 28.4377C8.04167 28.6587 8.00289 28.906 8.00289 29.1793C8.00289 29.4508 8.04167 29.697 8.11923 29.9181C8.19873 30.1391 8.31797 30.3156 8.47696 30.4474C8.63789 30.5773 8.83954 30.6423 9.0819 30.6423ZM12.1103 33.0737V26.9312H13.1456V27.6699H13.2067C13.261 27.5613 13.3376 27.4459 13.4365 27.3238C13.5354 27.1997 13.6691 27.094 13.8378 27.0068C14.0065 26.9176 14.2217 26.873 14.4835 26.873C14.8286 26.873 15.1398 26.9612 15.4171 27.1377C15.6963 27.3122 15.9173 27.571 16.0802 27.9142C16.245 28.2554 16.3274 28.6743 16.3274 29.1706C16.3274 29.6612 16.2469 30.078 16.086 30.4212C15.9251 30.7644 15.706 31.0262 15.4287 31.2065C15.1515 31.3868 14.8373 31.477 14.4864 31.477C14.2305 31.477 14.0182 31.4343 13.8495 31.349C13.6808 31.2637 13.5451 31.1609 13.4423 31.0407C13.3415 30.9186 13.2629 30.8032 13.2067 30.6946H13.1631V33.0737H12.1103ZM13.1427 29.1648C13.1427 29.4537 13.1834 29.7067 13.2649 29.9239C13.3483 30.141 13.4675 30.3107 13.6226 30.4329C13.7797 30.5531 13.9697 30.6132 14.1927 30.6132C14.4253 30.6132 14.6202 30.5511 14.7772 30.427C14.9343 30.301 15.0526 30.1294 15.1321 29.9123C15.2135 29.6932 15.2542 29.444 15.2542 29.1648C15.2542 28.8875 15.2145 28.6413 15.135 28.4261C15.0555 28.2109 14.9372 28.0422 14.7801 27.92C14.6231 27.7979 14.4273 27.7368 14.1927 27.7368C13.9677 27.7368 13.7768 27.7959 13.6197 27.9142C13.4627 28.0325 13.3434 28.1982 13.262 28.4115C13.1825 28.6248 13.1427 28.8759 13.1427 29.1648ZM17.7314 33.0737C17.5879 33.0737 17.4551 33.062 17.333 33.0388C17.2128 33.0174 17.1168 32.9922 17.045 32.9631L17.2894 32.143C17.4425 32.1876 17.5792 32.2089 17.6994 32.207C17.8196 32.205 17.9253 32.1672 18.0164 32.0935C18.1095 32.0218 18.188 31.9016 18.252 31.7329L18.3422 31.4915L16.7222 26.9312H17.839L18.8686 30.3049H18.9151L19.9476 26.9312H21.0673L19.2787 31.9394C19.1953 32.1759 19.0848 32.3786 18.9471 32.5472C18.8095 32.7179 18.6408 32.8478 18.4411 32.937C18.2433 33.0281 18.0068 33.0737 17.7314 33.0737Z" fill="#2C7C7A"/>
<defs>
<clipPath id="clip0_3174_9534">
<rect width="18" height="18" fill="white" transform="translate(0.5 0.398438)"/>
</clipPath>
</defs>
</svg>
