<svg width="39" height="39" viewBox="0 0 39 39" fill="none" xmlns="http://www.w3.org/2000/svg">
<path d="M20.45 4.2998C20.198 4.2998 19.9564 4.39989 19.7782 4.57805C19.6001 4.75621 19.5 4.99785 19.5 5.2498V10.1898C19.5 12.8061 21.2613 15.0082 23.661 15.6808C23.243 20.8868 21.7382 24.7723 20.5051 27.1682C20.8547 27.5786 21.1834 27.8845 21.4399 28.0992C22.426 28.9238 23.3 30.2671 23.3 31.9429C23.3013 32.935 22.9843 33.9013 22.3956 34.6998H32.8C33.5559 34.6998 34.2808 34.3995 34.8153 33.8651C35.3497 33.3306 35.65 32.6057 35.65 31.8498V31.2665C35.65 30.6053 35.4239 29.9954 35.0762 29.4957C34.0502 28.0194 31.1451 23.2447 30.5371 15.6789C31.7347 15.3432 32.7897 14.6251 33.5413 13.6341C34.2928 12.6431 34.6997 11.4336 34.7 10.1898V5.2498C34.7 4.99785 34.5999 4.75621 34.4218 4.57805C34.2436 4.39989 34.002 4.2998 33.75 4.2998H32.325C31.9471 4.2998 31.5846 4.44994 31.3174 4.71718C31.0501 4.98442 30.9 5.34687 30.9 5.7248V7.1498C30.9003 7.27456 30.8759 7.39814 30.8284 7.5135C30.7809 7.62885 30.7111 7.73372 30.6231 7.82211C30.4453 8.00063 30.2039 8.1012 29.9519 8.1017C29.6999 8.10221 29.4581 8.0026 29.2796 7.8248C29.1011 7.647 29.0005 7.40556 29 7.1536V7.1498L28.9924 5.7172C28.9904 5.34059 28.8394 4.98008 28.5723 4.71449C28.3053 4.44889 27.944 4.2998 27.5674 4.2998H26.6326C26.256 4.2998 25.8947 4.44889 25.6277 4.71449C25.3606 4.98008 25.2096 5.34059 25.2076 5.7172L25.2 7.1536C25.1995 7.40556 25.0989 7.647 24.9204 7.8248C24.7419 8.0026 24.5001 8.10221 24.2481 8.1017C23.9961 8.1012 23.7547 8.00063 23.5769 7.82211C23.3991 7.6436 23.2995 7.40176 23.3 7.1498V5.7248C23.3 5.34687 23.1499 4.98442 22.8826 4.71718C22.6154 4.44994 22.2529 4.2998 21.875 4.2998H20.45ZM12.85 9.9998C11.7497 9.99983 10.6729 10.3183 9.74957 10.9169C8.82627 11.5154 8.09594 12.3684 7.64674 13.3728C7.19754 14.3773 7.04868 15.4903 7.21812 16.5775C7.38755 17.6647 7.86805 18.6797 8.6016 19.4998H8.1C7.59609 19.4998 7.11282 19.7 6.7565 20.0563C6.40018 20.4126 6.2 20.8959 6.2 21.3998C6.2 21.9037 6.40018 22.387 6.7565 22.7433C7.11282 23.0996 7.59609 23.2998 8.1 23.2998H9.088C8.3812 26.716 6.5173 28.6882 5.478 29.5565C4.8206 30.1075 4.3 30.9549 4.3 31.9429C4.3 33.4648 5.535 34.6998 7.0569 34.6998H18.645C20.165 34.6998 21.4 33.4648 21.4 31.9429C21.4 30.9549 20.8794 30.1075 20.222 29.5565C19.1827 28.6882 17.3188 26.716 16.612 23.2998H17.6C18.1039 23.2998 18.5872 23.0996 18.9435 22.7433C19.2998 22.387 19.5 21.9037 19.5 21.3998C19.5 20.8959 19.2998 20.4126 18.9435 20.0563C18.5872 19.7 18.1039 19.4998 17.6 19.4998H17.0984C17.832 18.6797 18.3125 17.6647 18.4819 16.5775C18.6513 15.4903 18.5025 14.3773 18.0533 13.3728C17.6041 12.3684 16.8737 11.5154 15.9504 10.9169C15.0271 10.3183 13.9503 9.99983 12.85 9.9998Z" fill="#1E1E24"/>
</svg>
