<svg width="25" height="24" viewBox="0 0 25 24" fill="none" xmlns="http://www.w3.org/2000/svg">
<path d="M22.3576 3.21763H17.8576V1.50335C17.8576 1.38549 17.7611 1.28906 17.6433 1.28906H16.1433C16.0254 1.28906 15.929 1.38549 15.929 1.50335V3.21763H9.07185V1.50335C9.07185 1.38549 8.97542 1.28906 8.85756 1.28906H7.35756C7.2397 1.28906 7.14328 1.38549 7.14328 1.50335V3.21763H2.64328C2.16917 3.21763 1.78613 3.60067 1.78613 4.07478V21.8605C1.78613 22.3346 2.16917 22.7176 2.64328 22.7176H22.3576C22.8317 22.7176 23.2147 22.3346 23.2147 21.8605V4.07478C23.2147 3.60067 22.8317 3.21763 22.3576 3.21763ZM21.2861 20.7891H3.7147V10.6105H21.2861V20.7891ZM3.7147 8.78906V5.14621H7.14328V6.43192C7.14328 6.54978 7.2397 6.64621 7.35756 6.64621H8.85756C8.97542 6.64621 9.07185 6.54978 9.07185 6.43192V5.14621H15.929V6.43192C15.929 6.54978 16.0254 6.64621 16.1433 6.64621H17.6433C17.7611 6.64621 17.8576 6.54978 17.8576 6.43192V5.14621H21.2861V8.78906H3.7147Z" fill="#1E1E24"/>
</svg>
