<svg width="30" height="30" viewBox="0 0 30 30" fill="none" xmlns="http://www.w3.org/2000/svg">
<g clip-path="url(#clip0_1710_9087)">
<path d="M12 3.825V6.4375C9.0875 7.475 7 10.2375 7 13.5C7 15.7125 7.975 17.675 9.5 19.05V16H12V23.5H4.5V21H7.9125C5.825 19.175 4.5 16.5 4.5 13.5C4.5 8.8375 7.6875 4.9375 12 3.825ZM24.5 3.5H17V11H19.5V7.95C21.025 9.325 22 11.2875 22 13.5H24.5C24.5 10.5 23.175 7.825 21.0875 6H24.5V3.5ZM24.5 19.75V18.5C24.5 17.125 23.375 16 22 16C20.625 16 19.5 17.125 19.5 18.5V19.75C18.8125 19.75 18.25 20.3125 18.25 21V24.75C18.25 25.4375 18.8125 26 19.5 26H24.5C25.1875 26 25.75 25.4375 25.75 24.75V21C25.75 20.3125 25.1875 19.75 24.5 19.75ZM23.25 19.75H20.75V18.5C20.75 17.8125 21.3125 17.25 22 17.25C22.6875 17.25 23.25 17.8125 23.25 18.5V19.75Z" fill="white"/>
</g>
<defs>
<clipPath id="clip0_1710_9087">
<rect width="30" height="30" fill="white"/>
</clipPath>
</defs>
</svg>
