<svg width="24" height="22" viewBox="0 0 24 22" fill="none" xmlns="http://www.w3.org/2000/svg">
<path fill-rule="evenodd" clip-rule="evenodd" d="M22.4985 1.55235C22.6615 1.37736 22.7503 1.14592 22.7461 0.906786C22.7418 0.667648 22.645 0.439483 22.4759 0.270361C22.3067 0.101239 22.0786 0.00436312 21.8394 0.000143811C21.6003 -0.0040755 21.3688 0.0846908 21.1939 0.247742L1.50172 19.9399C1.41102 20.0244 1.33828 20.1263 1.28783 20.2395C1.23738 20.3528 1.21025 20.475 1.20807 20.5989C1.20588 20.7229 1.22868 20.846 1.2751 20.9609C1.32153 21.0759 1.39063 21.1803 1.47828 21.2679C1.56594 21.3556 1.67035 21.4247 1.78529 21.4711C1.90022 21.5175 2.02334 21.5403 2.14728 21.5381C2.27122 21.536 2.39345 21.5088 2.50668 21.4584C2.61991 21.4079 2.72181 21.3352 2.80632 21.2445L6.31029 17.7405C7.99274 18.5331 9.92873 19.0537 12.0001 19.0537C15.3035 19.0537 18.2647 17.7282 20.3939 16.0938C21.4609 15.2753 22.3422 14.3621 22.9649 13.4649C23.5705 12.5923 24 11.636 24 10.7461C24 9.85628 23.5692 8.89998 22.9649 8.02737C22.3422 7.13015 21.4609 6.21816 20.3951 5.39847C20.0714 5.15109 19.7305 4.90986 19.3711 4.68094L22.4985 1.55235ZM18.0308 6.02123L15.8511 8.20091C16.4388 9.08845 16.7016 10.1518 16.595 11.2109C16.4885 12.27 16.0191 13.2598 15.2664 14.0124C14.5137 14.7651 13.524 15.2345 12.4649 15.3411C11.4058 15.4476 10.3424 15.1848 9.45488 14.5972L7.7109 16.3399C9.07107 16.9038 10.5277 17.1985 12.0001 17.2076C14.8148 17.2076 17.3908 16.0716 19.2702 14.6292C20.208 13.9092 20.9489 13.1301 21.4486 12.4126C21.9643 11.6692 22.1539 11.087 22.1539 10.7461C22.1539 10.4052 21.9643 9.82305 21.4486 9.07967C20.9489 8.36214 20.208 7.58307 19.2702 6.86307C18.885 6.56769 18.4714 6.28462 18.0308 6.02123ZM10.8063 13.2458C11.323 13.4926 11.9036 13.5731 12.468 13.4763C13.0324 13.3794 13.5529 13.11 13.9578 12.7051C14.3627 12.3001 14.6322 11.7796 14.729 11.2152C14.8259 10.6508 14.7453 10.0703 14.4985 9.55351L10.8063 13.2458Z" fill="#1E1E24"/>
<path d="M11.9999 2.43848C13.27 2.43848 14.491 2.6354 15.6319 2.96894C15.6818 2.98384 15.727 3.01155 15.763 3.0493C15.7989 3.08705 15.8244 3.13355 15.8368 3.18417C15.8492 3.23479 15.8482 3.28779 15.8339 3.3379C15.8195 3.38801 15.7923 3.4335 15.755 3.46986L14.7408 4.48524C14.7032 4.52259 14.6567 4.54976 14.6056 4.56419C14.5546 4.57861 14.5007 4.57982 14.4491 4.5677C13.646 4.38118 12.8244 4.28621 11.9999 4.28462C9.18516 4.28462 6.60918 5.42061 4.72981 6.86306C3.79197 7.58306 3.05105 8.36213 2.55136 9.07966C2.03568 9.82304 1.84614 10.4052 1.84614 10.7461C1.84614 11.087 2.03568 11.6692 2.55136 12.4126C2.98705 13.0402 3.60736 13.7135 4.38273 14.3535C4.5255 14.4704 4.53904 14.6858 4.40735 14.8175L3.53597 15.6901C3.4826 15.7442 3.41083 15.7763 3.3349 15.7799C3.25897 15.7836 3.18444 15.7585 3.12613 15.7098C2.33373 15.0563 1.63069 14.3016 1.03507 13.4649C0.430766 12.5922 0 11.6359 0 10.7461C0 9.85627 0.430766 8.89997 1.03507 8.02736C1.65783 7.13014 2.53906 6.21815 3.60489 5.39846C5.73534 3.76401 8.69655 2.43848 11.9999 2.43848Z" fill="#1E1E24"/>
<path d="M12.0001 6.13076C12.1453 6.13076 12.2905 6.13691 12.4321 6.15045C12.6745 6.17384 12.7619 6.46307 12.5908 6.63537L11.0979 8.12705C10.7004 8.26449 10.3393 8.49046 10.0419 8.78789C9.74443 9.08531 9.51846 9.44643 9.38102 9.84396L7.88934 11.3369C7.71703 11.5092 7.4278 11.4206 7.40442 11.1781C7.34427 10.5384 7.41838 9.8931 7.62199 9.28365C7.8256 8.67419 8.15423 8.11397 8.58683 7.63884C9.01944 7.16371 9.54649 6.78416 10.1342 6.52447C10.722 6.26478 11.3575 6.13068 12.0001 6.13076Z" fill="#1E1E24"/>
</svg>
