<svg width="222" height="88" viewBox="0 0 222 88" fill="none" xmlns="http://www.w3.org/2000/svg">
<path d="M67.7477 32.6832C67.3641 33.3316 66.8345 33.829 66.159 34.1759C65.4833 34.5228 64.7255 34.6962 63.8858 34.6962C62.8902 34.6962 62.0364 34.5046 61.3241 34.121C60.6119 33.7375 60.0663 33.1876 59.6874 32.471C59.3085 31.7541 59.1191 30.8979 59.1191 29.9024C59.1191 28.8707 59.3291 27.9668 59.7493 27.191C60.1693 26.4149 60.7536 25.8076 61.5022 25.3693C62.251 24.9308 63.1186 24.7114 64.1049 24.7114C64.9446 24.7114 65.6637 24.8714 66.2619 25.1913C66.8599 25.5108 67.3599 25.9947 67.7615 26.6429L66.392 27.6292C66.1452 27.1725 65.8211 26.8392 65.4195 26.6291C65.0179 26.4191 64.5751 26.314 64.091 26.314C63.4701 26.314 62.9222 26.4647 62.4474 26.7661C61.9725 27.0676 61.6005 27.4853 61.331 28.0195C61.0616 28.5536 60.9269 29.1722 60.9269 29.8752C60.9269 30.889 61.1894 31.6788 61.7143 32.245C62.2396 32.8108 62.9725 33.0937 63.913 33.0937C64.4333 33.0937 64.9125 32.975 65.3507 32.7375C65.7893 32.5002 66.1454 32.1396 66.4191 31.6559L67.7477 32.6832Z" fill="#232323"/>
<path d="M74.3484 34.6962C73.3622 34.7055 72.5175 34.5208 71.8145 34.1418C71.1115 33.763 70.5727 33.2128 70.1981 32.4913C69.8237 31.7698 69.6367 30.9024 69.6367 29.8891C69.6367 28.8755 69.8375 27.9784 70.2391 27.1979C70.6411 26.4172 71.2095 25.8076 71.9446 25.3693C72.6795 24.9308 73.5492 24.7114 74.5537 24.7114C75.4486 24.7114 76.2338 24.9125 76.9095 25.3144C77.5851 25.7161 78.11 26.2753 78.4843 26.9921C78.859 27.709 79.0463 28.5513 79.0463 29.5191C79.0463 30.569 78.8429 31.4798 78.4364 32.2513C78.0301 33.023 77.4732 33.6235 76.7656 34.0528C76.058 34.4817 75.2522 34.6962 74.3484 34.6962ZM74.2935 33.0937C74.8689 33.0937 75.3781 32.9523 75.8209 32.6693C76.2638 32.3865 76.6106 31.9802 76.8615 31.4506C77.1127 30.9208 77.2385 30.2769 77.2385 29.5191C77.2385 28.5421 76.9918 27.7615 76.4985 27.1771C76.0055 26.5929 75.3435 26.3007 74.5126 26.3007C73.919 26.3007 73.3916 26.4514 72.9303 26.7528C72.4692 27.0538 72.1065 27.4691 71.8417 27.9986C71.5769 28.5282 71.4445 29.1491 71.4445 29.8614C71.4445 30.8932 71.6979 31.6898 72.2048 32.2513C72.7115 32.813 73.4078 33.0937 74.2935 33.0937Z" fill="#232323"/>
<path d="M82.0332 34.5733V24.8486H83.8138V33.0118H88.1423L88.0185 34.5733H82.0332Z" fill="#232323"/>
<path d="M96.9066 24.8486H98.6734L98.6867 30.0263C98.6959 30.9941 98.5384 31.8275 98.2143 32.5261C97.8901 33.2245 97.42 33.7609 96.8037 34.1351C96.1874 34.5094 95.4454 34.6964 94.5779 34.6964C93.19 34.6964 92.1466 34.3472 91.448 33.6489C90.7496 32.9502 90.4004 31.8841 90.4004 30.4507V24.8486H92.181V30.3136C92.181 31.2907 92.3795 31.9983 92.7765 32.4365C93.1738 32.8747 93.7652 33.0939 94.5508 33.0939C95.3451 33.0939 95.9407 32.8383 96.3377 32.3273C96.7351 31.8159 96.9292 31.0213 96.9199 29.9436L96.9066 24.8486Z" fill="#232323"/>
<path d="M101.961 34.5733L102.33 24.8486H103.878L107.439 32.3406L110.987 24.8486H112.534L112.835 34.5733H111.124L110.932 28.5197L108.042 34.5733H106.7L103.851 28.5608L103.605 34.5733H101.961Z" fill="#232323"/>
<path d="M116.178 34.5733V24.8486H119.411C120.643 24.8486 121.59 25.0747 122.252 25.5268C122.914 25.9789 123.245 26.6385 123.245 27.5057C123.245 27.9717 123.131 28.3918 122.902 28.766C122.674 29.1403 122.35 29.4324 121.931 29.6424C122.378 29.8159 122.734 30.0922 122.999 30.4715C123.264 30.8504 123.396 31.291 123.396 31.7931C123.396 32.6422 123.081 33.3179 122.451 33.82C121.821 34.3222 120.958 34.5733 119.862 34.5733H116.178ZM119.438 26.3009H117.917V28.9441H119.411C120.104 28.9441 120.62 28.837 120.958 28.6226C121.296 28.408 121.465 28.0633 121.465 27.5884C121.465 27.1499 121.303 26.8257 120.978 26.616C120.654 26.406 120.141 26.3009 119.438 26.3009ZM117.917 33.1216H119.821C120.378 33.1216 120.818 33.0122 121.143 32.7932C121.467 32.574 121.629 32.227 121.629 31.752C121.629 30.8663 121.013 30.4235 119.78 30.4235H117.917V33.1216Z" fill="#232323"/>
<path d="M126.217 34.5733V24.8486H127.997V34.5733H126.217Z" fill="#232323"/>
<path d="M130.23 34.5733L134.38 24.8486H135.887L139.873 34.5733H138.065L137.188 32.3544H132.942L132.038 34.5733H130.23ZM133.559 30.8617H136.613L135.106 27.0403L133.559 30.8617Z" fill="#232323"/>
<path d="M149.886 34.6962C148.744 34.6962 147.854 34.4407 147.215 33.9296C146.576 33.4183 146.21 32.6693 146.119 31.683L147.79 31.4368C147.954 32.6054 148.68 33.1896 149.968 33.1896C150.525 33.1896 150.958 33.0779 151.269 32.8543C151.579 32.6304 151.734 32.3177 151.734 31.916C151.734 31.5506 151.579 31.2746 151.269 31.0876C150.958 30.9003 150.461 30.7245 149.776 30.5603C149.137 30.4051 148.589 30.2201 148.132 30.0053C147.676 29.7907 147.327 29.5009 147.085 29.1358C146.843 28.7704 146.722 28.2864 146.722 27.6836C146.722 27.1086 146.87 26.5973 147.167 26.1498C147.463 25.7023 147.872 25.3508 148.392 25.0953C148.913 24.8395 149.516 24.7114 150.201 24.7114C151.104 24.7114 151.844 24.9489 152.42 25.4237C152.995 25.8986 153.333 26.5515 153.433 27.3824L151.871 27.6425C151.68 26.6929 151.096 26.218 150.119 26.218C149.644 26.218 149.258 26.3414 148.961 26.588C148.664 26.8347 148.516 27.1589 148.516 27.5604C148.516 27.9625 148.662 28.2708 148.954 28.4854C149.246 28.6998 149.744 28.8892 150.447 29.0537C151.077 29.1998 151.62 29.371 152.077 29.5671C152.533 29.7634 152.887 30.0351 153.138 30.3823C153.389 30.7291 153.515 31.2038 153.515 31.8062C153.515 32.3724 153.362 32.8725 153.056 33.3064C152.75 33.74 152.326 34.0802 151.782 34.3268C151.239 34.5731 150.607 34.6962 149.886 34.6962Z" fill="#232323"/>
<path d="M156.254 34.5733V24.8486H158.035V28.8759H162.636V24.8486H164.431V34.5733H162.636V30.4368H158.035V34.5733H156.254Z" fill="#232323"/>
<path d="M166.65 34.5733L170.8 24.8486H172.307L176.293 34.5733H174.485L173.608 32.3544H169.362L168.458 34.5733H166.65ZM169.979 30.8617H173.033L171.526 27.0403L169.979 30.8617Z" fill="#232323"/>
<path d="M186.262 32.8747L186.673 34.2582C186.49 34.3951 186.267 34.5022 186.002 34.5796C185.737 34.6574 185.459 34.6964 185.166 34.6964C184.143 34.6964 183.34 34.2446 182.756 33.3407L181.345 31.1768C181.199 30.9483 181.048 30.7886 180.893 30.6975C180.738 30.6062 180.569 30.5605 180.386 30.5605H180.318V34.5733H178.578V24.8486H181.605C182.838 24.8486 183.771 25.1045 184.406 25.6158C185.04 26.1273 185.358 26.8304 185.358 27.7254C185.358 28.2639 185.239 28.7271 185.002 29.1152C184.765 29.5034 184.44 29.8117 184.029 30.0402C183.618 30.2684 183.153 30.4142 182.633 30.4778C182.907 30.624 183.158 30.8707 183.386 31.2178L184.153 32.3544C184.354 32.6467 184.543 32.8476 184.721 32.9574C184.899 33.067 185.125 33.1216 185.399 33.1216C185.719 33.1216 186.006 33.0394 186.262 32.8747ZM181.482 26.3009H180.318V29.1632H181.4C182.148 29.1632 182.701 29.0491 183.057 28.8209C183.413 28.5929 183.591 28.2276 183.591 27.7254C183.591 26.7758 182.888 26.3009 181.482 26.3009Z" fill="#232323"/>
<path d="M194.796 26.383H190.277V28.8891H194.577V30.4235H190.277V33.0395H194.961L194.838 34.5733H188.537V24.8486H194.796V26.383Z" fill="#232323"/>
<path d="M200.671 34.6962C199.53 34.6962 198.639 34.4407 198 33.9296C197.361 33.4183 196.996 32.6693 196.904 31.683L198.575 31.4368C198.74 32.6054 199.466 33.1896 200.753 33.1896C201.31 33.1896 201.743 33.0779 202.054 32.8543C202.364 32.6304 202.52 32.3177 202.52 31.916C202.52 31.5506 202.364 31.2746 202.054 31.0876C201.743 30.9003 201.246 30.7245 200.562 30.5603C199.922 30.4051 199.374 30.2201 198.917 30.0053C198.461 29.7907 198.112 29.5009 197.87 29.1358C197.628 28.7704 197.507 28.2864 197.507 27.6836C197.507 27.1086 197.655 26.5973 197.952 26.1498C198.249 25.7023 198.657 25.3508 199.177 25.0953C199.698 24.8395 200.301 24.7114 200.986 24.7114C201.89 24.7114 202.629 24.9489 203.205 25.4237C203.78 25.8986 204.118 26.5515 204.218 27.3824L202.657 27.6425C202.465 26.6929 201.881 26.218 200.904 26.218C200.429 26.218 200.043 26.3414 199.746 26.588C199.449 26.8347 199.301 27.1589 199.301 27.5604C199.301 27.9625 199.447 28.2708 199.739 28.4854C200.032 28.6998 200.529 28.8892 201.232 29.0537C201.862 29.1998 202.405 29.371 202.862 29.5671C203.319 29.7634 203.672 30.0351 203.923 30.3823C204.175 30.7291 204.3 31.2038 204.3 31.8062C204.3 32.3724 204.147 32.8725 203.841 33.3064C203.536 33.74 203.111 34.0802 202.568 34.3268C202.024 34.5731 201.392 34.6962 200.671 34.6962Z" fill="#232323"/>
<path d="M62.8033 51.248C62.091 51.248 61.4632 51.127 60.9198 50.8849C60.3766 50.643 59.9498 50.3027 59.6392 49.8645C59.3289 49.4263 59.1738 48.9242 59.1738 48.3579C59.1738 47.6824 59.3358 47.1345 59.66 46.7143C59.9841 46.2943 60.37 45.9428 60.8174 45.6598C60.4886 45.3127 60.2512 44.9769 60.1052 44.6527C59.9591 44.3287 59.8861 43.9841 59.8861 43.619C59.8861 43.1623 60.0001 42.7559 60.2283 42.3998C60.4564 42.0437 60.7713 41.7653 61.173 41.5644C61.5749 41.3636 62.0363 41.2632 62.557 41.2632C63.2966 41.2632 63.8879 41.4504 64.3307 41.8245C64.7735 42.1989 64.995 42.701 64.995 43.3311C64.995 43.7968 64.9059 44.1803 64.7279 44.4816C64.5498 44.7831 64.3191 45.0341 64.0359 45.2349C63.7529 45.4358 63.4517 45.6185 63.1323 45.783L65.7754 48.4672C66.1041 47.9743 66.3186 47.3717 66.4189 46.6594H65.1592V45.2759H69.0488V46.6594H67.8162C67.7522 47.1982 67.6289 47.6983 67.4462 48.1596C67.2635 48.6207 67.0307 49.0336 66.7478 49.3986C66.9578 49.5632 67.1655 49.6798 67.3711 49.7483C67.5764 49.8165 67.7979 49.8506 68.0353 49.8506C68.3367 49.8506 68.6334 49.7686 68.9256 49.6044L69.3228 50.8092C68.8846 51.1199 68.3594 51.2705 67.7474 51.2613C66.9441 51.2431 66.2229 50.9784 65.5835 50.4669C65.1911 50.7225 64.762 50.9166 64.296 51.0491C63.8303 51.1816 63.3329 51.248 62.8033 51.248ZM61.4886 43.5641C61.4886 43.7558 61.5386 43.9428 61.639 44.1255C61.7395 44.3082 61.9358 44.5549 62.2281 44.8655C62.6023 44.6643 62.9195 44.4497 63.1797 44.2214C63.4401 43.9934 63.5705 43.7102 63.5705 43.3722C63.5705 43.0801 63.4768 42.8633 63.2895 42.7218C63.1022 42.5804 62.867 42.5096 62.5842 42.5096C62.2554 42.5096 61.9906 42.6033 61.7898 42.7906C61.5889 42.9776 61.4886 43.2355 61.4886 43.5641ZM60.8995 48.166C60.8995 48.6956 61.1003 49.1111 61.5019 49.4124C61.9039 49.7139 62.4381 49.8645 63.1045 49.8645C63.6614 49.8645 64.1636 49.7503 64.6111 49.5217L61.721 46.5773C61.4748 46.76 61.2762 46.9771 61.1256 47.2283C60.9748 47.4792 60.8995 47.7918 60.8995 48.166Z" fill="#232323"/>
<path d="M79.745 51.2612C78.6038 51.2612 77.7135 51.0056 77.0741 50.4946C76.4349 49.9832 76.0699 49.2343 75.9785 48.248L77.6493 48.0017C77.8138 49.1704 78.5398 49.7546 79.8271 49.7546C80.384 49.7546 80.8176 49.6428 81.1279 49.4193C81.4385 49.1954 81.5938 48.8826 81.5938 48.481C81.5938 48.1156 81.4385 47.8395 81.1279 47.6525C80.8176 47.4652 80.3202 47.2894 79.6357 47.1253C78.9963 46.97 78.4483 46.785 77.9915 46.5703C77.5351 46.3556 77.1859 46.0658 76.944 45.7008C76.7023 45.3354 76.5815 44.8513 76.5815 44.2485C76.5815 43.6736 76.7296 43.1622 77.0261 42.7147C77.3228 42.2673 77.7314 41.9158 78.2517 41.6602C78.7723 41.4044 79.3751 41.2764 80.0601 41.2764C80.9638 41.2764 81.7034 41.5138 82.2789 41.9886C82.8543 42.4635 83.1921 43.1164 83.2924 43.9473L81.7309 44.2075C81.5392 43.2579 80.955 42.783 79.978 42.783C79.5031 42.783 79.1173 42.9064 78.8206 43.153C78.5237 43.3997 78.3754 43.7239 78.3754 44.1254C78.3754 44.5275 78.5214 44.8357 78.8136 45.0504C79.1057 45.2647 79.6034 45.4542 80.3064 45.6187C80.9365 45.7648 81.4797 45.9359 81.9361 46.132C82.3928 46.3283 82.7466 46.6 82.9975 46.9472C83.2487 47.2941 83.3745 47.7687 83.3745 48.3711C83.3745 48.9374 83.2214 49.4375 82.9154 49.8714C82.6098 50.3049 82.1853 50.6452 81.6418 50.8917C81.0987 51.138 80.4665 51.2612 79.745 51.2612Z" fill="#232323"/>
<path d="M92.3726 42.9479H87.8529V45.4541H92.1535V46.9884H87.8529V49.6045H92.5374L92.4137 51.1382H86.1133V41.4136H92.3726V42.9479Z" fill="#232323"/>
<path d="M103.468 49.2481C103.085 49.8965 102.555 50.394 101.88 50.7409C101.204 51.0877 100.446 51.2612 99.6065 51.2612C98.611 51.2612 97.7571 51.0695 97.0448 50.6859C96.3326 50.3025 95.787 49.7525 95.4081 49.036C95.0292 48.3191 94.8398 47.4629 94.8398 46.4674C94.8398 45.4357 95.0498 44.5318 95.47 43.7559C95.89 42.9798 96.4743 42.3725 97.2229 41.9343C97.9717 41.4958 98.8393 41.2764 99.8256 41.2764C100.665 41.2764 101.384 41.4364 101.983 41.7562C102.581 42.0758 103.081 42.5597 103.482 43.2079L102.113 44.1942C101.866 43.7374 101.542 43.4042 101.14 43.194C100.739 42.984 100.296 42.8789 99.8117 42.8789C99.1908 42.8789 98.6429 43.0297 98.1681 43.331C97.6932 43.6325 97.3212 44.0502 97.0517 44.5844C96.7823 45.1186 96.6476 45.7372 96.6476 46.4402C96.6476 47.4539 96.9101 48.2438 97.435 48.8099C97.9603 49.3758 98.6932 49.6586 99.6337 49.6586C100.154 49.6586 100.633 49.5399 101.071 49.3025C101.51 49.0652 101.866 48.7046 102.14 48.2208L103.468 49.2481Z" fill="#232323"/>
<path d="M112.205 41.4136H113.972L113.985 46.5913C113.995 47.559 113.837 48.3924 113.513 49.0911C113.189 49.7895 112.719 50.3258 112.103 50.7C111.486 51.0743 110.744 51.2614 109.877 51.2614C108.489 51.2614 107.445 50.9122 106.747 50.2138C106.048 49.5151 105.699 48.4491 105.699 47.0156V41.4136H107.48V46.8786C107.48 47.8556 107.678 48.5632 108.075 49.0015C108.473 49.4397 109.064 49.6588 109.85 49.6588C110.644 49.6588 111.24 49.4033 111.637 48.8922C112.034 48.3808 112.228 47.5862 112.219 46.5086L112.205 41.4136Z" fill="#232323"/>
<path d="M124.998 49.4397L125.409 50.8231C125.227 50.96 125.003 51.0671 124.738 51.1446C124.473 51.2223 124.195 51.2614 123.903 51.2614C122.88 51.2614 122.076 50.8096 121.492 49.9057L120.081 47.7417C119.935 47.5132 119.784 47.3535 119.629 47.2625C119.474 47.1711 119.305 47.1255 119.123 47.1255H119.054V51.1382H117.314V41.4136H120.342C121.574 41.4136 122.507 41.6694 123.142 42.1807C123.777 42.6922 124.094 43.3954 124.094 44.2903C124.094 44.8288 123.975 45.2921 123.738 45.6801C123.501 46.0683 123.177 46.3766 122.766 46.6051C122.355 46.8334 121.889 46.9792 121.369 47.0428C121.643 47.1889 121.894 47.4356 122.122 47.7828L122.889 48.9194C123.09 49.2116 123.28 49.4125 123.458 49.5224C123.636 49.6319 123.862 49.6865 124.136 49.6865C124.455 49.6865 124.743 49.6043 124.998 49.4397ZM120.218 42.8658H119.054V45.7281H120.136C120.885 45.7281 121.437 45.6141 121.793 45.3859C122.149 45.1578 122.327 44.7926 122.327 44.2903C122.327 43.3408 121.624 42.8658 120.218 42.8658Z" fill="#232323"/>
<path d="M127.271 51.1382V41.4136H129.052V51.1382H127.271Z" fill="#232323"/>
<path d="M139.475 41.4136L139.256 42.9751H136.243V51.1382H134.462V42.9751H131.34V41.4136H139.475Z" fill="#232323"/>
<path d="M141.652 51.1382V41.4136H143.433V51.1382H141.652Z" fill="#232323"/>
<path d="M153.062 42.9479H148.542V45.4541H152.843V46.9884H148.542V49.6045H153.227L153.103 51.1382H146.803V41.4136H153.062V42.9479Z" fill="#232323"/>
<path d="M158.938 51.2612C157.797 51.2612 156.907 51.0056 156.267 50.4946C155.628 49.9832 155.263 49.2343 155.172 48.248L156.843 48.0017C157.007 49.1704 157.733 49.7546 159.02 49.7546C159.577 49.7546 160.011 49.6428 160.321 49.4193C160.632 49.1954 160.787 48.8826 160.787 48.481C160.787 48.1156 160.632 47.8395 160.321 47.6525C160.011 47.4652 159.514 47.2894 158.829 47.1253C158.19 46.97 157.642 46.785 157.185 46.5703C156.728 46.3556 156.379 46.0658 156.137 45.7008C155.896 45.3354 155.775 44.8513 155.775 44.2485C155.775 43.6736 155.923 43.1622 156.219 42.7147C156.516 42.2673 156.925 41.9158 157.445 41.6602C157.966 41.4044 158.569 41.2764 159.253 41.2764C160.157 41.2764 160.897 41.5138 161.472 41.9886C162.048 42.4635 162.385 43.1164 162.486 43.9473L160.924 44.2075C160.733 43.2579 160.148 42.783 159.171 42.783C158.696 42.783 158.311 42.9064 158.014 43.153C157.717 43.3997 157.569 43.7239 157.569 44.1254C157.569 44.5275 157.715 44.8357 158.007 45.0504C158.299 45.2647 158.797 45.4542 159.5 45.6187C160.13 45.7648 160.673 45.9359 161.129 46.132C161.586 46.3283 161.94 46.6 162.191 46.9472C162.442 47.2941 162.568 47.7687 162.568 48.3711C162.568 48.9374 162.415 49.4375 162.109 49.8714C161.803 50.3049 161.379 50.6452 160.835 50.8917C160.292 51.138 159.66 51.2612 158.938 51.2612Z" fill="#232323"/>
<path d="M170.006 51.1382V41.4136H171.786V49.5767H176.115L175.991 51.1382H170.006Z" fill="#232323"/>
<path d="M185.467 41.4136L185.248 42.9751H182.235V51.1382H180.454V42.9751H177.332V41.4136H185.467Z" fill="#232323"/>
<path d="M187.646 51.1382V41.4136H190.537C192.427 41.4136 193.856 41.82 194.823 42.6328C195.791 43.4454 196.276 44.6462 196.276 46.2351C196.276 47.2211 196.061 48.0817 195.632 48.817C195.203 49.5521 194.595 50.1227 193.81 50.5289C193.025 50.9351 192.103 51.1382 191.044 51.1382H187.646ZM189.427 49.5634H190.975C192.116 49.5634 192.984 49.2873 193.577 48.735C194.171 48.1823 194.468 47.3717 194.468 46.3034C194.468 45.1896 194.164 44.3588 193.557 43.8111C192.95 43.263 192.021 42.989 190.77 42.989H189.427V49.5634Z" fill="#232323"/>
<path d="M199.891 51.2615C199.535 51.2615 199.252 51.1519 199.042 50.9331C198.831 50.7138 198.727 50.4444 198.727 50.1249C198.727 49.8055 198.831 49.5362 199.042 49.3172C199.252 49.098 199.535 48.9883 199.891 48.9883C200.247 48.9883 200.53 49.098 200.74 49.3172C200.95 49.5362 201.055 49.8055 201.055 50.1249C201.055 50.4444 200.95 50.7138 200.74 50.9331C200.53 51.1519 200.247 51.2615 199.891 51.2615Z" fill="#232323"/>
<path d="M60.941 63.5345L62.8647 60.9575H61.927L60.6567 62.8026L59.9731 60.9575H59.0898L60.1123 63.5043L59.8217 65.1316H60.6567L60.941 63.5345Z" fill="#232323"/>
<path d="M67.1104 60.8726C65.6283 60.8726 64.7148 61.9795 64.7148 63.4072C64.7148 64.4175 65.3742 65.216 66.5721 65.216C68.0541 65.216 68.9675 64.1089 68.9675 62.6814C68.9675 61.6711 68.3082 60.8726 67.1104 60.8726ZM66.6386 64.5929C65.9731 64.5929 65.6041 64.103 65.6041 63.3891C65.6041 62.5361 66.0639 61.4956 67.0438 61.4956C67.7033 61.4956 68.0784 61.9856 68.0784 62.6994C68.0784 63.5525 67.6186 64.5929 66.6386 64.5929Z" fill="#232323"/>
<path d="M75.4345 60.9575H74.5997L74.1521 63.5164C74.1278 63.6374 74.1097 63.7282 74.0854 63.8188C73.9403 64.3875 73.6198 64.5932 73.0934 64.5932C72.6215 64.5932 72.325 64.3513 72.325 63.9278C72.325 63.7947 72.3372 63.6978 72.3735 63.4982L72.8212 60.9575H71.9864L71.569 63.3108C71.5145 63.6374 71.4902 63.8129 71.4902 64.0185C71.4902 64.7383 71.9864 65.2163 73.0208 65.2163C74.1823 65.2163 74.7087 64.696 74.9022 63.8854C74.9506 63.6978 74.9747 63.5708 75.011 63.3651L75.4345 60.9575Z" fill="#232323"/>
<path d="M81.2849 61.8951C81.2849 61.3204 80.8857 61.0483 80.3654 60.9877C80.1597 60.9636 80.0025 60.9575 79.7605 60.9575H78.236L77.498 65.1316H78.3329L78.6293 63.4498H79.1193C79.2282 63.4498 79.331 63.4498 79.44 63.4559C79.7423 63.48 79.8633 63.7221 79.8633 64.1092C79.8694 64.7142 79.8815 64.932 79.9178 65.1316H80.8192C80.7345 64.9561 80.6981 64.7081 80.6981 64.3875C80.6981 63.5829 80.5832 63.2502 80.2264 63.1292C80.8555 62.972 81.2849 62.5666 81.2849 61.8951ZM79.6637 62.8207C79.5609 62.8267 79.4641 62.8267 79.3189 62.8267H78.7381L78.9559 61.6108H79.5669C79.7121 61.6108 79.815 61.6169 79.9117 61.629C80.184 61.6592 80.3715 61.7863 80.3715 62.0948C80.3715 62.5787 80.0388 62.7844 79.6637 62.8207Z" fill="#232323"/>
<path d="M88.9731 60.8726C87.6423 60.8726 86.4746 61.8948 86.4746 63.5162C86.4746 64.5627 87.0555 65.216 88.0415 65.216C88.5012 65.216 88.8461 65.1072 89.1182 64.8772L89.3784 64.4598L89.3178 65.1313H89.9893L90.3644 63.0019H88.6828L88.5618 63.6552H89.4449C89.2635 64.242 88.8218 64.5929 88.2834 64.5929C87.739 64.5929 87.3761 64.1877 87.3761 63.4133C87.3761 62.2518 88.0475 61.4956 88.8521 61.4956C89.4025 61.4956 89.6748 61.7376 89.6809 62.3122V62.3728H90.5157L90.5218 62.3122C90.5822 61.4896 90.1044 60.8726 88.9731 60.8726Z" fill="#4EB689"/>
<path d="M96.7517 61.8951C96.7517 61.3204 96.3525 61.0483 95.8322 60.9877C95.6265 60.9636 95.4693 60.9575 95.2273 60.9575H93.7028L92.9648 65.1316H93.7997L94.0961 63.4498H94.5861C94.695 63.4498 94.7978 63.4498 94.9068 63.4559C95.2091 63.48 95.3301 63.7221 95.3301 64.1092C95.3362 64.7142 95.3483 64.932 95.3846 65.1316H96.286C96.2013 64.9561 96.1649 64.7081 96.1649 64.3875C96.1649 63.5829 96.05 63.2502 95.6932 63.1292C96.3223 62.972 96.7517 62.5666 96.7517 61.8951ZM95.1305 62.8207C95.0277 62.8267 94.9309 62.8267 94.7856 62.8267H94.2049L94.4227 61.6108H95.0337C95.1789 61.6108 95.2818 61.6169 95.3785 61.629C95.6508 61.6592 95.8383 61.7863 95.8383 62.0948C95.8383 62.5787 95.5056 62.7844 95.1305 62.8207Z" fill="#4EB689"/>
<path d="M101.411 60.8726C99.9291 60.8726 99.0156 61.9795 99.0156 63.4072C99.0156 64.4175 99.675 65.216 100.873 65.216C102.355 65.216 103.268 64.1089 103.268 62.6814C103.268 61.6711 102.609 60.8726 101.411 60.8726ZM100.939 64.5929C100.274 64.5929 99.9049 64.103 99.9049 63.3891C99.9049 62.5361 100.365 61.4956 101.345 61.4956C102.004 61.4956 102.379 61.9856 102.379 62.6994C102.379 63.5525 101.919 64.5929 100.939 64.5929Z" fill="#4EB689"/>
<path d="M111.797 60.9575H110.877L109.54 64.436L109.462 61.0179H108.27L106.981 64.3995L106.836 60.9575H105.959L106.292 65.1316H107.405L108.73 61.7741L108.857 65.1316H109.964L111.797 60.9575Z" fill="#4EB689"/>
<path d="M117.447 61.6108L117.568 60.9575H113.902L113.781 61.6108H115.203L114.58 65.1316H115.415L116.038 61.6108H117.447Z" fill="#4EB689"/>
<path d="M123.631 60.9575H122.796L122.475 62.7542H120.528L120.848 60.9575H120.013L119.275 65.1316H120.11L120.413 63.4196H122.361L122.058 65.1316H122.893L123.631 60.9575Z" fill="#4EB689"/>
<path d="M129.559 65.1316L130.297 60.9575H129.463L128.725 65.1316H129.559Z" fill="#232323"/>
<path d="M134.477 60.8726C133.594 60.8726 132.802 61.3868 132.802 62.2881C132.802 62.887 133.256 63.1713 133.981 63.3529C134.496 63.4858 134.707 63.6795 134.707 63.9638C134.707 64.3571 134.363 64.5929 133.927 64.5929C133.497 64.5929 133.189 64.3571 133.177 63.8973H132.33C132.257 64.7745 132.88 65.216 133.824 65.216C134.786 65.216 135.615 64.7078 135.615 63.8065C135.615 63.2317 135.252 62.8628 134.483 62.6753C133.921 62.5361 133.703 62.3728 133.703 62.0885C133.703 61.7074 133.987 61.4956 134.369 61.4956C134.804 61.4956 135.016 61.7619 134.992 62.1852H135.839C135.881 61.4411 135.47 60.8726 134.477 60.8726Z" fill="#232323"/>
<path d="M143.558 60.8726C142.076 60.8726 141.162 61.9795 141.162 63.4072C141.162 64.4175 141.821 65.216 143.019 65.216C144.501 65.216 145.415 64.1089 145.415 62.6814C145.415 61.6711 144.755 60.8726 143.558 60.8726ZM143.086 64.5929C142.42 64.5929 142.051 64.103 142.051 63.3891C142.051 62.5361 142.511 61.4956 143.491 61.4956C144.151 61.4956 144.526 61.9856 144.526 62.6994C144.526 63.5525 144.066 64.5929 143.086 64.5929Z" fill="#232323"/>
<path d="M151.882 60.9575H151.047L150.599 63.5164C150.575 63.6374 150.557 63.7282 150.533 63.8188C150.388 64.3875 150.067 64.5932 149.541 64.5932C149.069 64.5932 148.772 64.3513 148.772 63.9278C148.772 63.7947 148.784 63.6978 148.821 63.4982L149.268 60.9575H148.434L148.016 63.3108C147.962 63.6374 147.938 63.8129 147.938 64.0185C147.938 64.7383 148.434 65.2163 149.468 65.2163C150.63 65.2163 151.156 64.696 151.349 63.8854C151.398 63.6978 151.422 63.5708 151.458 63.3651L151.882 60.9575Z" fill="#232323"/>
<path d="M157.73 61.8951C157.73 61.3204 157.331 61.0483 156.811 60.9877C156.605 60.9636 156.448 60.9575 156.206 60.9575H154.681L153.943 65.1316H154.778L155.075 63.4498H155.565C155.674 63.4498 155.776 63.4498 155.885 63.4559C156.188 63.48 156.309 63.7221 156.309 64.1092C156.315 64.7142 156.327 64.932 156.363 65.1316H157.265C157.18 64.9561 157.143 64.7081 157.143 64.3875C157.143 63.5829 157.029 63.2502 156.672 63.1292C157.301 62.972 157.73 62.5666 157.73 61.8951ZM156.109 62.8207C156.006 62.8267 155.909 62.8267 155.764 62.8267H155.183L155.401 61.6108H156.012C156.157 61.6108 156.26 61.6169 156.357 61.629C156.629 61.6592 156.817 61.7863 156.817 62.0948C156.817 62.5787 156.484 62.7844 156.109 62.8207Z" fill="#232323"/>
<path d="M165.53 60.9877C165.324 60.9636 165.167 60.9575 164.931 60.9575H163.515L162.777 65.1316H163.612L163.89 63.5588H164.501C164.743 63.5588 164.901 63.5527 165.112 63.5284C165.814 63.4498 166.486 62.9356 166.486 62.0282C166.486 61.4051 166.068 61.0483 165.53 60.9877ZM164.979 62.8812C164.877 62.8934 164.756 62.8993 164.61 62.8993H164.005L164.229 61.6169H164.834C164.979 61.6169 165.112 61.6229 165.203 61.6351C165.439 61.6714 165.602 61.8225 165.602 62.125C165.602 62.5909 165.33 62.8267 164.979 62.8812Z" fill="#4EB689"/>
<path d="M172.353 61.8951C172.353 61.3204 171.954 61.0483 171.434 60.9877C171.228 60.9636 171.071 60.9575 170.829 60.9575H169.304L168.566 65.1316H169.401L169.698 63.4498H170.188C170.297 63.4498 170.399 63.4498 170.508 63.4559C170.811 63.48 170.932 63.7221 170.932 64.1092C170.938 64.7142 170.95 64.932 170.986 65.1316H171.888C171.803 64.9561 171.766 64.7081 171.766 64.3875C171.766 63.5829 171.652 63.2502 171.295 63.1292C171.924 62.972 172.353 62.5666 172.353 61.8951ZM170.732 62.8207C170.629 62.8267 170.532 62.8267 170.387 62.8267H169.806L170.024 61.6108H170.635C170.78 61.6108 170.883 61.6169 170.98 61.629C171.252 61.6592 171.44 61.7863 171.44 62.0948C171.44 62.5787 171.107 62.7844 170.732 62.8207Z" fill="#4EB689"/>
<path d="M175.286 65.1316L176.024 60.9575H175.189L174.451 65.1316H175.286Z" fill="#4EB689"/>
<path d="M180.732 60.8726C179.249 60.8726 178.336 61.9795 178.336 63.4072C178.336 64.4175 178.995 65.216 180.193 65.216C181.675 65.216 182.589 64.1089 182.589 62.6814C182.589 61.6711 181.929 60.8726 180.732 60.8726ZM180.26 64.5929C179.594 64.5929 179.225 64.103 179.225 63.3891C179.225 62.5361 179.685 61.4956 180.665 61.4956C181.324 61.4956 181.699 61.9856 181.699 62.6994C181.699 63.5525 181.24 64.5929 180.26 64.5929Z" fill="#4EB689"/>
<path d="M188.668 61.8951C188.668 61.3204 188.269 61.0483 187.748 60.9877C187.543 60.9636 187.385 60.9575 187.143 60.9575H185.619L184.881 65.1316H185.716L186.012 63.4498H186.502C186.611 63.4498 186.714 63.4498 186.823 63.4559C187.125 63.48 187.246 63.7221 187.246 64.1092C187.252 64.7142 187.264 64.932 187.301 65.1316H188.202C188.117 64.9561 188.081 64.7081 188.081 64.3875C188.081 63.5829 187.966 63.2502 187.609 63.1292C188.238 62.972 188.668 62.5666 188.668 61.8951ZM187.047 62.8207C186.944 62.8267 186.847 62.8267 186.702 62.8267H186.121L186.339 61.6108H186.95C187.095 61.6108 187.198 61.6169 187.295 61.629C187.567 61.6592 187.754 61.7863 187.754 62.0948C187.754 62.5787 187.422 62.7844 187.047 62.8207Z" fill="#4EB689"/>
<path d="M191.602 65.1316L192.34 60.9575H191.506L190.768 65.1316H191.602Z" fill="#4EB689"/>
<path d="M198.414 61.6108L198.535 60.9575H194.869L194.748 61.6108H196.17L195.547 65.1316H196.381L197.004 61.6108H198.414Z" fill="#4EB689"/>
<path d="M202.466 63.5345L204.39 60.9575H203.452L202.182 62.8026L201.498 60.9575H200.615L201.638 63.5043L201.347 65.1316H202.182L202.466 63.5345Z" fill="#4EB689"/>
<mask id="mask0_849_1302" style="mask-type:luminance" maskUnits="userSpaceOnUse" x="8" y="18" width="47" height="51">
<path d="M8.68359 18.998H54.5757V68.6587H8.68359V18.998Z" fill="white"/>
</mask>
<g mask="url(#mask0_849_1302)">
<path d="M54.542 56.8475C54.4883 56.9416 54.4301 57.0355 54.3742 57.1275C54.235 57.3476 54.0923 57.5657 53.9464 57.7813C53.8004 57.9971 53.6511 58.2106 53.4983 58.4216C53.3455 58.6326 53.1896 58.8412 53.0303 59.0473C52.8709 59.2535 52.7084 59.457 52.5428 59.6581C52.377 59.8591 52.2082 60.0574 52.0362 60.2531C51.8644 60.4488 51.6894 60.6417 51.5113 60.832C51.3332 61.0222 51.1523 61.2095 50.9684 61.394C50.7844 61.5785 50.5977 61.76 50.4081 61.9386C50.2183 62.1173 50.0259 62.2929 49.8308 62.4653C49.6356 62.6379 49.4378 62.8074 49.2372 62.9736C49.0368 63.14 48.8337 63.3031 48.628 63.463C48.4224 63.623 48.2142 63.7797 48.0038 63.933C47.7932 64.0864 47.5802 64.2364 47.365 64.3831C47.1496 64.5296 46.9321 64.673 46.7123 64.8128C46.4924 64.9525 46.2704 65.089 46.0464 65.2218C45.8223 65.3546 45.5962 65.4838 45.368 65.6096C45.1398 65.7353 44.9097 65.8573 44.6777 65.9758C44.4457 66.0942 44.2119 66.2091 43.9763 66.3201C43.7406 66.4312 43.5032 66.5386 43.2643 66.6423C43.0253 66.7459 42.7846 66.8457 42.5425 66.9417C42.3003 67.0378 42.0568 67.13 41.8117 67.2184C41.5667 67.3068 41.3202 67.3912 41.0725 67.4719C40.8248 67.5525 40.5759 67.6293 40.3257 67.702C40.0757 67.7748 39.8244 67.8436 39.5721 67.9085C39.3198 67.9734 39.0666 68.0342 38.8123 68.0912C38.5581 68.148 38.303 68.2009 38.0472 68.2497C37.7912 68.2987 37.5347 68.3435 37.2774 68.3843C37.0202 68.425 36.7622 68.4618 36.5037 68.4944C36.2453 68.5271 35.9865 68.5557 35.727 68.5803C35.4677 68.6047 35.208 68.6252 34.948 68.6416C34.688 68.6579 34.4278 68.67 34.1674 68.6783C33.9071 68.6864 33.6467 68.6904 33.3861 68.6904C33.0314 68.6903 32.6768 68.6826 32.3225 68.6673C31.9681 68.652 31.6143 68.6291 31.2609 68.5986C30.9075 68.5681 30.5548 68.5301 30.2031 68.4846C29.8513 68.4391 29.5006 68.386 29.1512 68.3255C28.8017 68.2649 28.4536 68.1968 28.1071 68.1214C27.7605 68.0458 27.4158 67.963 27.0727 67.8728C26.7297 67.7825 26.3887 67.6849 26.0498 67.5801C25.711 67.4752 25.3746 67.3632 25.0405 67.2439C24.7064 67.1245 24.3751 66.9982 24.0465 66.8648C23.7178 66.7313 23.3922 66.5909 23.0696 66.4435C22.747 66.2961 22.4276 66.1419 22.1116 65.9807C21.7955 65.8197 21.4832 65.6519 21.1743 65.4775C20.8655 65.3029 20.5605 65.1219 20.2594 64.9345C19.9584 64.7469 19.6614 64.5531 19.3687 64.3527C19.0759 64.1526 18.7875 63.946 18.5037 63.7334C18.2197 63.5208 17.9404 63.3023 17.6658 63.0777C17.3912 62.8532 17.1217 62.6228 16.8569 62.3867C16.5923 62.1507 16.3327 61.909 16.0784 61.6617C15.8241 61.4144 15.575 61.1619 15.3315 60.9041C15.088 60.6461 14.8501 60.3832 14.6178 60.1151C14.3856 59.847 14.1592 59.5741 13.9385 59.2963C13.718 59.0185 13.5035 58.7361 13.2949 58.4492C13.0865 58.1622 12.8843 57.8709 12.6883 57.5752C12.4922 57.2797 12.3027 56.9799 12.1194 56.6761C11.9363 56.3724 11.7597 56.0649 11.5897 55.7536C11.4198 55.4422 11.2565 55.1274 11.0999 54.8092C10.9435 54.4908 10.7938 54.1693 10.6512 53.8446C10.5084 53.5198 10.3726 53.1923 10.244 52.8618C10.1152 52.5312 9.99368 52.1981 9.87922 51.8623C9.76475 51.5266 9.65765 51.1885 9.55763 50.8482C9.45762 50.5079 9.36512 50.1655 9.2797 49.8213C9.19443 49.477 9.11652 49.131 9.04614 48.7834C8.97561 48.4358 8.91259 48.0868 8.85709 47.7364C8.80159 47.3861 8.75361 47.0347 8.71314 46.6823C8.67267 46.33 8.63972 45.9769 8.61428 45.6231C8.58899 45.2693 8.57121 44.915 8.56109 44.5605C8.55083 44.2059 8.54823 43.8514 8.55329 43.4967C8.55835 43.142 8.57092 42.7877 8.59101 42.4334C8.61124 42.0793 8.63899 41.7258 8.6744 41.3728C8.70967 41.0199 8.7526 40.6678 8.80289 40.3168C8.85333 39.9657 8.91129 39.6158 8.97662 39.2672C9.04209 38.9186 9.11494 38.5715 9.19515 38.226C9.27536 37.8805 9.3631 37.5368 9.45805 37.1952C9.55301 36.8533 9.65519 36.5138 9.76475 36.1764C9.8743 35.839 9.99094 35.5042 10.1148 35.1717C10.2387 34.8395 10.3696 34.5098 10.5076 34.1831C10.6457 33.8564 10.7905 33.5326 10.9424 33.212C11.0943 32.8915 11.2528 32.5744 11.4183 32.2606C11.5837 31.9468 11.7558 31.6368 11.9346 31.3304C12.1132 31.024 12.2984 30.7216 12.4902 30.4232C12.6818 30.1247 12.8797 29.8304 13.0841 29.5404C13.2883 29.2504 13.4987 28.965 13.7152 28.684C13.9317 28.403 14.1542 28.1268 14.3824 27.8554C14.6107 27.584 14.8447 27.3175 15.0845 27.0562C15.3243 26.7947 15.5696 26.5384 15.8202 26.2875C16.0709 26.0366 16.3269 25.7912 16.5882 25.5513C16.8494 25.3114 17.1156 25.0771 17.3869 24.8486C17.6582 24.6199 17.9342 24.3974 18.2149 24.1807C18.4957 23.9639 18.781 23.7533 19.071 23.5488C19.3608 23.3443 19.6547 23.1462 19.953 22.9542C20.2514 22.7623 20.5537 22.5768 20.86 22.3979C21.1662 22.219 21.4761 22.0466 21.7897 21.8809C22.1034 21.7153 22.4205 21.5563 22.7409 21.4043C23.0613 21.2522 23.3848 21.107 23.7116 20.9688C23.9288 20.8772 24.1473 20.7887 24.3672 20.7034C24.587 20.6182 24.808 20.5359 25.0301 20.4569C25.2521 20.3778 25.4754 20.3019 25.6997 20.2292C25.9241 20.1565 26.1492 20.087 26.3756 20.0207C26.6019 19.9545 26.829 19.8913 27.057 19.8315C27.2851 19.7716 27.514 19.715 27.7437 19.6616C27.9734 19.6083 28.2038 19.5583 28.4349 19.5115C28.666 19.4647 28.8976 19.4213 29.1301 19.381C29.3623 19.3408 29.5952 19.3039 29.8286 19.2704C30.062 19.2367 30.2958 19.2065 30.53 19.1795C30.7643 19.1526 30.9988 19.1291 31.2337 19.1087C31.4687 19.0884 31.7039 19.0715 31.9392 19.0579C32.1746 19.0444 32.4102 19.0341 32.6458 19.0273C32.8815 19.0204 33.1172 19.0168 33.3531 19.0166C33.5888 19.0165 33.8246 19.0196 34.0603 19.0261C34.296 19.0326 34.5315 19.0425 34.7669 19.0556C35.0024 19.0689 35.2375 19.0854 35.4725 19.1053C35.7074 19.1253 35.9421 19.1484 36.1764 19.175C36.4107 19.2016 36.6445 19.2315 36.8779 19.2646C37.1114 19.2979 37.3442 19.3344 37.5766 19.3742C37.809 19.4141 38.0408 19.4571 38.2721 19.5035C38.5032 19.5501 38.7337 19.5996 38.9634 19.6527C39.1932 19.7056 39.4221 19.762 39.6503 19.8214C39.8784 19.8809 40.1058 19.9435 40.3321 20.0095C40.5584 20.0754 40.7839 20.1445 41.0084 20.2169C41.2327 20.2892 41.4561 20.3648 41.6783 20.4434C41.9005 20.5222 42.1217 20.604 42.3417 20.689C42.5616 20.774 42.7803 20.8621 42.9977 20.9532C43.2152 21.0444 43.4313 21.1388 43.646 21.236C43.8607 21.3334 44.0741 21.4337 44.286 21.5372C44.4979 21.6406 44.7082 21.7469 44.9172 21.8564C45.126 21.9658 45.3333 22.0781 45.539 22.1934C45.9856 22.4452 46.4241 22.7105 46.8544 22.9893C47.2846 23.2683 47.7059 23.5599 48.1183 23.8648C48.5306 24.1696 48.9333 24.4867 49.3261 24.8162C49.719 25.1457 50.1012 25.487 50.4731 25.8401C50.845 26.193 51.2056 26.5572 51.5551 26.9324C51.9046 27.3076 52.242 27.6932 52.5678 28.0893C52.8936 28.4853 53.2068 28.8908 53.5076 29.3061C53.8083 29.7213 54.0961 30.1455 54.3707 30.5784C54.4289 30.6703 54.4827 30.7642 54.5386 30.8583L50.3042 33.3029C50.2839 33.2671 50.2615 33.2314 50.2391 33.1911C50.1277 33.0139 50.0135 32.8387 49.8966 32.6651C49.7795 32.4917 49.6598 32.3201 49.5374 32.1504C49.415 31.9806 49.29 31.813 49.1622 31.6472C49.0345 31.4814 48.9042 31.3178 48.7713 31.1561C48.6384 30.9945 48.503 30.8349 48.3651 30.6777C48.2271 30.5203 48.0868 30.3652 47.944 30.2123C47.8012 30.0594 47.6559 29.9086 47.5084 29.7603C47.3608 29.612 47.2109 29.4661 47.0586 29.3224C46.9064 29.1789 46.752 29.0377 46.5954 28.8989C46.4387 28.7603 46.2798 28.624 46.119 28.4903C45.958 28.3566 45.7949 28.2256 45.6299 28.0969C45.4647 27.9684 45.2976 27.8426 45.1285 27.7193C44.9594 27.596 44.7884 27.4754 44.6156 27.3575C44.4427 27.2397 44.268 27.1245 44.0913 27.0122C43.9149 26.8999 43.7367 26.7904 43.5566 26.6837C43.3766 26.5769 43.195 26.4731 43.0117 26.3721C42.8284 26.2712 42.6436 26.1731 42.4573 26.078C42.2708 25.9829 42.0831 25.8907 41.8937 25.8015C41.7044 25.7123 41.5138 25.626 41.3218 25.5429C41.1298 25.4597 40.9365 25.3796 40.742 25.3026C40.5474 25.2255 40.3517 25.1515 40.1549 25.0806C39.958 25.0097 39.76 24.942 39.561 24.8773C39.362 24.8127 39.1621 24.7512 38.9611 24.6929C38.7602 24.6347 38.5583 24.5795 38.3556 24.5276C38.1528 24.4757 37.9495 24.4268 37.7451 24.3815C37.5409 24.3359 37.3361 24.2936 37.1304 24.2546C36.9249 24.2155 36.7188 24.1798 36.512 24.1473C36.3053 24.1148 36.0982 24.0855 35.8905 24.0596C35.683 24.0336 35.475 24.0109 35.2666 23.9915C35.0581 23.9721 34.8496 23.956 34.6407 23.9432C34.4319 23.9304 34.2229 23.9208 34.0138 23.9146C33.8046 23.9084 33.5953 23.9055 33.3861 23.906C22.3872 23.906 13.4392 32.8542 13.4392 43.8529C13.4392 54.8517 22.3817 63.7999 33.3861 63.7999C33.5955 63.8003 33.8049 63.7976 34.0142 63.7914C34.2235 63.7853 34.4326 63.7758 34.6416 63.763C34.8506 63.7503 35.0593 63.7343 35.2679 63.7149C35.4763 63.6955 35.6844 63.6729 35.8922 63.647C36.0999 63.621 36.3073 63.5918 36.5142 63.5593C36.721 63.5267 36.9272 63.491 37.133 63.452C37.3387 63.413 37.5438 63.3708 37.7482 63.3253C37.9525 63.2797 38.1562 63.231 38.3589 63.1791C38.5619 63.1271 38.7638 63.072 38.965 63.0138C39.166 62.9554 39.3662 62.894 39.5652 62.8292C39.7644 62.7646 39.9625 62.6968 40.1595 62.6259C40.3565 62.555 40.5524 62.4811 40.747 62.4039C40.9417 62.3268 41.1351 62.2466 41.3273 62.1634C41.5194 62.0803 41.7102 61.994 41.8995 61.9047C42.089 61.8155 42.2769 61.7233 42.4635 61.628C42.6499 61.5329 42.8349 61.4348 43.0183 61.3338C43.2016 61.2327 43.3834 61.1288 43.5635 61.022C43.7436 60.9152 43.9221 60.8056 44.0987 60.6932C44.2753 60.5808 44.4501 60.4656 44.6231 60.3476C44.7961 60.2297 44.9672 60.109 45.1365 59.9856C45.3056 59.8623 45.4728 59.7363 45.638 59.6076C45.8032 59.479 45.9664 59.3478 46.1274 59.2139C46.2884 59.0801 46.4473 58.9438 46.604 58.8049C46.7608 58.6661 46.9153 58.5248 47.0675 58.3811C47.2199 58.2375 47.3699 58.0914 47.5175 57.9429C47.6652 57.7945 47.8104 57.6436 47.9534 57.4907C48.0962 57.3376 48.2366 57.1822 48.3747 57.0249C48.5126 56.8673 48.6481 56.7076 48.781 56.5459C48.9139 56.3841 49.0443 56.2202 49.1721 56.0545C49.2998 55.8885 49.4248 55.7206 49.5474 55.5508C49.6698 55.381 49.7895 55.2093 49.9066 55.0355C50.0235 54.8619 50.1378 54.6865 50.2492 54.5093C50.2716 54.4734 50.294 54.4376 50.3141 54.3973L54.542 56.8475ZM33.3861 28.8859C33.1016 28.8861 32.8175 28.8943 32.5335 28.9106C32.2495 28.927 31.9662 28.9514 31.6836 28.9838C31.4011 29.0163 31.1197 29.0568 30.8394 29.1053C30.5592 29.1537 30.2805 29.2102 30.0035 29.2746C29.7264 29.339 29.4513 29.4113 29.1785 29.4914C28.9054 29.5714 28.635 29.6592 28.3671 29.7547C28.0993 29.8502 27.8342 29.9533 27.5721 30.0639C27.3101 30.1744 27.0514 30.2924 26.796 30.4178C26.5408 30.5431 26.2891 30.6757 26.0414 30.8154C25.7937 30.955 25.55 31.1017 25.3107 31.2552C25.0712 31.4089 24.8363 31.5691 24.6061 31.7361C24.3758 31.903 24.1505 32.0764 23.9301 32.2562C23.7097 32.436 23.4946 32.6221 23.2848 32.8141C23.0751 33.0062 22.8708 33.2041 22.6724 33.4079C22.4738 33.6115 22.2813 33.8208 22.0947 34.0354C21.9081 34.2502 21.7279 34.47 21.5539 34.6949C21.3799 34.92 21.2123 35.1498 21.0513 35.3842C20.8905 35.6188 20.7363 35.8577 20.589 36.1011C20.4417 36.3443 20.3014 36.5916 20.1681 36.8429C20.0348 37.0943 19.909 37.3492 19.7903 37.6077C19.6716 37.8662 19.5604 38.1278 19.4566 38.3926C19.3528 38.6575 19.2567 38.9251 19.1681 39.1953C19.0796 39.4658 18.9988 39.7383 18.926 40.0132C18.853 40.2881 18.7878 40.5649 18.7307 40.8436C18.6735 41.1222 18.6242 41.4023 18.583 41.6837C18.5418 41.9651 18.5086 42.2475 18.4836 42.5308C18.4584 42.8141 18.4414 43.098 18.4324 43.3823C18.4235 43.6666 18.4226 43.9508 18.43 44.2353C18.4372 44.5196 18.4525 44.8036 18.4759 45.087C18.4995 45.3704 18.531 45.653 18.5705 45.9347C18.6101 46.2164 18.6576 46.4968 18.7131 46.7757C18.7688 47.0547 18.8322 47.3317 18.9035 47.6072C18.9749 47.8825 19.0541 48.1555 19.1409 48.4264C19.2278 48.6973 19.3225 48.9654 19.4246 49.2309C19.5268 49.4962 19.6365 49.7585 19.7536 50.0178C19.8708 50.277 19.9952 50.5327 20.1271 50.7847C20.2587 51.0368 20.3975 51.2849 20.5435 51.5292C20.6893 51.7733 20.8421 52.0131 21.0016 52.2487C21.1612 52.4841 21.3272 52.7148 21.5 52.9408C21.6727 53.1669 21.8517 53.3877 22.037 53.6035C22.2223 53.8193 22.4137 54.0297 22.611 54.2345C22.8083 54.4395 23.0112 54.6385 23.2199 54.8319C23.4284 55.0253 23.6425 55.2124 23.8617 55.3935C24.0811 55.5746 24.3055 55.7494 24.5347 55.9177C24.7641 56.086 24.9979 56.2477 25.2364 56.4026C25.4749 56.5577 25.7177 56.7057 25.9645 56.8469C26.2115 56.988 26.4623 57.1221 26.7168 57.2489C26.9715 57.3758 27.2295 57.4953 27.4908 57.6075C27.7522 57.7196 28.0166 57.8243 28.284 57.9212C28.5513 58.0184 28.8212 58.1077 29.0938 58.1893C29.3662 58.2711 29.6407 58.345 29.9175 58.4111C30.1941 58.477 30.4725 58.5351 30.7524 58.5852C31.0324 58.6355 31.3135 58.6776 31.5959 58.7117C31.8783 58.7459 32.1614 58.7719 32.4453 58.7899C32.7292 58.8079 33.0133 58.8178 33.2978 58.8196C33.5822 58.8214 33.8665 58.815 34.1505 58.8007C34.4346 58.7863 34.7181 58.7637 35.0009 58.7332C35.2836 58.7026 35.5653 58.664 35.846 58.6173C36.1265 58.5708 36.4056 58.5161 36.683 58.4535C36.9605 58.391 37.2359 58.3206 37.5094 58.2424C37.7828 58.164 38.054 58.0782 38.3225 57.9844C38.5911 57.8907 38.8567 57.7894 39.1195 57.6806C39.3824 57.5718 39.6418 57.4556 39.8979 57.3318C40.1542 57.2083 40.4065 57.0773 40.6553 56.9393C41.1948 56.6378 41.7138 56.3045 42.2123 55.9391C42.7106 55.5738 43.1848 55.1792 43.6348 54.7556C44.0848 54.3318 44.507 53.8822 44.9016 53.4065C45.2962 52.9309 45.6602 52.4328 45.9935 51.9123L41.7511 49.4631C41.6369 49.6344 41.5175 49.8019 41.3931 49.9658C41.2687 50.1297 41.1392 50.2897 41.0049 50.4455C40.8705 50.6015 40.7314 50.7531 40.5878 50.9005C40.4441 51.0479 40.296 51.1907 40.1435 51.3289C39.991 51.4672 39.8345 51.6006 39.6737 51.7291C39.513 51.8577 39.3486 51.9813 39.1803 52.0998C39.0119 52.2182 38.8402 52.3313 38.6649 52.4393C38.4896 52.5471 38.3113 52.6496 38.1296 52.7464C37.948 52.8434 37.7636 52.9346 37.5765 53.0202C37.3893 53.1057 37.1997 53.1854 37.0076 53.2592C36.8155 53.3331 36.6212 53.401 36.425 53.4629C36.2287 53.5247 36.0307 53.5807 35.831 53.6304C35.6312 53.6801 35.4302 53.7236 35.2278 53.7609C35.0253 53.7982 34.822 53.8293 34.6176 53.8541C34.4134 53.8788 34.2084 53.8973 34.0031 53.9096C33.7975 53.9218 33.5919 53.9277 33.3861 53.9271H33.2978C27.7904 53.8801 23.3096 49.3602 23.3096 43.8529C23.3096 43.719 23.3121 43.585 23.3174 43.4512C23.3226 43.3174 23.3306 43.1837 23.3411 43.0501C23.3517 42.9166 23.365 42.7833 23.3809 42.6504C23.3968 42.5174 23.4153 42.3847 23.4365 42.2525C23.4576 42.1202 23.4815 41.9884 23.5079 41.857C23.5344 41.7258 23.5634 41.595 23.5951 41.4649C23.6267 41.3347 23.661 41.2052 23.6978 41.0764C23.7347 40.9476 23.774 40.8197 23.8161 40.6924C23.858 40.5652 23.9024 40.4389 23.9493 40.3134C23.9963 40.188 24.0457 40.0635 24.0978 39.9401C24.1497 39.8167 24.204 39.6943 24.2608 39.5729C24.3177 39.4516 24.3769 39.3315 24.4386 39.2125C24.5001 39.0936 24.564 38.9759 24.6304 38.8596C24.6967 38.7431 24.7654 38.6282 24.8362 38.5144C24.9071 38.4008 24.9801 38.2887 25.0556 38.1778C25.1309 38.0671 25.2085 37.958 25.2883 37.8503C25.3679 37.7427 25.4497 37.6367 25.5337 37.5324C25.6177 37.4279 25.7037 37.3252 25.7917 37.2244C25.8797 37.1233 25.9697 37.0242 26.0618 36.9268C26.1537 36.8295 26.2477 36.734 26.3435 36.6405C26.4393 36.5468 26.537 36.4552 26.6365 36.3654C26.7359 36.2757 26.8371 36.1879 26.9401 36.1024C27.043 36.0167 27.1477 35.933 27.254 35.8515C27.3603 35.7701 27.4681 35.6906 27.5776 35.6134C27.6871 35.5362 27.7981 35.4612 27.9105 35.3885C28.0229 35.3157 28.1368 35.2452 28.252 35.1769C28.3674 35.1087 28.484 35.0428 28.6018 34.9792C28.7197 34.9156 28.8388 34.8545 28.9592 34.7957C29.0795 34.7368 29.201 34.6803 29.3236 34.6264C29.4461 34.5724 29.5699 34.5209 29.6944 34.4718C29.819 34.4228 29.9446 34.3762 30.0711 34.3321C30.1977 34.2881 30.325 34.2466 30.4531 34.2077C30.5813 34.1687 30.7102 34.1323 30.8399 34.0984C30.9694 34.0646 31.0996 34.0334 31.2305 34.0048C31.3613 33.9762 31.4927 33.9502 31.6247 33.9267C31.7565 33.9033 31.8889 33.8827 32.0215 33.8644C32.1542 33.8464 32.2873 33.8309 32.4206 33.8181C32.554 33.8053 32.6875 33.7951 32.8212 33.7877C32.9549 33.7802 33.0888 33.7754 33.2227 33.7732C33.3567 33.7711 33.4906 33.7717 33.6245 33.7748C33.7584 33.778 33.8922 33.7839 34.0259 33.7925C34.1596 33.801 34.293 33.8121 34.4263 33.826C34.5595 33.8399 34.6925 33.8564 34.825 33.8756C34.9576 33.8947 35.0897 33.9165 35.2215 33.9409C35.3531 33.9653 35.4842 33.9924 35.6149 34.0221C35.7455 34.0518 35.8755 34.084 36.0048 34.1188C36.1342 34.1537 36.2628 34.1911 36.3906 34.2311C36.5185 34.271 36.6455 34.3136 36.7716 34.3586C36.8977 34.4037 37.0229 34.4512 37.1472 34.5012C37.2715 34.5513 37.3946 34.6037 37.5168 34.6588C37.639 34.7137 37.76 34.7711 37.8798 34.8308C37.9998 34.8906 38.1184 34.9528 38.2358 35.0172C38.3532 35.0818 38.4692 35.1486 38.584 35.2177C38.6987 35.2869 38.8121 35.3583 38.9239 35.432C39.0358 35.5056 39.1461 35.5815 39.2549 35.6595C39.3639 35.7376 39.4711 35.8178 39.5768 35.9002C39.6824 35.9825 39.7863 36.067 39.8887 36.1534C39.9909 36.24 40.0914 36.3284 40.1902 36.4189C40.2889 36.5094 40.3859 36.6019 40.481 36.6962C40.5761 36.7906 40.6691 36.8867 40.7603 36.9849C40.8515 37.083 40.9409 37.1827 41.0282 37.2845C41.1153 37.3861 41.2006 37.4894 41.2837 37.5945C41.3668 37.6994 41.4477 37.8061 41.5266 37.9144C41.6056 38.0228 41.6822 38.1325 41.7567 38.2439L45.9935 35.7935C45.8257 35.5297 45.6498 35.2716 45.4657 35.0188C45.2817 34.7662 45.0899 34.5195 44.8903 34.2788C44.6909 34.0382 44.4839 33.804 44.2697 33.5765C44.0554 33.3489 43.8342 33.1282 43.606 32.9144C43.3778 32.7008 43.1432 32.4944 42.9021 32.2956C42.6609 32.0965 42.4138 31.9053 42.1607 31.7219C41.9075 31.5385 41.6489 31.3633 41.3847 31.1961C41.1205 31.029 40.8514 30.8703 40.5772 30.7202C40.303 30.5699 40.0244 30.4285 39.7414 30.2958C39.4584 30.1631 39.1714 30.0394 38.8806 29.9248C38.5898 29.8102 38.2956 29.7047 37.9982 29.6086C37.7008 29.5125 37.4006 29.4257 37.0976 29.3486C36.7947 29.2712 36.4896 29.2036 36.1825 29.1455C35.8753 29.0874 35.5666 29.0391 35.2564 29.0004C34.9463 28.9618 34.6351 28.9329 34.3231 28.9138C34.011 28.8947 33.6987 28.8855 33.3861 28.8859ZM33.5865 38.3558C33.4965 38.3558 33.4066 38.3578 33.3167 38.3621C33.2268 38.3664 33.1372 38.3731 33.0476 38.3818C32.958 38.3906 32.8688 38.4014 32.7798 38.4146C32.6907 38.4277 32.602 38.4431 32.5138 38.4605C32.4255 38.478 32.3378 38.4977 32.2505 38.5195C32.1632 38.5413 32.0765 38.5652 31.9903 38.5912C31.9042 38.6174 31.8188 38.6454 31.7339 38.6757C31.6492 38.706 31.5653 38.7383 31.4822 38.7726C31.399 38.807 31.3167 38.8434 31.2353 38.8818C31.1539 38.9201 31.0736 38.9606 30.9942 39.003C30.9149 39.0453 30.8365 39.0895 30.7594 39.1358C30.682 39.182 30.606 39.23 30.5313 39.28C30.4564 39.3299 30.3828 39.3816 30.3104 39.4353C30.2382 39.4887 30.1672 39.5441 30.0975 39.6012C30.028 39.6581 29.9598 39.7168 29.8932 39.7772C29.8264 39.8376 29.7612 39.8996 29.6976 39.9632C29.6339 40.0268 29.5719 40.0919 29.5113 40.1585C29.4509 40.2251 29.3921 40.2932 29.335 40.3627C29.2778 40.4322 29.2224 40.5032 29.1688 40.5753C29.1152 40.6476 29.0633 40.7212 29.0133 40.7959C28.9633 40.8707 28.915 40.9466 28.8687 41.0238C28.8225 41.101 28.778 41.1792 28.7356 41.2585C28.6931 41.3379 28.6527 41.4182 28.6141 41.4995C28.5756 41.5808 28.5391 41.6631 28.5045 41.7462C28.4701 41.8293 28.4376 41.9131 28.4073 41.9978C28.3769 42.0826 28.3487 42.1679 28.3226 42.254C28.2964 42.3402 28.2723 42.4268 28.2504 42.5141C28.2285 42.6014 28.2087 42.6891 28.191 42.7774C28.1735 42.8656 28.1581 42.9542 28.1448 43.0432C28.1315 43.1322 28.1205 43.2215 28.1117 43.311C28.1027 43.4006 28.0961 43.4902 28.0916 43.5801C28.0871 43.67 28.0849 43.7599 28.0848 43.85C28.0848 43.9399 28.087 44.0299 28.0913 44.1197C28.0956 44.2096 28.1023 44.2993 28.1111 44.3889C28.1198 44.4784 28.1308 44.5677 28.1439 44.6567C28.1571 44.7458 28.1724 44.8344 28.1899 44.9227C28.2075 45.0108 28.2272 45.0987 28.249 45.186C28.2708 45.2733 28.2947 45.36 28.3208 45.446C28.3468 45.5322 28.375 45.6176 28.4052 45.7024C28.4356 45.7871 28.468 45.8711 28.5024 45.9542C28.5368 46.0373 28.5732 46.1195 28.6115 46.2009C28.6499 46.2823 28.6904 46.3626 28.7327 46.442C28.7751 46.5215 28.8195 46.5997 28.8657 46.677C28.912 46.7542 28.9599 46.8302 29.0099 46.9049C29.06 46.9798 29.1117 47.0534 29.1652 47.1256C29.2188 47.198 29.2741 47.2689 29.3312 47.3385C29.3882 47.408 29.447 47.4763 29.5073 47.5429C29.5677 47.6097 29.6297 47.6748 29.6933 47.7384C29.7569 47.802 29.8221 47.8642 29.8887 47.9246C29.9553 47.985 30.0234 48.0438 30.0929 48.1009C30.1626 48.158 30.2334 48.2134 30.3057 48.267C30.3779 48.3206 30.4515 48.3725 30.5262 48.4225C30.6011 48.4725 30.677 48.5206 30.7541 48.567C30.8313 48.6133 30.9097 48.6576 30.989 48.7001C31.0682 48.7425 31.1486 48.783 31.2299 48.8215C31.3113 48.86 31.3936 48.8964 31.4767 48.931C31.5598 48.9654 31.6436 48.9977 31.7284 49.0281C31.8131 49.0584 31.8985 49.0868 31.9845 49.1129C32.0707 49.1391 32.1574 49.1631 32.2447 49.1849C32.3319 49.2069 32.4197 49.2265 32.5079 49.2442C32.5962 49.2618 32.6848 49.2771 32.7738 49.2904C32.8629 49.3036 32.952 49.3147 33.0416 49.3235C33.1311 49.3323 33.2209 49.339 33.3108 49.3435C33.4007 49.3478 33.4906 49.3501 33.5805 49.3501C33.6705 49.3501 33.7604 49.3479 33.8503 49.3436C33.9402 49.3391 34.0299 49.3326 34.1194 49.3238C34.209 49.315 34.2982 49.304 34.3872 49.2908C34.4763 49.2775 34.5649 49.2622 34.6532 49.2447C34.7415 49.2272 34.8292 49.2074 34.9165 49.1856C35.0038 49.1638 35.0905 49.1398 35.1767 49.1138C35.2627 49.0876 35.3481 49.0594 35.4329 49.0291C35.5176 48.9989 35.6016 48.9665 35.6847 48.9321C35.7678 48.8977 35.85 48.8612 35.9314 48.8227C36.0128 48.7843 36.0931 48.7439 36.1725 48.7014C36.2518 48.6591 36.3302 48.6147 36.4073 48.5685C36.4845 48.5222 36.5605 48.4741 36.6353 48.4242C36.7101 48.3742 36.7837 48.3225 36.856 48.2689C36.9282 48.2152 36.9992 48.1599 37.0687 48.1028C37.1382 48.0457 37.2065 47.987 37.2731 47.9266C37.3397 47.8662 37.4049 47.8042 37.4686 47.7406C37.5322 47.6769 37.5942 47.6118 37.6546 47.545C37.7151 47.4784 37.7739 47.4103 37.831 47.3408C37.8881 47.2713 37.9434 47.2003 37.997 47.1281C38.0507 47.0558 38.1024 46.9822 38.1524 46.9075C38.2024 46.8327 38.2505 46.7566 38.2968 46.6795C38.3431 46.6023 38.3874 46.5241 38.4299 46.4447C38.4723 46.3654 38.5127 46.285 38.5512 46.2037C38.5898 46.1223 38.6262 46.04 38.6606 45.9569C38.695 45.8738 38.7274 45.7899 38.7577 45.7052C38.7881 45.6205 38.8162 45.5351 38.8424 45.4489C38.8686 45.3628 38.8926 45.2762 38.9144 45.1889C38.9362 45.1016 38.956 45.0139 38.9735 44.9256C38.9911 44.8373 39.0064 44.7487 39.0196 44.6596C39.0329 44.5706 39.0439 44.4814 39.0527 44.3918C39.0615 44.3023 39.0682 44.2126 39.0725 44.1227C39.077 44.0328 39.0791 43.9429 39.0791 43.8529C39.0791 43.763 39.077 43.6731 39.0725 43.5832C39.0682 43.4933 39.0615 43.4037 39.0527 43.314C39.0439 43.2244 39.0329 43.1353 39.0196 43.0462C39.0064 42.9572 38.9911 42.8686 38.9735 42.7803C38.956 42.6921 38.9362 42.6044 38.9144 42.5171C38.8926 42.4298 38.8686 42.3431 38.8424 42.2569C38.8162 42.1709 38.7881 42.0855 38.7577 42.0007C38.7275 41.916 38.6951 41.8322 38.6606 41.7491C38.6262 41.6658 38.5898 41.5836 38.5513 41.5023C38.5127 41.421 38.4724 41.3406 38.4299 41.2613C38.3876 41.1819 38.3432 41.1037 38.2969 41.0265C38.2507 40.9494 38.2026 40.8733 38.1526 40.7985C38.1026 40.7238 38.0507 40.6502 37.997 40.5779C37.9436 40.5057 37.8882 40.4347 37.8311 40.3652C37.774 40.2957 37.7152 40.2276 37.6548 40.1608C37.5944 40.0942 37.5324 40.029 37.4686 39.9654C37.405 39.9018 37.3399 39.8398 37.2732 39.7794C37.2066 39.719 37.1385 39.6603 37.0689 39.6032C36.9993 39.5461 36.9284 39.4908 36.8561 39.4371C36.7838 39.3835 36.7103 39.3318 36.6356 39.2818C36.5607 39.2318 36.4847 39.1838 36.4075 39.1375C36.3303 39.0913 36.252 39.0469 36.1726 39.0046C36.0933 38.9621 36.0129 38.9216 35.9317 38.8831C35.8503 38.8447 35.7681 38.8083 35.685 38.7739C35.6017 38.7395 35.5179 38.7071 35.4332 38.6768C35.3484 38.6465 35.2629 38.6184 35.1769 38.5922C35.0908 38.566 35.0041 38.5421 34.9168 38.5202C34.8295 38.4984 34.7418 38.4787 34.6535 38.4613C34.5653 38.4436 34.4766 38.4283 34.3877 38.4152C34.2986 38.4019 34.2093 38.3909 34.1198 38.3821C34.0302 38.3734 33.9405 38.3667 33.8507 38.3623C33.7608 38.3579 33.6709 38.3558 33.5809 38.3558H33.5865Z" fill="#4EB689"/>
</g>
<path d="M203.52 55.8608H58.8907" stroke="#4EB689" stroke-linecap="round"/>
</svg>
