<svg width="72" height="72" viewBox="0 0 72 72" fill="none" xmlns="http://www.w3.org/2000/svg">
<g clip-path="url(#clip0_5126_21710)">
<path d="M51.0266 23.2207H47.2578C46.4382 23.2207 45.6587 23.6145 45.1766 24.2895L32.5444 41.8073L26.823 33.868C26.3408 33.2011 25.5694 32.7993 24.7417 32.7993H20.973C20.4507 32.7993 20.1453 33.3939 20.4507 33.8198L30.4632 47.7055C30.6997 48.0357 31.0115 48.3047 31.3727 48.4902C31.734 48.6758 32.1343 48.7726 32.5404 48.7726C32.9465 48.7726 33.3468 48.6758 33.708 48.4902C34.0693 48.3047 34.3811 48.0357 34.6176 47.7055L51.5408 24.2412C51.8542 23.8153 51.5489 23.2207 51.0266 23.2207Z" fill="#389429"/>
<path d="M36 0C16.1196 0 0 16.1196 0 36C0 55.8804 16.1196 72 36 72C55.8804 72 72 55.8804 72 36C72 16.1196 55.8804 0 36 0ZM36 65.8929C19.4946 65.8929 6.10714 52.5054 6.10714 36C6.10714 19.4946 19.4946 6.10714 36 6.10714C52.5054 6.10714 65.8929 19.4946 65.8929 36C65.8929 52.5054 52.5054 65.8929 36 65.8929Z" fill="#389429"/>
</g>
<defs>
<clipPath id="clip0_5126_21710">
<rect width="72" height="72" fill="white"/>
</clipPath>
</defs>
</svg>
