<svg width="173" height="173" viewBox="0 0 173 173" fill="none" xmlns="http://www.w3.org/2000/svg">
<path d="M173 86.5C173 134.273 134.273 173 86.5 173C38.7274 173 0 134.273 0 86.5C0 38.7274 38.7274 0 86.5 0C134.273 0 173 38.7274 173 86.5ZM8.08804 86.5C8.08804 129.806 43.1943 164.912 86.5 164.912C129.806 164.912 164.912 129.806 164.912 86.5C164.912 43.1943 129.806 8.08804 86.5 8.08804C43.1943 8.08804 8.08804 43.1943 8.08804 86.5Z" fill="#00A91B"/>
<path d="M128 57.9375L74.375 111.562L50 87.1875" stroke="url(#paint0_linear_2740_12092)" stroke-width="10" stroke-linecap="round" stroke-linejoin="round"/>
<defs>
<linearGradient id="paint0_linear_2740_12092" x1="46" y1="85" x2="82.5" y2="98.5" gradientUnits="userSpaceOnUse">
<stop stop-color="#00A91B"/>
<stop offset="1" stop-color="#00A91B"/>
</linearGradient>
</defs>
</svg>
