<svg width="20" height="21" viewBox="0 0 20 21" fill="none" xmlns="http://www.w3.org/2000/svg">
<path d="M0 1.75C0 1.05964 0.559644 0.5 1.25 0.5H7.5C8.19036 0.5 8.75 1.05964 8.75 1.75V10.5C8.75 11.1904 8.19036 11.75 7.5 11.75H1.25C0.559644 11.75 0 11.1904 0 10.5V1.75Z" fill="white"/>
<path d="M11.25 1.75C11.25 1.05964 11.8096 0.5 12.5 0.5H18.75C19.4404 0.5 20 1.05964 20 1.75V5.5C20 6.19036 19.4404 6.75 18.75 6.75H12.5C11.8096 6.75 11.25 6.19036 11.25 5.5V1.75Z" fill="white"/>
<path d="M0 15.5C0 14.8096 0.559644 14.25 1.25 14.25H7.5C8.19036 14.25 8.75 14.8096 8.75 15.5V19.25C8.75 19.9404 8.19036 20.5 7.5 20.5H1.25C0.559644 20.5 0 19.9404 0 19.25V15.5Z" fill="white"/>
<path d="M11.25 10.5C11.25 9.80964 11.8096 9.25 12.5 9.25H18.75C19.4404 9.25 20 9.80964 20 10.5V19.25C20 19.9404 19.4404 20.5 18.75 20.5H12.5C11.8096 20.5 11.25 19.9404 11.25 19.25V10.5Z" fill="white"/>
</svg>
