<svg width="13" height="14" viewBox="0 0 13 14" fill="none" xmlns="http://www.w3.org/2000/svg">
<path d="M12.7498 6.56339H11.3034C11.2212 6.56339 11.1427 6.59911 11.0873 6.66161L7.17838 11.167V1.11161C7.17838 1.03304 7.1141 0.96875 7.03553 0.96875H5.9641C5.88553 0.96875 5.82124 1.03304 5.82124 1.11161V11.167L1.91231 6.66161C1.85874 6.59911 1.78017 6.56339 1.69624 6.56339H0.249812C0.128384 6.56339 0.0623124 6.70804 0.14267 6.79911L6.06946 13.6295C6.12303 13.6913 6.18926 13.7408 6.26367 13.7748C6.33807 13.8088 6.41891 13.8264 6.50071 13.8264C6.5825 13.8264 6.66334 13.8088 6.73774 13.7748C6.81215 13.7408 6.87838 13.6913 6.93196 13.6295L12.857 6.79911C12.9373 6.70625 12.8712 6.56339 12.7498 6.56339Z" fill="#D60D0D"/>
</svg>
