<svg width="22" height="22" viewBox="0 0 22 22" fill="none" xmlns="http://www.w3.org/2000/svg">
<path d="M6.92815 2.21373H6.71387C6.83173 2.21373 6.92815 2.1173 6.92815 1.99944V2.21373H15.071V1.99944C15.071 2.1173 15.1674 2.21373 15.2853 2.21373H15.071V4.1423H16.9996V1.99944C16.9996 1.05391 16.2308 0.285156 15.2853 0.285156H6.71387C5.76833 0.285156 4.99958 1.05391 4.99958 1.99944V4.1423H6.92815V2.21373ZM20.4282 4.1423H1.57101C1.0969 4.1423 0.713867 4.52534 0.713867 4.99944V5.85659C0.713867 5.97444 0.810296 6.07087 0.928153 6.07087H2.54601L3.20762 20.0798C3.25047 20.9932 4.00583 21.7137 4.91922 21.7137H17.0799C17.996 21.7137 18.7487 20.9959 18.7915 20.0798L19.4532 6.07087H21.071C21.1889 6.07087 21.2853 5.97444 21.2853 5.85659V4.99944C21.2853 4.52534 20.9023 4.1423 20.4282 4.1423ZM16.8737 19.7852H5.12548L4.47726 6.07087H17.5219L16.8737 19.7852Z" fill="#D60D0D"/>
</svg>
