<svg width="21" height="21" viewBox="0 0 21 21" fill="none" xmlns="http://www.w3.org/2000/svg">
<path d="M19.2499 10.3973H17.9999C17.9016 10.3973 17.8213 10.4777 17.8213 10.5759V17.7188H3.17843V3.07589H10.3213C10.4195 3.07589 10.4999 2.99554 10.4999 2.89732V1.64732C10.4999 1.54911 10.4195 1.46875 10.3213 1.46875H2.28557C1.89049 1.46875 1.57129 1.78795 1.57129 2.18304V18.6116C1.57129 19.0067 1.89049 19.3259 2.28557 19.3259H18.7141C19.1092 19.3259 19.4284 19.0067 19.4284 18.6116V10.5759C19.4284 10.4777 19.3481 10.3973 19.2499 10.3973Z" fill="#1E1E24"/>
<path d="M7.01534 10.9085L6.97293 13.5625C6.9707 13.7612 7.13141 13.9241 7.33007 13.9241H7.339L9.97293 13.8594C10.0176 13.8571 10.0622 13.8393 10.0935 13.808L19.3769 4.54464C19.4461 4.47545 19.4461 4.36161 19.3769 4.29241L16.6024 1.52009C16.5667 1.48438 16.522 1.46875 16.4752 1.46875C16.4283 1.46875 16.3836 1.48661 16.3479 1.52009L7.06668 10.7835C7.03444 10.8172 7.0161 10.8618 7.01534 10.9085ZM8.43275 11.4353L16.4752 3.41071L17.4841 4.41741L9.43721 12.4464L8.41712 12.471L8.43275 11.4353Z" fill="#1E1E24"/>
</svg>
