<svg width="173" height="173" viewBox="0 0 173 173" fill="none" xmlns="http://www.w3.org/2000/svg">
<path d="M173 86.5C173 134.273 134.273 173 86.5 173C38.7274 173 0 134.273 0 86.5C0 38.7274 38.7274 0 86.5 0C134.273 0 173 38.7274 173 86.5ZM8.08804 86.5C8.08804 129.806 43.1943 164.912 86.5 164.912C129.806 164.912 164.912 129.806 164.912 86.5C164.912 43.1943 129.806 8.08804 86.5 8.08804C43.1943 8.08804 8.08804 43.1943 8.08804 86.5Z" fill="#D50000"/>
<path d="M59 114.925L86.9627 86.9627L114.925 114.925M114.925 59L86.9573 86.9627L59 59" stroke="#D50000" stroke-width="8" stroke-linecap="round" stroke-linejoin="round"/>
</svg>
