<svg width="14" height="15" viewBox="0 0 14 15" fill="none" xmlns="http://www.w3.org/2000/svg">
<path d="M7 0.625C3.13437 0.625 0 3.75937 0 7.625C0 11.4906 3.13437 14.625 7 14.625C10.8656 14.625 14 11.4906 14 7.625C14 3.75937 10.8656 0.625 7 0.625ZM7 13.4375C3.79063 13.4375 1.1875 10.8344 1.1875 7.625C1.1875 4.41563 3.79063 1.8125 7 1.8125C10.2094 1.8125 12.8125 4.41563 12.8125 7.625C12.8125 10.8344 10.2094 13.4375 7 13.4375Z" fill="#D60D0D"/>
<path d="M6.24976 10.375C6.24976 10.5739 6.32877 10.7647 6.46943 10.9053C6.61008 11.046 6.80084 11.125 6.99976 11.125C7.19867 11.125 7.38943 11.046 7.53009 10.9053C7.67074 10.7647 7.74976 10.5739 7.74976 10.375C7.74976 10.1761 7.67074 9.98532 7.53009 9.84467C7.38943 9.70402 7.19867 9.625 6.99976 9.625C6.80084 9.625 6.61008 9.70402 6.46943 9.84467C6.32877 9.98532 6.24976 10.1761 6.24976 10.375ZM6.62476 8.625H7.37476C7.44351 8.625 7.49976 8.56875 7.49976 8.5V4.25C7.49976 4.18125 7.44351 4.125 7.37476 4.125H6.62476C6.55601 4.125 6.49976 4.18125 6.49976 4.25V8.5C6.49976 8.56875 6.55601 8.625 6.62476 8.625Z" fill="#D60D0D"/>
</svg>
