<svg width="64" height="65" viewBox="0 0 64 65" fill="none" xmlns="http://www.w3.org/2000/svg">
<path d="M12.8004 7.25464C11.103 7.25464 9.47514 7.92892 8.27491 9.12916C7.07467 10.3294 6.40039 11.9573 6.40039 13.6546V42.4546C6.40039 44.152 7.07467 45.7799 8.27491 46.9801C9.47514 48.1804 11.103 48.8546 12.8004 48.8546H22.4004V55.2546H17.6004C17.176 55.2546 16.7691 55.4232 16.469 55.7233C16.169 56.0233 16.0004 56.4303 16.0004 56.8546C16.0004 57.279 16.169 57.686 16.469 57.986C16.7691 58.2861 17.176 58.4546 17.6004 58.4546H46.4004C46.8247 58.4546 47.2317 58.2861 47.5318 57.986C47.8318 57.686 48.0004 57.279 48.0004 56.8546C48.0004 56.4303 47.8318 56.0233 47.5318 55.7233C47.2317 55.4232 46.8247 55.2546 46.4004 55.2546H41.6004V48.8546H51.2004C52.8978 48.8546 54.5256 48.1804 55.7259 46.9801C56.9261 45.7799 57.6004 44.152 57.6004 42.4546V13.6546C57.6004 11.9573 56.9261 10.3294 55.7259 9.12916C54.5256 7.92892 52.8978 7.25464 51.2004 7.25464H12.8004ZM38.4004 48.8546V55.2546H25.6004V48.8546H38.4004ZM9.60039 13.6546C9.60039 12.8059 9.93753 11.992 10.5376 11.3919C11.1378 10.7918 11.9517 10.4546 12.8004 10.4546H51.2004C52.0491 10.4546 52.863 10.7918 53.4631 11.3919C54.0633 11.992 54.4004 12.8059 54.4004 13.6546V42.4546C54.4004 43.3033 54.0633 44.1173 53.4631 44.7174C52.863 45.3175 52.0491 45.6546 51.2004 45.6546H12.8004C11.9517 45.6546 11.1378 45.3175 10.5376 44.7174C9.93753 44.1173 9.60039 43.3033 9.60039 42.4546V13.6546Z" fill="#2C7C7A"/>
<g clip-path="url(#clip0_634_1712)">
<path d="M44 28.8427C44 22.2247 38.624 16.8547 32 16.8547C25.376 16.8547 20 22.2247 20 28.8427C20 32.4877 21.656 35.7727 24.248 37.9777C24.272 38.0017 24.296 38.0017 24.296 38.0257C24.512 38.1937 24.728 38.3617 24.968 38.5297C25.088 38.6017 25.184 38.6962 25.304 38.7922C27.2871 40.1368 29.6281 40.8553 32.024 40.8547C34.4199 40.8553 36.7609 40.1368 38.744 38.7922C38.864 38.7202 38.96 38.6257 39.08 38.5522C39.296 38.3857 39.536 38.2177 39.752 38.0497C39.776 38.0257 39.8 38.0257 39.8 38.0017C42.344 35.7712 44 32.4877 44 28.8427ZM32 39.3442C29.744 39.3442 27.68 38.6242 25.976 37.4257C26 37.2337 26.048 37.0432 26.096 36.8512C26.239 36.3309 26.4487 35.8312 26.72 35.3647C26.984 34.9087 27.296 34.5007 27.68 34.1407C28.04 33.7807 28.472 33.4462 28.904 33.1822C29.36 32.9182 29.84 32.7262 30.368 32.5822C30.9001 32.4388 31.4489 32.3667 32 32.3677C33.636 32.3561 35.2118 32.9837 36.392 34.1167C36.944 34.6687 37.376 35.3167 37.688 36.0592C37.856 36.4912 37.976 36.9472 38.048 37.4257C36.2768 38.671 34.1652 39.3408 32 39.3442ZM28.328 28.2442C28.1165 27.7601 28.0102 27.2365 28.016 26.7082C28.016 26.1817 28.112 25.6537 28.328 25.1737C28.544 24.6937 28.832 24.2632 29.192 23.9032C29.552 23.5432 29.984 23.2567 30.464 23.0407C30.944 22.8247 31.472 22.7287 32 22.7287C32.552 22.7287 33.056 22.8247 33.536 23.0407C34.016 23.2567 34.448 23.5447 34.808 23.9032C35.168 24.2632 35.456 24.6952 35.672 25.1737C35.888 25.6537 35.984 26.1817 35.984 26.7082C35.984 27.2602 35.888 27.7642 35.672 28.2427C35.4635 28.7156 35.1708 29.1467 34.808 29.5147C34.4398 29.877 34.0088 30.1692 33.536 30.3772C32.5442 30.7848 31.4318 30.7848 30.44 30.3772C29.9672 30.1692 29.5362 29.877 29.168 29.5147C28.8047 29.152 28.5189 28.7208 28.328 28.2442ZM39.464 36.2032C39.464 36.1552 39.44 36.1312 39.44 36.0832C39.204 35.3324 38.856 34.6214 38.408 33.9742C37.9595 33.3223 37.4084 32.7474 36.776 32.2717C36.293 31.9084 35.7695 31.6024 35.216 31.3597C35.4678 31.1936 35.7011 31.001 35.912 30.7852C36.2698 30.432 36.584 30.0372 36.848 29.6092C37.3795 28.7359 37.654 27.7305 37.64 26.7082C37.6474 25.9515 37.5004 25.2012 37.208 24.5032C36.9193 23.8307 36.5037 23.2201 35.984 22.7047C35.4651 22.1948 34.8543 21.7876 34.184 21.5047C33.4849 21.2128 32.7336 21.0664 31.976 21.0742C31.2183 21.0668 30.467 21.2138 29.768 21.5062C29.0919 21.7885 28.4797 22.2043 27.968 22.7287C27.4581 23.2471 27.0509 23.8574 26.768 24.5272C26.4756 25.2252 26.3286 25.9755 26.336 26.7322C26.336 27.2602 26.408 27.7642 26.552 28.2427C26.696 28.7467 26.888 29.2027 27.152 29.6332C27.392 30.0652 27.728 30.4492 28.088 30.8092C28.304 31.0252 28.544 31.2157 28.808 31.3837C28.2528 31.6328 27.7291 31.947 27.248 32.3197C26.624 32.7997 26.072 33.3742 25.616 33.9982C25.1634 34.6427 24.8151 35.3544 24.584 36.1072C24.56 36.1552 24.56 36.2032 24.56 36.2272C22.664 34.3087 21.488 31.7197 21.488 28.8427C21.488 23.0647 26.216 18.3412 32 18.3412C37.784 18.3412 42.512 23.0647 42.512 28.8427C42.5089 31.6027 41.413 34.2491 39.464 36.2032Z" fill="#2C7C7A"/>
</g>
<defs>
<clipPath id="clip0_634_1712">
<rect width="24" height="24" fill="white" transform="translate(20 16.8547)"/>
</clipPath>
</defs>
</svg>
