<svg width="24" height="25" viewBox="0 0 24 25" fill="none" xmlns="http://www.w3.org/2000/svg">
<path d="M6.75 14.1875C6.75 14.9016 6.89065 15.6086 7.1639 16.2683C7.43716 16.928 7.83769 17.5275 8.34261 18.0324C8.84753 18.5373 9.44695 18.9378 10.1067 19.2111C10.7664 19.4844 11.4734 19.625 12.1875 19.625C12.9016 19.625 13.6086 19.4844 14.2683 19.2111C14.928 18.9378 15.5275 18.5373 16.0324 18.0324C16.5373 17.5275 16.9378 16.928 17.2111 16.2683C17.4844 15.6086 17.625 14.9016 17.625 14.1875C17.625 12.7454 17.0521 11.3623 16.0324 10.3426C15.0127 9.32288 13.6296 8.75 12.1875 8.75C10.7454 8.75 9.36234 9.32288 8.34261 10.3426C7.32288 11.3623 6.75 12.7454 6.75 14.1875Z" fill="white" stroke="#686969" stroke-linecap="round" stroke-linejoin="round"/>
<path d="M9.77112 11.7705L10.1052 11.6038C10.1973 11.5577 10.2996 11.536 10.4025 11.5407C10.5053 11.5453 10.6053 11.5761 10.6928 11.6302C10.7804 11.6843 10.8527 11.7599 10.9029 11.8498C10.953 11.9397 10.9794 12.0409 10.9795 12.1439V15.9997C10.9795 16.3201 11.1068 16.6275 11.3334 16.8541C11.56 17.0807 11.8673 17.208 12.1878 17.208H12.4899C12.8905 17.208 13.2746 17.0489 13.5579 16.7656C13.8412 16.4824 14.0003 16.0982 14.0003 15.6976V15.3955H13.3961M9.77112 13.583H14.0003H9.77112Z" fill="white"/>
<path d="M9.77112 11.7705L10.1052 11.6038C10.1973 11.5577 10.2996 11.536 10.4025 11.5407C10.5053 11.5453 10.6053 11.5761 10.6928 11.6302C10.7804 11.6843 10.8527 11.7599 10.9029 11.8498C10.953 11.9397 10.9794 12.0409 10.9795 12.1439V15.9997C10.9795 16.3201 11.1068 16.6275 11.3334 16.8541C11.56 17.0807 11.8673 17.208 12.1878 17.208H12.4899C12.8905 17.208 13.2746 17.0489 13.5579 16.7656C13.8412 16.4824 14.0003 16.0982 14.0003 15.6976V15.3955H13.3961M9.77112 13.583H14.0003" stroke="#686969" stroke-linecap="round" stroke-linejoin="round"/>
<path d="M6 2.375C6 2.07663 6.11853 1.79048 6.3295 1.5795C6.54048 1.36853 6.82663 1.25 7.125 1.25H16.875C17.1734 1.25 17.4595 1.36853 17.6705 1.5795C17.8815 1.79048 18 2.07663 18 2.375C18 2.67337 17.8815 2.95952 17.6705 3.1705C17.4595 3.38147 17.1734 3.5 16.875 3.5H16.5V4.25H18.0787C19.6523 4.25 21 5.4665 21 7.0535V20.9465C21 22.5335 19.6523 23.75 18.0787 23.75H5.92125C4.34775 23.75 3 22.5335 3 20.9465V7.0535C3 5.4665 4.34775 4.25 5.92125 4.25H7.5V3.5H7.125C6.82663 3.5 6.54048 3.38147 6.3295 3.1705C6.11853 2.95952 6 2.67337 6 2.375ZM5.92125 5.75C5.09625 5.75 4.5 6.3725 4.5 7.0535V20.9465C4.5 21.6275 5.09625 22.25 5.92125 22.25H18.0787C18.9037 22.25 19.5 21.6275 19.5 20.9465V7.0535C19.5 6.3725 18.9037 5.75 18.0787 5.75H5.92125Z" fill="#686969"/>
</svg>
