<svg width="20" height="20" viewBox="0 0 20 20" fill="none" xmlns="http://www.w3.org/2000/svg">
<path d="M19.3747 8.75134H17.2051C17.0819 8.75134 16.964 8.80491 16.881 8.89866L11.0176 15.6567V0.573661C11.0176 0.455804 10.9211 0.359375 10.8033 0.359375H9.19615C9.07829 0.359375 8.98186 0.455804 8.98186 0.573661V15.6567L3.11847 8.89866C3.03811 8.80491 2.92025 8.75134 2.79436 8.75134H0.624719C0.442576 8.75134 0.343469 8.9683 0.464004 9.10491L9.35418 19.3504C9.43454 19.4432 9.5339 19.5175 9.6455 19.5685C9.75711 19.6194 9.87837 19.6458 10.0011 19.6458C10.1237 19.6458 10.245 19.6194 10.3566 19.5685C10.4682 19.5175 10.5676 19.4432 10.6479 19.3504L19.5354 9.10491C19.656 8.96563 19.5569 8.75134 19.3747 8.75134Z" fill="#E45F5F"/>
</svg>
