<svg width="21" height="21" viewBox="0 0 21 21" fill="none" xmlns="http://www.w3.org/2000/svg">
<g clip-path="url(#clip0_4860_1851)">
<path d="M14.2936 6.80095C14.2936 6.70151 14.2122 6.62015 14.1128 6.62015L12.6212 6.62693L10.3747 9.30508L8.13046 6.62919L6.63657 6.62241C6.53713 6.62241 6.45576 6.70151 6.45576 6.80321C6.45576 6.84615 6.47158 6.88683 6.49871 6.92073L9.43902 10.4238L6.49871 13.9246C6.4714 13.9577 6.45624 13.9992 6.45576 14.0421C6.45576 14.1416 6.53713 14.2229 6.63657 14.2229L8.13046 14.2162L10.3747 11.538L12.6189 14.2139L14.1105 14.2207C14.21 14.2207 14.2913 14.1416 14.2913 14.0399C14.2913 13.9969 14.2755 13.9563 14.2484 13.9224L11.3126 10.4215L14.2529 6.91847C14.28 6.88683 14.2936 6.84389 14.2936 6.80095Z" fill="white"/>
<path d="M10.375 0.25C4.78365 0.25 0.25 4.78365 0.25 10.375C0.25 15.9664 4.78365 20.5 10.375 20.5C15.9664 20.5 20.5 15.9664 20.5 10.375C20.5 4.78365 15.9664 0.25 10.375 0.25ZM10.375 18.7824C5.73287 18.7824 1.96763 15.0171 1.96763 10.375C1.96763 5.73287 5.73287 1.96763 10.375 1.96763C15.0171 1.96763 18.7824 5.73287 18.7824 10.375C18.7824 15.0171 15.0171 18.7824 10.375 18.7824Z" fill="white"/>
</g>
<defs>
<clipPath id="clip0_4860_1851">
<rect width="20.25" height="20.25" fill="white" transform="translate(0.25 0.25)"/>
</clipPath>
</defs>
</svg>
