<svg width="20" height="20" viewBox="0 0 20 20" fill="none" xmlns="http://www.w3.org/2000/svg">
<path d="M19.5364 10.8964L10.6462 0.650817C10.5659 0.558108 10.4665 0.483756 10.3549 0.432799C10.2433 0.381841 10.1221 0.355469 9.99937 0.355469C9.87668 0.355469 9.75542 0.381841 9.64381 0.432799C9.5322 0.483756 9.43285 0.558108 9.35249 0.650817L0.464992 10.8964C0.438135 10.9272 0.420722 10.9652 0.414825 11.0057C0.408929 11.0462 0.414798 11.0875 0.431733 11.1248C0.448668 11.162 0.475956 11.1936 0.510347 11.2158C0.544737 11.238 0.58478 11.2499 0.625706 11.2499H2.79535C2.91856 11.2499 3.03642 11.1964 3.11946 11.1026L8.98285 4.34457V19.4276C8.98285 19.5455 9.07928 19.6419 9.19713 19.6419H10.8043C10.9221 19.6419 11.0186 19.5455 11.0186 19.4276V4.34457L16.882 11.1026C16.9623 11.1964 17.0802 11.2499 17.2061 11.2499H19.3757C19.5578 11.2499 19.657 11.0356 19.5364 10.8964Z" fill="#24FF00"/>
</svg>
