<svg width="34" height="34" viewBox="0 0 34 34" fill="none" xmlns="http://www.w3.org/2000/svg">
<path d="M17 0.332031C26.205 0.332031 33.6667 7.7937 33.6667 16.9987C33.6667 26.2037 26.205 33.6654 17 33.6654C7.79504 33.6654 0.333374 26.2037 0.333374 16.9987C0.333374 7.7937 7.79504 0.332031 17 0.332031ZM17 2.83203C13.2428 2.83203 9.63946 4.32459 6.9827 6.98135C4.32593 9.63812 2.83337 13.2415 2.83337 16.9987C2.83337 20.7559 4.32593 24.3593 6.9827 27.016C9.63946 29.6728 13.2428 31.1654 17 31.1654C20.7573 31.1654 24.3606 29.6728 27.0174 27.016C29.6742 24.3593 31.1667 20.7559 31.1667 16.9987C31.1667 13.2415 29.6742 9.63812 27.0174 6.98135C24.3606 4.32459 20.7573 2.83203 17 2.83203ZM17 8.66537C17.3316 8.66537 17.6495 8.79706 17.8839 9.03148C18.1183 9.2659 18.25 9.58384 18.25 9.91537V15.7487H24.0834C24.4149 15.7487 24.7328 15.8804 24.9673 16.1148C25.2017 16.3492 25.3334 16.6672 25.3334 16.9987C25.3334 17.3302 25.2017 17.6482 24.9673 17.8826C24.7328 18.117 24.4149 18.2487 24.0834 18.2487H18.25V24.082C18.25 24.4136 18.1183 24.7315 17.8839 24.9659C17.6495 25.2003 17.3316 25.332 17 25.332C16.6685 25.332 16.3506 25.2003 16.1162 24.9659C15.8817 24.7315 15.75 24.4136 15.75 24.082V18.2487H9.91671C9.58519 18.2487 9.26724 18.117 9.03282 17.8826C8.7984 17.6482 8.66671 17.3302 8.66671 16.9987C8.66671 16.6672 8.7984 16.3492 9.03282 16.1148C9.26724 15.8804 9.58519 15.7487 9.91671 15.7487H15.75V9.91537C15.75 9.58384 15.8817 9.2659 16.1162 9.03148C16.3506 8.79706 16.6685 8.66537 17 8.66537Z" fill="#24FF00"/>
</svg>
