<svg width="14" height="13" viewBox="0 0 14 13" fill="none" xmlns="http://www.w3.org/2000/svg">
<path d="M13.4282 5.82115H2.97999L9.23356 0.392578C9.33356 0.305078 9.27285 0.142578 9.1407 0.142578H7.56035C7.4907 0.142578 7.42463 0.167578 7.37285 0.212221L0.624633 6.06758C0.562827 6.12115 0.513259 6.18739 0.479288 6.26179C0.445316 6.3362 0.427734 6.41704 0.427734 6.49883C0.427734 6.58062 0.445316 6.66146 0.479288 6.73587C0.513259 6.81027 0.562827 6.8765 0.624633 6.93008L7.41213 12.8211C7.43892 12.8444 7.47106 12.8569 7.50499 12.8569H9.13892C9.27106 12.8569 9.33177 12.6926 9.23178 12.6069L2.97999 7.17829H13.4282C13.5068 7.17829 13.5711 7.11401 13.5711 7.03544V5.96401C13.5711 5.88544 13.5068 5.82115 13.4282 5.82115Z" fill="white"/>
</svg>
