<svg width="1440" height="2718" viewBox="0 0 1440 2718" fill="none" xmlns="http://www.w3.org/2000/svg">
<g filter="url(#filter0_ddf_1337_783)">
<path d="M960 1993.5C960 2590.8 475.796 3075 -121.5 3075C-718.796 3075 -1203 2590.8 -1203 1993.5C-1203 1396.2 -718.796 912 -121.5 912C475.796 912 960 1396.2 960 1993.5Z" fill="#1D0550"/>
<path d="M1416 3033.5C1416 3630.8 931.796 4115 334.5 4115C-262.796 4115 -747 3630.8 -747 3033.5C-747 2436.2 -262.796 1952 334.5 1952C931.796 1952 1416 2436.2 1416 3033.5Z" fill="#551A5F"/>
<path d="M2592 2812C2592 3409.57 2107.8 3894 1510.5 3894C913.204 3894 429 3409.57 429 2812C429 2214.43 913.204 1730 1510.5 1730C2107.8 1730 2592 2214.43 2592 2812Z" fill="#0A6260"/>
<path d="M2939 -553.5C2939 43.7959 2454.8 528 1857.5 528C1260.2 528 776 43.7959 776 -553.5C776 -1150.8 1260.2 -1635 1857.5 -1635C2454.8 -1635 2939 -1150.8 2939 -553.5Z" fill="#673AAF"/>
<path d="M1511 368.5C1511 965.796 1026.8 1450 429.5 1450C-167.796 1450 -652 965.796 -652 368.5C-652 -228.796 -167.796 -713 429.5 -713C1026.8 -713 1511 -228.796 1511 368.5Z" fill="#62D3CD"/>
<path d="M2172 989C2172 1586.57 1687.8 2071 1090.5 2071C493.204 2071 9 1586.57 9 989C9 391.428 493.204 -93 1090.5 -93C1687.8 -93 2172 391.428 2172 989Z" fill="#35044B"/>
</g>
<defs>
<filter id="filter0_ddf_1337_783" x="-2003" y="-2435" width="5742" height="7350" filterUnits="userSpaceOnUse" color-interpolation-filters="sRGB">
<feFlood flood-opacity="0" result="BackgroundImageFix"/>
<feColorMatrix in="SourceAlpha" type="matrix" values="0 0 0 0 0 0 0 0 0 0 0 0 0 0 0 0 0 0 127 0" result="hardAlpha"/>
<feOffset dy="4"/>
<feGaussianBlur stdDeviation="2"/>
<feComposite in2="hardAlpha" operator="out"/>
<feColorMatrix type="matrix" values="0 0 0 0 0 0 0 0 0 0 0 0 0 0 0 0 0 0 0.25 0"/>
<feBlend mode="normal" in2="BackgroundImageFix" result="effect1_dropShadow_1337_783"/>
<feColorMatrix in="SourceAlpha" type="matrix" values="0 0 0 0 0 0 0 0 0 0 0 0 0 0 0 0 0 0 127 0" result="hardAlpha"/>
<feOffset dy="4"/>
<feGaussianBlur stdDeviation="2"/>
<feComposite in2="hardAlpha" operator="out"/>
<feColorMatrix type="matrix" values="0 0 0 0 0 0 0 0 0 0 0 0 0 0 0 0 0 0 0.25 0"/>
<feBlend mode="normal" in2="effect1_dropShadow_1337_783" result="effect2_dropShadow_1337_783"/>
<feBlend mode="normal" in="SourceGraphic" in2="effect2_dropShadow_1337_783" result="shape"/>
<feGaussianBlur stdDeviation="400" result="effect3_foregroundBlur_1337_783"/>
</filter>
</defs>
</svg>
