<svg width="262" height="59" viewBox="0 0 262 59" fill="none" xmlns="http://www.w3.org/2000/svg">
<g clip-path="url(#clip0_4042_17495)">
<path d="M88.6823 34.7878C88.6823 38.273 88.158 40.9791 87.1093 42.9062C85.1651 46.429 81.4642 48.1866 76.0105 48.1866C72.8645 48.1866 70.174 47.3473 67.9465 45.6725C65.7153 43.9976 64.6016 41.013 64.6016 36.7261V33.7754H69.9443V36.7261C69.9443 38.9731 70.4534 40.663 71.4752 41.7959C72.4971 42.9287 74.0854 43.4971 76.2439 43.4971C79.2789 43.4971 81.2652 42.4771 82.199 40.4334C82.7731 39.1801 83.0602 36.8089 83.0602 33.3237V5.82227H88.6861V34.7878H88.6823Z" fill="black"/>
<path d="M118.791 20.0076C121.497 22.5895 122.848 26.3871 122.848 31.4042C122.848 36.2518 121.658 40.2564 119.273 43.4179C116.889 46.5795 113.192 48.1602 108.182 48.1602C104.003 48.1602 100.685 46.7601 98.2237 43.9637C95.7666 41.1672 94.5381 37.411 94.5381 32.6951C94.5381 27.6442 95.8317 23.6208 98.4265 20.6249C101.018 17.6327 104.496 16.1348 108.867 16.1348C112.779 16.1348 116.089 17.4257 118.791 20.0076ZM115.599 40.0042C116.851 37.4713 117.478 34.6485 117.478 31.5434C117.478 28.7394 117.027 26.4549 116.124 24.6972C114.692 21.9271 112.224 20.5458 108.722 20.5458C105.614 20.5458 103.356 21.7239 101.944 24.08C100.531 26.4361 99.8234 29.2814 99.8234 32.6085C99.8234 35.8077 100.528 38.4724 101.944 40.6064C103.356 42.7405 105.599 43.8056 108.668 43.8056C112.036 43.8056 114.348 42.5372 115.599 40.0042Z" fill="black"/>
<path d="M129.163 17.0043H134.249V21.2761C135.47 19.7969 136.573 18.7205 137.564 18.0468C139.259 16.9064 141.184 16.3343 143.335 16.3343C145.773 16.3343 147.733 16.9252 149.221 18.1033C150.06 18.777 150.821 19.7706 151.506 21.0804C152.651 19.4695 153.99 18.2764 155.533 17.4973C157.075 16.7182 158.809 16.3306 160.734 16.3306C164.848 16.3306 167.646 17.7909 169.134 20.7115C169.934 22.2848 170.332 24.4 170.332 27.0609V47.0914H164.99V26.1915C164.99 24.1892 164.481 22.8117 163.462 22.0627C162.444 21.3137 161.201 20.9374 159.735 20.9374C157.718 20.9374 155.98 21.6035 154.522 22.9321C153.064 24.2607 152.337 26.4813 152.337 29.5901V47.0914H147.109V27.4561C147.109 25.4162 146.86 23.9257 146.366 22.9886C145.586 21.5847 144.127 20.8809 141.996 20.8809C140.055 20.8809 138.287 21.6224 136.695 23.1015C135.103 24.5806 134.311 27.2604 134.311 31.137V47.0952H129.167V17.0043H129.163Z" fill="black"/>
<path d="M177.898 17.0043H182.985V21.2761C184.206 19.7969 185.308 18.7205 186.299 18.0468C187.995 16.9064 189.92 16.3343 192.071 16.3343C194.509 16.3343 196.468 16.9252 197.957 18.1033C198.795 18.777 199.557 19.7706 200.242 21.0804C201.386 19.4695 202.726 18.2764 204.268 17.4973C205.81 16.7182 207.544 16.3306 209.469 16.3306C213.583 16.3306 216.381 17.7909 217.87 20.7115C218.67 22.2848 219.068 24.4 219.068 27.0609V47.0914H213.725V26.1915C213.725 24.1892 213.216 22.8117 212.198 22.0627C211.18 21.3137 209.936 20.9374 208.47 20.9374C206.453 20.9374 204.716 21.6035 203.258 22.9321C201.799 24.2607 201.072 26.4813 201.072 29.5901V47.0914H195.84V27.4561C195.84 25.4162 195.592 23.9257 195.098 22.9886C194.317 21.5847 192.859 20.8809 190.727 20.8809C188.787 20.8809 187.019 21.6224 185.427 23.1015C183.834 24.5806 183.042 27.2604 183.042 31.137V47.0952H177.898V17.0043Z" fill="black"/>
<path d="M243.033 28.8825C244.216 28.732 245.004 28.2464 245.406 27.426C245.636 26.9743 245.747 26.327 245.747 25.4801C245.747 23.7526 245.123 22.4955 243.879 21.7164C242.635 20.9373 240.852 20.5459 238.532 20.5459C235.853 20.5459 233.951 21.261 232.83 22.6912C232.202 23.4816 231.793 24.6596 231.605 26.2216H226.806C226.902 22.503 228.122 19.9173 230.472 18.4608C232.822 17.0042 235.547 16.2778 238.647 16.2778C242.241 16.2778 245.161 16.9515 247.408 18.2989C249.631 19.6464 250.745 21.7465 250.745 24.5919V41.9276C250.745 42.4507 250.856 42.8722 251.074 43.1922C251.292 43.5121 251.755 43.6702 252.46 43.6702C252.689 43.6702 252.946 43.6551 253.233 43.6288C253.52 43.5986 253.822 43.5572 254.147 43.5008V47.2382C253.348 47.464 252.739 47.6032 252.318 47.6597C251.897 47.7161 251.327 47.7425 250.603 47.7425C248.831 47.7425 247.546 47.1252 246.746 45.887C246.328 45.2321 246.03 44.3062 245.862 43.1056C244.813 44.453 243.309 45.6235 241.349 46.6171C239.386 47.6108 237.224 48.1076 234.866 48.1076C232.026 48.1076 229.711 47.2607 227.908 45.5671C226.109 43.8734 225.21 41.7544 225.21 39.2102C225.21 36.425 226.094 34.2609 227.866 32.729C229.638 31.1972 231.961 30.2487 234.835 29.895L243.033 28.8825ZM232.206 42.5448C233.293 43.3841 234.579 43.8056 236.064 43.8056C237.874 43.8056 239.623 43.3954 241.319 42.5711C244.174 41.2049 245.605 38.973 245.605 35.868V31.8032C244.977 32.1983 244.17 32.5258 243.182 32.7893C242.195 33.0527 241.223 33.2409 240.274 33.35L237.166 33.7415C235.302 33.9861 233.902 34.3662 232.964 34.8894C231.372 35.7663 230.58 37.1702 230.58 39.0935C230.576 40.5538 231.119 41.7055 232.206 42.5448Z" fill="black"/>
<path d="M8.39208 47.6562H22.7862L14.0028 32.6089L6.79997 44.9501C6.09576 46.1545 6.97985 47.6562 8.39208 47.6562Z" fill="#2C7C7A"/>
<path d="M22.7864 18.0283L14.0029 32.609H31.4894L22.7864 18.0283Z" fill="#41B5B5"/>
<path d="M54.1353 47.6562H40.166L48.7122 32.6089L55.7351 44.9727C56.4202 46.1771 55.5361 47.6562 54.1353 47.6562Z" fill="#2C7C7A"/>
<path d="M48.7117 32.6089L40.1655 47.6562L31.4893 32.6089H48.7117Z" fill="#359A9C"/>
<path d="M31.4894 32.6089H14.0029L22.7864 47.6562L31.4894 32.6089Z" fill="#359A9C"/>
<path d="M22.7861 47.6562L31.4892 32.6089L40.1655 47.6562H22.7861Z" fill="#2C7C7A"/>
<path d="M22.7861 18.0283L31.4892 32.609L40.1655 18.0283H22.7861Z" fill="#62D3CD"/>
<path d="M31.4893 32.609L40.1655 18.0283L48.7117 32.609H31.4893Z" fill="#41B5B5"/>
<path d="M22.7861 18.0284L29.9354 5.95818C30.6242 4.79519 32.3312 4.79519 33.0201 5.95818L40.1693 18.0284H22.7861Z" fill="#6DE2D9"/>
</g>
<defs>
<clipPath id="clip0_4042_17495">
<rect width="261" height="59" fill="white" transform="translate(0.5)"/>
</clipPath>
</defs>
</svg>
