<svg width="30" height="31" viewBox="0 0 30 31" fill="none" xmlns="http://www.w3.org/2000/svg">
<g clip-path="url(#clip0_4042_17583)">
<path d="M24.625 26.6323L16.4062 18.4136C15.7812 18.9552 15.0521 19.3771 14.2188 19.6792C13.3854 19.9813 12.5 20.1323 11.5625 20.1323C9.3125 20.1323 7.40625 19.3511 5.84375 17.7886C4.28125 16.2261 3.5 14.3407 3.5 12.1323C3.5 9.92399 4.28125 8.03857 5.84375 6.47607C7.40625 4.91357 9.30208 4.13232 11.5312 4.13232C13.7396 4.13232 15.6198 4.91357 17.1719 6.47607C18.724 8.03857 19.5 9.92399 19.5 12.1323C19.5 13.0282 19.3542 13.8927 19.0625 14.7261C18.7708 15.5594 18.3333 16.3407 17.75 17.0698L26 25.2573L24.625 26.6323ZM11.5312 18.2573C13.2188 18.2573 14.6562 17.6584 15.8438 16.4604C17.0312 15.2625 17.625 13.8198 17.625 12.1323C17.625 10.4448 17.0312 9.00212 15.8438 7.8042C14.6562 6.60628 13.2188 6.00732 11.5312 6.00732C9.82292 6.00732 8.36979 6.60628 7.17188 7.8042C5.97396 9.00212 5.375 10.4448 5.375 12.1323C5.375 13.8198 5.97396 15.2625 7.17188 16.4604C8.36979 17.6584 9.82292 18.2573 11.5312 18.2573Z" fill="white"/>
</g>
<defs>
<clipPath id="clip0_4042_17583">
<rect width="30" height="30" fill="white" transform="translate(0 0.632324)"/>
</clipPath>
</defs>
</svg>
