<svg width="26" height="27" viewBox="0 0 26 27" fill="none" xmlns="http://www.w3.org/2000/svg">
<path d="M9.73529 13.4355L5.36765 8.93555H2.45588C2.06976 8.93555 1.69945 9.09358 1.42642 9.37489C1.15339 9.65619 1 10.0377 1 10.4355V16.4355C1 16.8334 1.15339 17.2149 1.42642 17.4962C1.69945 17.7775 2.06976 17.9355 2.45588 17.9355H5.36765L9.73529 13.4355ZM15.5588 13.4355L19.9265 8.93555H22.8382C23.2244 8.93555 23.5947 9.09358 23.8677 9.37489C24.1407 9.65619 24.2941 10.0377 24.2941 10.4355V16.4355C24.2941 16.8334 24.1407 17.2149 23.8677 17.4962C23.5947 17.7775 23.2244 17.9355 22.8382 17.9355H19.9265L15.5588 13.4355ZM12.6471 16.4355L8.27941 20.9355V23.9355C8.27941 24.3334 8.4328 24.7149 8.70583 24.9962C8.97886 25.2775 9.34917 25.4355 9.73529 25.4355H15.5588C15.9449 25.4355 16.3153 25.2775 16.5883 24.9962C16.8613 24.7149 17.0147 24.3334 17.0147 23.9355V20.9355L12.6471 16.4355ZM12.6471 10.4355L8.27941 5.93555V2.93555C8.27941 2.53772 8.4328 2.15619 8.70583 1.87489C8.97886 1.59358 9.34917 1.43555 9.73529 1.43555H15.5588C15.9449 1.43555 16.3153 1.59358 16.5883 1.87489C16.8613 2.15619 17.0147 2.53772 17.0147 2.93555V5.93555L12.6471 10.4355Z" stroke="#0047FF" stroke-width="2" stroke-linecap="round" stroke-linejoin="round"/>
</svg>
