<svg width="42" height="43" viewBox="0 0 42 43" fill="none" xmlns="http://www.w3.org/2000/svg">
<path d="M8.39922 4.76465C7.28531 4.76465 6.21702 5.20715 5.42937 5.9948C4.64172 6.78245 4.19922 7.85074 4.19922 8.96465V27.8647C4.19922 28.9786 4.64172 30.0468 5.42937 30.8345C6.21702 31.6222 7.28531 32.0646 8.39922 32.0646H14.6992V36.2647H11.5492C11.2707 36.2647 11.0037 36.3753 10.8068 36.5722C10.6098 36.7691 10.4992 37.0362 10.4992 37.3147C10.4992 37.5931 10.6098 37.8602 10.8068 38.0571C11.0037 38.254 11.2707 38.3647 11.5492 38.3647H30.4492C30.7277 38.3647 30.9948 38.254 31.1917 38.0571C31.3886 37.8602 31.4992 37.5931 31.4992 37.3147C31.4992 37.0362 31.3886 36.7691 31.1917 36.5722C30.9948 36.3753 30.7277 36.2647 30.4492 36.2647H27.2992V32.0646H33.5992C34.7131 32.0646 35.7814 31.6222 36.5691 30.8345C37.3567 30.0468 37.7992 28.9786 37.7992 27.8647V8.96465C37.7992 7.85074 37.3567 6.78245 36.5691 5.9948C35.7814 5.20715 34.7131 4.76465 33.5992 4.76465H8.39922ZM25.1992 32.0646V36.2647H16.7992V32.0646H25.1992ZM6.29922 8.96465C6.29922 8.40769 6.52047 7.87355 6.91429 7.47972C7.30812 7.0859 7.84226 6.86465 8.39922 6.86465H33.5992C34.1562 6.86465 34.6903 7.0859 35.0841 7.47972C35.478 7.87355 35.6992 8.40769 35.6992 8.96465V27.8647C35.6992 28.4216 35.478 28.9557 35.0841 29.3496C34.6903 29.7434 34.1562 29.9646 33.5992 29.9646H8.39922C7.84226 29.9646 7.30812 29.7434 6.91429 29.3496C6.52047 28.9557 6.29922 28.4216 6.29922 27.8647V8.96465Z" fill="#389429"/>
<g clip-path="url(#clip0_634_2101)">
<path d="M28.875 18.9316C28.875 14.5885 25.347 11.0645 21 11.0645C16.653 11.0645 13.125 14.5885 13.125 18.9316C13.125 21.3236 14.2118 23.4794 15.9128 24.9264C15.9285 24.9422 15.9443 24.9422 15.9443 24.9579C16.086 25.0682 16.2278 25.1784 16.3853 25.2887C16.464 25.3359 16.527 25.3979 16.6058 25.4609C17.9072 26.3433 19.4434 26.8148 21.0157 26.8145C22.5881 26.8148 24.1243 26.3433 25.4258 25.4609C25.5045 25.4137 25.5675 25.3517 25.6463 25.3034C25.788 25.1942 25.9455 25.0839 26.0872 24.9737C26.103 24.9579 26.1187 24.9579 26.1187 24.9422C27.7882 23.4784 28.875 21.3236 28.875 18.9316ZM21 25.8232C19.5195 25.8232 18.165 25.3507 17.0468 24.5642C17.0625 24.4382 17.094 24.3132 17.1255 24.1872C17.2193 23.8457 17.357 23.5178 17.535 23.2116C17.7083 22.9124 17.913 22.6446 18.165 22.4084C18.4012 22.1721 18.6848 21.9526 18.9682 21.7794C19.2675 21.6061 19.5825 21.4801 19.929 21.3856C20.2782 21.2915 20.6383 21.2442 21 21.2449C22.0736 21.2373 23.1078 21.6491 23.8823 22.3926C24.2445 22.7549 24.528 23.1801 24.7327 23.6674C24.843 23.9509 24.9218 24.2502 24.969 24.5642C23.8066 25.3814 22.4209 25.8209 21 25.8232ZM18.5903 18.5388C18.4515 18.2211 18.3817 17.8775 18.3855 17.5308C18.3855 17.1853 18.4485 16.8388 18.5903 16.5238C18.732 16.2088 18.921 15.9263 19.1572 15.69C19.3935 15.4538 19.677 15.2658 19.992 15.124C20.307 14.9823 20.6535 14.9193 21 14.9193C21.3623 14.9193 21.693 14.9823 22.008 15.124C22.323 15.2658 22.6065 15.4548 22.8427 15.69C23.079 15.9263 23.268 16.2098 23.4097 16.5238C23.5515 16.8388 23.6145 17.1853 23.6145 17.5308C23.6145 17.8931 23.5515 18.2238 23.4097 18.5378C23.2729 18.8482 23.0808 19.131 22.8427 19.3726C22.6011 19.6103 22.3183 19.8021 22.008 19.9386C21.3572 20.2061 20.6271 20.2061 19.9763 19.9386C19.666 19.8021 19.3831 19.6103 19.1415 19.3726C18.9031 19.1345 18.7156 18.8515 18.5903 18.5388ZM25.8982 23.7619C25.8982 23.7304 25.8825 23.7147 25.8825 23.6832C25.7276 23.1904 25.4993 22.7238 25.2053 22.2991C24.9109 21.8713 24.5493 21.494 24.1342 21.1819C23.8173 20.9434 23.4738 20.7426 23.1105 20.5834C23.2758 20.4743 23.4289 20.3479 23.5673 20.2063C23.8021 19.9745 24.0083 19.7154 24.1815 19.4346C24.5303 18.8615 24.7105 18.2017 24.7013 17.5308C24.7061 17.0342 24.6097 16.5418 24.4178 16.0838C24.2283 15.6424 23.9556 15.2417 23.6145 14.9035C23.2739 14.5689 22.8731 14.3017 22.4333 14.116C21.9744 13.9244 21.4814 13.8283 20.9843 13.8335C20.487 13.8286 19.994 13.9251 19.5353 14.117C19.0915 14.3022 18.6898 14.5751 18.354 14.9193C18.0194 15.2595 17.7521 15.6599 17.5665 16.0995C17.3746 16.5576 17.2781 17.05 17.283 17.5466C17.283 17.8931 17.3303 18.2238 17.4247 18.5378C17.5192 18.8686 17.6453 19.1678 17.8185 19.4503C17.976 19.7338 18.1965 19.9858 18.4328 20.2221C18.5745 20.3638 18.732 20.4889 18.9053 20.5991C18.5409 20.7626 18.1972 20.9688 17.8815 21.2134C17.472 21.5284 17.1098 21.9054 16.8105 22.3149C16.5135 22.7378 16.2849 23.2049 16.1332 23.6989C16.1175 23.7304 16.1175 23.7619 16.1175 23.7777C14.8732 22.5186 14.1015 20.8196 14.1015 18.9316C14.1015 15.1398 17.2042 12.04 21 12.04C24.7957 12.04 27.8985 15.1398 27.8985 18.9316C27.8964 20.7428 27.1773 22.4795 25.8982 23.7619Z" fill="#389429"/>
</g>
<defs>
<clipPath id="clip0_634_2101">
<rect width="15.75" height="15.75" fill="white" transform="translate(13.125 11.0645)"/>
</clipPath>
</defs>
</svg>
