<svg width="101" height="25" viewBox="0 0 101 25" fill="none" xmlns="http://www.w3.org/2000/svg">
<rect width="100.109" height="24" transform="translate(0 0.564453)" fill="white"/>
<path d="M4.77766 20.4709H10.1297L6.86384 14.8813L4.18568 19.4657C3.92384 19.913 4.25256 20.4709 4.77766 20.4709Z" fill="#2C7C7A"/>
<path d="M10.1301 9.46533L6.86426 14.8815H13.3661L10.1301 9.46533Z" fill="#41B5B5"/>
<path d="M21.7859 20.4709H16.5918L19.7695 14.8813L22.3807 19.474C22.6355 19.9214 22.3067 20.4709 21.7859 20.4709Z" fill="#2C7C7A"/>
<path d="M19.7689 14.8813L16.5913 20.4709L13.3652 14.8813H19.7689Z" fill="#359A9C"/>
<path d="M13.3661 14.8813H6.86426L10.1301 20.4709L13.3661 14.8813Z" fill="#359A9C"/>
<path d="M10.1299 20.4709L13.3659 14.8813L16.5919 20.4709H10.1299Z" fill="#2C7C7A"/>
<path d="M10.1299 9.46533L13.3659 14.8815L16.5919 9.46533H10.1299Z" fill="#62D3CD"/>
<path d="M13.3652 14.8815L16.5913 9.46533L19.7689 14.8815H13.3652Z" fill="#41B5B5"/>
<path d="M10.1299 9.46537L12.7881 4.98172C13.0443 4.54971 13.679 4.54971 13.9351 4.98172L16.5933 9.46537H10.1299Z" fill="#6DE2D9"/>
<path d="M34.4919 15.4559C34.4919 16.7506 34.2969 17.7558 33.907 18.4716C33.1841 19.7802 31.808 20.4331 29.7802 20.4331C28.6104 20.4331 27.61 20.1213 26.7818 19.4992C25.9522 18.877 25.5381 17.7684 25.5381 16.1759V15.0798H27.5247V16.1759C27.5247 17.0106 27.7139 17.6383 28.0939 18.0592C28.4738 18.48 29.0644 18.6911 29.867 18.6911C30.9955 18.6911 31.734 18.3122 32.0812 17.553C32.2947 17.0875 32.4014 16.2067 32.4014 14.9121V4.69629H34.4933V15.4559H34.4919Z" fill="#1E1E24"/>
<path d="M45.6868 9.96548C46.6929 10.9246 47.1952 12.3352 47.1952 14.1989C47.1952 15.9996 46.7526 17.4872 45.8661 18.6616C44.9795 19.8359 43.6049 20.4231 41.7421 20.4231C40.1881 20.4231 38.9544 19.903 38.0393 18.8643C37.1257 17.8255 36.6689 16.4302 36.6689 14.6784C36.6689 12.8022 37.1499 11.3076 38.1148 10.1948C39.0782 9.08329 40.3717 8.52686 41.9968 8.52686C43.4512 8.52686 44.6821 9.0064 45.6868 9.96548ZM44.4999 17.3935C44.9653 16.4526 45.1987 15.404 45.1987 14.2506C45.1987 13.209 45.0307 12.3604 44.6949 11.7075C44.1627 10.6785 43.2448 10.1654 41.9427 10.1654C40.7872 10.1654 39.9476 10.603 39.4225 11.4782C38.8974 12.3534 38.6342 13.4104 38.6342 14.6463C38.6342 15.8346 38.896 16.8245 39.4225 17.6172C39.9476 18.4099 40.7815 18.8056 41.9228 18.8056C43.1751 18.8056 44.0346 18.3344 44.4999 17.3935Z" fill="#1E1E24"/>
<path d="M49.543 8.84987H51.4342V10.4367C51.8881 9.88724 52.298 9.48739 52.6665 9.23713C53.297 8.81352 54.0127 8.60101 54.8125 8.60101C55.719 8.60101 56.4476 8.82051 57.0011 9.25811C57.3128 9.50836 57.596 9.87746 57.8507 10.364C58.2762 9.76561 58.7742 9.32242 59.3477 9.03302C59.9212 8.74361 60.5659 8.59961 61.2817 8.59961C62.8114 8.59961 63.8517 9.14206 64.4052 10.227C64.7026 10.8114 64.8506 11.5971 64.8506 12.5855V20.0261H62.8641V12.2626C62.8641 11.5188 62.6748 11.0071 62.2963 10.7289C61.9177 10.4507 61.4553 10.3109 60.9102 10.3109C60.1603 10.3109 59.5142 10.5583 58.9721 11.0518C58.4299 11.5454 58.1595 12.3702 58.1595 13.5251V20.0261H56.2156V12.7323C56.2156 11.9746 56.1231 11.4209 55.9395 11.0728C55.6492 10.5513 55.1071 10.2899 54.3144 10.2899C53.5929 10.2899 52.9355 10.5653 52.3435 11.1148C51.7515 11.6642 51.457 12.6596 51.457 14.0997V20.0275H49.5444V8.84987H49.543Z" fill="#1E1E24"/>
<path d="M67.6641 8.84987H69.5553V10.4367C70.0092 9.88724 70.4191 9.48739 70.7876 9.23713C71.4181 8.81352 72.1338 8.60101 72.9336 8.60101C73.8401 8.60101 74.5687 8.82051 75.1222 9.25811C75.4339 9.50836 75.7171 9.87746 75.9718 10.364C76.3973 9.76561 76.8953 9.32242 77.4688 9.03302C78.0423 8.74361 78.687 8.59961 79.4027 8.59961C80.9325 8.59961 81.9728 9.14206 82.5263 10.227C82.8237 10.8114 82.9717 11.5971 82.9717 12.5855V20.0261H80.9852V12.2626C80.9852 11.5188 80.7959 11.0071 80.4174 10.7289C80.0388 10.4507 79.5764 10.3109 79.0313 10.3109C78.2814 10.3109 77.6353 10.5583 77.0932 11.0518C76.551 11.5454 76.2806 12.3702 76.2806 13.5251V20.0261H74.3353V12.7323C74.3353 11.9746 74.2428 11.4209 74.0592 11.0728C73.7689 10.5513 73.2267 10.2899 72.4341 10.2899C71.7126 10.2899 71.0552 10.5653 70.4632 11.1148C69.8712 11.6642 69.5766 12.6596 69.5766 14.0997V20.0275H67.6641V8.84987Z" fill="#1E1E24"/>
<path d="M91.883 13.2623C92.3227 13.2063 92.6158 13.026 92.7652 12.7212C92.8506 12.5534 92.8919 12.313 92.8919 11.9984C92.8919 11.3567 92.6599 10.8897 92.1975 10.6003C91.735 10.3109 91.0718 10.1655 90.2095 10.1655C89.2133 10.1655 88.5061 10.4311 88.0891 10.9624C87.8558 11.256 87.7035 11.6936 87.6338 12.2738H85.8493C85.8848 10.8925 86.3388 9.93202 87.2125 9.39097C88.0863 8.84991 89.0995 8.58008 90.2522 8.58008C91.5884 8.58008 92.6742 8.83033 93.5095 9.33085C94.3363 9.83136 94.7504 10.6115 94.7504 11.6684V18.108C94.7504 18.3023 94.7917 18.4589 94.8728 18.5778C94.9539 18.6966 95.1261 18.7553 95.3879 18.7553C95.4733 18.7553 95.5686 18.7497 95.6754 18.7399C95.7821 18.7288 95.8945 18.7134 96.0155 18.6924V20.0807C95.7181 20.1646 95.4918 20.2163 95.3353 20.2373C95.1787 20.2583 94.9667 20.268 94.6977 20.268C94.0389 20.268 93.5607 20.0388 93.2633 19.5788C93.1082 19.3355 92.9972 18.9916 92.9346 18.5456C92.5447 19.0461 91.9854 19.4809 91.2568 19.85C90.5268 20.2191 89.7228 20.4037 88.8462 20.4037C87.7903 20.4037 86.9294 20.0891 86.2591 19.46C85.5903 18.8308 85.2559 18.0437 85.2559 17.0986C85.2559 16.064 85.5846 15.2601 86.2435 14.6911C86.9023 14.1221 87.7661 13.7698 88.8348 13.6383L91.883 13.2623ZM87.8572 18.3373C88.2613 18.6491 88.7395 18.8056 89.2916 18.8056C89.9647 18.8056 90.615 18.6533 91.2454 18.3471C92.307 17.8396 92.8393 17.0105 92.8393 15.8571V14.3472C92.6059 14.494 92.3056 14.6156 91.9385 14.7135C91.5713 14.8113 91.2099 14.8812 90.857 14.9218L89.7014 15.0672C89.0084 15.1581 88.4876 15.2993 88.1389 15.4936C87.547 15.8193 87.2524 16.3408 87.2524 17.0553C87.251 17.5977 87.453 18.0255 87.8572 18.3373Z" fill="#1E1E24"/>
</svg>
