<svg width="30" height="30" viewBox="0 0 30 30" fill="none" xmlns="http://www.w3.org/2000/svg">
<g clip-path="url(#clip0_1710_9081)">
<path d="M25 12.5C25 9.84784 23.9464 7.3043 22.0711 5.42893C20.1957 3.55357 17.6522 2.5 15 2.5C12.3478 2.5 9.8043 3.55357 7.92893 5.42893C6.05357 7.3043 5 9.84784 5 12.5" stroke="white" stroke-width="2" stroke-linecap="round" stroke-linejoin="round"/>
<path d="M25 21.25V21.875C25 22.538 24.7366 23.1739 24.2678 23.6428C23.7989 24.1116 23.163 24.375 22.5 24.375H18.125M2.5 18.0475V15.7025C2.50008 15.145 2.6865 14.6035 3.02963 14.1642C3.37276 13.7248 3.8529 13.4127 4.39375 13.2775L6.56875 12.7325C6.67927 12.705 6.79461 12.703 6.90601 12.7267C7.01742 12.7504 7.12196 12.7991 7.21172 12.8692C7.30147 12.9394 7.37408 13.029 7.42403 13.1314C7.47398 13.2337 7.49996 13.3461 7.5 13.46V20.2887C7.5002 20.4029 7.47434 20.5156 7.4244 20.6182C7.37446 20.7208 7.30176 20.8107 7.21183 20.881C7.12189 20.9513 7.01711 21.0001 6.90545 21.0238C6.79379 21.0474 6.67821 21.0453 6.5675 21.0175L4.3925 20.4737C3.85188 20.3383 3.37202 20.0261 3.02914 19.5868C2.68626 19.1474 2.50001 18.6061 2.5 18.0487V18.0475ZM27.5 18.0475V15.7025C27.4999 15.145 27.3135 14.6035 26.9704 14.1642C26.6272 13.7248 26.1471 13.4127 25.6063 13.2775L23.4313 12.7325C23.3207 12.705 23.2054 12.703 23.094 12.7267C22.9826 12.7504 22.878 12.7991 22.7883 12.8692C22.6985 12.9394 22.6259 13.029 22.576 13.1314C22.526 13.2337 22.5 13.3461 22.5 13.46V20.2887C22.4999 20.4027 22.5257 20.5153 22.5756 20.6178C22.6254 20.7203 22.698 20.8101 22.7878 20.8804C22.8776 20.9506 22.9822 20.9995 23.0937 21.0233C23.2052 21.047 23.3206 21.045 23.4313 21.0175L25.6063 20.4737C26.1471 20.3386 26.6272 20.0265 26.9704 19.5871C27.3135 19.1477 27.4999 18.6062 27.5 18.0487V18.0475Z" stroke="white" stroke-width="2"/>
<path d="M16.875 26.25H13.125C12.6277 26.25 12.1508 26.0525 11.7992 25.7008C11.4475 25.3492 11.25 24.8723 11.25 24.375C11.25 23.8777 11.4475 23.4008 11.7992 23.0492C12.1508 22.6975 12.6277 22.5 13.125 22.5H16.875C17.3723 22.5 17.8492 22.6975 18.2008 23.0492C18.5525 23.4008 18.75 23.8777 18.75 24.375C18.75 24.8723 18.5525 25.3492 18.2008 25.7008C17.8492 26.0525 17.3723 26.25 16.875 26.25Z" stroke="white" stroke-width="2"/>
</g>
<defs>
<clipPath id="clip0_1710_9081">
<rect width="30" height="30" fill="white"/>
</clipPath>
</defs>
</svg>
