<svg width="27" height="29" viewBox="0 0 27 29" fill="none" xmlns="http://www.w3.org/2000/svg">
<path d="M4.17391 20.9123L0 25.0027V13.2601H4.17391M11.1304 18.3523L8.94608 16.4879L6.95652 18.3245V7.69489H11.1304M18.0869 16.0427L13.913 20.2166V2.12967H18.0869M21.9965 15.7784L19.4783 13.2601H26.4348V20.2166L23.9443 17.7262L13.913 27.674L9.08521 23.4723L3.82608 28.5645H0L9.00173 19.7436L13.913 23.8897" fill="#209AF2"/>
<path d="M21.2287 1.46717C20.98 1.52214 20.6912 1.53058 20.5038 1.37466C20.2906 1.19732 20.2879 0.890118 20.5454 0.768194C20.82 0.638132 21.1333 0.564453 21.4659 0.564453C22.549 0.564453 23.4276 1.34593 23.4319 2.3114C23.432 2.31376 23.432 2.31613 23.432 2.3185V3.3417H24.415C24.6865 3.3417 24.9065 3.53803 24.9065 3.78021C24.9065 4.0224 24.6865 4.21872 24.415 4.21872H23.432V7.142C23.432 7.62637 23.8721 8.01902 24.415 8.01902C24.9579 8.01902 25.398 7.62637 25.398 7.142C25.398 7.00468 25.3626 6.87474 25.2996 6.75902C25.1364 6.90537 24.9104 6.99597 24.6608 6.99597C24.1631 6.99597 23.7597 6.63603 23.7597 6.19203C23.7597 5.74803 24.1631 5.38809 24.6608 5.38809C24.8368 5.38809 25.0011 5.43313 25.1398 5.51101C25.8669 5.76843 26.381 6.40165 26.381 7.142C26.381 8.11073 25.5008 8.89605 24.415 8.89605C23.3292 8.89605 22.449 8.11073 22.449 7.142C22.449 7.07599 22.453 7.01084 22.461 6.94672C22.4531 6.91554 22.449 6.8831 22.449 6.8498V4.21872H21.3021C21.0306 4.21872 20.8106 4.0224 20.8106 3.78021C20.8106 3.53803 21.0306 3.3417 21.3021 3.3417H22.449V2.8315C22.4489 2.82908 22.4489 2.82665 22.4489 2.82421V2.3185C22.4489 1.83414 22.0088 1.44148 21.4659 1.44148C21.3841 1.44148 21.3047 1.45039 21.2287 1.46717Z" fill="#209AF2"/>
</svg>
