<svg width="30" height="29" viewBox="0 0 30 29" fill="none" xmlns="http://www.w3.org/2000/svg">
<g id="Icon/04">
<g id="Mutual Funds">
<path d="M23.4098 10.2035C23.4098 7.92585 21.3504 6.07265 18.8193 6.07265C16.2886 6.07265 14.2295 7.92585 14.2295 10.2035C14.2295 12.4814 16.2886 14.3349 18.8193 14.3349C21.3504 14.3349 23.4098 12.4814 23.4098 10.2035Z" fill="#880FA7"/>
<path d="M23.6539 18.4823L23.6738 17.8393C23.6746 17.808 23.6912 17.2043 23.6145 16.3759C24.4071 16.6634 25.0044 16.8041 25.0353 16.811L25.6756 16.9602L25.5238 16.3301C25.4028 15.8559 25.255 15.3889 25.0812 14.9313C25.6509 14.9824 26.1203 14.9917 26.3883 14.9917C26.504 14.9917 26.5689 14.9901 26.5689 14.9901L27.2272 14.9706L26.9141 14.4005C26.672 13.9737 26.4066 13.5604 26.119 13.1626C26.951 13.0215 27.5398 12.85 27.5703 12.8407L28.2005 12.655L27.7497 12.1838C27.7274 12.1607 27.3047 11.7216 26.6558 11.1892C27.1071 10.9867 27.5469 10.7594 27.9731 10.5085L28.5326 10.1683L27.9731 9.82851C27.9459 9.81148 27.4229 9.49562 26.6558 9.14732C27.3051 8.61495 27.7274 8.17583 27.7497 8.15353L28.2009 7.68198L27.5703 7.49627C27.5394 7.48776 26.951 7.31584 26.119 7.17434C26.6059 6.49518 26.8991 5.96402 26.9141 5.93605L27.2267 5.36677L26.5689 5.3465C26.5689 5.3465 26.5024 5.34447 26.3822 5.34447C26.1146 5.34447 25.6476 5.35421 25.0816 5.40529C25.2551 4.9478 25.4028 4.48091 25.5238 4.00685L25.6756 3.37716L25.0357 3.52556C25.0044 3.53326 24.4071 3.67355 23.6145 3.96062C23.6912 3.13307 23.6746 2.52852 23.6738 2.4973L23.6539 1.84978L23.0753 2.15833C23.0473 2.17334 22.5076 2.46122 21.8169 2.94169C21.7345 2.45956 21.6253 1.9824 21.4896 1.51243L21.3008 0.892068L20.8217 1.33686C20.4659 1.67678 20.1292 2.03603 19.813 2.41297C19.4582 1.65799 19.137 1.14224 19.1199 1.11588L18.7744 0.564453L18.4292 1.11507C18.4122 1.14183 18.091 1.65718 17.7369 2.41215C17.4206 2.03533 17.0839 1.67609 16.7283 1.33605L16.2491 0.890852L16.0603 1.51162C16.0514 1.54203 15.8764 2.12144 15.733 2.94129C15.3283 2.65712 14.9082 2.39547 14.4747 2.15752L13.8956 1.85018L13.8753 2.49771C13.8745 2.52893 13.8583 3.13348 13.935 3.96103C13.4695 3.79043 12.9951 3.6452 12.5138 3.52597L11.8739 3.37757L12.0258 4.00725C12.0331 4.03807 12.176 4.62559 12.468 5.4057C12.0354 5.36634 11.6013 5.34604 11.167 5.34488C11.0472 5.34488 10.9806 5.34691 10.9806 5.34691L10.3232 5.36718L10.6354 5.93645C10.8774 6.36364 11.1429 6.77704 11.4309 7.17474C10.5989 7.31625 10.0101 7.48776 9.97926 7.49668L9.34866 7.68238L9.80019 8.15394C9.82252 8.17664 10.2448 8.61576 10.8937 9.14773C10.1267 9.49562 9.60366 9.81188 9.57645 9.82891L9.01691 10.1687L9.57645 10.5089C9.60366 10.5255 10.1267 10.8414 10.8937 11.1896C10.2444 11.722 9.82171 12.1611 9.80019 12.1843L9.34906 12.6554L9.97966 12.8411C10.0105 12.85 10.5989 13.0215 11.4313 13.163C10.9436 13.8422 10.6509 14.373 10.6358 14.4009L10.3232 14.9714L10.9814 14.9905C10.9814 14.9905 11.0456 14.9921 11.1617 14.9921C11.4305 14.9921 11.8995 14.9828 12.4688 14.9317C12.2952 15.3893 12.1474 15.8564 12.0262 16.3305L11.8743 16.9606L12.5146 16.8114C12.5455 16.8041 13.1432 16.6638 13.9354 16.3764C13.8587 17.2039 13.8749 17.808 13.8757 17.8393L13.8912 18.3351C11.4244 17.1986 8.72131 17.2043 8.72131 17.2043C8.72131 17.2043 14.3301 19.2174 17.7535 24.8923H19.77C23.1898 20.0178 29.836 16.6152 29.836 16.6152C29.836 16.6152 26.6173 16.8925 23.6539 18.4823ZM17.8571 22.2856C17.4327 21.4267 16.8803 20.637 16.2187 19.9436C15.5889 19.286 14.8316 18.7872 14.0442 18.4077L14.4755 18.1795C14.5035 18.1644 15.0435 17.8766 15.7342 17.3961C15.878 18.2159 16.0526 18.7962 16.0619 18.8262L16.2511 19.4465L16.7299 19.0017C17.0854 18.6618 17.422 18.3027 17.7381 17.926C17.8335 18.13 17.9261 18.3141 18.0114 18.4779L17.8571 22.2856ZM18.7748 18.192C18.5699 17.8055 18.3835 17.4095 18.2164 17.0052L17.9476 16.3492L17.516 16.9148C17.2489 17.2628 16.9652 17.5977 16.6657 17.9183C16.5699 17.4925 16.4943 17.0623 16.4391 16.6294L16.3523 15.9267L15.7858 16.363C15.436 16.6315 15.0733 16.8831 14.6992 17.1167C14.7146 16.7648 14.7479 16.3078 14.819 15.8148L14.9197 15.1137L14.2578 15.3911C13.7925 15.5857 13.3527 15.7361 13.0113 15.8419C13.1193 15.5054 13.2719 15.0728 13.4697 14.6146L13.7511 13.9638L13.0393 14.0624C12.6 14.1222 12.1581 14.1617 11.7151 14.1808C11.9533 13.8126 12.2089 13.4559 12.4809 13.112L12.924 12.5544L12.2105 12.4689C11.7708 12.4154 11.334 12.341 10.9014 12.2459C11.228 11.9503 11.5687 11.6706 11.9222 11.4078L12.4964 10.9825L11.8292 10.7181C11.4188 10.5545 11.0165 10.3713 10.6237 10.1691C11.0164 9.96716 11.4186 9.78409 11.8288 9.6205L12.4964 9.35654L11.9222 8.93081C11.5688 8.66776 11.2282 8.38808 10.9014 8.09271C11.334 7.99799 11.7709 7.92357 12.2105 7.86971L12.924 7.78375L12.4809 7.22664C12.2087 6.88265 11.9532 6.52583 11.7151 6.15743C12.0696 6.17284 12.5358 6.20568 13.0385 6.27583L13.7507 6.37476L13.4693 5.72358C13.297 5.32218 13.1441 4.91273 13.0113 4.49665C13.3531 4.60288 13.7925 4.7525 14.2578 4.94752L14.9197 5.22527L14.819 4.52422C14.7578 4.09204 14.7178 3.65714 14.6992 3.22106C15.0009 3.41041 15.3854 3.66788 15.7854 3.97522L16.3518 4.4115L16.4387 3.70883C16.4997 3.21457 16.5878 2.76491 16.6657 2.42026C16.9651 2.74123 17.2489 3.0764 17.516 3.4246L17.9476 3.98982L18.2168 3.33378C18.4065 2.87155 18.6095 2.45919 18.7752 2.14617C18.9804 2.5328 19.1667 2.92913 19.3335 3.33378L19.6027 3.99022L20.0343 3.42419C20.3017 3.07628 20.5854 2.74126 20.8846 2.42026C20.9622 2.7645 21.0499 3.21416 21.1116 3.70842L21.1985 4.41109L21.7649 3.97481C22.1149 3.70655 22.4773 3.45502 22.8511 3.22106C22.8357 3.57341 22.8024 4.03036 22.7313 4.52341L22.6306 5.22446L23.2925 4.94712C23.7006 4.77726 24.1166 4.62693 24.5391 4.49665C24.4062 4.91273 24.2534 5.32218 24.0811 5.72358L23.8001 6.37476L24.5119 6.27583C24.9509 6.21564 25.3925 6.17613 25.8352 6.15743C25.5972 6.52576 25.3418 6.88257 25.0698 7.22664L24.6264 7.78415L25.3398 7.86971C25.8417 7.92972 26.2989 8.01608 26.6489 8.09271C26.3223 8.38824 25.9816 8.66792 25.6281 8.93081L25.054 9.35654L25.7211 9.6205C26.1901 9.8062 26.6087 10.0061 26.9267 10.1691C26.6087 10.3321 26.1901 10.532 25.7207 10.7181L25.054 10.9825L25.6281 11.4078C26.0325 11.7078 26.3846 12.0075 26.6489 12.2459C26.2993 12.3221 25.8425 12.4085 25.3398 12.4689L24.626 12.5544L25.0698 13.112C25.3416 13.4559 25.5969 13.8126 25.8348 14.1808C25.392 14.1617 24.9503 14.1222 24.5111 14.0624L23.7993 13.9638L24.0807 14.6146C24.2529 15.0164 24.4059 15.4261 24.5391 15.8424C24.1168 15.7114 23.7008 15.5608 23.2925 15.3911L22.6306 15.1137L22.7313 15.8148C22.8024 16.3078 22.8357 16.7652 22.8511 17.1175C22.4773 16.8833 22.1147 16.6317 21.7645 16.3634L21.1981 15.9279L21.1112 16.6302C21.0566 17.063 20.9808 17.4929 20.8842 17.9183C20.5848 17.5975 20.3011 17.2625 20.0339 16.9144L19.6023 16.3496L19.3335 17.0048C19.1664 17.4093 18.98 17.8055 18.7748 18.192ZM22.0955 19.4773C20.857 20.4184 20.0595 21.7208 19.5645 22.8143L19.4001 18.7378C19.5182 18.5221 19.662 18.2476 19.813 17.9256C20.1292 18.3026 20.4659 18.6618 20.8217 19.0017L21.3004 19.4469L21.4896 18.8262C21.4986 18.7962 21.6736 18.2163 21.8173 17.3969C22.2222 17.6808 22.6424 17.9422 23.0761 18.1799L23.6511 18.4848C23.107 18.7739 22.5868 19.1058 22.0955 19.4773Z" fill="#954DA7"/>
<path d="M19.1038 24.8089C19.7071 24.8089 20.2098 24.9591 20.612 25.2595C20.9136 25.56 21.1147 25.9355 21.1147 26.3111L13.071 28.5645L6.03278 27.0622V20.3022H7.94316L15.283 22.3302C15.7858 22.4804 16.0874 22.7808 16.0874 23.1564C16.0874 23.3817 15.9869 23.6071 15.7858 23.7573C15.5847 23.9075 15.1825 24.0577 14.8809 24.0577H12.0656L10.2557 23.532L9.95409 24.208L12.0656 24.8089H19.1038ZM0 20.3022H4.02186V28.5645H0V20.3022Z" fill="#880FA7"/>
<path d="M17.4527 8.40605C17.3203 8.43634 17.1665 8.44099 17.0667 8.35508C16.9531 8.25738 16.9517 8.08814 17.0888 8.02096C17.2351 7.94931 17.4019 7.90872 17.5791 7.90872C18.1559 7.90872 18.6238 8.33926 18.6261 8.87117C18.6261 8.87247 18.6261 8.87377 18.6261 8.87508V9.4388H19.1497C19.2942 9.4388 19.4114 9.54696 19.4114 9.68039C19.4114 9.81382 19.2942 9.92198 19.1497 9.92198H18.6261V11.5325C18.6261 11.7994 18.8605 12.0157 19.1497 12.0157C19.4388 12.0157 19.6732 11.7994 19.6732 11.5325C19.6732 11.4569 19.6543 11.3853 19.6208 11.3215C19.5338 11.4021 19.4135 11.4521 19.2805 11.4521C19.0155 11.4521 18.8006 11.2538 18.8006 11.0091C18.8006 10.7645 19.0155 10.5662 19.2805 10.5662C19.3743 10.5662 19.4618 10.591 19.5357 10.6339C19.9229 10.7758 20.1967 11.1246 20.1967 11.5325C20.1967 12.0662 19.7279 12.4989 19.1497 12.4989C18.5714 12.4989 18.1026 12.0662 18.1026 11.5325C18.1026 11.4961 18.1048 11.4603 18.109 11.4249C18.1048 11.4078 18.1026 11.3899 18.1026 11.3715V9.92198H17.4918C17.3473 9.92198 17.2301 9.81382 17.2301 9.68039C17.2301 9.54696 17.3473 9.4388 17.4918 9.4388H18.1026V9.15771C18.1026 9.15638 18.1026 9.15504 18.1026 9.15369V8.87508C18.1026 8.60823 17.8682 8.3919 17.5791 8.3919C17.5355 8.3919 17.4932 8.39681 17.4527 8.40605Z" fill="white"/>
<path d="M6.75435 11.7028C6.84131 11.5889 6.88524 11.458 6.88524 11.3092C6.88524 11.1586 6.84131 11.0259 6.75435 10.912L4.45299 8.07009C4.41175 8.01899 4.36514 7.97954 4.31403 7.95264C4.25845 7.92306 4.19749 7.90872 4.13114 7.90872C4.00115 7.90872 3.89536 7.96251 3.81288 8.07009L1.51153 10.912C1.42187 11.0232 1.37705 11.155 1.37705 11.3092C1.37705 11.4607 1.42187 11.5916 1.51153 11.7028L1.77689 12.03C1.86117 12.1403 1.96785 12.1959 2.09516 12.1959C2.22246 12.1959 2.32825 12.1403 2.41252 12.03L3.45248 10.7507V13.3219C3.44621 13.3524 3.44262 13.3846 3.44262 13.4169V15.712C3.44262 15.9657 3.64792 16.171 3.90164 16.171H4.36065C4.51754 16.171 4.6565 16.0921 4.73898 15.972C4.79008 15.8985 4.81967 15.8088 4.81967 15.712V13.4169C4.81967 13.3846 4.81608 13.3524 4.80981 13.3219V10.7507L5.84977 12.03C5.93404 12.1403 6.03983 12.1959 6.16713 12.1959C6.29264 12.1959 6.39933 12.1403 6.48898 12.03L6.75435 11.7028Z" fill="#954DA7"/>
</g>
</g>
</svg>
