<svg width="16" height="16" viewBox="0 0 16 16" fill="none" xmlns="http://www.w3.org/2000/svg">
<path d="M15.7599 7.54898L8.85987 0.652549L8.39737 0.190049C8.29199 0.0853645 8.14948 0.0266113 8.00094 0.0266113C7.8524 0.0266113 7.70989 0.0853645 7.60451 0.190049L0.242011 7.54898C0.134031 7.65654 0.0486927 7.78464 -0.00896692 7.92572C-0.0666265 8.0668 -0.0954387 8.21801 -0.0937028 8.37041C-0.08656 8.99898 0.436654 9.50076 1.06523 9.50076H1.82415V15.3168H14.1777V9.50076H14.9527C15.2581 9.50076 15.5456 9.38112 15.7617 9.16505C15.868 9.059 15.9523 8.93289 16.0097 8.79404C16.067 8.65519 16.0962 8.50634 16.0956 8.35612C16.0956 8.05255 15.9759 7.76505 15.7599 7.54898ZM9.00094 14.0311H7.00094V10.3883H9.00094V14.0311ZM12.892 8.21505V14.0311H10.1438V9.95969C10.1438 9.56505 9.82415 9.24541 9.42951 9.24541H6.57237C6.17772 9.24541 5.85808 9.56505 5.85808 9.95969V14.0311H3.10987V8.21505H1.39558L8.00272 1.61326L8.41522 2.02576L14.6081 8.21505H12.892Z" fill="white"/>
</svg>
