<svg width="13" height="14" viewBox="0 0 13 14" fill="none" xmlns="http://www.w3.org/2000/svg">
<path d="M12.8576 7.99601L6.93083 1.16565C6.87725 1.10384 6.81102 1.05427 6.73661 1.0203C6.66221 0.986332 6.58137 0.96875 6.49958 0.96875C6.41778 0.96875 6.33695 0.986332 6.26254 1.0203C6.18814 1.05427 6.1219 1.10384 6.06833 1.16565L0.143328 7.99601C0.125424 8.01659 0.113814 8.04189 0.109883 8.06889C0.105952 8.09589 0.109865 8.12345 0.121155 8.14829C0.132446 8.17313 0.150638 8.1942 0.173564 8.20899C0.196491 8.22378 0.223187 8.23167 0.250471 8.23172H1.6969C1.77904 8.23172 1.85761 8.19601 1.91297 8.13351L5.8219 3.62815V13.6835C5.8219 13.7621 5.88618 13.8264 5.96476 13.8264H7.03618C7.11476 13.8264 7.17904 13.7621 7.17904 13.6835V3.62815L11.088 8.13351C11.1415 8.19601 11.2201 8.23172 11.304 8.23172H12.7505C12.8719 8.23172 12.938 8.08886 12.8576 7.99601Z" fill="#389429"/>
</svg>
