<svg width="26" height="25" viewBox="0 0 26 25" fill="none" xmlns="http://www.w3.org/2000/svg">
<g clip-path="url(#clip0_1727_1229)">
<path d="M12.6589 9.91671C12.1479 9.91671 11.6485 10.0682 11.2236 10.3521C10.7988 10.6359 10.4677 11.0394 10.2722 11.5114C10.0766 11.9835 10.0255 12.5029 10.1252 13.004C10.2248 13.5051 10.4709 13.9654 10.8322 14.3267C11.1934 14.688 11.6538 14.9341 12.1549 15.0337C12.656 15.1334 13.1754 15.0823 13.6475 14.8867C14.1195 14.6912 14.523 14.3601 14.8068 13.9353C15.0907 13.5104 15.2422 13.011 15.2422 12.5C15.2422 12.1608 15.1754 11.8249 15.0455 11.5114C14.9157 11.198 14.7254 10.9132 14.4855 10.6733C14.2457 10.4335 13.9609 10.2432 13.6475 10.1134C13.334 9.98353 12.9981 9.91671 12.6589 9.91671ZM23.0026 7.36462C22.9971 6.56021 22.849 5.76314 22.5651 5.01046C22.356 4.45969 22.0325 3.95951 21.616 3.54294C21.1994 3.12637 20.6992 2.80287 20.1484 2.59379C19.3958 2.3099 18.5987 2.16177 17.7943 2.15629C16.4505 2.08337 16.0547 2.08337 12.6589 2.08337C9.26302 2.08337 8.86719 2.08337 7.52344 2.15629C6.71902 2.16177 5.92195 2.3099 5.16927 2.59379C4.6185 2.80287 4.11833 3.12637 3.70176 3.54294C3.28518 3.95951 2.96168 4.45969 2.7526 5.01046C2.46871 5.76314 2.32058 6.56021 2.3151 7.36462C2.24219 8.70837 2.24219 9.10421 2.24219 12.5C2.24219 15.8959 2.24219 16.2917 2.3151 17.6355C2.32632 18.4427 2.47424 19.2422 2.7526 20C2.96076 20.5483 3.28399 21.0456 3.70052 21.4584C4.11531 21.8774 4.61655 22.2009 5.16927 22.4063C5.92195 22.6902 6.71902 22.8383 7.52344 22.8438C8.86719 22.9167 9.26302 22.9167 12.6589 22.9167C16.0547 22.9167 16.4505 22.9167 17.7943 22.8438C18.5987 22.8383 19.3958 22.6902 20.1484 22.4063C20.7012 22.2009 21.2024 21.8774 21.6172 21.4584C22.0337 21.0456 22.3569 20.5483 22.5651 20C22.8487 19.2437 22.9968 18.4432 23.0026 17.6355C23.0755 16.2917 23.0755 15.8959 23.0755 12.5C23.0755 9.10421 23.0755 8.70837 23.0026 7.36462ZM20.3568 15.698C20.3233 16.3408 20.1862 16.974 19.9505 17.573C19.7483 18.0726 19.4477 18.5265 19.0665 18.9077C18.6854 19.2889 18.2314 19.5895 17.7318 19.7917C17.1271 20.0142 16.4904 20.1373 15.8464 20.1563H9.47135C8.82732 20.1373 8.19061 20.0142 7.58594 19.7917C7.06938 19.5997 6.60289 19.2935 6.22135 18.8959C5.84392 18.5222 5.55244 18.0707 5.36719 17.573C5.14381 16.9689 5.02407 16.3315 5.01302 15.6875V9.31254C5.02407 8.66861 5.14381 8.03117 5.36719 7.42712C5.55915 6.91056 5.86539 6.44408 6.26302 6.06254C6.63837 5.68715 7.08934 5.39597 7.58594 5.20837C8.19061 4.98588 8.82732 4.86276 9.47135 4.84379H15.8464C16.4904 4.86276 17.1271 4.98588 17.7318 5.20837C18.2483 5.40033 18.7148 5.70658 19.0964 6.10421C19.4738 6.4779 19.7653 6.92935 19.9505 7.42712C20.173 8.0318 20.2961 8.66851 20.3151 9.31254V12.5C20.3151 14.6459 20.388 14.8646 20.3568 15.6875V15.698ZM18.6901 7.94796C18.5661 7.61148 18.3705 7.30592 18.117 7.05235C17.8634 6.79877 17.5578 6.60323 17.2214 6.47921C16.7593 6.31906 16.2728 6.24149 15.7839 6.25004H9.53385C9.04247 6.25484 8.5558 6.34653 8.09635 6.52087C7.76503 6.63927 7.4627 6.82682 7.20946 7.07108C6.95622 7.31534 6.75788 7.6107 6.6276 7.93754C6.47633 8.40146 6.40243 8.88712 6.40885 9.37504V15.625C6.41918 16.1159 6.5107 16.6016 6.67969 17.0625C6.80371 17.399 6.99925 17.7046 7.25283 17.9582C7.5064 18.2117 7.81196 18.4073 8.14844 18.5313C8.59288 18.6947 9.06058 18.7862 9.53385 18.8021H15.7839C16.2752 18.7973 16.7619 18.7056 17.2214 18.5313C17.5578 18.4073 17.8634 18.2117 18.117 17.9582C18.3705 17.7046 18.5661 17.399 18.6901 17.0625C18.8644 16.6031 18.9561 16.1164 18.9609 15.625V9.37504C18.9612 8.88316 18.8694 8.39558 18.6901 7.93754V7.94796ZM12.6589 16.4792C12.1368 16.4792 11.6199 16.3762 11.1377 16.1761C10.6555 15.976 10.2175 15.6827 9.84883 15.3131C9.48017 14.9435 9.18805 14.5047 8.98921 14.022C8.79038 13.5393 8.68873 13.0221 8.6901 12.5C8.69011 11.7126 8.92375 10.9428 9.36144 10.2883C9.79914 9.63366 10.4212 9.12365 11.1489 8.82278C11.8766 8.52192 12.6772 8.44373 13.4494 8.59811C14.2216 8.75249 14.9306 9.13251 15.4867 9.69005C16.0427 10.2476 16.4209 10.9576 16.5732 11.7301C16.7256 12.5027 16.6453 13.3031 16.3425 14.03C16.0398 14.7569 15.5281 15.3777 14.8724 15.8137C14.2167 16.2496 13.4463 16.4813 12.6589 16.4792ZM16.8255 9.30212C16.5953 9.27775 16.3822 9.16902 16.2273 8.99688C16.0724 8.82475 15.9867 8.60139 15.9867 8.36983C15.9867 8.13828 16.0724 7.91492 16.2273 7.74278C16.3822 7.57064 16.5953 7.46191 16.8255 7.43754C17.0558 7.46191 17.2689 7.57064 17.4238 7.74278C17.5786 7.91492 17.6643 8.13828 17.6643 8.36983C17.6643 8.60139 17.5786 8.82475 17.4238 8.99688C17.2689 9.16902 17.0558 9.27775 16.8255 9.30212Z" fill="white"/>
</g>
<defs>
<clipPath id="clip0_1727_1229">
<rect width="25" height="25" fill="white" transform="translate(0.158691)"/>
</clipPath>
</defs>
</svg>
