<svg width="13" height="16" viewBox="0 0 13 16" fill="none" xmlns="http://www.w3.org/2000/svg">
<path d="M5.63404 4.9784C5.63404 6.46728 4.37282 7.67426 2.81702 7.67426C1.26122 7.67426 0 6.46728 0 4.9784C0 3.48951 0.322216 1.38391 1.87801 1.38391C3.43381 1.38391 5.63404 3.48951 5.63404 4.9784Z" fill="white"/>
<path d="M5.34586 10.2318C5.34586 11.3771 3.65338 12.9968 2.45661 12.9968C1.25985 12.9968 1.01199 11.3771 1.01199 10.2318C1.01199 9.08653 1.98216 8.15808 3.17893 8.15808C4.37569 8.15808 5.34586 9.08653 5.34586 10.2318Z" fill="white"/>
<path d="M12.1332 4.77101C12.1332 6.37442 10.775 7.67425 9.09951 7.67425C7.42404 7.67425 6.0658 6.37442 6.0658 4.77101C6.0658 3.16759 8.43528 0.900024 10.1108 0.900024C11.7862 0.900024 12.1332 3.16759 12.1332 4.77101Z" fill="white"/>
<path d="M13 11.4761C13 13.3085 12.6034 15.9 10.6886 15.9C8.77378 15.9 6.0658 13.3085 6.0658 11.4761C6.0658 9.64359 7.61808 8.15808 9.5329 8.15808C11.4477 8.15808 13 9.64359 13 11.4761Z" fill="white"/>
</svg>
