<svg width="15" height="21" viewBox="0 0 15 21" fill="none" xmlns="http://www.w3.org/2000/svg">
<rect x="3.30286" y="10.9727" width="8.60953" height="9.2983" rx="4.30477" fill="white"/>
<path d="M7.64507 20.2715C9.78996 20.2715 11.9607 19.6246 11.9607 18.3883V12.7387C11.9607 11.5023 9.78996 10.8555 7.64507 10.8555C5.50019 10.8555 3.32941 11.5023 3.32941 12.7387V18.3883C3.32941 19.6246 5.50019 20.2715 7.64507 20.2715ZM7.64507 19.3299C5.63721 19.3299 4.40832 18.7202 4.40832 18.3883V17.7913C5.23963 18.1858 6.44586 18.3883 7.64507 18.3883C8.84429 18.3883 10.0505 18.1858 10.8818 17.7913V18.3883C10.8818 18.7202 9.65294 19.3299 7.64507 19.3299ZM7.64507 11.7971C9.65294 11.7971 10.8818 12.4068 10.8818 12.7387C10.8818 13.0706 9.65294 13.6803 7.64507 13.6803C5.63721 13.6803 4.40832 13.0706 4.40832 12.7387C4.40832 12.4068 5.63721 11.7971 7.64507 11.7971ZM4.40832 14.0249C5.23963 14.4194 6.44586 14.6219 7.64507 14.6219C8.84429 14.6219 10.0505 14.4194 10.8818 14.0249V14.6219C10.8818 14.9538 9.65294 15.5635 7.64507 15.5635C5.63721 15.5635 4.40832 14.9538 4.40832 14.6219V14.0249ZM4.40832 15.9081C5.23963 16.3026 6.44586 16.5051 7.64507 16.5051C8.84429 16.5051 10.0505 16.3026 10.8818 15.9081V16.5051C10.8818 16.837 9.65294 17.4467 7.64507 17.4467C5.63721 17.4467 4.40832 16.837 4.40832 16.5051V15.9081Z" fill="#359A9C"/>
<path d="M10.3735 9.70518C12.6446 9.70518 14.2086 8.65242 14.3913 5.86302V5.22266H12.9251C9.63787 5.22266 8.54723 6.50338 8.54211 8.10428C8.54211 8.42446 8.54211 9.06482 9.27262 9.70518H10.3684H10.3735Z" fill="white" stroke="#359A9C" stroke-linecap="round" stroke-linejoin="round"/>
<path d="M8.91217 10.6666C9.0948 9.22583 9.8253 8.1052 11.4689 7.46484" stroke="#359A9C" stroke-linecap="round" stroke-linejoin="round"/>
<path d="M9.0422 3.9852C10.1627 3.39542 10.6074 2.36822 9.83128 0.675237L9.63243 0.297468L8.90912 0.678199C7.28735 1.53185 7.14698 2.57062 7.64158 3.51636C7.741 3.70525 7.93985 4.08302 8.49909 4.27108L9.03968 3.98653L9.0422 3.9852Z" fill="white" stroke="#359A9C" stroke-width="0.5" stroke-linecap="round" stroke-linejoin="round"/>
<path d="M8.6196 4.93181C8.2623 4.03441 8.2747 3.18361 8.88674 2.37901" stroke="#359A9C" stroke-width="0.5" stroke-linecap="round" stroke-linejoin="round"/>
<path d="M5.42182 8.29038C3.05605 8.29038 1.42688 7.19377 1.23664 4.28814V3.62109H2.76385C6.18809 3.62109 7.32417 4.95518 7.3295 6.62278C7.3295 6.9563 7.3295 7.62334 6.56856 8.29038H5.42714H5.42182Z" fill="white" stroke="#359A9C" stroke-linecap="round" stroke-linejoin="round"/>
<path d="M6.94351 9.29224C6.75328 7.7914 5.99234 6.62407 4.28022 5.95703" stroke="#359A9C" stroke-linecap="round" stroke-linejoin="round"/>
</svg>
