<svg width="20" height="21" viewBox="0 0 20 21" fill="none" xmlns="http://www.w3.org/2000/svg">
<path d="M4.17892 7.71255H5.71463V9.24827C5.71463 9.28844 5.75481 9.31969 5.80392 9.31969H6.87535C6.92446 9.31969 6.96463 9.28844 6.96463 9.24603V7.71255H8.50035C8.54053 7.71255 8.57178 7.67237 8.57178 7.62327V6.55184C8.57178 6.50273 8.54053 6.46255 8.49812 6.46255H6.96463V4.92684C6.96463 4.88666 6.92446 4.85541 6.87535 4.85541H5.80392C5.75481 4.85541 5.71463 4.88666 5.71463 4.92684V6.46255H4.17892C4.13874 6.46255 4.10749 6.50273 4.10749 6.55184V7.62327C4.10749 7.67237 4.13874 7.71255 4.17892 7.71255ZM11.5003 7.71255H15.8218C15.862 7.71255 15.8932 7.67237 15.8932 7.62327V6.55184C15.8932 6.50273 15.862 6.46255 15.8195 6.46255H11.5003C11.4602 6.46255 11.4289 6.50273 11.4289 6.55184V7.62327C11.4289 7.67237 11.4602 7.71255 11.5003 7.71255ZM11.5003 13.6277H15.8218C15.862 13.6277 15.8932 13.5876 15.8932 13.5384V12.467C15.8932 12.4179 15.862 12.3777 15.8195 12.3777H11.5003C11.4602 12.3777 11.4289 12.4179 11.4289 12.467V13.5384C11.4289 13.5876 11.4602 13.6277 11.5003 13.6277ZM11.5003 15.9492H15.8218C15.862 15.9492 15.8932 15.909 15.8932 15.8599V14.7884C15.8932 14.7393 15.862 14.6992 15.8195 14.6992H11.5003C11.4602 14.6992 11.4289 14.7393 11.4289 14.7884V15.8599C11.4289 15.909 11.4602 15.9492 11.5003 15.9492ZM7.13205 14.1411L8.49812 12.4692C8.5941 12.3532 8.51374 12.1768 8.36642 12.1768H7.23249C7.18115 12.1768 7.13205 12.1992 7.1008 12.2416L6.34187 13.1701L5.58294 12.2416C5.56697 12.2219 5.54693 12.2059 5.52419 12.1948C5.50146 12.1836 5.47657 12.1775 5.45124 12.1768H4.31508C4.16776 12.1768 4.0874 12.3532 4.18338 12.4692L5.54946 14.1411L4.1499 15.8554C4.05169 15.9715 4.13205 16.1478 4.27937 16.1478H5.4133C5.46463 16.1478 5.51374 16.1255 5.54499 16.0831L6.3374 15.1121L7.12981 16.0831C7.1633 16.1233 7.2124 16.1478 7.26151 16.1478H8.39544C8.54276 16.1478 8.62312 15.9715 8.52714 15.8554L7.13205 14.1411ZM18.2146 1.57416H1.78606C1.39097 1.57416 1.07178 1.89335 1.07178 2.28844V18.717C1.07178 19.1121 1.39097 19.4313 1.78606 19.4313H18.2146C18.6097 19.4313 18.9289 19.1121 18.9289 18.717V2.28844C18.9289 1.89335 18.6097 1.57416 18.2146 1.57416ZM17.4111 17.9134H2.58963V3.09202H17.4111V17.9134Z" fill="white"/>
</svg>
