<svg width="30" height="36" viewBox="0 0 30 36" fill="none" xmlns="http://www.w3.org/2000/svg">
<path d="M12.9401 9.7879C12.9401 13.3612 10.0434 16.258 6.47007 16.258C2.89675 16.258 0 13.3612 0 9.7879C0 6.21457 0.740059 1.16113 4.31338 1.16113C7.8867 1.16113 12.9401 6.21457 12.9401 9.7879Z" fill="#EFAC00"/>
<path d="M12.2782 22.3964C12.2782 25.1451 8.39091 29.0324 5.6422 29.0324C2.89349 29.0324 2.32422 25.1451 2.32422 22.3964C2.32422 19.6477 4.55249 17.4194 7.3012 17.4194C10.0499 17.4194 12.2782 19.6477 12.2782 22.3964Z" fill="#1A7D19"/>
<path d="M27.8672 9.29036C27.8672 13.1386 24.7476 16.2581 20.8994 16.2581C17.0512 16.2581 13.9316 13.1386 13.9316 9.29036C13.9316 5.44217 19.3738 0 23.222 0C27.0702 0 27.8672 5.44217 27.8672 9.29036Z" fill="#1E2E86"/>
<path d="M29.858 25.3826C29.858 29.7805 28.9471 36.0002 24.5492 36.0002C20.1513 36.0002 13.9316 29.7805 13.9316 25.3826C13.9316 20.9847 17.4969 17.4194 21.8948 17.4194C26.2927 17.4194 29.858 20.9847 29.858 25.3826Z" fill="#EF0039"/>
</svg>
