<svg width="14" height="21" viewBox="0 0 14 21" fill="none" xmlns="http://www.w3.org/2000/svg">
<path d="M11.2059 6.07539C10.6971 6.36401 10.1127 6.51581 9.51733 6.51402C9.01851 6.51032 8.52535 6.41511 8.06591 6.23381C7.71181 6.70032 7.5223 7.25822 7.52375 7.82991V9.28987C7.52387 9.34416 7.51204 9.3979 7.48897 9.44775C7.46591 9.49759 7.43211 9.54248 7.38968 9.57962C7.34724 9.61676 7.29707 9.64537 7.24229 9.66365C7.18751 9.68194 7.12929 9.68952 7.07124 9.68592C6.96215 9.67706 6.86069 9.63004 6.7872 9.55429C6.71371 9.47855 6.67361 9.37967 6.67496 9.27749V8.66162L4.62621 6.74967C4.32166 6.8557 3.99956 6.91116 3.67451 6.91354C3.22703 6.91457 2.78793 6.8003 2.40558 6.58333C1.24965 5.92786 0.627383 4.41938 0.747804 2.54653C0.753867 2.44964 0.797843 2.3582 0.871383 2.28957C0.944924 2.22094 1.04291 2.1799 1.14673 2.17424C3.15357 2.06384 4.76998 2.64258 5.47022 3.72133C5.74534 4.14416 5.86545 4.6391 5.81239 5.13129C5.80909 5.16942 5.79402 5.20585 5.76901 5.23616C5.744 5.26648 5.71012 5.28938 5.67146 5.30211C5.63279 5.31483 5.59101 5.31683 5.55116 5.30787C5.5113 5.2989 5.47508 5.27936 5.44688 5.25159L4.42834 4.2565C4.3481 4.18536 4.24126 4.14629 4.1306 4.14761C4.01993 4.14893 3.9142 4.19055 3.83594 4.26358C3.75768 4.33661 3.71309 4.43529 3.71167 4.53856C3.71026 4.64184 3.75213 4.74155 3.82836 4.81642L6.68663 7.55168C6.68982 7.51307 6.69353 7.47445 6.69777 7.43633C6.79058 6.70202 7.13779 6.01607 7.68661 5.48279L10.3704 2.83615C10.45 2.7619 10.4948 2.66117 10.4948 2.55612C10.4949 2.45106 10.4502 2.35029 10.3706 2.27598C10.2911 2.20166 10.1831 2.15989 10.0705 2.15984C9.95798 2.15979 9.85 2.20148 9.77037 2.27573L7.17097 4.84118C7.14495 4.8669 7.11203 4.88564 7.07562 4.89547C7.03921 4.90529 7.00064 4.90584 6.96393 4.89705C6.92721 4.88825 6.8937 4.87045 6.86686 4.84547C6.84001 4.8205 6.82083 4.78927 6.8113 4.75504C6.55985 3.88966 6.67072 3.02824 7.15081 2.2886C8.09827 0.82914 10.303 0.0479214 13.0488 0.198422C13.1526 0.204081 13.2506 0.245121 13.3241 0.313751C13.3977 0.382381 13.4417 0.473822 13.4477 0.570714C13.6069 3.13369 12.7698 5.19119 11.2059 6.07539Z" fill="white"/>
<path d="M7.09999 13.795C10.8559 13.795 13.9 12.6028 13.9 11.1337C13.9 9.66464 10.8559 8.47242 7.09999 8.47242C3.34405 8.47242 0.299988 9.66464 0.299988 11.1337C0.299988 12.6028 3.34405 13.795 7.09999 13.795Z" fill="white"/>
<path d="M7.09999 18.05C4.50483 18.05 2.20983 17.4639 0.762175 16.5585C0.467332 16.8578 0.299988 17.1796 0.299988 17.5188C0.299988 18.9878 3.34405 20.1801 7.09999 20.1801C10.8559 20.1801 13.9 18.9878 13.9 17.5188C13.9 17.1796 13.7326 16.8578 13.4378 16.561C11.9901 17.4639 9.69514 18.05 7.09999 18.05Z" fill="white"/>
<path d="M7.09999 14.8575C4.50483 14.8575 2.20983 14.2714 0.762175 13.366C0.467332 13.6653 0.299988 13.987 0.299988 14.3262C0.299988 15.7953 3.34405 16.9875 7.09999 16.9875C10.8559 16.9875 13.9 15.7953 13.9 14.3262C13.9 13.987 13.7326 13.6653 13.4378 13.3685C11.9901 14.2714 9.69514 14.8575 7.09999 14.8575Z" fill="white"/>
</svg>
