<svg width="36" height="36" viewBox="0 0 36 36" fill="none" xmlns="http://www.w3.org/2000/svg">
<path d="M30.6833 5.31652H30.681L34.452 6.07027C34.6545 6.11077 34.821 6.25927 34.8795 6.45952C34.9091 6.5568 34.9117 6.66026 34.8871 6.75891C34.8626 6.85756 34.8117 6.94771 34.74 7.01977L31.6508 10.1113C31.2812 10.4802 30.7802 10.6874 30.258 10.6873H27.6975L21.2625 17.1245C21.3853 17.5881 21.4079 18.0724 21.3287 18.5454C21.2496 19.0184 21.0706 19.469 20.8037 19.8674C20.5367 20.2657 20.188 20.6026 19.7806 20.8556C19.3732 21.1086 18.9166 21.2719 18.4412 21.3346C17.9658 21.3973 17.4825 21.3579 17.0235 21.2192C16.5644 21.0804 16.1403 20.8455 15.7792 20.5299C15.4181 20.2144 15.1284 19.8255 14.9294 19.3892C14.7303 18.953 14.6266 18.4793 14.625 17.9998C14.6253 17.482 14.7447 16.9713 14.9739 16.507C15.2031 16.0428 15.5359 15.6374 15.9467 15.3223C16.3575 15.0072 16.8353 14.7907 17.3431 14.6897C17.8509 14.5886 18.3751 14.6057 18.8753 14.7395L25.3125 8.30002V5.74177C25.3125 5.21977 25.5195 4.71802 25.8885 4.34902L28.98 1.25753C29.0521 1.18582 29.1422 1.13498 29.2409 1.11042C29.3395 1.08585 29.443 1.08848 29.5403 1.11803C29.7405 1.17653 29.889 1.34303 29.9295 1.54553L30.6833 5.31652Z" fill="#1E1E24"/>
<path d="M4.5 17.9998C4.50232 19.9302 4.9186 21.8377 5.72078 23.5935C6.52296 25.3494 7.69238 26.9128 9.15015 28.1782C10.6079 29.4437 12.3201 30.3818 14.1713 30.9293C16.0224 31.4768 17.9695 31.6209 19.8811 31.3519C21.7926 31.083 23.6243 30.4071 25.2525 29.3701C26.8807 28.333 28.2675 26.9588 29.3195 25.3402C30.3715 23.7216 31.064 21.8962 31.3505 19.9872C31.637 18.0782 31.5108 16.1299 30.9803 14.2738C30.9058 14.0569 30.8762 13.8272 30.8934 13.5986C30.9105 13.3699 30.974 13.1472 31.08 12.9438C31.186 12.7405 31.3322 12.5609 31.5099 12.4159C31.6875 12.2709 31.8927 12.1636 32.1132 12.1005C32.3336 12.0373 32.5645 12.0197 32.792 12.0487C33.0194 12.0777 33.2386 12.1526 33.4361 12.269C33.6337 12.3854 33.8055 12.5408 33.9411 12.7257C34.0767 12.9106 34.1732 13.1211 34.2248 13.3445C35.252 16.939 35.0569 20.7727 33.6701 24.2443C32.2833 27.7159 29.7832 30.6289 26.5622 32.5263C23.3412 34.4237 19.5814 35.1981 15.8728 34.7281C12.1641 34.2581 8.71638 32.5702 6.07051 29.9293C3.42752 27.2841 1.73784 23.836 1.26676 20.1265C0.79567 16.417 1.56985 12.6561 3.46775 9.43421C5.36565 6.21234 8.2798 3.71198 11.7527 2.32571C15.2255 0.939436 19.0604 0.745744 22.6553 1.77504C23.0833 1.90017 23.4444 2.18965 23.6597 2.58021C23.875 2.97078 23.9269 3.43067 23.8041 3.85939C23.6813 4.28811 23.3938 4.6508 23.0044 4.86819C22.615 5.08557 22.1554 5.13999 21.726 5.01954C19.7158 4.44279 17.5991 4.34086 15.5428 4.72179C13.4865 5.10272 11.5468 5.9561 9.87659 7.21464C8.20639 8.47318 6.85135 10.1025 5.91832 11.9741C4.98528 13.8457 4.49975 15.9085 4.5 17.9998Z" fill="#1E1E24"/>
<path d="M11.25 18.0004C11.2501 19.2302 11.586 20.4367 12.2215 21.4896C12.8569 22.5426 13.7678 23.402 14.8558 23.9753C15.9438 24.5486 17.1677 24.814 18.3955 24.7428C19.6232 24.6716 20.8083 24.2666 21.8227 23.5714C22.837 22.8744 23.6415 21.9134 24.1491 20.7923C24.6567 19.6712 24.8481 18.4327 24.7027 17.2106C24.6634 16.9141 24.7038 16.6124 24.8198 16.3367C24.9359 16.061 25.1233 15.8211 25.3628 15.6419C25.6023 15.4627 25.8852 15.3505 26.1825 15.317C26.4797 15.2835 26.7806 15.3298 27.054 15.4511C27.3273 15.5709 27.564 15.7611 27.7399 16.0022C27.9158 16.2433 28.0246 16.5268 28.0552 16.8236C28.2997 18.9119 27.8881 21.0244 26.8774 22.8681C25.8667 24.7117 24.3072 26.195 22.4153 27.1121C20.5233 28.0291 18.3928 28.3345 16.3195 27.9857C14.2461 27.637 12.3327 26.6514 10.8449 25.1659C9.3571 23.6803 8.36865 21.7684 8.01675 19.6956C7.66485 17.6228 7.96697 15.4918 8.88116 13.5985C9.79535 11.7052 11.2763 10.1434 13.1184 9.12992C14.9605 8.11646 17.0724 7.70159 19.161 7.94289C19.3846 7.96364 19.6019 8.02883 19.8 8.13463C19.9981 8.24043 20.1731 8.38471 20.3148 8.55902C20.4564 8.73334 20.5618 8.93417 20.6248 9.14975C20.6878 9.36533 20.7072 9.59132 20.6817 9.81447C20.6562 10.0376 20.5865 10.2534 20.4765 10.4493C20.3666 10.6451 20.2186 10.8171 20.0414 10.955C19.8641 11.0929 19.6611 11.1941 19.4443 11.2525C19.2274 11.311 19.0011 11.3256 18.7785 11.2954C17.8327 11.1856 16.8744 11.2771 15.9665 11.5639C15.0586 11.8508 14.2217 12.3264 13.5107 12.9597C12.7997 13.5929 12.2307 14.3694 11.841 15.2382C11.4514 16.1069 11.25 17.0483 11.25 18.0004Z" fill="#1E1E24"/>
</svg>
