<svg width="294" height="71" viewBox="0 0 294 71" fill="none" xmlns="http://www.w3.org/2000/svg">
<path d="M14.005 58.3585H29.6951L20.1208 41.9722L12.2695 55.4116C11.5019 56.7231 12.4656 58.3585 14.005 58.3585Z" fill="#2C7C7A"/>
<path d="M29.6951 26.0941L20.1208 41.9722H39.1818L29.6951 26.0941Z" fill="#41B5B5"/>
<path d="M63.8663 58.3585H48.6392L57.9548 41.9722L65.6101 55.4362C66.3568 56.7477 65.3932 58.3585 63.8663 58.3585Z" fill="#2C7C7A"/>
<path d="M57.9549 41.9722L48.6392 58.3585L39.1818 41.9722H57.9549Z" fill="#359A9C"/>
<path d="M39.1818 41.9722H20.1208L29.6951 58.3585L39.1818 41.9722Z" fill="#359A9C"/>
<path d="M29.6951 58.3585L39.1818 41.9722L48.6392 58.3585H29.6951Z" fill="#2C7C7A"/>
<path d="M29.6951 26.0941L39.1818 41.9722L48.6392 26.0941H29.6951Z" fill="#62D3CD"/>
<path d="M39.1818 41.9722L48.6392 26.0941L57.9549 41.9722H39.1818Z" fill="#41B5B5"/>
<path d="M29.6951 26.0941L37.488 12.9499C38.2389 11.6834 40.0996 11.6834 40.8505 12.9499L48.6434 26.0941H29.6951Z" fill="#6DE2D9"/>
<path d="M101.117 43.6552C101.117 47.4505 100.546 50.3974 99.4025 52.4959C97.2832 56.3322 93.249 58.2463 87.3042 58.2463C83.875 58.2463 80.9422 57.3323 78.5143 55.5084C76.0821 53.6845 74.8681 50.4343 74.8681 45.766V42.5527H80.6919V45.766C80.6919 48.2129 81.2468 50.0532 82.3607 51.2868C83.4745 52.5205 85.2058 53.1394 87.5587 53.1394C90.867 53.1394 93.0321 52.0287 94.05 49.8031C94.6758 48.4383 94.9887 45.8562 94.9887 42.0608V12.1122H101.121V43.6552H101.117Z" fill="#1E1E24"/>
<path d="M133.937 27.5599C136.886 30.3716 138.359 34.5071 138.359 39.9705C138.359 45.2496 137.061 49.6105 134.462 53.0534C131.863 56.4962 127.833 58.2176 122.372 58.2176C117.817 58.2176 114.2 56.6929 111.517 53.6476C108.839 50.6024 107.5 46.5119 107.5 41.3764C107.5 35.876 108.91 31.4946 111.738 28.2321C114.563 24.9737 118.355 23.3424 123.119 23.3424C127.383 23.3424 130.991 24.7483 133.937 27.5599ZM130.457 49.3359C131.821 46.5775 132.506 43.5036 132.506 40.1222C132.506 37.0687 132.013 34.5809 131.029 32.6668C129.469 29.6502 126.778 28.146 122.961 28.146C119.573 28.146 117.112 29.4289 115.572 31.9946C114.033 34.5604 113.261 37.6589 113.261 41.2821C113.261 44.7659 114.029 47.6678 115.572 49.9917C117.112 52.3156 119.556 53.4755 122.902 53.4755C126.573 53.4755 129.093 52.0943 130.457 49.3359Z" fill="#1E1E24"/>
<path d="M145.242 24.2892H150.787V28.9411C152.117 27.3304 153.319 26.1582 154.399 25.4245C156.247 24.1826 158.346 23.5596 160.69 23.5596C163.348 23.5596 165.484 24.2031 167.107 25.486C168.02 26.2196 168.85 27.3017 169.597 28.728C170.845 26.9738 172.305 25.6745 173.986 24.8261C175.667 23.9777 177.557 23.5555 179.655 23.5555C184.14 23.5555 187.19 25.1458 188.812 28.3263C189.684 30.0396 190.118 32.343 190.118 35.2407V57.0536H184.294V34.2939C184.294 32.1135 183.74 30.6134 182.63 29.7977C181.52 28.9821 180.164 28.5723 178.567 28.5723C176.368 28.5723 174.474 29.2977 172.885 30.7445C171.295 32.1913 170.502 34.6095 170.502 37.995V57.0536H164.804V35.6711C164.804 33.4496 164.533 31.8266 163.994 30.806C163.143 29.2772 161.554 28.5108 159.23 28.5108C157.115 28.5108 155.188 29.3182 153.452 30.929C151.717 32.5397 150.853 35.4579 150.853 39.6795V57.0577H145.246V24.2892H145.242Z" fill="#1E1E24"/>
<path d="M198.366 24.2892H203.91V28.9411C205.241 27.3304 206.442 26.1582 207.523 25.4245C209.371 24.1826 211.469 23.5596 213.814 23.5596C216.471 23.5596 218.607 24.2031 220.23 25.486C221.144 26.2196 221.974 27.3017 222.721 28.728C223.968 26.9738 225.428 25.6745 227.11 24.8261C228.791 23.9777 230.681 23.5555 232.779 23.5555C237.264 23.5555 240.313 25.1458 241.936 28.3263C242.808 30.0396 243.242 32.343 243.242 35.2407V57.0536H237.418V34.2939C237.418 32.1135 236.863 30.6134 235.754 29.7977C234.644 28.9821 233.288 28.5723 231.69 28.5723C229.492 28.5723 227.598 29.2977 226.008 30.7445C224.419 32.1913 223.626 34.6095 223.626 37.995V57.0536H217.923V35.6711C217.923 33.4496 217.652 31.8266 217.114 30.806C216.263 29.2772 214.673 28.5108 212.35 28.5108C210.235 28.5108 208.307 29.3182 206.572 30.929C204.836 32.5397 203.973 35.4579 203.973 39.6795V57.0577H198.366V24.2892Z" fill="#1E1E24"/>
<path d="M269.366 37.2245C270.655 37.0605 271.514 36.5318 271.952 35.6383C272.202 35.1465 272.323 34.4415 272.323 33.5193C272.323 31.638 271.643 30.2691 270.288 29.4207C268.932 28.5723 266.988 28.146 264.46 28.146C261.539 28.146 259.466 28.9247 258.244 30.4822C257.559 31.3429 257.113 32.6258 256.909 34.3267H251.677C251.782 30.2773 253.112 27.4615 255.674 25.8754C258.235 24.2892 261.206 23.4982 264.585 23.4982C268.502 23.4982 271.685 24.2318 274.134 25.6991C276.558 27.1664 277.772 29.4535 277.772 32.552V51.4303C277.772 52 277.893 52.459 278.131 52.8074C278.368 53.1558 278.873 53.3279 279.641 53.3279C279.891 53.3279 280.171 53.3115 280.484 53.2829C280.796 53.2501 281.126 53.205 281.481 53.1435V57.2134C280.609 57.4594 279.945 57.611 279.486 57.6725C279.028 57.734 278.406 57.7626 277.617 57.7626C275.686 57.7626 274.284 57.0905 273.412 55.742C272.958 55.0289 272.632 54.0206 272.449 52.7131C271.306 54.1805 269.666 55.4551 267.53 56.5372C265.39 57.6192 263.033 58.1602 260.463 58.1602C257.368 58.1602 254.844 57.238 252.879 55.3936C250.918 53.5493 249.938 51.2417 249.938 48.4711C249.938 45.4381 250.901 43.0814 252.833 41.4132C254.764 39.7451 257.297 38.7123 260.43 38.327L269.366 37.2245ZM257.564 52.1025C258.748 53.0164 260.15 53.4755 261.769 53.4755C263.742 53.4755 265.649 53.0287 267.497 52.1311C270.609 50.6433 272.169 48.2129 272.169 44.8315V40.405C271.485 40.8353 270.605 41.1919 269.528 41.4788C268.452 41.7657 267.392 41.9707 266.358 42.0895L262.97 42.5158C260.939 42.7822 259.412 43.1961 258.39 43.7659C256.654 44.7208 255.791 46.2496 255.791 48.344C255.786 49.9343 256.379 51.1885 257.564 52.1025Z" fill="#1E1E24"/>
</svg>
