<svg width="125" height="30" viewBox="0 0 125 30" fill="none" xmlns="http://www.w3.org/2000/svg">
<path d="M5.92964 24.8141H12.5728L8.51908 17.8762L5.19485 23.5664C4.86985 24.1217 5.27787 24.8141 5.92964 24.8141Z" fill="#2C7C7A"/>
<path d="M12.5728 11.1536L8.5191 17.8763H16.5895L12.5728 11.1536Z" fill="#41B5B5"/>
<path d="M27.0408 24.8141H20.5937L24.5379 17.8762L27.7791 23.5768C28.0953 24.1321 27.6873 24.8141 27.0408 24.8141Z" fill="#2C7C7A"/>
<path d="M24.5379 17.8762L20.5937 24.8141L16.5894 17.8762H24.5379Z" fill="#359A9C"/>
<path d="M16.5895 17.8762H8.5191L12.5728 24.8141L16.5895 17.8762Z" fill="#359A9C"/>
<path d="M12.5728 24.8141L16.5894 17.8762L20.5937 24.8141H12.5728Z" fill="#2C7C7A"/>
<path d="M12.5728 11.1536L16.5894 17.8763L20.5937 11.1536H12.5728Z" fill="#62D3CD"/>
<path d="M16.5894 17.8763L20.5937 11.1536L24.5379 17.8763H16.5894Z" fill="#41B5B5"/>
<path d="M12.5728 11.1534L15.8723 5.5882C16.1903 5.05198 16.978 5.05198 17.296 5.5882L20.5955 11.1534H12.5728Z" fill="#6DE2D9"/>
<path d="M42.8126 18.5886C42.8126 20.1955 42.5707 21.4432 42.0867 22.3317C41.1894 23.956 39.4813 24.7664 36.9643 24.7664C35.5124 24.7664 34.2707 24.3794 33.2427 23.6072C32.2129 22.835 31.6989 21.4589 31.6989 19.4823V18.1218H34.1647V19.4823C34.1647 20.5183 34.3996 21.2975 34.8712 21.8198C35.3428 22.3422 36.0759 22.6042 37.0721 22.6042C38.4728 22.6042 39.3895 22.1339 39.8205 21.1916C40.0854 20.6138 40.2179 19.5205 40.2179 17.9136V5.2334H42.8144V18.5886H42.8126Z" fill="#1E1E24"/>
<path d="M56.7083 11.774C57.9571 12.9644 58.5807 14.7154 58.5807 17.0286C58.5807 19.2637 58.0313 21.1101 56.9309 22.5678C55.8305 24.0255 54.1242 24.7543 51.8121 24.7543C49.8833 24.7543 48.3519 24.1088 47.2161 22.8194C46.0821 21.5301 45.5151 19.7982 45.5151 17.6238C45.5151 15.295 46.1122 13.4399 47.3097 12.0585C48.5055 10.6789 50.1111 9.98828 52.1283 9.98828C53.9334 9.98828 55.4613 10.5835 56.7083 11.774ZM55.2352 20.9938C55.8128 19.8259 56.1025 18.5244 56.1025 17.0928C56.1025 15.7999 55.8941 14.7466 55.4772 13.9362C54.8166 12.659 53.6773 12.0221 52.0611 12.0221C50.6269 12.0221 49.5848 12.5653 48.933 13.6516C48.2812 14.7379 47.9544 16.0498 47.9544 17.5839C47.9544 19.0589 48.2794 20.2875 48.933 21.2715C49.5848 22.2554 50.6198 22.7465 52.0364 22.7465C53.5908 22.7465 54.6576 22.1617 55.2352 20.9938Z" fill="#1E1E24"/>
<path d="M61.4951 10.389H63.8425V12.3586C64.406 11.6766 64.9147 11.1803 65.3722 10.8697C66.1547 10.3439 67.0431 10.0801 68.0358 10.0801C69.1609 10.0801 70.0653 10.3526 70.7524 10.8957C71.1392 11.2063 71.4907 11.6645 71.8069 12.2684C72.335 11.5256 72.9532 10.9755 73.6651 10.6163C74.3769 10.2571 75.1771 10.0784 76.0655 10.0784C77.9643 10.0784 79.2555 10.7517 79.9426 12.0983C80.3118 12.8237 80.4955 13.7989 80.4955 15.0258V24.2613H78.0297V14.625C78.0297 13.7018 77.7947 13.0666 77.3249 12.7213C76.8551 12.376 76.281 12.2024 75.6045 12.2024C74.6736 12.2024 73.8717 12.5096 73.1988 13.1222C72.5258 13.7347 72.1902 14.7586 72.1902 16.192V24.2613H69.7774V15.208C69.7774 14.2675 69.6626 13.5803 69.4347 13.1482C69.0744 12.5009 68.4014 12.1764 67.4176 12.1764C66.5221 12.1764 65.706 12.5183 64.9712 13.2003C64.2364 13.8822 63.8708 15.1178 63.8708 16.9052V24.2631H61.4969V10.389H61.4951Z" fill="#1E1E24"/>
<path d="M83.9875 10.389H86.3349V12.3586C86.8984 11.6766 87.4071 11.1803 87.8646 10.8697C88.6471 10.3439 89.5355 10.0801 90.5282 10.0801C91.6533 10.0801 92.5577 10.3526 93.2448 10.8957C93.6316 11.2063 93.9831 11.6645 94.2993 12.2684C94.8274 11.5256 95.4456 10.9755 96.1575 10.6163C96.8693 10.2571 97.6695 10.0784 98.5579 10.0784C100.457 10.0784 101.748 10.7517 102.435 12.0983C102.804 12.8237 102.988 13.7989 102.988 15.0258V24.2613H100.522V14.625C100.522 13.7018 100.287 13.0666 99.8173 12.7213C99.3475 12.376 98.7734 12.2024 98.0969 12.2024C97.1661 12.2024 96.3641 12.5096 95.6912 13.1222C95.0182 13.7347 94.6826 14.7586 94.6826 16.192V24.2613H92.268V15.208C92.268 14.2675 92.1532 13.5803 91.9254 13.1482C91.565 12.5009 90.8921 12.1764 89.9082 12.1764C89.0127 12.1764 88.1966 12.5183 87.4619 13.2003C86.7271 13.8822 86.3614 15.1178 86.3614 16.9052V24.2631H83.9875V10.389Z" fill="#1E1E24"/>
<path d="M114.049 15.8659C114.594 15.7965 114.958 15.5726 115.144 15.1943C115.25 14.986 115.301 14.6876 115.301 14.2971C115.301 13.5006 115.013 12.921 114.439 12.5618C113.865 12.2026 113.042 12.0221 111.971 12.0221C110.735 12.0221 109.857 12.3518 109.34 13.0112C109.05 13.3756 108.861 13.9188 108.774 14.639H106.559C106.604 12.9245 107.167 11.7323 108.252 11.0607C109.336 10.3891 110.594 10.0542 112.024 10.0542C113.683 10.0542 115.031 10.3648 116.068 10.9861C117.094 11.6073 117.608 12.5757 117.608 13.8876V21.8806C117.608 22.1218 117.659 22.3161 117.76 22.4636C117.86 22.6111 118.074 22.684 118.399 22.684C118.505 22.684 118.623 22.6771 118.756 22.6649C118.888 22.6511 119.028 22.632 119.178 22.6059V24.3291C118.809 24.4333 118.528 24.4975 118.334 24.5235C118.139 24.5495 117.876 24.5617 117.542 24.5617C116.725 24.5617 116.131 24.2771 115.762 23.7062C115.569 23.4042 115.432 22.9773 115.354 22.4237C114.87 23.045 114.176 23.5847 113.271 24.0428C112.365 24.5009 111.367 24.73 110.279 24.73C108.969 24.73 107.9 24.3396 107.068 23.5586C106.238 22.7777 105.823 21.8007 105.823 20.6277C105.823 19.3435 106.231 18.3457 107.049 17.6394C107.866 16.9331 108.939 16.4958 110.265 16.3327L114.049 15.8659ZM109.052 22.1652C109.553 22.5521 110.147 22.7465 110.832 22.7465C111.668 22.7465 112.475 22.5574 113.257 22.1773C114.575 21.5474 115.236 20.5183 115.236 19.0867V17.2125C114.946 17.3947 114.573 17.5457 114.117 17.6672C113.662 17.7886 113.213 17.8754 112.775 17.9257L111.341 18.1062C110.481 18.219 109.834 18.3943 109.401 18.6355C108.667 19.0398 108.301 19.6871 108.301 20.5739C108.299 21.2472 108.55 21.7782 109.052 22.1652Z" fill="#1E1E24"/>
</svg>
