<svg width="25" height="25" viewBox="0 0 25 25" fill="none" xmlns="http://www.w3.org/2000/svg">
<g clip-path="url(#clip0_1726_1223)">
<path d="M19.5832 2.91663C20.1357 2.91663 20.6656 3.13612 21.0563 3.52682C21.447 3.91752 21.6665 4.44742 21.6665 4.99996V19.5833C21.6665 20.1358 21.447 20.6657 21.0563 21.0564C20.6656 21.4471 20.1357 21.6666 19.5832 21.6666H4.99984C4.4473 21.6666 3.9174 21.4471 3.5267 21.0564C3.136 20.6657 2.9165 20.1358 2.9165 19.5833V4.99996C2.9165 4.44742 3.136 3.91752 3.5267 3.52682C3.9174 3.13612 4.4473 2.91663 4.99984 2.91663H19.5832ZM19.0623 19.0625V13.5416C19.0623 12.641 18.7046 11.7773 18.0677 11.1404C17.4309 10.5036 16.5671 10.1458 15.6665 10.1458C14.7811 10.1458 13.7498 10.6875 13.2498 11.5V10.3437H10.3436V19.0625H13.2498V13.927C13.2498 13.125 13.8957 12.4687 14.6978 12.4687C15.0845 12.4687 15.4555 12.6224 15.729 12.8958C16.0024 13.1693 16.1561 13.5403 16.1561 13.927V19.0625H19.0623ZM6.95817 8.70829C7.4223 8.70829 7.86742 8.52392 8.19561 8.19573C8.5238 7.86754 8.70817 7.42242 8.70817 6.95829C8.70817 5.98954 7.92692 5.19788 6.95817 5.19788C6.49128 5.19788 6.04351 5.38335 5.71337 5.71349C5.38323 6.04363 5.19775 6.4914 5.19775 6.95829C5.19775 7.92704 5.98942 8.70829 6.95817 8.70829ZM8.40609 19.0625V10.3437H5.52067V19.0625H8.40609Z" fill="white"/>
</g>
<defs>
<clipPath id="clip0_1726_1223">
<rect width="25" height="25" fill="white"/>
</clipPath>
</defs>
</svg>
