<svg width="13" height="14" viewBox="0 0 13 14" fill="none" xmlns="http://www.w3.org/2000/svg">
<path d="M12.2474 11.0219H11.3828C11.3153 11.0219 11.259 11.0781 11.259 11.1456V12.1388H1.13886V2.01703H11.2606V3.01024C11.2606 3.07774 11.3169 3.13399 11.3844 3.13399H12.249C12.3165 3.13399 12.3728 3.07935 12.3728 3.01024V1.39989C12.3728 1.12667 12.1526 0.906494 11.8794 0.906494H0.521713C0.248499 0.906494 0.0283203 1.12667 0.0283203 1.39989V12.756C0.0283203 13.0292 0.248499 13.2494 0.521713 13.2494H11.8778C12.151 13.2494 12.3712 13.0292 12.3712 12.756V11.1456C12.3712 11.0765 12.3149 11.0219 12.2474 11.0219ZM12.4676 6.49935H7.42118V5.27792C7.42118 5.17025 7.29582 5.10917 7.21225 5.17667L4.93171 6.97667C4.91635 6.9887 4.90392 7.00407 4.89537 7.02161C4.88683 7.03915 4.88238 7.05841 4.88238 7.07792C4.88238 7.09744 4.88683 7.1167 4.89537 7.13424C4.90392 7.15178 4.91635 7.16715 4.93171 7.17917L7.21225 8.97917C7.29743 9.04667 7.42118 8.9856 7.42118 8.87792V7.6565H12.4676C12.5383 7.6565 12.5962 7.59864 12.5962 7.52792V6.62792C12.5962 6.55721 12.5383 6.49935 12.4676 6.49935Z" fill="white"/>
</svg>
