<svg width="13" height="13" viewBox="0 0 13 13" fill="none" xmlns="http://www.w3.org/2000/svg">
<path d="M12.2474 10.1419H11.3828C11.3153 10.1419 11.259 10.1982 11.259 10.2657V11.2589H1.13886V1.13709H11.2606V2.1303C11.2606 2.1978 11.3169 2.25405 11.3844 2.25405H12.249C12.3165 2.25405 12.3728 2.19941 12.3728 2.1303V0.519943C12.3728 0.246729 12.1526 0.0265503 11.8794 0.0265503H0.521713C0.248499 0.0265503 0.0283206 0.246729 0.0283206 0.519943V11.876C0.0283206 12.1492 0.248499 12.3694 0.521713 12.3694H11.8778C12.151 12.3694 12.3712 12.1492 12.3712 11.876V10.2657C12.3712 10.1966 12.3149 10.1419 12.2474 10.1419ZM12.5464 6.09673L10.2658 4.29673C10.1806 4.22923 10.0569 4.2903 10.0569 4.39798V5.61941H5.01046C4.93975 5.61941 4.88189 5.67727 4.88189 5.74798V6.64798C4.88189 6.7187 4.93975 6.77655 5.01046 6.77655H10.0569V7.99798C10.0569 8.10566 10.1823 8.16673 10.2658 8.09923L12.5464 6.29923C12.5617 6.2872 12.5742 6.27184 12.5827 6.25429C12.5912 6.23675 12.5957 6.21749 12.5957 6.19798C12.5957 6.17847 12.5912 6.15921 12.5827 6.14167C12.5742 6.12412 12.5617 6.10876 12.5464 6.09673Z" fill="white"/>
</svg>
