<svg width="20" height="19" viewBox="0 0 20 19" fill="none" xmlns="http://www.w3.org/2000/svg">
<path d="M2.00116 14.1016L0.952515 13.3311L4.97587 6.9109L7.54397 9.90702L10.9467 4.3856L13.2794 7.85254C13.0511 7.88107 12.83 7.92744 12.616 7.99164C12.402 8.05584 12.188 8.13075 11.9739 8.21635L11.0109 6.73969L7.73658 12.0685L5.14708 9.05098L2.00116 14.1016ZM18.865 18.5744L15.9973 15.7066C15.6977 15.9206 15.3731 16.0847 15.0236 16.1989C14.674 16.313 14.3138 16.3701 13.9428 16.3701C12.9298 16.3701 12.0702 16.017 11.364 15.3107C10.6578 14.6045 10.3047 13.7449 10.3047 12.7319C10.3047 11.719 10.6578 10.8594 11.364 10.1531C12.0702 9.4469 12.9298 9.09379 13.9428 9.09379C14.9558 9.09379 15.8154 9.4469 16.5216 10.1531C17.2278 10.8594 17.581 11.719 17.581 12.7319C17.581 13.1029 17.5203 13.4631 17.3991 13.8127C17.2778 14.1622 17.1173 14.4939 16.9175 14.8078L19.7852 17.6541L18.865 18.5744ZM13.9428 15.086C14.5991 15.086 15.1555 14.8577 15.6121 14.4012C16.0686 13.9446 16.2969 13.3882 16.2969 12.7319C16.2969 12.0756 16.0686 11.5192 15.6121 11.0627C15.1555 10.6061 14.5991 10.3778 13.9428 10.3778C13.2865 10.3778 12.7301 10.6061 12.2736 11.0627C11.817 11.5192 11.5887 12.0756 11.5887 12.7319C11.5887 13.3882 11.817 13.9446 12.2736 14.4012C12.7301 14.8577 13.2865 15.086 13.9428 15.086ZM15.5265 8.06655C15.3125 7.98094 15.0913 7.92387 14.8631 7.89534C14.6348 7.8668 14.3994 7.83827 14.1568 7.80974L18.7366 0.597656L19.7852 1.36809L15.5265 8.06655Z" fill="#359A9C"/>
</svg>
