<svg width="20" height="21" viewBox="0 0 20 21" fill="none" xmlns="http://www.w3.org/2000/svg">
<path d="M8.60197 0.5C3.85906 0.5 0 4.35906 0 9.10198C0 13.8449 3.85906 17.704 8.60197 17.704C10.428 17.7036 12.2036 17.1187 13.6705 16.0385C13.7841 15.9547 13.9425 15.964 14.0423 16.0638L18.3967 20.4182C18.5058 20.5273 18.6827 20.5273 18.7918 20.4182L19.9171 19.2929C20.0262 19.1838 20.0262 19.0069 19.9171 18.8978L15.5628 14.5434C15.4629 14.4436 15.4537 14.2852 15.5374 14.1715C16.6183 12.7045 17.2035 10.9285 17.2039 9.10198C17.2039 4.35906 13.3449 0.5 8.60197 0.5Z" fill="white"/>
<path d="M6.20296 13.6673H4.46788C4.35283 13.6673 4.2425 13.6216 4.16116 13.5402C4.07981 13.4589 4.03411 13.3485 4.03411 13.2335V9.76332C4.03411 9.64828 4.07981 9.53795 4.16116 9.4566C4.2425 9.37525 4.35283 9.32955 4.46788 9.32955H6.20296C6.31801 9.32955 6.42834 9.37525 6.50968 9.4566C6.59103 9.53795 6.63673 9.64828 6.63673 9.76332V13.2335C6.63673 13.3485 6.59103 13.4589 6.50968 13.5402C6.42834 13.6216 6.31801 13.6673 6.20296 13.6673Z" fill="#2C7C7A"/>
<path d="M9.67514 13.6671H7.94006C7.82501 13.6671 7.71468 13.6214 7.63333 13.54C7.55199 13.4587 7.50629 13.3483 7.50629 13.2333V4.55787C7.50629 4.44282 7.55199 4.33249 7.63333 4.25114C7.71468 4.16979 7.82501 4.12409 7.94006 4.12409H9.67514C9.79018 4.12409 9.90052 4.16979 9.98186 4.25114C10.0632 4.33249 10.1089 4.44282 10.1089 4.55787V13.2333C10.1089 13.3483 10.0632 13.4587 9.98186 13.54C9.90052 13.6214 9.79018 13.6671 9.67514 13.6671Z" fill="#2C7C7A"/>
<path d="M13.1424 13.6715H11.4073C11.2922 13.6715 11.1819 13.6258 11.1006 13.5445C11.0192 13.4631 10.9735 13.3528 10.9735 13.2377V8.03248C10.9735 7.91744 11.0192 7.8071 11.1006 7.72576C11.1819 7.64441 11.2922 7.59871 11.4073 7.59871H13.1424C13.2574 7.59871 13.3677 7.64441 13.4491 7.72576C13.5304 7.8071 13.5761 7.91744 13.5761 8.03248V13.2377C13.5761 13.3528 13.5304 13.4631 13.4491 13.5445C13.3677 13.6258 13.2574 13.6715 13.1424 13.6715Z" fill="#2C7C7A"/>
</svg>
