<svg width="25" height="24" viewBox="0 0 25 24" fill="none" xmlns="http://www.w3.org/2000/svg">
<path d="M17.4284 11.1416H7.57122C7.45336 11.1416 7.35693 11.238 7.35693 11.3559V12.6416C7.35693 12.7595 7.45336 12.8559 7.57122 12.8559H17.4284C17.5462 12.8559 17.6427 12.7595 17.6427 12.6416V11.3559C17.6427 11.238 17.5462 11.1416 17.4284 11.1416Z" fill="#D60D0D"/>
<path d="M12.5 0C5.87321 0 0.5 5.37321 0.5 12C0.5 18.6268 5.87321 24 12.5 24C19.1268 24 24.5 18.6268 24.5 12C24.5 5.37321 19.1268 0 12.5 0ZM12.5 21.9643C6.99821 21.9643 2.53571 17.5018 2.53571 12C2.53571 6.49821 6.99821 2.03571 12.5 2.03571C18.0018 2.03571 22.4643 6.49821 22.4643 12C22.4643 17.5018 18.0018 21.9643 12.5 21.9643Z" fill="#D60D0D"/>
</svg>
