<svg width="14" height="14" viewBox="0 0 14 14" fill="none" xmlns="http://www.w3.org/2000/svg">
<path d="M13.5916 7.21428L7.50339 0.197868C7.44835 0.134378 7.38032 0.0834599 7.30388 0.048563C7.22745 0.013666 7.14441 -0.00439453 7.06039 -0.00439453C6.97637 -0.00439453 6.89333 0.013666 6.8169 0.048563C6.74046 0.0834599 6.67243 0.134378 6.61739 0.197868L0.530998 7.21428C0.512606 7.23543 0.500681 7.26142 0.496643 7.28916C0.492605 7.31689 0.496624 7.3452 0.508222 7.37072C0.519819 7.39623 0.538507 7.41788 0.562058 7.43307C0.58561 7.44826 0.613032 7.45637 0.641059 7.45642H2.12689C2.21127 7.45642 2.29198 7.41973 2.34885 7.35553L6.36425 2.72745V13.0567C6.36425 13.1374 6.43029 13.2035 6.511 13.2035H7.61161C7.69233 13.2035 7.75836 13.1374 7.75836 13.0567V2.72745L11.7738 7.35553C11.8288 7.41973 11.9095 7.45642 11.9957 7.45642H13.4816C13.6063 7.45642 13.6742 7.30967 13.5916 7.21428Z" fill="#2C7C7A"/>
</svg>
