<svg width="107" height="24" viewBox="0 0 107 24" fill="none" xmlns="http://www.w3.org/2000/svg">
<g clip-path="url(#clip0_1768_14152)">
<path d="M35.8656 14.1511C35.8656 15.5688 35.6523 16.6696 35.2258 17.4534C34.4351 18.8865 32.9298 19.6014 30.7117 19.6014C29.4322 19.6014 28.3379 19.26 27.4319 18.5787C26.5244 17.8974 26.0715 16.6833 26.0715 14.9395V13.7392H28.2445V14.9395C28.2445 15.8535 28.4515 16.541 28.8671 17.0018C29.2827 17.4626 29.9287 17.6938 30.8066 17.6938C32.041 17.6938 32.8489 17.2789 33.2287 16.4476C33.4622 15.9377 33.5789 14.9732 33.5789 13.5555V2.36847H35.8671V14.1511H35.8656Z" fill="black"/>
<path d="M48.1114 8.13882C49.2119 9.18909 49.7614 10.7339 49.7614 12.7747C49.7614 14.7466 49.2773 16.3756 48.3075 17.6617C47.3377 18.9477 45.8341 19.5907 43.7965 19.5907C42.0967 19.5907 40.7471 19.0212 39.7462 17.8837C38.7469 16.7461 38.2472 15.2182 38.2472 13.2998C38.2472 11.2452 38.7733 9.60858 39.8287 8.3899C40.8825 7.17275 42.2975 6.56342 44.0751 6.56342C45.6659 6.56342 47.0124 7.08855 48.1114 8.13882ZM46.8132 16.273C47.3222 15.2427 47.5774 14.0944 47.5774 12.8313C47.5774 11.6907 47.3938 10.7614 47.0264 10.0464C46.4442 8.91963 45.4402 8.35775 44.0159 8.35775C42.752 8.35775 41.8336 8.83695 41.2592 9.79536C40.6848 10.7538 40.3969 11.9112 40.3969 13.2646C40.3969 14.566 40.6833 15.6499 41.2592 16.518C41.8336 17.3861 42.7458 17.8193 43.9942 17.8193C45.364 17.8193 46.3041 17.3034 46.8132 16.273Z" fill="black"/>
<path d="M52.3297 6.91709H54.3985V8.65477C54.895 8.05309 55.3433 7.61522 55.7465 7.34117C56.4361 6.87728 57.219 6.64457 58.0938 6.64457C59.0854 6.64457 59.8824 6.88493 60.4879 7.36414C60.8288 7.63819 61.1385 8.04237 61.4172 8.57516C61.8826 7.91989 62.4274 7.43456 63.0547 7.11765C63.682 6.80073 64.3872 6.64304 65.1701 6.64304C66.8435 6.64304 67.9813 7.23706 68.5869 8.42512C68.9122 9.06508 69.0741 9.92551 69.0741 11.0079V19.1559H66.9011V10.6543C66.9011 9.83977 66.694 9.27942 66.28 8.97475C65.8659 8.67008 65.36 8.51698 64.7639 8.51698C63.9435 8.51698 63.2368 8.78797 62.6438 9.32842C62.0507 9.86886 61.755 10.7722 61.755 12.0368V19.1559H59.6286V11.1687C59.6286 10.3389 59.5275 9.7326 59.3267 9.35138C59.0091 8.78032 58.416 8.49402 57.549 8.49402C56.7598 8.49402 56.0407 8.79563 55.3931 9.39731C54.7456 9.99899 54.4234 11.0891 54.4234 12.666V19.1575H52.3313V6.91709H52.3297Z" fill="black"/>
<path d="M72.1515 6.91709H74.2202V8.65477C74.7168 8.05309 75.1651 7.61522 75.5682 7.34117C76.2578 6.87728 77.0408 6.64457 77.9156 6.64457C78.9071 6.64457 79.7041 6.88493 80.3096 7.36414C80.6505 7.63819 80.9603 8.04237 81.2389 8.57516C81.7043 7.91989 82.2491 7.43456 82.8765 7.11765C83.5038 6.80073 84.2089 6.64304 84.9919 6.64304C86.6652 6.64304 87.8031 7.23706 88.4086 8.42512C88.7339 9.06508 88.8958 9.92551 88.8958 11.0079V19.1559H86.7228V10.6543C86.7228 9.83977 86.5158 9.27942 86.1017 8.97475C85.6877 8.67008 85.1818 8.51698 84.5856 8.51698C83.7653 8.51698 83.0586 8.78797 82.4655 9.32842C81.8725 9.86886 81.5767 10.7722 81.5767 12.0368V19.1559H79.4488V11.1687C79.4488 10.3389 79.3476 9.7326 79.1468 9.35138C78.8293 8.78032 78.2362 8.49402 77.3692 8.49402C76.58 8.49402 75.8609 8.79563 75.2133 9.39731C74.5658 9.99899 74.2436 11.0891 74.2436 12.666V19.1575H72.1515V6.91709V6.91709Z" fill="black"/>
<path d="M98.6433 11.7489C99.1242 11.6877 99.4449 11.4902 99.6083 11.1564C99.7017 10.9727 99.7469 10.7094 99.7469 10.3649C99.7469 9.66215 99.4931 9.1508 98.9873 8.83388C98.4814 8.51696 97.756 8.35774 96.8127 8.35774C95.7231 8.35774 94.9494 8.64863 94.4934 9.23041C94.2381 9.55192 94.0715 10.0311 93.9952 10.6665H92.0433C92.0822 9.15386 92.5787 8.10206 93.5345 7.50956C94.4902 6.91707 95.5985 6.62158 96.8594 6.62158C98.321 6.62158 99.5087 6.89563 100.422 7.44373C101.327 7.99183 101.78 8.84613 101.78 10.0036V17.0554C101.78 17.2682 101.825 17.4396 101.914 17.5698C102.002 17.6999 102.191 17.7642 102.477 17.7642C102.571 17.7642 102.675 17.7581 102.792 17.7474C102.908 17.7351 103.031 17.7183 103.164 17.6953V19.2156C102.838 19.3075 102.591 19.3641 102.42 19.3871C102.248 19.41 102.016 19.4208 101.722 19.4208C101.001 19.4208 100.478 19.1697 100.153 18.666C99.9835 18.3996 99.8621 18.023 99.7936 17.5346C99.3671 18.0827 98.7553 18.5588 97.9583 18.963C97.1598 19.3672 96.2803 19.5693 95.3215 19.5693C94.1665 19.5693 93.2247 19.2248 92.4916 18.5358C91.76 17.8469 91.3942 16.9849 91.3942 15.95C91.3942 14.817 91.7537 13.9367 92.4744 13.3136C93.1952 12.6905 94.14 12.3047 95.309 12.1608L98.6433 11.7489ZM94.2396 17.3065C94.6817 17.6479 95.2047 17.8193 95.8087 17.8193C96.545 17.8193 97.2563 17.6525 97.9459 17.3172C99.1071 16.7614 99.6893 15.8535 99.6893 14.5905V12.937C99.434 13.0977 99.1056 13.2309 98.704 13.3381C98.3023 13.4453 97.907 13.5218 97.5209 13.5662L96.257 13.7254C95.4989 13.825 94.9292 13.9796 94.5478 14.1924C93.9003 14.5491 93.5781 15.1202 93.5781 15.9025C93.5765 16.4966 93.7975 16.965 94.2396 17.3065Z" fill="black"/>
<path d="M3.20971 19.3855H9.06408L5.49168 13.2646L2.56216 18.2847C2.27575 18.7747 2.63532 19.3855 3.20971 19.3855Z" fill="#2C7C7A"/>
<path d="M9.06406 7.3335L5.49167 13.2646H12.6038L9.06406 7.3335Z" fill="#41B5B5"/>
<path d="M21.8142 19.3855H16.1326L19.6085 13.2646L22.4648 18.2939C22.7435 18.7839 22.3839 19.3855 21.8142 19.3855Z" fill="#2C7C7A"/>
<path d="M19.6085 13.2646L16.1326 19.3855L12.6038 13.2646H19.6085Z" fill="#359A9C"/>
<path d="M12.6038 13.2646H5.49167L9.06406 19.3855L12.6038 13.2646Z" fill="#359A9C"/>
<path d="M9.06409 19.3855L12.6038 13.2646L16.1326 19.3855H9.06409Z" fill="#2C7C7A"/>
<path d="M9.06409 7.3335L12.6038 13.2646L16.1326 7.3335H9.06409Z" fill="#62D3CD"/>
<path d="M12.6038 13.2646L16.1326 7.3335L19.6085 13.2646H12.6038Z" fill="#41B5B5"/>
<path d="M9.06409 7.33349L11.9718 2.42357C12.252 1.95049 12.9462 1.95049 13.2264 2.42357L16.1342 7.33349H9.06409Z" fill="#6DE2D9"/>
</g>
<defs>
<clipPath id="clip0_1768_14152">
<rect width="106.154" height="24" fill="white"/>
</clipPath>
</defs>
</svg>
