<svg width="22" height="21" viewBox="0 0 22 21" fill="none" xmlns="http://www.w3.org/2000/svg">
<path d="M16.7213 7.38503C16.7213 5.75814 15.2503 4.43443 13.4424 4.43443C11.6347 4.43443 10.1639 5.75814 10.1639 7.38503C10.1639 9.01213 11.6347 10.3361 13.4424 10.3361C15.2503 10.3361 16.7213 9.01213 16.7213 7.38503Z" fill="white"/>
<path d="M16.8956 13.2985L16.9098 12.8392C16.9104 12.8169 16.9223 12.3856 16.8675 11.7939C17.4337 11.9993 17.8603 12.0998 17.8823 12.1047L18.3397 12.2113L18.2313 11.7612C18.1448 11.4225 18.0393 11.0889 17.9151 10.762C18.322 10.7985 18.6573 10.8052 18.8487 10.8052C18.9314 10.8052 18.9778 10.804 18.9778 10.804L19.448 10.7901L19.2243 10.3829C19.0514 10.078 18.8618 9.78283 18.6565 9.4987C19.2507 9.39792 19.6713 9.27541 19.693 9.26875L20.1432 9.1361L19.8212 8.79957C19.8053 8.78306 19.5034 8.4694 19.0399 8.08914C19.3622 7.94446 19.6763 7.78212 19.9808 7.60287L20.3804 7.35988L19.9808 7.11718C19.9613 7.10502 19.5878 6.8794 19.0399 6.63062C19.5037 6.25035 19.8053 5.9367 19.8212 5.92077L20.1435 5.58395L19.693 5.4513C19.671 5.44522 19.2507 5.32242 18.6565 5.22134C19.0042 4.73623 19.2136 4.35684 19.2243 4.33685L19.4477 3.93023L18.9778 3.91575C18.9778 3.91575 18.9303 3.9143 18.8444 3.9143C18.6533 3.9143 18.3197 3.92125 17.9154 3.95774C18.0394 3.63096 18.1448 3.29747 18.2313 2.95885L18.3397 2.50908L17.8826 2.61508C17.8603 2.62058 17.4337 2.72079 16.8675 2.92584C16.9223 2.33473 16.9104 1.90291 16.9098 1.88061L16.8956 1.41809L16.4823 1.63849C16.4623 1.6492 16.0769 1.85483 15.5835 2.19803C15.5247 1.85365 15.4466 1.51282 15.3497 1.17713L15.2149 0.734011L14.8726 1.05172C14.6185 1.29452 14.378 1.55112 14.1522 1.82037C13.8987 1.2811 13.6693 0.912705 13.6571 0.89388L13.4103 0.5L13.1637 0.893301C13.1515 0.912415 12.9221 1.28052 12.6692 1.81979C12.4433 1.55062 12.2028 1.29402 11.9488 1.05114L11.6065 0.733142L11.4716 1.17655C11.4653 1.19827 11.3403 1.61213 11.2379 2.19774C10.9488 1.99476 10.6487 1.80787 10.339 1.63791L9.92545 1.41838L9.91095 1.8809C9.91037 1.9032 9.89877 2.33502 9.95359 2.92613C9.62109 2.80427 9.28222 2.70053 8.93845 2.61537L8.48136 2.50937L8.58983 2.95914C8.59505 2.98115 8.69714 3.40081 8.90568 3.95803C8.59671 3.92992 8.28665 3.91542 7.9764 3.91459C7.89084 3.91459 7.84327 3.91604 7.84327 3.91604L7.3737 3.93052L7.59674 4.33714C7.76955 4.64227 7.95924 4.93756 8.16492 5.22163C7.57064 5.32271 7.15008 5.44522 7.12804 5.45159L6.67761 5.58424L7.00013 5.92106C7.01609 5.93728 7.31772 6.25093 7.78121 6.63091C7.23332 6.8794 6.85976 7.10531 6.84032 7.11747L6.44065 7.36017L6.84032 7.60316C6.85976 7.61503 7.23332 7.84064 7.78121 8.08943C7.31743 8.46969 7.01551 8.78335 7.00013 8.79986L6.6779 9.13639L7.12833 9.26904C7.15037 9.27541 7.57064 9.39792 8.16521 9.49899C7.81688 9.9841 7.60776 10.3632 7.59703 10.3832L7.3737 10.7907L7.84385 10.8043C7.84385 10.8043 7.88968 10.8055 7.97263 10.8055C8.16463 10.8055 8.49963 10.7988 8.90626 10.7623C8.78226 11.0892 8.67671 11.4228 8.59012 11.7615L8.48165 12.2116L8.93903 12.105C8.96108 12.0998 9.38801 11.9996 9.95388 11.7942C9.89906 12.3853 9.91066 12.8169 9.91124 12.8392L9.92226 13.1934C8.16028 12.3816 6.2295 12.3856 6.2295 12.3856C6.2295 12.3856 10.2358 13.8236 12.6811 17.877H14.1214C16.5641 14.3953 21.3115 11.9648 21.3115 11.9648C21.3115 11.9648 19.0123 12.1629 16.8956 13.2985ZM12.7551 16.0151C12.452 15.4016 12.0574 14.8375 11.5848 14.3423C11.1349 13.8725 10.594 13.5163 10.0316 13.2452L10.3396 13.0821C10.3596 13.0714 10.7454 12.8658 11.2387 12.5226C11.3414 13.1082 11.4661 13.5227 11.4728 13.5441L11.608 13.9872L11.9499 13.6695C12.2039 13.4267 12.4443 13.1702 12.6701 12.9011C12.7382 13.0468 12.8044 13.1783 12.8653 13.2953L12.7551 16.0151ZM13.4105 13.0911C13.2642 12.815 13.1311 12.5321 13.0117 12.2434L12.8197 11.7748L12.5114 12.1788C12.3207 12.4274 12.118 12.6666 11.9041 12.8956C11.8356 12.5915 11.7816 12.2842 11.7422 11.9749L11.6802 11.473L11.2756 11.7847C11.0257 11.9765 10.7667 12.1562 10.4994 12.3231C10.5105 12.0717 10.5342 11.7453 10.585 11.3931L10.6569 10.8923L10.1842 11.0904C9.85178 11.2295 9.53767 11.3369 9.29375 11.4125C9.3709 11.1721 9.47995 10.8631 9.6212 10.5358L9.8222 10.071L9.31376 10.1414C8.99996 10.1841 8.68436 10.2123 8.36795 10.2259C8.53807 9.96294 8.72061 9.70818 8.91496 9.4625L9.23139 9.06428L8.7218 9.00317C8.40774 8.96495 8.0957 8.9118 7.78672 8.84388C8.02 8.63276 8.26334 8.43299 8.51587 8.24524L8.92598 7.94143L8.44945 7.7526C8.15629 7.63573 7.86892 7.50486 7.58833 7.36046C7.86886 7.21622 8.15613 7.08546 8.44916 6.96861L8.92598 6.78007L8.51587 6.47597C8.26345 6.28808 8.02013 6.0883 7.78672 5.87733C8.09575 5.80967 8.40778 5.75652 8.7218 5.71804L9.23139 5.65664L8.91496 5.2587C8.72052 5.013 8.53798 4.75813 8.36795 4.49498C8.62115 4.50599 8.95412 4.52945 9.31318 4.57955L9.82191 4.65022L9.62091 4.18509C9.49784 3.89837 9.38866 3.60591 9.29375 3.30871C9.53796 3.38459 9.85178 3.49146 10.1842 3.63077L10.6569 3.82915L10.585 3.3284C10.5413 3.01971 10.5127 2.70906 10.4994 2.39757C10.7149 2.53283 10.9896 2.71673 11.2753 2.93626L11.6799 3.24789L11.742 2.74598C11.7855 2.39294 11.8484 2.07175 11.9041 1.82558C12.1179 2.05484 12.3206 2.29425 12.5114 2.54296L12.8197 2.94669L13.012 2.47809C13.1475 2.14792 13.2925 1.85338 13.4108 1.6298C13.5574 1.90596 13.6905 2.18906 13.8096 2.47809L14.0019 2.94698L14.3102 2.54267C14.5012 2.29416 14.7039 2.05486 14.9176 1.82558C14.973 2.07146 15.0356 2.39265 15.0797 2.74569L15.1418 3.2476L15.5464 2.93597C15.7963 2.74436 16.0552 2.56469 16.3222 2.39757C16.3112 2.64925 16.2874 2.97565 16.2367 3.32783L16.1647 3.82857L16.6375 3.63048C16.929 3.50915 17.2262 3.40177 17.5279 3.30871C17.433 3.60591 17.3238 3.89837 17.2008 4.18509L17 4.65022L17.5085 4.57955C17.8221 4.53656 18.1375 4.50834 18.4537 4.49498C18.2837 4.75808 18.1013 5.01294 17.907 5.2587L17.5903 5.65693L18.0999 5.71804C18.4584 5.7609 18.7849 5.82259 19.035 5.87733C18.8016 6.08842 18.5583 6.28819 18.3058 6.47597L17.8957 6.78007L18.3722 6.96861C18.7072 7.10125 19.0062 7.24403 19.2333 7.36046C19.0062 7.47689 18.7072 7.61967 18.3719 7.7526L17.8957 7.94143L18.3058 8.24524C18.5947 8.45956 18.8461 8.67358 19.035 8.84388C18.7852 8.89833 18.4589 8.96002 18.0999 9.00317L17.59 9.06428L17.907 9.4625C18.1012 9.70818 18.2835 9.96295 18.4534 10.2259C18.1371 10.2123 17.8216 10.1841 17.5079 10.1414L16.9995 10.071L17.2005 10.5358C17.3235 10.8228 17.4328 11.1154 17.5279 11.4128C17.2263 11.3192 16.9291 11.2117 16.6375 11.0904L16.1647 10.8923L16.2367 11.3931C16.2874 11.7453 16.3112 12.072 16.3222 12.3236C16.0552 12.1563 15.7962 11.9766 15.5461 11.7849L15.1415 11.4739L15.0794 11.9755C15.0404 12.2847 14.9863 12.5917 14.9173 12.8956C14.7034 12.6665 14.5008 12.4272 14.31 12.1785L14.0016 11.7751L13.8096 12.2431C13.6903 12.532 13.5571 12.815 13.4105 13.0911ZM15.7825 14.0092C14.8979 14.6814 14.3282 15.6117 13.9747 16.3928L13.8572 13.4809C13.9416 13.3269 14.0443 13.1308 14.1522 12.9008C14.378 13.1701 14.6185 13.4267 14.8726 13.6695L15.2146 13.9875L15.3497 13.5441C15.3561 13.5227 15.4811 13.1085 15.5838 12.5232C15.873 12.7259 16.1731 12.9126 16.4829 13.0824L16.8936 13.3002C16.505 13.5068 16.1334 13.7438 15.7825 14.0092Z" fill="white"/>
<path d="M13.6456 17.8174C14.0765 17.8174 14.4356 17.9247 14.7229 18.1393C14.9383 18.3539 15.082 18.6222 15.082 18.8905L9.33645 20.5L4.30913 19.427V14.5984H5.67369L10.9165 16.0469C11.2756 16.1542 11.491 16.3689 11.491 16.6371C11.491 16.7981 11.4192 16.959 11.2756 17.0663C11.1319 17.1736 10.8446 17.2809 10.6292 17.2809H8.61826L7.32552 16.9054L7.11006 17.3882L8.61826 17.8174H13.6456ZM0 14.5984H2.87275V20.5H0V14.5984Z" fill="white"/>
<path d="M12.4662 6.10114C12.3716 6.12278 12.2618 6.1261 12.1905 6.06474C12.1094 5.99495 12.1084 5.87406 12.2063 5.82608C12.3108 5.7749 12.4299 5.7459 12.5565 5.7459C12.9685 5.7459 13.3027 6.05343 13.3044 6.43337C13.3044 6.4343 13.3044 6.43523 13.3044 6.43616V6.83882H13.6783C13.7816 6.83882 13.8653 6.91608 13.8653 7.01138C13.8653 7.10669 13.7816 7.18395 13.6783 7.18395H13.3044V8.33433C13.3044 8.52494 13.4718 8.67946 13.6783 8.67946C13.8848 8.67946 14.0523 8.52494 14.0523 8.33433C14.0523 8.28029 14.0388 8.22915 14.0148 8.18362C13.9527 8.24121 13.8668 8.27686 13.7718 8.27686C13.5825 8.27686 13.429 8.13522 13.429 7.96049C13.429 7.78577 13.5825 7.64412 13.7718 7.64412C13.8388 7.64412 13.9013 7.66185 13.9541 7.69249C14.2306 7.79379 14.4262 8.04298 14.4262 8.33433C14.4262 8.71555 14.0914 9.02459 13.6783 9.02459C13.2653 9.02459 12.9304 8.71555 12.9304 8.33433C12.9304 8.30835 12.932 8.28271 12.935 8.25748C12.932 8.24521 12.9304 8.23245 12.9304 8.21934V7.18395H12.4942C12.3909 7.18395 12.3072 7.10669 12.3072 7.01138C12.3072 6.91608 12.3909 6.83882 12.4942 6.83882H12.9304V6.63804C12.9304 6.63709 12.9304 6.63613 12.9304 6.63517V6.43616C12.9304 6.24555 12.763 6.09103 12.5565 6.09103C12.5254 6.09103 12.4951 6.09454 12.4662 6.10114Z" fill="#2C7C7A"/>
<path d="M4.82454 8.45594C4.88665 8.37462 4.91803 8.28112 4.91803 8.17482C4.91803 8.06724 4.88665 7.97246 4.82454 7.89114L3.18071 5.86117C3.15125 5.82467 3.11795 5.79649 3.08145 5.77728C3.04175 5.75615 2.9982 5.7459 2.95082 5.7459C2.85796 5.7459 2.7824 5.78432 2.72349 5.86117L1.07966 7.89114C1.01562 7.97054 0.983606 8.06468 0.983606 8.17482C0.983606 8.28304 1.01562 8.37654 1.07966 8.45594L1.26921 8.68968C1.3294 8.76844 1.40561 8.80815 1.49654 8.80815C1.58747 8.80815 1.66304 8.76844 1.72323 8.68968L2.46606 7.77587V9.61245C2.46158 9.63422 2.45901 9.65727 2.45901 9.68033V11.3197C2.45901 11.5009 2.60566 11.6475 2.78688 11.6475H3.11475C3.22682 11.6475 3.32607 11.5912 3.38499 11.5054C3.42149 11.4529 3.44262 11.3888 3.44262 11.3197V9.68033C3.44262 9.65727 3.44006 9.63422 3.43558 9.61245V7.77587L4.1784 8.68968C4.2386 8.76844 4.31416 8.80815 4.40509 8.80815C4.49475 8.80815 4.57095 8.76844 4.63499 8.68968L4.82454 8.45594Z" fill="white"/>
</svg>
