<svg width="37" height="34" viewBox="0 0 37 34" fill="none" xmlns="http://www.w3.org/2000/svg">
<path d="M28.7437 11.6304C28.7437 8.88221 26.2588 6.64615 23.2048 6.64615C20.1513 6.64615 17.6668 8.88221 17.6668 11.6304C17.6668 14.379 20.1513 16.6154 23.2048 16.6154C26.2588 16.6154 28.7437 14.379 28.7437 11.6304Z" fill="#880FA7"/>
<path d="M29.0382 21.6196L29.0622 20.8437C29.0632 20.806 29.0833 20.0775 28.9907 19.078C29.9471 19.4249 30.6678 19.5947 30.705 19.603L31.4776 19.783L31.2944 19.0228C31.1484 18.4505 30.9701 17.887 30.7604 17.3349C31.4477 17.3966 32.0141 17.4078 32.3375 17.4078C32.4771 17.4078 32.5555 17.4059 32.5555 17.4059L33.3497 17.3824L32.9719 16.6945C32.6798 16.1795 32.3596 15.6808 32.0126 15.2009C33.0165 15.0306 33.7269 14.8237 33.7637 14.8124L34.5241 14.5884L33.9802 14.0199C33.9533 13.992 33.4433 13.4622 32.6603 12.8198C33.2049 12.5754 33.7355 12.3012 34.2497 11.9984L34.9249 11.5879L34.2497 11.1779C34.2169 11.1574 33.5858 10.7763 32.6603 10.356C33.4438 9.71368 33.9533 9.18384 33.9802 9.15693L34.5246 8.58796L33.7637 8.36389C33.7265 8.35362 33.0165 8.14618 32.0126 7.97544C32.6001 7.15598 32.9538 6.51509 32.9719 6.48133L33.3492 5.79445L32.5555 5.76999C32.5555 5.76999 32.4751 5.76754 32.3301 5.76754C32.0073 5.76754 31.4438 5.77928 30.7608 5.84093C30.9703 5.28892 31.1484 4.72557 31.2944 4.15357L31.4776 3.39379L30.7055 3.57285C30.6678 3.58215 29.9471 3.75142 28.9907 4.0978C29.0833 3.09928 29.0632 2.36983 29.0622 2.33216L29.0382 1.55086L28.34 1.92317C28.3062 1.94127 27.6551 2.28862 26.8217 2.86836C26.7223 2.28663 26.5905 1.71089 26.4268 1.14382L26.199 0.395298L25.6209 0.931985C25.1916 1.34213 24.7853 1.77559 24.4039 2.2304C23.9757 1.31946 23.5881 0.697154 23.5675 0.665354L23.1506 0L22.7341 0.664375C22.7136 0.696665 22.326 1.31848 21.8988 2.22942C21.5172 1.77475 21.1109 1.34129 20.6818 0.931006L20.1036 0.393831L19.8758 1.14284C19.865 1.17954 19.6539 1.87865 19.4809 2.86787C18.9926 2.525 18.4857 2.20929 17.9626 1.92219L17.264 1.55135L17.2395 2.33265C17.2385 2.37032 17.2189 3.09977 17.3115 4.09829C16.7498 3.89244 16.1774 3.7172 15.5967 3.57334L14.8245 3.39428L15.0078 4.15406C15.0166 4.19124 15.1891 4.90014 15.5413 5.84141C15.0194 5.79392 14.4956 5.76944 13.9715 5.76803C13.827 5.76803 13.7467 5.77048 13.7467 5.77048L12.9535 5.79494L13.3302 6.48182C13.6221 6.99726 13.9426 7.49606 14.29 7.97593C13.2861 8.14667 12.5757 8.35362 12.5385 8.36438L11.7776 8.58845L12.3224 9.15742C12.3494 9.18482 12.8589 9.71465 13.6418 10.3565C12.7163 10.7763 12.0853 11.1579 12.0525 11.1784L11.3773 11.5884L12.0525 11.9989C12.0853 12.0189 12.7163 12.4 13.6418 12.8203C12.8584 13.4627 12.3484 13.9925 12.3224 14.0204L11.7781 14.5889L12.539 14.8129C12.5762 14.8237 13.2861 15.0306 14.2905 15.2014C13.7021 16.0208 13.3488 16.6612 13.3307 16.695L12.9535 17.3833L13.7476 17.4063C13.7476 17.4063 13.8251 17.4083 13.9652 17.4083C14.2895 17.4083 14.8554 17.397 15.5423 17.3354C15.3328 17.8876 15.1545 18.4511 15.0083 19.0232L14.825 19.7835L15.5977 19.6035C15.6349 19.5947 16.3561 19.4254 17.312 19.0785C17.2194 20.0771 17.239 20.806 17.2399 20.8437L17.2586 21.442C14.2822 20.0707 11.0206 20.0775 11.0206 20.0775C11.0206 20.0775 17.7882 22.5066 21.9189 29.3538H24.3519C28.4782 23.4723 36.4976 19.3667 36.4976 19.3667C36.4976 19.3667 32.6138 19.7013 29.0382 21.6196ZM22.0438 26.2086C21.5318 25.1722 20.8652 24.2194 20.0669 23.3828C19.307 22.5892 18.3933 21.9875 17.4433 21.5296L17.9636 21.2541C17.9974 21.236 18.649 20.8887 19.4824 20.3089C19.6558 21.2982 19.8665 21.9983 19.8778 22.0345L20.1061 22.783L20.6837 22.2463C21.1127 21.8362 21.5188 21.4029 21.9003 20.9484C22.0154 21.1945 22.1271 21.4166 22.23 21.6142L22.0438 26.2086ZM23.1511 21.2693C22.9039 20.8029 22.679 20.3251 22.4774 19.8373L22.1531 19.0458L21.6323 19.7282C21.31 20.1481 20.9676 20.5522 20.6063 20.9391C20.4907 20.4253 20.3995 19.9062 20.3329 19.3838L20.2281 18.536L19.5446 19.0624C19.1225 19.3864 18.685 19.6899 18.2335 19.9719C18.2522 19.5472 18.2923 18.9959 18.3781 18.4009L18.4996 17.5551L17.701 17.8897C17.1395 18.1245 16.6089 18.306 16.1969 18.4337C16.3272 18.0277 16.5114 17.5057 16.75 16.9528L17.0895 16.1676L16.2307 16.2865C15.7006 16.3587 15.1675 16.4063 14.633 16.4293C14.9203 15.9851 15.2287 15.5547 15.557 15.1397L16.0915 14.467L15.2307 14.3638C14.7002 14.2993 14.1731 14.2095 13.6511 14.0947C14.0452 13.7381 14.4563 13.4006 14.8828 13.0835L15.5756 12.5703L14.7706 12.2513C14.2754 12.0539 13.79 11.8328 13.316 11.5889C13.7899 11.3452 14.2752 11.1244 14.7702 10.927L15.5756 10.6085L14.8828 10.0948C14.4564 9.7774 14.0454 9.43993 13.6511 9.08355C14.1732 8.96926 14.7003 8.87947 15.2307 8.81447L16.0915 8.71075L15.557 8.03855C15.2285 7.62349 14.9202 7.19296 14.633 6.74845C15.0607 6.76704 15.6231 6.80667 16.2297 6.8913L17.089 7.01068L16.7495 6.22497C16.5416 5.74064 16.3572 5.2466 16.1969 4.74456C16.6094 4.87274 17.1395 5.05326 17.701 5.28858L18.4996 5.62371L18.3781 4.77783C18.3042 4.25637 18.256 3.73161 18.2335 3.20544C18.5976 3.43391 19.0615 3.74457 19.5441 4.11541L20.2276 4.64182L20.3325 3.79398C20.4059 3.19761 20.5123 2.65506 20.6063 2.23921C20.9676 2.62649 21.3099 3.0309 21.6323 3.45103L22.1531 4.13302L22.4779 3.34145C22.7067 2.78372 22.9517 2.28618 23.1516 1.90849C23.3992 2.37499 23.624 2.85321 23.8252 3.34145L24.1501 4.13351L24.6709 3.45054C24.9934 3.03076 25.3358 2.62652 25.6968 2.23921C25.7904 2.65457 25.8962 3.19712 25.9707 3.79349L26.0755 4.64133L26.759 4.11492C27.1812 3.79123 27.6186 3.48773 28.0696 3.20544C28.051 3.63058 28.0108 4.18194 27.9251 4.77685L27.8036 5.62273L28.6022 5.28809C29.0946 5.08314 29.5965 4.90176 30.1063 4.74456C29.946 5.2466 29.7615 5.74064 29.5536 6.22497L29.2146 7.01068L30.0735 6.8913C30.6032 6.81868 31.136 6.77101 31.6702 6.74845C31.383 7.19288 31.0748 7.6234 30.7466 8.03855L30.2116 8.71124L31.0724 8.81447C31.678 8.88688 32.2297 8.99108 32.652 9.08355C32.2579 9.44012 31.8468 9.77759 31.4203 10.0948L30.7275 10.6085L31.5325 10.927C32.0984 11.151 32.6035 11.3922 32.9871 11.5889C32.6035 11.7856 32.0984 12.0268 31.532 12.2513L30.7275 12.5703L31.4203 13.0835C31.9083 13.4455 32.3331 13.8071 32.652 14.0947C32.2302 14.1867 31.679 14.2909 31.0724 14.3638L30.2111 14.467L30.7466 15.1397C31.0746 15.5547 31.3827 15.9851 31.6697 16.4293C31.1354 16.4063 30.6024 16.3586 30.0725 16.2865L29.2136 16.1676L29.5531 16.9528C29.761 17.4376 29.9456 17.9319 30.1063 18.4342C29.5967 18.2762 29.0948 18.0945 28.6022 17.8897L27.8036 17.5551L27.9251 18.4009C28.0108 18.9959 28.051 19.5477 28.0696 19.9728C27.6185 19.6903 27.181 19.3866 26.7585 19.0629L26.075 18.5374L25.9702 19.3848C25.9043 19.907 25.8129 20.4257 25.6963 20.9391C25.3351 20.552 24.9927 20.1477 24.6704 19.7277L24.1496 19.0462L23.8252 19.8368C23.6237 20.3249 23.3987 20.8029 23.1511 21.2693ZM27.1578 22.8202C25.6635 23.9557 24.7013 25.5271 24.104 26.8465L23.9056 21.9278C24.0482 21.6675 24.2216 21.3363 24.4039 20.9479C24.7853 21.4027 25.1916 21.8362 25.6209 22.2463L26.1985 22.7835L26.4268 22.0345C26.4376 21.9983 26.6488 21.2987 26.8222 20.3099C27.3107 20.6524 27.8178 20.9678 28.341 21.2546L29.0348 21.6225C28.3783 21.9714 27.7507 22.3719 27.1578 22.8202Z" fill="#954DA7"/>
<path d="M23.5481 29.2531C24.276 29.2531 24.8826 29.4344 25.3679 29.7969C25.7318 30.1594 25.9745 30.6126 25.9745 31.0657L16.269 33.7846L7.77668 31.972V23.8154H10.0817L18.938 26.2624C19.5446 26.4436 19.9085 26.8062 19.9085 27.2593C19.9085 27.5312 19.7872 27.8031 19.5446 27.9843C19.302 28.1656 18.8167 28.3469 18.4527 28.3469H15.0558L12.8721 27.7124L12.5081 28.5281L15.0558 29.2531H23.5481ZM0.497559 23.8154H5.35031V33.7846H0.497559V23.8154Z" fill="#880FA7"/>
<path d="M21.5559 9.46162C21.3961 9.49817 21.2105 9.50378 21.0901 9.40012C20.9531 9.28224 20.9514 9.07802 21.1168 8.99698C21.2933 8.91052 21.4946 8.86154 21.7083 8.86154C22.4044 8.86154 22.9689 9.38103 22.9717 10.0228C22.9717 10.0244 22.9717 10.026 22.9717 10.0275V10.7077H23.6034C23.7779 10.7077 23.9193 10.8382 23.9193 10.9992C23.9193 11.1602 23.7779 11.2907 23.6034 11.2907H22.9717V13.234C22.9717 13.556 23.2546 13.817 23.6034 13.817C23.9523 13.817 24.2351 13.556 24.2351 13.234C24.2351 13.1427 24.2124 13.0563 24.1719 12.9794C24.067 13.0767 23.9218 13.1369 23.7613 13.1369C23.4415 13.1369 23.1823 12.8976 23.1823 12.6025C23.1823 12.3073 23.4415 12.0681 23.7613 12.0681C23.8745 12.0681 23.98 12.098 24.0692 12.1498C24.5364 12.3209 24.8668 12.7418 24.8668 13.234C24.8668 13.878 24.3012 14.4 23.6034 14.4C22.9057 14.4 22.3401 13.878 22.3401 13.234C22.3401 13.1901 22.3427 13.1468 22.3478 13.1042C22.3427 13.0835 22.3401 13.0619 22.3401 13.0397V11.2907H21.6031C21.4287 11.2907 21.2872 11.1602 21.2872 10.9992C21.2872 10.8382 21.4287 10.7077 21.6031 10.7077H22.3401V10.3686C22.34 10.367 22.34 10.3653 22.34 10.3637V10.0275C22.34 9.70556 22.0572 9.44454 21.7083 9.44454C21.6558 9.44454 21.6047 9.45047 21.5559 9.46162Z" fill="white"/>
<path d="M8.64732 13.4394C8.75225 13.302 8.80525 13.1441 8.80525 12.9645C8.80525 12.7828 8.75225 12.6227 8.64732 12.4853L5.87052 9.05625C5.82076 8.99459 5.76451 8.94699 5.70285 8.91454C5.63578 8.87885 5.56222 8.86154 5.48217 8.86154C5.32532 8.86154 5.19768 8.92644 5.09816 9.05625L2.32136 12.4853C2.21318 12.6195 2.1591 12.7785 2.1591 12.9645C2.1591 13.1474 2.21318 13.3053 2.32136 13.4394L2.64155 13.8343C2.74323 13.9673 2.87196 14.0344 3.02556 14.0344C3.17917 14.0344 3.30681 13.9673 3.4085 13.8343L4.6633 12.2906V15.393C4.65573 15.4298 4.6514 15.4687 4.6514 15.5077V18.2769C4.6514 18.5831 4.89912 18.8308 5.20525 18.8308H5.7591C5.9484 18.8308 6.11607 18.7356 6.21559 18.5906C6.27725 18.5019 6.31294 18.3937 6.31294 18.2769V15.5077C6.31294 15.4687 6.30862 15.4298 6.30104 15.393V12.2906L7.55585 13.8343C7.65753 13.9673 7.78518 14.0344 7.93878 14.0344C8.09023 14.0344 8.21895 13.9673 8.32713 13.8343L8.64732 13.4394Z" fill="#954DA7"/>
</svg>
