<svg width="50" height="50" viewBox="0 0 50 50" fill="none" xmlns="http://www.w3.org/2000/svg">
<circle cx="25" cy="25" r="25" fill="#2C7C7A"/>
<path d="M34.5627 24.3484L24.4431 15.5654C24.3654 15.4984 24.2663 15.4609 24.1618 15.4609H21.7913C21.5931 15.4609 21.502 15.7074 21.652 15.8359L31.0324 23.9788H15.3574C15.2395 23.9788 15.1431 24.0752 15.1431 24.1931V25.8002C15.1431 25.9181 15.2395 26.0145 15.3574 26.0145H31.0297L21.6493 34.1574C21.4993 34.2886 21.5904 34.5324 21.7886 34.5324H24.2395C24.2904 34.5324 24.3413 34.5136 24.3788 34.4788L34.5627 25.6449C34.6554 25.5642 34.7298 25.4646 34.7807 25.3528C34.8317 25.241 34.8581 25.1195 34.8581 24.9967C34.8581 24.8738 34.8317 24.7523 34.7807 24.6405C34.7298 24.5287 34.6554 24.4291 34.5627 24.3484V24.3484Z" fill="white"/>
</svg>
