<svg width="24" height="17" viewBox="0 0 24 17" fill="none" xmlns="http://www.w3.org/2000/svg">
<path fill-rule="evenodd" clip-rule="evenodd" d="M7.38462 8.30769C7.38462 7.08361 7.87088 5.90967 8.73643 5.04412C9.60198 4.17857 10.7759 3.69231 12 3.69231C13.2241 3.69231 14.398 4.17857 15.2636 5.04412C16.1291 5.90967 16.6154 7.08361 16.6154 8.30769C16.6154 9.53176 16.1291 10.7057 15.2636 11.5713C14.398 12.4368 13.2241 12.9231 12 12.9231C10.7759 12.9231 9.60198 12.4368 8.73643 11.5713C7.87088 10.7057 7.38462 9.53176 7.38462 8.30769ZM12 5.53846C11.2656 5.53846 10.5612 5.83022 10.0419 6.34955C9.52253 6.86888 9.23077 7.57324 9.23077 8.30769C9.23077 9.04214 9.52253 9.7465 10.0419 10.2658C10.5612 10.7852 11.2656 11.0769 12 11.0769C12.7344 11.0769 13.4388 10.7852 13.9581 10.2658C14.4775 9.7465 14.7692 9.04214 14.7692 8.30769C14.7692 7.57324 14.4775 6.86888 13.9581 6.34955C13.4388 5.83022 12.7344 5.53846 12 5.53846Z" fill="#1E1E24"/>
<path fill-rule="evenodd" clip-rule="evenodd" d="M2.55138 6.64123C2.03569 7.38461 1.84615 7.96677 1.84615 8.30769C1.84615 8.64861 2.03569 9.23077 2.55138 9.97415C3.05108 10.6917 3.792 11.4708 4.72985 12.1908C6.60923 13.6332 9.18523 14.7692 12 14.7692C14.8148 14.7692 17.3908 13.6332 19.2702 12.1908C20.208 11.4708 20.9489 10.6917 21.4486 9.97415C21.9643 9.23077 22.1538 8.64861 22.1538 8.30769C22.1538 7.96677 21.9643 7.38461 21.4486 6.64123C20.9489 5.92369 20.208 5.14461 19.2702 4.42461C17.3908 2.98215 14.8148 1.84615 12 1.84615C9.18523 1.84615 6.60923 2.98215 4.72985 4.42461C3.792 5.14461 3.05108 5.92369 2.55138 6.64123ZM3.60492 2.96C5.73538 1.32554 8.69662 0 12 0C15.3034 0 18.2646 1.32554 20.3938 2.96C21.4609 3.77846 22.3422 4.69169 22.9649 5.58892C23.5705 6.46154 24 7.41784 24 8.30769C24 9.19754 23.5692 10.1538 22.9649 11.0265C22.3422 11.9237 21.4609 12.8357 20.3951 13.6554C18.2658 15.2898 15.3034 16.6154 12 16.6154C8.69662 16.6154 5.73538 15.2898 3.60615 13.6554C2.53908 12.8369 1.65785 11.9237 1.03508 11.0265C0.430769 10.1538 0 9.19754 0 8.30769C0 7.41784 0.430769 6.46154 1.03508 5.58892C1.65785 4.69169 2.53908 3.77969 3.60492 2.96Z" fill="#1E1E24"/>
</svg>
