<svg width="25" height="24" viewBox="0 0 25 24" fill="none" xmlns="http://www.w3.org/2000/svg">
<path d="M6.88736 2.3168L8.54765 1.81623C9.0956 1.65129 9.68484 1.69131 10.2055 1.92883C10.7261 2.16634 11.1425 2.58514 11.3771 3.10709L12.5411 5.69566C12.7431 6.14474 12.7994 6.64581 12.7021 7.12852C12.6048 7.61124 12.3587 8.05136 11.9985 8.38709L10.2268 10.0379C9.98936 10.2634 10.1694 11.1419 11.0368 12.6454C11.9051 14.1497 12.5762 14.7445 12.8856 14.6519L15.2068 13.9422C15.6773 13.7983 16.181 13.8052 16.6474 13.962C17.1137 14.1188 17.5194 14.4176 17.8074 14.8165L19.4616 17.1094C19.7958 17.5724 19.9505 18.1409 19.8971 18.7094C19.8436 19.2779 19.5856 19.8076 19.1711 20.2002L17.8922 21.4114C17.4794 21.8023 16.9702 22.0768 16.4167 22.2067C15.8631 22.3367 15.2851 22.3175 14.7414 22.1511C12.0619 21.3308 9.5805 18.8965 7.26365 14.8825C4.94165 10.8625 4.06479 7.47166 4.67593 4.70137C4.79919 4.14316 5.06909 3.62792 5.45781 3.20877C5.84653 2.78962 6.34 2.48171 6.88736 2.3168Z" fill="white"/>
</svg>
