<svg width="25" height="24" viewBox="0 0 25 24" fill="none" xmlns="http://www.w3.org/2000/svg">
<path d="M17.4284 11.1441H13.3569V7.07268C13.3569 6.95483 13.2605 6.8584 13.1426 6.8584H11.8569C11.7391 6.8584 11.6426 6.95483 11.6426 7.07268V11.1441H7.57122C7.45336 11.1441 7.35693 11.2405 7.35693 11.3584V12.6441C7.35693 12.762 7.45336 12.8584 7.57122 12.8584H11.6426V16.9298C11.6426 17.0477 11.7391 17.1441 11.8569 17.1441H13.1426C13.2605 17.1441 13.3569 17.0477 13.3569 16.9298V12.8584H17.4284C17.5462 12.8584 17.6427 12.762 17.6427 12.6441V11.3584C17.6427 11.2405 17.5462 11.1441 17.4284 11.1441Z" fill="#389429"/>
<path d="M12.5 0C5.87321 0 0.5 5.37321 0.5 12C0.5 18.6268 5.87321 24 12.5 24C19.1268 24 24.5 18.6268 24.5 12C24.5 5.37321 19.1268 0 12.5 0ZM12.5 21.9643C6.99821 21.9643 2.53571 17.5018 2.53571 12C2.53571 6.49821 6.99821 2.03571 12.5 2.03571C18.0018 2.03571 22.4643 6.49821 22.4643 12C22.4643 17.5018 18.0018 21.9643 12.5 21.9643Z" fill="#389429"/>
</svg>
