<svg width="19" height="21" viewBox="0 0 19 21" fill="none" xmlns="http://www.w3.org/2000/svg">
<path d="M2.05329 2.66698C1.4735 2.79894 0.80044 2.8192 0.363585 2.4449C-0.13327 2.01919 -0.139552 1.28176 0.460505 0.989079C1.10061 0.676866 1.83086 0.5 2.60607 0.5C5.13073 0.5 7.17855 2.37594 7.18856 4.69354C7.18866 4.69922 7.1887 4.7049 7.1887 4.7106V7.16678H9.47997C10.1127 7.16678 10.6256 7.63807 10.6256 8.21943C10.6256 8.80079 10.1127 9.27208 9.47997 9.27208H7.1887V16.2894C7.1887 17.4521 8.21454 18.3947 9.47997 18.3947C10.7454 18.3947 11.7712 17.4521 11.7712 16.2894C11.7712 15.9598 11.6888 15.6478 11.5418 15.3701C11.1614 15.7214 10.6347 15.9389 10.0528 15.9389C8.89281 15.9389 7.95246 15.0748 7.95246 14.009C7.95246 12.9432 8.89281 12.0791 10.0528 12.0791C10.4631 12.0791 10.846 12.1873 11.1695 12.3742C12.8642 12.9921 14.0625 14.5122 14.0625 16.2894C14.0625 18.6149 12.0108 20.5 9.47997 20.5C6.94911 20.5 4.89744 18.6149 4.89744 16.2894C4.89744 16.131 4.90697 15.9746 4.92552 15.8206C4.90714 15.7458 4.89744 15.6679 4.89744 15.588V9.27208H2.2243C1.59158 9.27208 1.07867 8.80079 1.07867 8.21943C1.07867 7.63807 1.59158 7.16678 2.2243 7.16678H4.89744V5.94206C4.89736 5.93624 4.89733 5.9304 4.89733 5.92455V4.7106C4.89733 3.54788 3.87149 2.6053 2.60607 2.6053C2.41548 2.6053 2.23032 2.62668 2.05329 2.66698Z" fill="white"/>
<path d="M15.1562 7.6875C16.1094 7.6875 17.0234 7.30888 17.6974 6.63492C18.3714 5.96096 18.75 5.04687 18.75 4.09375C18.75 3.14063 18.3714 2.22654 17.6974 1.55259C17.0234 0.878626 16.1094 0.5 15.1562 0.5C14.2031 0.5 13.289 0.878626 12.6151 1.55259C11.9411 2.22654 11.5625 3.14063 11.5625 4.09375C11.5625 5.04687 11.9411 5.96096 12.6151 6.63492C13.289 7.30888 14.2031 7.6875 15.1562 7.6875ZM14.707 5.08518L13.9676 5.82504C13.9467 5.84596 13.922 5.86255 13.8947 5.87388C13.8674 5.8852 13.8381 5.89103 13.8086 5.89103C13.779 5.89103 13.7498 5.8852 13.7225 5.87388C13.6952 5.86255 13.6704 5.84596 13.6496 5.82504L12.9102 5.08518C12.8887 5.06446 12.8716 5.03967 12.8598 5.01227C12.848 4.98487 12.8418 4.95539 12.8416 4.92557C12.8413 4.89575 12.847 4.86617 12.8583 4.83857C12.8696 4.81096 12.8863 4.78588 12.9074 4.76479C12.9285 4.74371 12.9535 4.72703 12.9811 4.71573C13.0087 4.70444 13.0383 4.69876 13.0681 4.69902C13.098 4.69928 13.1274 4.70547 13.1548 4.71724C13.1822 4.72901 13.207 4.74613 13.2277 4.76758L13.584 5.12381V2.52148C13.584 2.46191 13.6076 2.40478 13.6498 2.36266C13.6919 2.32054 13.749 2.29688 13.8086 2.29688C13.8682 2.29688 13.9253 2.32054 13.9674 2.36266C14.0095 2.40478 14.0332 2.46191 14.0332 2.52148V5.12381L14.3894 4.76758C14.4101 4.74613 14.4349 4.72901 14.4623 4.71724C14.4897 4.70547 14.5192 4.69928 14.549 4.69902C14.5789 4.69876 14.6084 4.70444 14.636 4.71573C14.6636 4.72703 14.6887 4.74371 14.7098 4.76479C14.7309 4.78588 14.7476 4.81096 14.7589 4.83857C14.7702 4.86617 14.7758 4.89575 14.7756 4.92557C14.7753 4.95539 14.7691 4.98487 14.7574 5.01227C14.7456 5.03967 14.7285 5.06446 14.707 5.08518ZM17.4023 3.10232C17.4433 3.14469 17.4659 3.20142 17.4654 3.26032C17.4649 3.31921 17.4412 3.37554 17.3996 3.41719C17.358 3.45883 17.3016 3.48245 17.2427 3.48296C17.1838 3.48348 17.1271 3.46084 17.0847 3.41992L16.7285 3.06369V5.66602C16.7285 5.72559 16.7048 5.78272 16.6627 5.82484C16.6206 5.86696 16.5635 5.89063 16.5039 5.89063C16.4443 5.89063 16.3872 5.86696 16.3451 5.82484C16.303 5.78272 16.2793 5.72559 16.2793 5.66602V3.06369L15.9231 3.41992C15.9023 3.44137 15.8776 3.45849 15.8502 3.47026C15.8227 3.48203 15.7933 3.48823 15.7635 3.48848C15.7336 3.48874 15.7041 3.48306 15.6764 3.47177C15.6488 3.46047 15.6238 3.4438 15.6027 3.42271C15.5816 3.40162 15.5649 3.37654 15.5536 3.34894C15.5423 3.32133 15.5366 3.29176 15.5369 3.26193C15.5372 3.23211 15.5434 3.20264 15.5551 3.17523C15.5669 3.14783 15.584 3.12304 15.6055 3.10232L16.3449 2.36246C16.387 2.32035 16.4441 2.2967 16.5037 2.2967C16.5632 2.2967 16.6204 2.32035 16.6625 2.36246L17.4023 3.10232Z" fill="white"/>
</svg>
