<svg width="50" height="50" viewBox="0 0 50 50" fill="none" xmlns="http://www.w3.org/2000/svg">
<circle cx="25" cy="25" r="24.5" fill="white" stroke="#2C7C7A"/>
<rect width="24" height="24" transform="translate(13 13)" fill="white"/>
<path d="M34.6423 23.9788H18.97L28.3503 15.8359C28.5003 15.7047 28.4093 15.4609 28.2111 15.4609H25.8405C25.7361 15.4609 25.6369 15.4984 25.5593 15.5654L15.4369 24.3484C15.3442 24.4288 15.2699 24.5282 15.2189 24.6398C15.168 24.7514 15.1416 24.8726 15.1416 24.9953C15.1416 25.118 15.168 25.2393 15.2189 25.3509C15.2699 25.4625 15.3442 25.5618 15.4369 25.6422L25.6182 34.4788C25.6584 34.5136 25.7066 34.5324 25.7575 34.5324H28.2084C28.4066 34.5324 28.4977 34.2859 28.3477 34.1574L18.97 26.0145H34.6423C34.7602 26.0145 34.8566 25.9181 34.8566 25.8002V24.1931C34.8566 24.0752 34.7602 23.9788 34.6423 23.9788Z" fill="#2C7C7A"/>
</svg>
