<svg width="114" height="73" viewBox="0 0 114 73" fill="none" xmlns="http://www.w3.org/2000/svg">
<path d="M0.514832 5.46552C0.514832 2.72314 2.73797 0.5 5.48035 0.5H108.515C111.257 0.5 113.48 2.72314 113.48 5.46552V67.5345C113.48 70.2769 111.257 72.5 108.515 72.5H5.48035C2.73797 72.5 0.514832 70.2769 0.514832 67.5345V5.46552Z" fill="#EB6215"/>
<path d="M100.756 23.1202C100.326 23.1667 99.8881 23.1906 99.4444 23.1906C93.302 23.1906 88.3061 18.6119 88.165 12.9138H26.6894C26.739 13.3143 26.7645 13.7216 26.7645 14.1346C26.7645 19.9471 21.7131 24.6591 15.482 24.6591C15.0382 24.6591 14.6004 24.6352 14.17 24.5887V50.1843C14.6004 50.1378 15.0382 50.1139 15.482 50.1139C21.6265 50.1139 26.6238 54.6958 26.7615 60.3967H88.2378C88.1877 59.9943 88.1619 59.5849 88.1619 59.1699C88.1619 53.3574 93.2132 48.6454 99.4444 48.6454C99.8881 48.6454 100.326 48.6693 100.756 48.7157V23.1202Z" fill="white"/>
<path d="M46.6604 34.1679C46.6604 27.8805 51.7576 22.7834 58.045 22.7834C64.3324 22.7834 69.4296 27.8805 69.4296 34.1679C69.4296 40.4553 64.3324 45.5525 58.045 45.5525C51.7576 45.5525 46.6604 40.4553 46.6604 34.1679Z" fill="#BB6210"/>
<path fill-rule="evenodd" clip-rule="evenodd" d="M65.2897 49.0621C70.804 46.3743 74.6044 40.7151 74.6044 34.1679C74.6044 25.022 67.1909 17.6085 58.045 17.6085C48.9001 17.6085 41.4856 25.022 41.4856 34.1679C41.4856 40.7161 45.286 46.3764 50.8013 49.0631V57.9721C50.8013 58.1594 50.8521 58.3433 50.9484 58.5041C51.0447 58.6648 51.1828 58.7964 51.348 58.8848C51.5132 58.9732 51.6993 59.0151 51.8865 59.006C52.0736 58.9969 52.2548 58.9371 52.4106 58.8332L58.045 55.0762L63.6803 58.8332C63.8362 58.9371 64.0174 58.9969 64.2045 59.006C64.3917 59.0151 64.5778 58.9732 64.743 58.8848C64.9082 58.7964 65.0463 58.6648 65.1426 58.5041C65.2389 58.3433 65.2897 58.1594 65.2897 57.9721V49.0621ZM58.045 48.6574C66.0473 48.6574 72.5344 42.1703 72.5344 34.1679C72.5344 26.1656 66.0473 19.6785 58.045 19.6785C50.0427 19.6785 43.5555 26.1656 43.5555 34.1679C43.5555 42.1703 50.0427 48.6574 58.045 48.6574Z" fill="#BB6210"/>
<path d="M54.6459 28.7468C54.2364 28.8369 53.7611 28.8507 53.4526 28.5951C53.1017 28.3045 53.0973 27.801 53.5211 27.6012C53.9731 27.388 54.4888 27.2672 55.0363 27.2672C56.8192 27.2672 58.2654 28.5481 58.2725 30.1304C58.2725 30.1343 58.2726 30.1382 58.2726 30.1421V31.819H59.8907C60.3375 31.819 60.6997 32.1408 60.6997 32.5378C60.6997 32.9347 60.3375 33.2565 59.8907 33.2565H58.2726V38.0476C58.2726 38.8414 58.997 39.485 59.8907 39.485C60.7843 39.485 61.5088 38.8414 61.5088 38.0476C61.5088 37.8225 61.4505 37.6096 61.3467 37.4199C61.0781 37.6598 60.7062 37.8083 60.2952 37.8083C59.476 37.8083 58.8119 37.2183 58.8119 36.4906C58.8119 35.7629 59.476 35.173 60.2952 35.173C60.585 35.173 60.8554 35.2468 61.0838 35.3745C62.2806 35.7964 63.1269 36.8342 63.1269 38.0476C63.1269 39.6353 61.678 40.9224 59.8907 40.9224C58.1034 40.9224 56.6544 39.6353 56.6544 38.0476C56.6544 37.9394 56.6612 37.8326 56.6743 37.7275C56.6613 37.6764 56.6544 37.6233 56.6544 37.5687V33.2565H54.7667C54.3198 33.2565 53.9576 32.9347 53.9576 32.5378C53.9576 32.1408 54.3198 31.819 54.7667 31.819H56.6544V30.9829C56.6544 30.9789 56.6544 30.9749 56.6544 30.9709V30.1421C56.6544 29.3482 55.9299 28.7047 55.0363 28.7047C54.9017 28.7047 54.7709 28.7193 54.6459 28.7468Z" fill="white"/>
</svg>
