<svg width="68" height="73" viewBox="0 0 68 73" fill="none" xmlns="http://www.w3.org/2000/svg">
<path d="M7.63991 8.30111C5.55266 8.77618 3.12963 8.84911 1.55695 7.50163C-0.231726 5.96907 -0.254339 3.31433 1.90587 2.26069C4.21023 1.13672 6.83913 0.5 9.62989 0.5C18.7187 0.5 26.0908 7.25337 26.1269 15.5967C26.1272 15.6172 26.1274 15.6376 26.1274 15.6582V24.5004H34.3759C36.6537 24.5004 38.5002 26.197 38.5002 28.29C38.5002 30.3829 36.6537 32.0795 34.3759 32.0795H26.1274V57.3419C26.1274 61.5277 29.8204 64.9209 34.3759 64.9209C38.9315 64.9209 42.6245 61.5277 42.6245 57.3419C42.6245 56.1552 42.3277 55.0322 41.7986 54.0322C40.4292 55.297 38.5331 56.0799 36.4381 56.0799C32.2622 56.0799 28.8769 52.9694 28.8769 49.1324C28.8769 45.2954 32.2622 42.1849 36.4381 42.1849C37.9153 42.1849 39.2936 42.5742 40.4581 43.2472C46.5591 45.4717 50.8731 50.9439 50.8731 57.3419C50.8731 65.7135 43.487 72.5 34.3759 72.5C25.2649 72.5 17.8788 65.7135 17.8788 57.3419C17.8788 56.7714 17.9131 56.2084 17.9799 55.6543C17.9138 55.3849 17.8788 55.1045 17.8788 54.8167V32.0795H8.25553C5.97774 32.0795 4.13125 30.3829 4.13125 28.29C4.13125 26.197 5.97774 24.5004 8.25553 24.5004H17.8788V20.0914C17.8786 20.0705 17.8784 20.0494 17.8784 20.0284V15.6582C17.8784 11.4724 14.1854 8.07908 9.62989 8.07908C8.94377 8.07908 8.27722 8.15605 7.63991 8.30111Z" fill="#0EAC3B"/>
<path d="M54.8106 26.375C58.2418 26.375 61.5325 25.0119 63.9587 22.5857C66.385 20.1594 67.7481 16.8687 67.7481 13.4375C67.7481 10.0063 66.385 6.71556 63.9587 4.28931C61.5325 1.86305 58.2418 0.5 54.8106 0.5C51.3793 0.5 48.0886 1.86305 45.6624 4.28931C43.2361 6.71556 41.8731 10.0063 41.8731 13.4375C41.8731 16.8687 43.2361 20.1594 45.6624 22.5857C48.0886 25.0119 51.3793 26.375 54.8106 26.375ZM53.1934 17.0066L50.5315 19.6701C50.4564 19.7454 50.3671 19.8052 50.2689 19.846C50.1707 19.8867 50.0653 19.9077 49.959 19.9077C49.8526 19.9077 49.7473 19.8867 49.6491 19.846C49.5508 19.8052 49.4616 19.7454 49.3865 19.6701L46.7246 17.0066C46.6474 16.932 46.5858 16.8428 46.5434 16.7442C46.501 16.6455 46.4787 16.5394 46.4778 16.432C46.4769 16.3247 46.4973 16.2182 46.538 16.1188C46.5786 16.0195 46.6387 15.9292 46.7146 15.8533C46.7905 15.7773 46.8808 15.7173 46.9802 15.6766C47.0795 15.636 47.186 15.6155 47.2934 15.6165C47.4007 15.6174 47.5068 15.6397 47.6055 15.6821C47.7042 15.7245 47.7934 15.7861 47.868 15.8633L49.1504 17.1457V7.77734C49.1504 7.56289 49.2356 7.35722 49.3872 7.20558C49.5389 7.05394 49.7445 6.96875 49.959 6.96875C50.1734 6.96875 50.3791 7.05394 50.5308 7.20558C50.6824 7.35722 50.7676 7.56289 50.7676 7.77734V17.1457L52.05 15.8633C52.1246 15.7861 52.2138 15.7245 52.3125 15.6821C52.4111 15.6397 52.5172 15.6174 52.6246 15.6165C52.732 15.6155 52.8384 15.636 52.9378 15.6766C53.0372 15.7173 53.1275 15.7773 53.2034 15.8533C53.2793 15.9292 53.3393 16.0195 53.38 16.1188C53.4207 16.2182 53.4411 16.3247 53.4402 16.432C53.4393 16.5394 53.4169 16.6455 53.3746 16.7442C53.3322 16.8428 53.2706 16.932 53.1934 17.0066ZM62.8965 9.86837C63.0438 10.0209 63.1253 10.2251 63.1234 10.4371C63.1216 10.6491 63.0366 10.852 62.8866 11.0019C62.7367 11.1518 62.5339 11.2368 62.3219 11.2387C62.1099 11.2405 61.9056 11.159 61.7531 11.0117L60.4707 9.72929V19.0977C60.4707 19.3121 60.3855 19.5178 60.2339 19.6694C60.0822 19.8211 59.8766 19.9063 59.6621 19.9063C59.4477 19.9063 59.242 19.8211 59.0904 19.6694C58.9387 19.5178 58.8535 19.3121 58.8535 19.0977V9.72929L57.5711 11.0117C57.4965 11.0889 57.4073 11.1505 57.3086 11.1929C57.21 11.2353 57.1039 11.2576 56.9965 11.2585C56.8891 11.2595 56.7827 11.239 56.6833 11.1984C56.5839 11.1577 56.4936 11.0977 56.4177 11.0217C56.3418 10.9458 56.2818 10.8555 56.2411 10.7562C56.2004 10.6568 56.18 10.5503 56.1809 10.443C56.1819 10.3356 56.2042 10.2295 56.2465 10.1308C56.2889 10.0322 56.3505 9.94296 56.4277 9.86837L59.0896 7.20486C59.2413 7.05327 59.4469 6.96811 59.6613 6.96811C59.8757 6.96811 60.0813 7.05327 60.233 7.20486L62.8965 9.86837Z" fill="#116228"/>
</svg>
