<svg width="72" height="73" viewBox="0 0 72 73" fill="none" xmlns="http://www.w3.org/2000/svg">
<path d="M-0.00192261 5C-0.00192261 2.51472 2.0128 0.5 4.49808 0.5H26.9981C29.4834 0.5 31.4981 2.51472 31.4981 5V36.5C31.4981 38.9853 29.4834 41 26.9981 41H4.49808C2.0128 41 -0.00192261 38.9853 -0.00192261 36.5V5Z" fill="#FFB800"/>
<path d="M40.4981 5C40.4981 2.51472 42.5128 0.5 44.9981 0.5H67.4981C69.9834 0.5 71.9981 2.51472 71.9981 5V18.5C71.9981 20.9853 69.9834 23 67.4981 23H44.9981C42.5128 23 40.4981 20.9853 40.4981 18.5V5Z" fill="#FAE391"/>
<path d="M-0.00192261 54.5C-0.00192261 52.0147 2.0128 50 4.49808 50H26.9981C29.4834 50 31.4981 52.0147 31.4981 54.5V68C31.4981 70.4853 29.4834 72.5 26.9981 72.5H4.49808C2.0128 72.5 -0.00192261 70.4853 -0.00192261 68V54.5Z" fill="#FFD361"/>
<path d="M40.4981 36.5C40.4981 34.0147 42.5128 32 44.9981 32H67.4981C69.9834 32 71.9981 34.0147 71.9981 36.5V68C71.9981 70.4853 69.9834 72.5 67.4981 72.5H44.9981C42.5128 72.5 40.4981 70.4853 40.4981 68V36.5Z" fill="#EFAC00"/>
</svg>
