<svg width="56" height="67" viewBox="0 0 56 67" fill="none" xmlns="http://www.w3.org/2000/svg">
<path d="M24.3495 18.4518C24.3495 24.9998 19.0413 30.308 12.4933 30.308C5.94535 30.308 0.637146 24.9998 0.637146 18.4518C0.637146 11.9038 1.99328 2.64355 8.54128 2.64355C15.0893 2.64355 24.3495 11.9038 24.3495 18.4518Z" fill="#EFAC00"/>
<path d="M23.1335 41.5567C23.1335 46.5936 16.0102 53.7169 10.9733 53.7169C5.93638 53.7169 4.8932 46.5936 4.8932 41.5567C4.8932 36.5198 8.97643 32.4365 14.0134 32.4365C19.0503 32.4365 23.1335 36.5198 23.1335 41.5567Z" fill="#1A7D19"/>
<path d="M51.7099 17.5399C51.7099 24.5916 45.9934 30.3081 38.9417 30.3081C31.89 30.3081 26.1735 24.5916 26.1735 17.5399C26.1735 10.4882 36.1461 0.515625 43.1978 0.515625C50.2495 0.515625 51.7099 10.4882 51.7099 17.5399Z" fill="#1E2E86"/>
<path d="M55.358 47.0288C55.358 55.0878 53.6889 66.4851 45.6298 66.4851C37.5707 66.4851 26.1735 55.0878 26.1735 47.0288C26.1735 38.9697 32.7067 32.4365 40.7657 32.4365C48.8248 32.4365 55.358 38.9697 55.358 47.0288Z" fill="#EF0039"/>
</svg>
