<svg width="68" height="73" viewBox="0 0 68 73" fill="none" xmlns="http://www.w3.org/2000/svg">
<path d="M10.7454 52.823L0.0124359 63.3412V33.146H10.7454M28.6336 46.2401L23.0167 41.4461L17.9006 46.1686V18.8354H28.6336M46.5218 40.3012L35.7888 51.0342V4.52484H46.5218M56.5749 39.6215L50.0994 33.146H67.9876V51.0342L61.5836 44.6302L35.7888 70.2103L23.3744 59.4058L9.85095 72.5H0.0124359L23.1598 49.8178L35.7888 60.4791" fill="#209AF2"/>
<path d="M54.6007 2.82127C53.961 2.96264 53.2185 2.98433 52.7365 2.58338C52.1884 2.12736 52.1815 1.33742 52.8435 1.0239C53.5496 0.68946 54.3553 0.5 55.2105 0.5C57.9957 0.5 60.2549 2.50951 60.266 4.99214C60.2661 4.99822 60.2661 5.00431 60.2661 5.01041V7.64149H62.7939C63.4919 7.64149 64.0578 8.14634 64.0578 8.76909C64.0578 9.39185 63.4919 9.8967 62.7939 9.8967H60.2661V17.4137C60.2661 18.6592 61.3979 19.6689 62.7939 19.6689C64.1899 19.6689 65.3217 18.6592 65.3217 17.4137C65.3217 17.0606 65.2307 16.7264 65.0686 16.4289C64.6489 16.8052 64.0679 17.0382 63.4258 17.0382C62.1461 17.0382 61.1087 16.1126 61.1087 14.9709C61.1087 13.8292 62.1461 12.9036 63.4258 12.9036C63.8785 12.9036 64.3009 13.0195 64.6578 13.2197C66.5274 13.8817 67.8494 15.5099 67.8494 17.4137C67.8494 19.9047 65.586 21.9241 62.7939 21.9241C60.0018 21.9241 57.7384 19.9047 57.7384 17.4137C57.7384 17.244 57.7489 17.0764 57.7693 16.9116C57.7491 16.8314 57.7384 16.748 57.7384 16.6623V9.8967H54.7893C54.0913 9.8967 53.5254 9.39185 53.5254 8.76909C53.5254 8.14634 54.0913 7.64149 54.7893 7.64149H57.7384V6.32956C57.7383 6.32333 57.7382 6.31707 57.7382 6.3108V5.01041C57.7382 3.7649 56.6065 2.75521 55.2105 2.75521C55.0002 2.75521 54.796 2.77811 54.6007 2.82127Z" fill="#209AF2"/>
</svg>
