<svg width="66" height="61" viewBox="0 0 66 61" fill="none" xmlns="http://www.w3.org/2000/svg">
<path d="M51.4976 20.9993C51.4976 16.0373 47.0109 12 41.4968 12C35.9835 12 31.4976 16.0373 31.4976 20.9993C31.4976 25.962 35.9835 30 41.4968 30C47.0109 30 51.4976 25.962 51.4976 20.9993Z" fill="#880FA7"/>
<path d="M52.0293 39.0354L52.0726 37.6344C52.0744 37.5664 52.1107 36.2511 51.9435 34.4465C53.6702 35.0727 54.9715 35.3793 55.0387 35.3943L56.4338 35.7193L56.1029 34.3466C55.8393 33.3135 55.5174 32.296 55.1387 31.2991C56.3798 31.4104 57.4024 31.4308 57.9863 31.4308C58.2384 31.4308 58.3799 31.4272 58.3799 31.4272L59.8139 31.3848L59.1319 30.1429C58.6044 29.2129 58.0262 28.3126 57.3998 27.446C59.2124 27.1386 60.4951 26.765 60.5614 26.7447L61.9343 26.3401L60.9524 25.3137C60.9038 25.2633 59.9829 24.3067 58.5692 23.1469C59.5524 22.7056 60.5104 22.2105 61.4389 21.6637L62.6579 20.9226L61.4389 20.1824C61.3797 20.1453 60.2403 19.4572 58.5692 18.6984C59.9837 17.5386 60.9038 16.5819 60.9524 16.5333L61.9352 15.506L60.5614 15.1015C60.4942 15.0829 59.2124 14.7084 57.3998 14.4001C58.4604 12.9205 59.0991 11.7634 59.1319 11.7024L59.813 10.4622L58.3799 10.418C58.3799 10.418 58.2349 10.4136 57.973 10.4136C57.3901 10.4136 56.3727 10.4348 55.1396 10.5461C55.5177 9.54943 55.8393 8.53228 56.1029 7.4995L56.4338 6.12768L55.0396 6.45098C54.9715 6.46777 53.6702 6.7734 51.9435 7.3988C52.1107 5.59592 52.0744 4.27887 52.0726 4.21085L52.0293 2.80017L50.7687 3.47238C50.7077 3.50507 49.532 4.13223 48.0273 5.17898C47.8478 4.12863 47.6098 3.0891 47.3143 2.06523L46.9029 0.713733L45.8591 1.68275C45.084 2.42328 44.3505 3.20593 43.6617 4.02712C42.8886 2.38235 42.1888 1.25875 42.1517 1.20133L41.3989 0L40.6469 1.19957C40.6098 1.25787 39.9101 2.38058 39.1387 4.02535C38.4496 3.2044 37.7161 2.42178 36.9413 1.68098L35.8974 0.711083L35.4861 2.06347C35.4666 2.12972 35.0854 3.392 34.7731 5.1781C33.8914 4.55903 32.9762 3.989 32.0317 3.47062L30.7702 2.80105L30.726 4.21173C30.7242 4.27975 30.6888 5.5968 30.856 7.39968C29.8419 7.02802 28.8083 6.71162 27.7599 6.45187L26.3657 6.12857L26.6966 7.50038C26.7125 7.56752 27.0239 8.84747 27.6599 10.547C26.7175 10.4612 25.7719 10.417 24.8256 10.4145C24.5646 10.4145 24.4196 10.4189 24.4196 10.4189L22.9874 10.4631L23.6676 11.7033C24.1947 12.6339 24.7733 13.5346 25.4006 14.401C23.588 14.7093 22.3053 15.0829 22.2381 15.1024L20.8643 15.5069L21.848 16.5342C21.8966 16.5837 22.8166 17.5403 24.2303 18.6993C22.5592 19.4572 21.4198 20.1462 21.3606 20.1833L20.1416 20.9235L21.3606 21.6646C21.4198 21.7008 22.5592 22.389 24.2303 23.1477C22.8158 24.3076 21.8949 25.2642 21.848 25.3146L20.8652 26.341L22.239 26.7456C22.3062 26.765 23.588 27.1386 25.4015 27.4469C24.3391 28.9265 23.7013 30.0828 23.6685 30.1437L22.9874 31.3866L24.4213 31.4281C24.4213 31.4281 24.5611 31.4317 24.8141 31.4317C25.3997 31.4317 26.4214 31.4113 27.6617 31.3C27.2835 32.2971 26.9615 33.3145 26.6974 34.3475L26.3666 35.7202L27.7616 35.3952C27.8289 35.3793 29.131 35.0736 30.8569 34.4473C30.6897 36.2502 30.7251 37.5664 30.7269 37.6344L30.7605 38.7147C25.3864 36.2388 19.4976 36.2511 19.4976 36.2511C19.4976 36.2511 31.7168 40.6369 39.1749 53H43.5679C51.0182 42.3806 65.4976 34.9676 65.4976 34.9676C65.4976 34.9676 58.4852 35.5718 52.0293 39.0354ZM39.4005 47.321C38.4761 45.4498 37.2725 43.7295 35.8311 42.2189C34.4591 40.7861 32.8092 39.6996 31.094 38.8728L32.0334 38.3755C32.0945 38.3428 33.271 37.7157 34.7757 36.6689C35.0889 38.455 35.4693 39.7191 35.4896 39.7845L35.9019 41.1359L36.9448 40.1669C37.7193 39.4264 38.4526 38.6441 39.1413 37.8234C39.3492 38.2678 39.5509 38.6688 39.7367 39.0257L39.4005 47.321ZM41.3997 38.4029C40.9534 37.5609 40.5475 36.6981 40.1834 35.8174L39.5978 34.3882L38.6574 35.6204C38.0756 36.3785 37.4574 37.1081 36.8051 37.8067C36.5963 36.8789 36.4315 35.9418 36.3114 34.9985L36.1221 33.4677L34.8881 34.4182C34.1259 35.0033 33.3359 35.5513 32.5209 36.0603C32.5545 35.2936 32.627 34.2981 32.7818 33.2239L33.0012 31.6966L31.5593 32.3008C30.5455 32.7248 29.5875 33.0526 28.8435 33.2831C29.0788 32.5499 29.4114 31.6074 29.8423 30.6093L30.4553 29.1915L28.9046 29.4062C27.9475 29.5365 26.9849 29.6225 26.0198 29.6641C26.5387 28.862 27.0954 28.0849 27.6882 27.3356L28.6533 26.121L27.0991 25.9347C26.1412 25.8181 25.1894 25.656 24.2471 25.4488C24.9586 24.8049 25.7008 24.1956 26.471 23.623L27.7218 22.6964L26.2684 22.1204C25.3743 21.764 24.4978 21.3648 23.642 20.9244C24.4976 20.4845 25.3738 20.0856 26.2675 19.7292L27.7218 19.1542L26.471 18.2267C25.7011 17.6536 24.959 17.0443 24.2471 16.4009C25.1896 16.1945 26.1413 16.0324 27.0991 15.915L28.6533 15.7277L27.6882 14.514C27.0952 13.7646 26.5384 12.9873 26.0198 12.1847C26.7921 12.2183 27.8076 12.2898 28.9028 12.4426L30.4544 12.6582L29.8414 11.2395C29.466 10.365 29.133 9.47302 28.8435 8.56657C29.5884 8.798 30.5455 9.12395 31.5593 9.54883L33.0012 10.1539L32.7818 8.62663C32.6485 7.68511 32.5614 6.73763 32.5209 5.7876C33.1781 6.20012 34.0159 6.76103 34.8872 7.4306L36.1213 8.38107L36.3106 6.85025C36.4432 5.77347 36.6352 4.79385 36.8051 4.04302C37.4573 4.74227 38.0755 5.47246 38.6574 6.23103L39.5978 7.4624L40.1843 6.03317C40.5974 5.02617 41.0397 4.12782 41.4006 3.44588C41.8477 4.28818 42.2536 5.15162 42.617 6.03317L43.2035 7.46328L44.1438 6.23015C44.7262 5.4722 45.3444 4.74233 45.9962 4.04302C46.1652 4.79297 46.3563 5.77258 46.4907 6.84937L46.68 8.38018L47.9141 7.42972C48.6764 6.84528 49.4661 6.2973 50.2804 5.7876C50.2468 6.55522 50.1742 7.55073 50.0194 8.62487L49.8001 10.1522L51.242 9.54795C52.1311 9.1779 53.0374 8.8504 53.9578 8.56657C53.6683 9.47302 53.3353 10.365 52.9599 11.2395L52.3477 12.6582L53.8985 12.4426C54.8549 12.3115 55.8169 12.2254 56.7814 12.1847C56.2629 12.9871 55.7065 13.7645 55.1139 14.514L54.1479 15.7286L55.7022 15.915C56.7956 16.0457 57.7917 16.2339 58.5542 16.4009C57.8426 17.0447 57.1004 17.654 56.3303 18.2267L55.0794 19.1542L56.5329 19.7292C57.5546 20.1338 58.4666 20.5693 59.1593 20.9244C58.4666 21.2795 57.5546 21.715 56.532 22.1204L55.0794 22.6964L56.3303 23.623C57.2114 24.2767 57.9783 24.9294 58.5542 25.4488C57.7926 25.6149 56.7974 25.8031 55.7022 25.9347L54.1471 26.121L55.1139 27.3356C55.7062 28.085 56.2623 28.862 56.7806 29.6641C55.8158 29.6225 54.8535 29.5364 53.8967 29.4062L52.346 29.1915L52.959 30.6093C53.3343 31.4845 53.6676 32.3771 53.9578 33.284C53.0377 32.9987 52.1314 32.6706 51.242 32.3008L49.8001 31.6966L50.0194 33.2239C50.1742 34.2981 50.2468 35.2945 50.2804 36.0621C49.4659 35.5518 48.676 35.0036 47.9132 34.4191L46.6791 33.4704L46.4898 35.0003C46.3708 35.9432 46.2058 36.8798 45.9953 37.8067C45.3431 37.1077 44.7249 36.3778 44.1429 35.6195L43.2026 34.389L42.617 35.8165C42.253 36.6977 41.8468 37.5608 41.3997 38.4029ZM48.6341 41.2031C45.9361 43.2533 44.1987 46.0906 43.1203 48.4729L42.7621 39.5919C43.0195 39.1219 43.3326 38.5239 43.6617 37.8226C44.3505 38.6438 45.084 39.4264 45.8591 40.1669L46.9021 41.1368L47.3143 39.7845C47.3338 39.7191 47.715 38.4559 48.0282 36.6707C48.9102 37.2891 49.8257 37.8586 50.7705 38.3764L52.0231 39.0407C50.8378 39.6706 49.7046 40.3937 48.6341 41.2031Z" fill="#954DA7"/>
<path d="M42.1166 52.8182C43.4309 52.8182 44.5261 53.1455 45.4023 53.8C46.0595 54.4545 46.4976 55.2727 46.4976 56.0909L28.9737 61L13.6404 57.7273V43H17.8023L33.7928 47.4182C34.888 47.7455 35.5452 48.4 35.5452 49.2182C35.5452 49.7091 35.3261 50.2 34.888 50.5273C34.4499 50.8545 33.5737 51.1818 32.9166 51.1818H26.7833L22.8404 50.0364L22.1833 51.5091L26.7833 52.8182H42.1166ZM0.497559 43H9.25946V61H0.497559V43Z" fill="#880FA7"/>
<path d="M38.5196 17.0835C38.231 17.1495 37.896 17.1596 37.6785 16.9724C37.4312 16.7596 37.4281 16.3909 37.7268 16.2445C38.0454 16.0884 38.4089 16 38.7948 16C40.0515 16 41.0709 16.938 41.0759 18.0968C41.0759 18.0996 41.0759 18.1024 41.0759 18.1053V19.3334H42.2165C42.5314 19.3334 42.7867 19.569 42.7867 19.8597C42.7867 20.1504 42.5314 20.386 42.2165 20.386H41.0759V23.8947C41.0759 24.4761 41.5866 24.9474 42.2165 24.9474C42.8464 24.9474 43.357 24.4761 43.357 23.8947C43.357 23.7299 43.316 23.5739 43.2428 23.435C43.0535 23.6107 42.7913 23.7194 42.5016 23.7194C41.9242 23.7194 41.4561 23.2874 41.4561 22.7545C41.4561 22.2216 41.9242 21.7896 42.5016 21.7896C42.7059 21.7896 42.8965 21.8436 43.0575 21.9371C43.9011 22.2461 44.4976 23.0061 44.4976 23.8947C44.4976 25.0574 43.4763 26 42.2165 26C40.9567 26 39.9354 25.0574 39.9354 23.8947C39.9354 23.8155 39.9401 23.7373 39.9494 23.6603C39.9402 23.6229 39.9354 23.584 39.9354 23.544V20.386H38.6048C38.2898 20.386 38.0345 20.1504 38.0345 19.8597C38.0345 19.569 38.2898 19.3334 38.6048 19.3334H39.9354V18.721C39.9354 18.7181 39.9353 18.7152 39.9353 18.7123V18.1053C39.9353 17.5239 39.4247 17.0527 38.7948 17.0527C38.6999 17.0527 38.6078 17.0633 38.5196 17.0835Z" fill="white"/>
<path d="M15.2124 24.2656C15.4019 24.0176 15.4976 23.7324 15.4976 23.4082C15.4976 23.0801 15.4019 22.791 15.2124 22.543L10.1987 16.3516C10.1089 16.2402 10.0073 16.1543 9.896 16.0957C9.7749 16.0312 9.64209 16 9.49756 16C9.21436 16 8.98389 16.1172 8.8042 16.3516L3.79053 22.543C3.59521 22.7852 3.49756 23.0723 3.49756 23.4082C3.49756 23.7383 3.59521 24.0234 3.79053 24.2656L4.36865 24.9785C4.55225 25.2188 4.78467 25.3398 5.06201 25.3398C5.33936 25.3398 5.56982 25.2188 5.75342 24.9785L8.01904 22.1914V27.793C8.00537 27.8594 7.99756 27.9297 7.99756 28V33C7.99756 33.5527 8.44482 34 8.99756 34H9.99756C10.3394 34 10.6421 33.8281 10.8218 33.5664C10.9331 33.4062 10.9976 33.2109 10.9976 33V28C10.9976 27.9297 10.9897 27.8594 10.9761 27.793V22.1914L13.2417 24.9785C13.4253 25.2188 13.6558 25.3398 13.9331 25.3398C14.2065 25.3398 14.439 25.2188 14.6343 24.9785L15.2124 24.2656Z" fill="#954DA7"/>
</svg>
