<svg width="72" height="73" viewBox="0 0 72 73" fill="none" xmlns="http://www.w3.org/2000/svg">
<path d="M30.7909 0.5C13.8146 0.5 0.00192261 14.3127 0.00192261 31.289C0.00192261 48.2652 13.8146 62.0779 30.7909 62.0779C37.3267 62.0766 43.6822 59.9832 48.9324 56.1167C49.3393 55.817 49.9062 55.85 50.2635 56.2074L65.849 71.7929C66.2395 72.1834 66.8727 72.1834 67.2632 71.7929L71.291 67.7652C71.6815 67.3746 71.6815 66.7415 71.291 66.3509L55.7056 50.7655C55.3482 50.4081 55.3152 49.8412 55.615 49.4343C59.4836 44.1835 61.5783 37.8264 61.5799 31.289C61.5799 14.3127 47.7672 0.5 30.7909 0.5Z" fill="#F40B7B"/>
<path d="M22.2041 47.6295H15.9938C15.582 47.6295 15.1871 47.4659 14.8959 47.1747C14.6047 46.8836 14.4412 46.4886 14.4412 46.0769V33.6561C14.4412 33.2443 14.6047 32.8494 14.8959 32.5583C15.1871 32.2671 15.582 32.1035 15.9938 32.1035H22.2041C22.6159 32.1035 23.0108 32.2671 23.302 32.5583C23.5931 32.8494 23.7567 33.2443 23.7567 33.6561V46.0769C23.7567 46.4886 23.5931 46.8836 23.302 47.1747C23.0108 47.4659 22.6159 47.6295 22.2041 47.6295Z" fill="white"/>
<path d="M34.6316 47.6288H28.4212C28.0095 47.6288 27.6146 47.4652 27.3234 47.174C27.0322 46.8829 26.8687 46.4879 26.8687 46.0762V15.0243C26.8687 14.6125 27.0322 14.2176 27.3234 13.9264C27.6146 13.6353 28.0095 13.4717 28.4212 13.4717H34.6316C35.0434 13.4717 35.4383 13.6353 35.7295 13.9264C36.0206 14.2176 36.1842 14.6125 36.1842 15.0243V46.0762C36.1842 46.4879 36.0206 46.8829 35.7295 47.174C35.4383 47.4652 35.0434 47.6288 34.6316 47.6288Z" fill="white"/>
<path d="M47.0423 47.6445H40.8319C40.4201 47.6445 40.0252 47.4809 39.734 47.1898C39.4429 46.8986 39.2793 46.5037 39.2793 46.0919V27.4608C39.2793 27.049 39.4429 26.6541 39.734 26.3629C40.0252 26.0718 40.4201 25.9082 40.8319 25.9082H47.0423C47.454 25.9082 47.8489 26.0718 48.1401 26.3629C48.4313 26.6541 48.5949 27.049 48.5949 27.4608V46.0919C48.5949 46.5037 48.4313 46.8986 48.1401 47.1898C47.8489 47.4809 47.454 47.6445 47.0423 47.6445Z" fill="white"/>
</svg>
