<svg width="22" height="22" viewBox="0 0 22 22" fill="none" xmlns="http://www.w3.org/2000/svg">
<path d="M3.11916 10.8226C3.14209 9.8206 3.34846 8.84839 3.73596 7.93351C4.13264 6.9934 4.70129 6.15189 5.42587 5.42502C6.15044 4.69816 6.99424 4.12951 7.93435 3.73283C8.90656 3.32239 9.93838 3.11373 11.0046 3.11373C12.0708 3.11373 13.1026 3.32239 14.0726 3.73283C15.01 4.12869 15.8612 4.70347 16.5788 5.42502C16.8058 5.65202 17.019 5.89278 17.2162 6.14501L15.8358 7.22269C15.8085 7.24382 15.7877 7.27223 15.7758 7.30465C15.764 7.33707 15.7615 7.37218 15.7687 7.40596C15.7758 7.43973 15.7924 7.47079 15.8165 7.49556C15.8405 7.52034 15.8711 7.53782 15.9046 7.546L19.9333 8.53196C20.048 8.55948 20.1603 8.47235 20.1603 8.35541L20.1787 4.20747C20.1787 4.05384 20.0021 3.96671 19.8829 4.06301L18.5897 5.0742C16.8264 2.81794 14.084 1.37109 11.0023 1.37109C5.74917 1.37109 1.47512 5.58094 1.37652 10.8134C1.37591 10.8379 1.3802 10.8623 1.38915 10.8851C1.39809 10.9078 1.41151 10.9286 1.4286 10.9461C1.4457 10.9637 1.46612 10.9776 1.48868 10.9871C1.51124 10.9966 1.53548 11.0015 1.55996 11.0015H2.93573C3.03662 11.0015 3.11687 10.9212 3.11916 10.8226ZM20.4538 11.0015H19.0781C18.9772 11.0015 18.8969 11.0817 18.8946 11.1803C18.8717 12.1823 18.6653 13.1545 18.2778 14.0694C17.8811 15.0095 17.3125 15.8533 16.5879 16.5779C15.8566 17.3123 14.9871 17.8946 14.0296 18.2913C13.0721 18.688 12.0456 18.8912 11.0092 18.8892C9.97313 18.8911 8.94694 18.6879 7.98984 18.2912C7.03273 17.8945 6.16365 17.3122 5.43274 16.5779C5.20574 16.3509 4.9925 16.1102 4.7953 15.8579L6.17566 14.7802C6.20297 14.7591 6.22376 14.7307 6.23565 14.6983C6.24753 14.6659 6.25002 14.6308 6.24284 14.597C6.23565 14.5632 6.21908 14.5321 6.19503 14.5074C6.17097 14.4826 6.14042 14.4651 6.10687 14.4569L2.07816 13.471C1.96352 13.4435 1.85116 13.5306 1.85116 13.6475L1.83511 17.7978C1.83511 17.9514 2.01167 18.0385 2.1309 17.9422L3.42412 16.931C5.1874 19.185 7.92976 20.6318 11.0115 20.6318C16.2669 20.6318 20.5387 16.4197 20.6373 11.1895C20.6379 11.165 20.6336 11.1407 20.6246 11.1179C20.6157 11.0951 20.6023 11.0743 20.5852 11.0568C20.5681 11.0393 20.5477 11.0254 20.5251 11.0159C20.5025 11.0064 20.4783 11.0015 20.4538 11.0015Z" fill="white"/>
</svg>
