<svg width="23" height="23" viewBox="0 0 23 23" fill="none" xmlns="http://www.w3.org/2000/svg">
<path d="M20.2662 11.2602L10.9898 3.20904C10.9186 3.14766 10.8278 3.11328 10.732 3.11328H8.55904C8.37734 3.11328 8.29386 3.33917 8.43136 3.45703L17.03 10.9213H2.66127C2.55324 10.9213 2.46484 11.0097 2.46484 11.1177V12.591C2.46484 12.699 2.55324 12.7874 2.66127 12.7874H17.0276L8.42891 20.2517C8.29141 20.372 8.37489 20.5954 8.55659 20.5954H10.8032C10.8499 20.5954 10.8965 20.5782 10.9309 20.5463L20.2662 12.4486C20.3512 12.3746 20.4193 12.2833 20.466 12.1808C20.5127 12.0783 20.5369 11.967 20.5369 11.8544C20.5369 11.7417 20.5127 11.6304 20.466 11.5279C20.4193 11.4254 20.3512 11.3341 20.2662 11.2602Z" fill="#2C7C7A"/>
</svg>
