<svg width="70" height="57" viewBox="0 0 70 57" fill="none" xmlns="http://www.w3.org/2000/svg">
<path d="M44.1641 28.8766L56.7873 21.8717L56.6705 36.4043L44.1641 28.8766Z" fill="#EC008C"/>
<path d="M43.9688 -0.00431347L56.5471 7.08177L44.1045 14.5923L43.9688 -0.00431347Z" fill="#FDDD04"/>
<path d="M56.6562 36.4043L69.1953 29.0655L56.773 21.8717" fill="#B01419"/>
<mask id="mask0_4119_27552" style="mask-type:luminance" maskUnits="userSpaceOnUse" x="56" y="14" width="14" height="16">
<path d="M56.7246 21.907L69.0463 14.655L69.1565 29.1245" fill="white"/>
</mask>
<g mask="url(#mask0_4119_27552)">
<path d="M56.7246 21.907L69.0463 14.655L69.1565 29.1245" fill="#2E3192"/>
<path d="M56.7246 21.907L69.0463 14.655L69.1565 29.1245" fill="url(#paint0_linear_4119_27552)"/>
</g>
<path d="M44.0938 14.598L56.755 21.9009L56.5363 7.08751" fill="#F89C0E"/>
<mask id="mask1_4119_27552" style="mask-type:luminance" maskUnits="userSpaceOnUse" x="56" y="7" width="14" height="15">
<path d="M69.0335 14.6727L56.724 21.9028L56.5039 7.08947" fill="white"/>
</mask>
<g mask="url(#mask1_4119_27552)">
<path d="M69.0335 14.6727L56.724 21.9028L56.5039 7.08947" fill="#FFF200"/>
<path d="M69.0335 14.6727L56.724 21.9028L56.5039 7.08947" fill="url(#paint1_linear_4119_27552)"/>
</g>
<path d="M0 36.4023C0 36.4023 0.434266 34.0569 1.99754 33.8252H21.163C21.163 33.8252 18.1233 31.8855 19.8021 28.788C19.8021 28.788 21.6558 24.5324 31.6719 23.0851C31.6719 23.0851 38.6486 21.9273 40.2989 25.6328C40.2989 25.6328 42.0642 29.0192 39.0828 30.9883L36.7961 28.9909C36.7961 28.9909 36.5072 28.7812 37.0716 28.2164C37.0716 28.2164 38.0704 26.7402 37.2019 26.0021C37.2019 26.0021 36.4419 24.8296 32.6858 25.2856C32.6858 25.2856 25.5206 26.5666 23.3058 30.1274C23.3058 30.1274 22.2855 32.4724 25.1516 33.9269H45.1706C45.1706 33.9269 44.5624 36.0115 43.5638 36.4239H43.1077V53.4035C43.1077 53.4035 33.4456 50.9497 28.061 44.6096C28.061 44.6096 27.8222 43.741 29.342 42.5037C29.342 42.5037 33.2068 38.6602 40.0244 37.336V36.2935H25.1082V53.5335C25.1082 53.5335 22.4592 52.9693 22.1117 51.1885V36.3154H16.4663V53.5988C16.4663 53.5988 7.44064 51.3698 1.41944 44.8267C1.41944 44.8267 0.811624 43.6325 2.70059 42.2429C2.70059 42.2429 6.84777 38.617 13.3615 37.336V36.2287L0 36.4023ZM13.0276 49.6036L12.9123 41.5548C7.8465 42.452 6.57236 44.6242 6.57236 44.6242C7.4705 46.8245 13.0276 49.6036 13.0276 49.6036ZM39.4886 49.6036L39.3731 41.5548C34.3073 42.452 33.033 44.6242 33.033 44.6242C33.93 46.8245 39.4886 49.6036 39.4886 49.6036ZM6.37008 56.9567C8.1939 57.3623 8.80171 54.7855 8.80171 54.7855C9.64038 52.5561 7.58593 51.6588 7.58593 51.6588C5.93589 51.1956 4.80679 54.2357 4.80679 54.2357C4.63309 56.6969 6.37008 56.9567 6.37008 56.9567Z" fill="#E31B22"/>
<defs>
<linearGradient id="paint0_linear_4119_27552" x1="56.7246" y1="14.2419" x2="69.1565" y2="14.2419" gradientUnits="userSpaceOnUse">
<stop stop-color="#2E3192"/>
<stop offset="1" stop-color="#8A248C"/>
</linearGradient>
<linearGradient id="paint1_linear_4119_27552" x1="50.3839" y1="17.4557" x2="54.1032" y2="10.4303" gradientUnits="userSpaceOnUse">
<stop stop-color="#FFF200"/>
<stop offset="1" stop-color="#F1471D"/>
</linearGradient>
</defs>
</svg>
