<svg width="20" height="20" viewBox="0 0 20 20" fill="none" xmlns="http://www.w3.org/2000/svg">
<path d="M19.3685 18.2529L13.113 11.9974C14.0837 10.7425 14.6088 9.20815 14.6088 7.59431C14.6088 5.66252 13.8549 3.85117 12.4916 2.48542C11.1282 1.11968 9.31207 0.368164 7.38269 0.368164C5.45331 0.368164 3.63714 1.12209 2.27381 2.48542C0.908065 3.84876 0.156546 5.66252 0.156546 7.59431C0.156546 9.52369 0.910473 11.3399 2.27381 12.7032C3.63714 14.0689 5.4509 14.8205 7.38269 14.8205C8.99653 14.8205 10.5285 14.2954 11.7834 13.3271L18.0388 19.5801C18.0572 19.5984 18.079 19.613 18.1029 19.6229C18.1269 19.6329 18.1526 19.638 18.1786 19.638C18.2045 19.638 18.2302 19.6329 18.2542 19.6229C18.2781 19.613 18.2999 19.5984 18.3183 19.5801L19.3685 18.5323C19.3868 18.5139 19.4014 18.4922 19.4113 18.4682C19.4212 18.4442 19.4264 18.4185 19.4264 18.3926C19.4264 18.3666 19.4212 18.3409 19.4113 18.317C19.4014 18.293 19.3868 18.2712 19.3685 18.2529ZM11.1981 11.4097C10.1768 12.4286 8.8231 12.9898 7.38269 12.9898C5.94228 12.9898 4.58858 12.4286 3.56729 11.4097C2.5484 10.3884 1.98717 9.03472 1.98717 7.59431C1.98717 6.1539 2.5484 4.79779 3.56729 3.77891C4.58858 2.76002 5.94228 2.19879 7.38269 2.19879C8.8231 2.19879 10.1792 2.75761 11.1981 3.77891C12.217 4.8002 12.7782 6.1539 12.7782 7.59431C12.7782 9.03472 12.217 10.3908 11.1981 11.4097Z" fill="#1E1E24"/>
</svg>
