<svg width="15" height="15" viewBox="0 0 15 15" fill="none" xmlns="http://www.w3.org/2000/svg">
<path d="M13.8341 9.42964L12.7814 8.52964C12.8313 8.22428 12.857 7.91249 12.857 7.60071C12.857 7.28892 12.8313 6.97713 12.7814 6.67178L13.8341 5.77178C13.9135 5.70381 13.9703 5.61327 13.997 5.51222C14.0237 5.41117 14.019 5.30438 13.9836 5.20606L13.9691 5.16428C13.6793 4.35432 13.2454 3.60348 12.6882 2.94803L12.6593 2.91428C12.5917 2.83481 12.5016 2.77768 12.4009 2.75043C12.3002 2.72317 12.1936 2.72707 12.0952 2.7616L10.7886 3.22606C10.3064 2.83071 9.76804 2.51892 9.18626 2.30035L8.93394 0.934277C8.9149 0.831488 8.86504 0.736924 8.79097 0.663149C8.71691 0.589373 8.62215 0.539879 8.51929 0.521242L8.4759 0.513206C7.63858 0.362134 6.75786 0.362134 5.92054 0.513206L5.87715 0.521242C5.77429 0.539879 5.67953 0.589373 5.60547 0.663149C5.53141 0.736924 5.48154 0.831488 5.46251 0.934277L5.20858 2.30678C4.63143 2.52539 4.09397 2.83701 3.61751 3.22928L2.30126 2.7616C2.20284 2.72679 2.09617 2.72276 1.99541 2.75003C1.89465 2.7773 1.80457 2.83459 1.73715 2.91428L1.70822 2.94803C1.15174 3.60394 0.717861 4.35466 0.427328 5.16428L0.412863 5.20606C0.340542 5.40696 0.400006 5.63196 0.562328 5.77178L1.62786 6.68142C1.57804 6.98356 1.55393 7.29213 1.55393 7.5991C1.55393 7.90767 1.57804 8.21624 1.62786 8.51678L0.562328 9.42642C0.482928 9.49439 0.426101 9.58492 0.399402 9.68598C0.372703 9.78703 0.377399 9.89382 0.412863 9.99214L0.427328 10.0339C0.718221 10.8439 1.14893 11.5912 1.70822 12.2502L1.73715 12.2839C1.80474 12.3634 1.89482 12.4205 1.99552 12.4478C2.09622 12.475 2.20281 12.4711 2.30126 12.4366L3.61751 11.9689C4.09644 12.3627 4.63161 12.6745 5.20858 12.8914L5.46251 14.2639C5.48154 14.3667 5.53141 14.4613 5.60547 14.5351C5.67953 14.6088 5.77429 14.6583 5.87715 14.677L5.92054 14.685C6.76556 14.8369 7.63088 14.8369 8.4759 14.685L8.51929 14.677C8.62215 14.6583 8.71691 14.6088 8.79097 14.5351C8.86504 14.4613 8.9149 14.3667 8.93394 14.2639L9.18626 12.8979C9.76781 12.6799 10.3092 12.367 10.7886 11.9721L12.0952 12.4366C12.1936 12.4714 12.3003 12.4754 12.401 12.4482C12.5018 12.4209 12.5919 12.3636 12.6593 12.2839L12.6882 12.2502C13.2475 11.5896 13.6782 10.8439 13.9691 10.0339L13.9836 9.99214C14.0559 9.79446 13.9964 9.56946 13.8341 9.42964ZM11.6404 6.86142C11.6805 7.1041 11.7014 7.35321 11.7014 7.60231C11.7014 7.85142 11.6805 8.10053 11.6404 8.34321L11.5343 8.98767L12.7348 10.0146C12.5528 10.4339 12.3231 10.8308 12.0502 11.1975L10.5588 10.6687L10.0541 11.0834C9.67001 11.3984 9.24251 11.6459 8.77965 11.8195L8.16733 12.0493L7.87965 13.6082C7.42574 13.6596 6.96748 13.6596 6.51358 13.6082L6.2259 12.0461L5.6184 11.813C5.16036 11.6395 4.73447 11.392 4.35358 11.0786L3.84894 10.6623L2.34786 11.1959C2.07465 10.8278 1.84643 10.4309 1.66322 10.013L2.87661 8.97642L2.77215 8.33356C2.73358 8.0941 2.71269 7.8466 2.71269 7.60231C2.71269 7.35642 2.73197 7.11053 2.77215 6.87106L2.87661 6.22821L1.66322 5.1916C1.84483 4.77213 2.07465 4.37678 2.34786 4.00874L3.84894 4.54231L4.35358 4.12606C4.73447 3.81267 5.16036 3.56517 5.6184 3.3916L6.22751 3.16178L6.51519 1.59963C6.96679 1.54821 7.42804 1.54821 7.88126 1.59963L8.16894 3.15856L8.78126 3.38838C9.24251 3.56196 9.67161 3.80946 10.0557 4.12446L10.5604 4.5391L12.0518 4.01035C12.325 4.37838 12.5532 4.77535 12.7364 5.19321L11.5359 6.22017L11.6404 6.86142ZM7.19983 4.61303C5.63769 4.61303 4.37126 5.87946 4.37126 7.4416C4.37126 9.00374 5.63769 10.2702 7.19983 10.2702C8.76197 10.2702 10.0284 9.00374 10.0284 7.4416C10.0284 5.87946 8.76197 4.61303 7.19983 4.61303ZM8.47269 8.71446C8.30574 8.88188 8.10734 9.01465 7.88889 9.10512C7.67044 9.19558 7.43627 9.24197 7.19983 9.2416C6.71929 9.2416 6.26768 9.05356 5.92697 8.71446C5.75954 8.54751 5.62678 8.34911 5.53631 8.13066C5.44584 7.91221 5.39946 7.67804 5.39983 7.4416C5.39983 6.96106 5.58786 6.50946 5.92697 6.16874C6.26768 5.82803 6.71929 5.6416 7.19983 5.6416C7.68036 5.6416 8.13197 5.82803 8.47269 6.16874C8.64011 6.33569 8.77288 6.53409 8.86335 6.75254C8.95381 6.97098 9.0002 7.20516 8.99983 7.4416C8.99983 7.92213 8.81179 8.37374 8.47269 8.71446Z" fill="white"/>
</svg>
