<svg width="20" height="21" viewBox="0 0 20 21" fill="none" xmlns="http://www.w3.org/2000/svg">
<path d="M13.7123 13.4053C14.2525 13.1151 14.8708 12.95 15.5292 12.95H15.5315C15.5984 12.95 15.6297 12.8696 15.5806 12.825C14.8958 12.2104 14.1135 11.714 13.2659 11.3562C13.2569 11.3517 13.248 11.3495 13.2391 11.345C14.6252 10.3384 15.527 8.70219 15.527 6.85621C15.527 3.79817 13.0538 1.3205 10.0025 1.3205C6.95112 1.3205 4.48014 3.79817 4.48014 6.85621C4.48014 8.70219 5.38193 10.3384 6.77032 11.345C6.76139 11.3495 6.75246 11.3517 6.74353 11.3562C5.74577 11.7781 4.85068 12.383 4.08059 13.1553C3.31495 13.9196 2.70539 14.8256 2.28594 15.8227C1.87325 16.7992 1.65052 17.8454 1.62969 18.9053C1.6291 18.9291 1.63328 18.9528 1.64198 18.975C1.65069 18.9972 1.66375 19.0174 1.68039 19.0345C1.69703 19.0515 1.71692 19.0651 1.73888 19.0743C1.76084 19.0836 1.78444 19.0884 1.80827 19.0884H3.14532C3.2413 19.0884 3.32166 19.0102 3.32389 18.9142C3.36853 17.191 4.05827 15.5772 5.27925 14.354C6.54041 13.0884 8.21898 12.3919 10.0047 12.3919C11.2703 12.3919 12.4846 12.7424 13.5315 13.3986C13.5584 13.4155 13.5892 13.425 13.621 13.4262C13.6527 13.4274 13.6842 13.4202 13.7123 13.4053ZM10.0047 10.6955C8.98237 10.6955 8.02032 10.2959 7.29487 9.5705C6.93794 9.21449 6.65498 8.79138 6.46228 8.32554C6.26959 7.8597 6.17097 7.36033 6.17211 6.85621C6.17211 5.83166 6.57166 4.86737 7.29487 4.14192C8.01809 3.41648 8.98014 3.01692 10.0047 3.01692C11.0292 3.01692 11.9891 3.41648 12.7145 4.14192C13.0714 4.49793 13.3544 4.92104 13.5471 5.38688C13.7398 5.85272 13.8384 6.35209 13.8373 6.85621C13.8373 7.88076 13.4377 8.84505 12.7145 9.5705C11.9891 10.2959 11.027 10.6955 10.0047 10.6955ZM18.2145 16.008H16.3395V14.133C16.3395 14.0348 16.2592 13.9544 16.1609 13.9544H14.9109C14.8127 13.9544 14.7324 14.0348 14.7324 14.133V16.008H12.8574C12.7592 16.008 12.6788 16.0884 12.6788 16.1866V17.4366C12.6788 17.5348 12.7592 17.6151 12.8574 17.6151H14.7324V19.4901C14.7324 19.5884 14.8127 19.6687 14.9109 19.6687H16.1609C16.2592 19.6687 16.3395 19.5884 16.3395 19.4901V17.6151H18.2145C18.3127 17.6151 18.3931 17.5348 18.3931 17.4366V16.1866C18.3931 16.0884 18.3127 16.008 18.2145 16.008Z" fill="white"/>
</svg>
