<svg width="112" height="42" viewBox="0 0 112 42" fill="none" xmlns="http://www.w3.org/2000/svg">
<path d="M12.2072 0.425573C13.1376 0.198147 14.1275 0.408646 15.0381 0.0852776C15.5491 -0.067255 16.0967 0.0105324 16.6092 0.120508C18.8209 0.393389 20.8267 1.54043 22.4985 2.96829C21.777 3.15422 21.0769 3.47469 20.5445 4.00703C18.3847 4.27396 16.2324 4.60938 14.0757 4.90224C11.6915 5.25764 9.30906 6.63348 8.284 8.8911C7.62811 10.2668 7.91489 11.8411 8.22906 13.2656C8.92004 15.6588 11.4246 17.0652 13.7904 17.2482C16.3011 17.3948 18.7523 16.6611 21.2431 16.4687C19.9908 17.6158 18.3053 18.0963 16.6809 18.4395C16.3209 18.4669 15.9548 18.4639 15.6086 18.5798C14.5485 18.6988 13.5052 18.9794 12.4314 18.9552C11.4414 19.2281 10.3813 19.045 9.36542 19.0618C9.11684 18.9794 8.86207 18.9093 8.61195 18.836C6.35447 18.2366 4.25715 16.8821 2.90569 14.9602C2.39167 14.1001 1.88831 13.1971 1.75104 12.1872C1.94021 12.0621 2.13696 11.9492 2.33221 11.8363C2.58234 12.3824 2.78981 12.9727 3.21838 13.412C3.51885 13.7399 3.978 13.8116 4.38222 13.9353C4.21902 12.1856 3.94291 10.4498 3.67598 8.71417C3.35262 8.88638 2.98499 9.03281 2.78063 9.35465C2.40085 9.89004 2.36272 10.5674 2.27268 11.1942C2.08054 11.2064 1.88832 11.2186 1.69609 11.2309C1.67173 10.2714 1.65033 9.31194 1.64277 8.35099C1.63973 8.09626 1.67328 7.84458 1.71903 7.59458C1.83499 7.33512 1.93104 7.0682 2.01338 6.79669C2.55033 5.61914 3.23215 4.47972 4.20073 3.60724C5.0732 2.64324 6.1806 1.91414 7.36881 1.39705C8.0552 1.08756 8.82393 1.06301 9.52714 0.80538C10.4408 0.822006 11.3056 0.509314 12.2072 0.425573Z" fill="#8A3CA3"/>
<path d="M15.0579 22.407C13.3633 22.8632 12.0607 24.5577 12.1522 26.3255C12.143 27.8769 13.1726 29.3624 14.6065 29.9421C16.2385 30.6805 18.2992 30.087 19.3441 28.6455C20.2043 27.5016 20.3645 25.8879 19.7727 24.5897C18.9948 22.8434 16.899 21.8579 15.0579 22.407ZM11.3453 20.3036C14.6461 19.8002 17.9545 19.3335 21.2599 18.8637C21.5619 18.8042 21.8776 18.7309 22.1827 18.8194C22.3428 19.3321 22.4847 19.8507 22.6418 20.3647C22.7013 20.6559 22.7379 20.9518 22.7638 21.2493C22.8587 22.0841 23.1558 22.9128 23.3068 24.1138C23.3328 25.0534 23.5723 25.9762 23.499 26.9219C23.4411 27.6907 23.6302 28.4991 23.377 29.2419C23.3648 30.0946 23.2992 30.9474 23.078 31.774C22.9316 33.2139 22.41 34.5805 22.0363 35.9701C20.5231 36.0174 19.0405 36.3575 17.5396 36.524C16.3956 36.7603 15.2181 36.7892 14.0832 37.0578C13.737 37.0836 13.3908 37.0821 13.046 37.0622C12.352 35.9411 11.6733 34.811 11.0295 33.6609C10.2399 31.8366 9.31801 30.0778 9.03625 28.1027C9.01151 27.9291 8.97916 27.7569 8.93602 27.5869C8.87085 27.3301 8.83921 27.1309 8.80715 26.9114C8.58901 25.5491 8.31911 24.1855 8.3694 22.8005C8.3694 22.1217 8.3694 21.443 8.3694 20.7642C8.99019 20.569 9.65067 20.6101 10.2775 20.4485C10.636 20.4257 10.9975 20.4012 11.3453 20.3036Z" fill="#8A3CA3"/>
<path d="M20.5438 4.00611C21.0762 3.47378 21.7763 3.15331 22.4977 2.96737C22.9828 2.95044 23.4648 3.07247 23.9483 3.11823C23.9029 3.5592 23.6982 4.02091 23.767 4.46173C23.7834 4.56698 23.9331 5.11945 23.7134 4.45593C23.2314 4.43305 22.7372 4.34016 22.2629 4.46051C21.8068 4.63134 21.5002 5.0325 21.1661 5.3667C20.7863 5.16825 20.402 4.97759 20.0176 4.78998C20.1869 4.5261 20.3592 4.26084 20.5438 4.00611Z" fill="#040606"/>
<path d="M12.9355 7.162C13.2132 6.87982 13.5075 6.61152 13.8324 6.38409C14.2656 6.59169 14.6576 6.96219 15.1747 6.91033C15.5926 6.94404 15.9694 6.74559 16.3187 6.54425C16.5902 6.91185 16.848 7.29013 17.0981 7.67451C16.8769 7.79501 16.6573 7.92024 16.4285 8.02839C15.2663 8.55935 13.9148 8.21143 12.9721 7.41063C12.963 7.34825 12.9447 7.2247 12.9355 7.162Z" fill="#040606"/>
<path d="M22.8847 8.09959C22.8893 8.25365 22.8939 8.40771 22.9 8.56329C23.202 8.57549 23.504 8.55582 23.8045 8.52058C23.7968 8.42144 23.7831 8.22482 23.777 8.12553C23.5635 7.80231 23.1806 8.07366 22.8847 8.09959ZM22.7962 7.81893C23.2157 7.64505 23.7465 7.55505 24.0287 8.00197C24.2316 8.54209 24.2544 9.13376 24.2895 9.70576C24.4146 10.5721 22.8618 10.7201 22.7505 9.89184C22.6529 9.31543 22.5461 8.73565 22.5552 8.14856C22.6163 8.06604 22.7352 7.9013 22.7962 7.81893Z" fill="#040606"/>
<path d="M13.8555 9.81879C13.9501 9.76998 14.1377 9.67083 14.2308 9.6205C14.8469 9.79911 15.4739 9.94081 16.0931 10.1057C16.1572 10.1955 16.2838 10.3755 16.3479 10.4655C15.9208 11.1458 15.3198 11.6936 14.7417 12.2427C14.6289 12.1771 14.4031 12.0442 14.2887 11.9786C14.2719 11.4327 14.7768 11.1246 15.0544 10.7158C14.6578 10.5938 14.2582 10.4777 13.8662 10.3435C13.8601 10.1682 13.857 9.9942 13.8555 9.81879Z" fill="#040606"/>
<path d="M16.5721 14.284C16.8817 13.9059 17.1807 14.4397 17.3531 14.6838C17.7207 15.2328 18.4543 15.0085 18.9989 14.9536C19.4183 14.8224 19.5358 15.5744 19.1209 15.64C18.3262 15.8612 17.2798 15.8612 16.7475 15.117C16.595 14.8926 16.3174 14.5235 16.5721 14.284Z" fill="#040606"/>
<path d="M16.5585 14.2848C16.3038 14.5243 16.5814 14.8934 16.7339 15.1178C17.2662 15.862 18.3126 15.862 19.1073 15.6408C19.5222 15.5752 19.4047 14.8232 18.9853 14.9544C18.4407 15.0093 17.7071 15.2335 17.3395 14.6846C17.1671 14.4405 16.8681 13.9067 16.5585 14.2848ZM12.9176 7.16153C12.9268 7.22422 12.945 7.34777 12.9542 7.41016C11.5646 7.80842 10.4236 9.02242 10.1964 10.4593C10.1155 11.2282 10.1155 12.0395 10.4405 12.7564C11.0094 14.0773 12.3471 15.0307 13.7855 15.1069C14.6915 15.1664 15.6174 14.9042 16.3465 14.3626C17.6583 13.4504 18.2852 11.6643 17.826 10.1329C17.6155 9.2863 17.0527 8.59396 16.4105 8.02791C16.6393 7.91977 16.859 7.79454 17.0802 7.67404C16.83 7.28966 16.5722 6.91138 16.3007 6.54377C15.9514 6.74512 15.5747 6.94356 15.1567 6.90985C14.6397 6.96171 14.2477 6.59121 13.8144 6.38361C13.4896 6.61104 13.1952 6.87934 12.9176 7.16153ZM14.0708 4.89948C16.2275 4.60662 18.3797 4.2712 20.5396 4.00427C20.355 4.259 20.1827 4.52425 20.0133 4.78813C20.3977 4.97575 20.7821 5.16641 21.1619 5.36485C21.496 5.03065 21.8025 4.6295 22.2586 4.45866C22.733 4.33831 23.2272 4.4312 23.7092 4.45408C23.9288 5.1176 24.42 5.67892 24.4322 6.40497C22.6781 5.48673 20.355 6.2953 19.4124 7.99908C18.5155 9.48459 18.8175 11.5224 20.0469 12.729C20.9499 13.6458 22.2815 14.0026 23.5399 13.8699C23.4179 14.3292 23.0747 14.6783 22.7803 15.0368C22.2861 15.5325 21.83 16.0786 21.2382 16.466C18.7473 16.6583 16.2961 17.392 13.7855 17.2454C11.4197 17.0624 8.91511 15.656 8.22413 13.2628C7.90996 11.8383 7.62318 10.264 8.27907 8.88834C9.30413 6.63072 11.6866 5.25488 14.0708 4.89948Z" fill="#50C5C7"/>
<path d="M31.2525 11.1385C31.4401 11.1416 31.6277 11.1448 31.8169 11.1492C32.2501 11.732 32.1494 12.4625 32.1479 13.1413C33.1988 13.1536 34.2498 13.1352 35.3007 13.1443C35.6515 13.1382 35.9688 13.3077 36.2876 13.4328C36.3379 13.6843 36.3944 13.936 36.4477 14.1877C35.8498 14.9322 34.7684 14.6056 34.0149 14.9869C33.9737 15.5392 34.0454 16.0943 33.9782 16.6451C33.7479 17.0447 33.2629 17.1483 32.8922 17.371C32.4255 17.5786 32.4758 18.1826 32.3202 18.5899C32.3095 18.6263 32.2897 18.698 32.2806 18.7331C32.035 19.5293 32.0045 20.4155 31.4889 21.105C30.8803 21.0791 30.2671 21.1279 29.6631 21.0379C29.0957 20.9113 28.6152 20.5543 28.1576 20.2127C27.9624 19.9718 28.089 19.6422 28.1774 19.3844C28.7296 17.9552 29.2208 16.5048 29.7379 15.0647C30.2488 13.9512 30.1893 12.6547 30.8193 11.5855C30.9627 11.4361 31.1076 11.288 31.2525 11.1385Z" fill="#50C5C7"/>
<path d="M15.2123 24.115C16.5714 23.4637 18.3362 24.5133 18.4415 26.0049C18.6276 27.2831 17.5141 28.5949 16.213 28.5615C14.9729 28.6773 13.7694 27.567 13.8106 26.3176C13.7237 25.3704 14.3689 24.4872 15.2123 24.115Z" fill="#50C5C7"/>
<path d="M4.19721 33.6803C5.46322 33.7077 6.7293 33.6772 7.99532 33.7094C8.11431 34.9387 8.20577 36.185 8.59628 37.3654C9.22166 37.4142 9.95685 37.158 10.5045 37.489C10.7149 38.1464 9.98432 38.456 9.46268 38.5186C9.46112 38.6133 9.46268 38.7079 9.46268 38.804C10.0047 39.2312 10.4467 39.8334 10.5343 40.5137C10.581 40.8772 10.2021 41.1366 9.87737 40.9672C9.70595 40.8776 9.55217 40.7488 9.41542 40.5976C9.33457 40.5869 9.0419 40.2825 8.96111 40.2717C9.07633 40.5404 9.2872 41.1057 9.32349 41.3932C9.36007 41.683 9.06222 41.8903 8.80595 41.7498C8.47729 41.5698 8.18342 41.3094 7.78786 41.2992C7.79137 41.3784 7.79631 41.5017 7.80078 41.6183C7.80836 41.8169 7.65564 41.9928 7.45693 41.9964C7.41469 41.9972 7.37328 41.9949 7.33402 41.9925C7.27454 41.989 7.21699 41.9696 7.16861 41.935C5.63941 40.8399 4.97293 38.7646 4.55721 37.0222C4.35433 35.918 4.15456 34.8075 4.19721 33.6803Z" fill="#50C5C7"/>
<path d="M17.7496 37.0756C19.069 36.8468 20.393 36.6761 21.7261 36.5617C21.5583 37.1749 21.3143 37.7651 21.151 38.3798C21.0855 38.5216 21.0199 38.6621 20.9528 38.8038C20.8643 39.025 20.7743 39.2446 20.6873 39.4673C20.605 39.6856 20.5318 39.9083 20.4326 40.1217C19.9872 40.352 19.4808 40.4101 18.9881 40.4252C17.9463 40.4847 16.929 40.834 15.878 40.7577C15.0559 39.7846 14.3009 38.755 13.5977 37.6934C13.9134 37.6491 14.2292 37.5957 14.5388 37.5181C14.7935 37.4966 15.0483 37.4783 15.3014 37.448C16.0885 37.158 16.9442 37.2693 17.7496 37.0756Z" fill="#50C5C7"/>
<path d="M22.7787 7.82373C22.7177 7.9061 22.5987 8.07084 22.5377 8.15335C22.5286 8.74045 22.6353 9.32022 22.733 9.89664C22.8443 10.7249 24.3971 10.5769 24.272 9.71055C24.2369 9.13856 24.214 8.54689 24.0112 8.00677C23.729 7.55985 23.1982 7.64985 22.7787 7.82373ZM19.4032 8.00082C20.3458 6.29704 22.6689 5.48847 24.423 6.40671C25.0194 6.80345 25.6295 7.22886 26.017 7.84661C26.5752 8.74823 26.8666 9.88292 26.5203 10.9156C26.2244 12.2427 25.0987 13.1852 23.909 13.7238C23.7839 13.774 23.668 13.8594 23.5307 13.8716C22.2723 14.0043 20.9407 13.6476 20.0377 12.7307C18.8083 11.5242 18.5063 9.48633 19.4032 8.00082Z" fill="white"/>
<path d="M13.8586 9.81872C13.8601 9.99414 13.8632 10.1682 13.8693 10.3434C14.2613 10.4777 14.6609 10.5937 15.0575 10.7158C14.7799 11.1246 14.275 11.4327 14.2918 11.9786C14.4062 12.0442 14.632 12.177 14.7448 12.2426C15.3229 11.6935 15.9239 11.1458 16.351 10.4655C16.2869 10.3755 16.1603 10.1955 16.0962 10.1056C15.477 9.94075 14.85 9.79905 14.2339 9.62043C14.1408 9.67077 13.9532 9.76991 13.8586 9.81872ZM10.207 10.4578C10.4342 9.02098 11.5752 7.80698 12.9648 7.40872C13.9074 8.20951 15.2589 8.55744 16.4211 8.02647C17.0633 8.59252 17.6261 9.28486 17.8366 10.1314C18.2957 11.6628 17.6688 13.449 16.3571 14.3611C15.628 14.9028 14.7021 15.165 13.7961 15.1055C12.3577 15.0292 11.02 14.0759 10.4511 12.755C10.1261 12.0381 10.1261 11.2267 10.207 10.4578Z" fill="white"/>
<path d="M22.8828 8.1025C23.1787 8.07657 23.5616 7.80522 23.7751 8.12843C23.7812 8.22773 23.795 8.42434 23.8026 8.52349C23.5021 8.55872 23.2001 8.5784 22.8981 8.5662C22.892 8.41061 22.8874 8.25656 22.8828 8.1025Z" fill="white"/>
<path d="M1.67113 11.091C1.86333 11.0787 2.07981 11.2076 2.27195 11.1954C2.36199 10.5686 2.40013 9.89122 2.7799 9.35583C2.98426 9.03399 3.3519 8.88756 3.67525 8.71535C3.94218 10.451 4.21829 12.1868 4.38149 13.9365C3.97728 13.8128 3.51812 13.7411 3.21765 13.4132C2.78908 12.9739 2.58161 12.3836 2.33149 11.8375C2.13623 11.9504 1.93948 12.0633 1.75031 12.1884C1.66928 12.2492 1.58658 12.3175 1.50125 12.3837C1.01416 12.7613 0.279089 12.5938 0.0558915 12.0195C-0.00101006 11.8729 -0.0192424 11.7141 0.0236572 11.5477C0.211463 11.0409 0.77315 10.7796 1.28151 10.9637C1.37047 10.9959 1.45925 11.028 1.54898 11.052" fill="#54379B"/>
<path d="M23.4531 21.229C24.016 21.5081 24.4827 21.932 25.0166 22.2569C25.3078 22.4393 25.6258 22.5672 25.94 22.7037C26.1787 22.8073 26.4344 22.8661 26.6943 22.8794C27.0329 22.8966 27.3763 22.9108 27.6645 22.7145C27.9879 22.5223 28.2184 22.2293 28.433 21.9255C28.625 21.6534 28.9298 21.476 29.2626 21.4636C29.2681 21.4634 29.2736 21.4633 29.2789 21.4631C29.7745 21.4493 30.2112 21.8625 30.1978 22.3581C30.1938 22.5104 30.1458 22.6669 30.0303 22.8167C29.4568 23.8387 28.3692 24.519 27.2268 24.7096C25.9579 24.8458 24.7818 24.2003 23.7172 23.6029C23.6157 22.8163 23.4019 22.0309 23.4531 21.229Z" fill="#54379B"/>
<path d="M15.2221 24.1203C14.3787 24.4924 13.7335 25.3756 13.8204 26.3228C13.7792 27.5722 14.9827 28.6825 16.2228 28.5667C17.5239 28.6001 18.6373 27.2883 18.4513 26.0101C18.346 24.5185 16.5812 23.4689 15.2221 24.1203ZM15.0529 22.4104C16.8939 21.8613 18.9897 22.8468 19.7676 24.5931C20.3594 25.8913 20.1993 27.505 19.339 28.6489C18.2941 30.0904 16.2334 30.6839 14.6014 29.9455C13.1675 29.3658 12.1379 27.8803 12.1471 26.3289C12.0556 24.5611 13.3582 22.8666 15.0529 22.4104Z" fill="#54379B"/>
<path d="M7.40732 25.1475C7.56748 25.0102 7.66203 24.6014 7.91681 24.6899C8.04795 25.0636 8.01138 25.4785 8.08764 25.8674C8.15323 26.2473 8.30422 26.6667 8.09371 27.0299C7.81308 27.637 7.55829 28.2563 7.31586 28.8799C6.92344 29.8974 6.72933 30.9779 6.59037 32.0575C6.55855 32.3046 6.42301 32.5287 6.21244 32.6615C6.1183 32.721 6.01761 32.7659 5.91447 32.7914C5.54476 32.8825 5.17498 32.6107 5.13113 32.2325C5.02556 31.3218 5.26555 30.4008 5.49001 29.5206C5.87896 27.9693 6.56232 26.5005 7.40732 25.1475Z" fill="#54379B"/>
<path d="M72.4282 13.7937C72.4312 13.2873 72.7958 12.8907 73.2198 12.665C74.0618 12.6834 74.9038 12.6772 75.7457 12.668C75.9471 12.7809 76.153 12.8894 76.3391 13.0297C76.6106 13.347 76.5603 13.7815 76.6091 14.1706C76.7616 15.827 76.5999 17.4943 76.7143 19.1537L76.7189 19.2254C77.7027 19.2605 78.6881 19.2393 79.6734 19.2406C80.3126 19.2269 81.0081 19.4267 81.4062 19.9575C81.6228 20.8743 81.7403 21.8977 81.2857 22.7611C81.0112 23.0982 80.5886 23.3637 80.1402 23.3348C79.1121 23.3361 78.0856 23.3348 77.0575 23.3239C76.5694 23.2797 76.7067 23.8578 76.6655 24.1796C76.7021 26.2693 76.6243 28.3622 76.7159 30.4504C76.7952 31.074 77.1765 31.7604 77.8278 31.9252C78.4654 32.1128 79.1655 32.2838 79.8123 32.035C80.7457 31.942 81.6762 31.75 82.6188 31.8748C82.9834 32.7245 82.7775 33.6688 82.811 34.564C82.5731 35.0109 82.3016 35.4624 81.8104 35.6638C81.2049 35.789 80.6191 36.0573 79.9892 36.007C78.9916 35.9765 77.9864 36.0604 76.995 35.9612C76.0249 35.6592 74.9999 35.3557 74.2631 34.616C73.1512 33.6597 72.5716 32.1875 72.5624 30.7385C72.5258 28.2829 72.5578 25.827 72.5472 23.3712C71.6045 23.2524 70.5078 23.5085 69.7131 22.8633C69.3043 22.1098 69.3974 21.2024 69.4187 20.3755C69.4767 20.1558 69.5438 19.9392 69.6033 19.7211C69.9968 19.532 70.4071 19.3794 70.822 19.2393C71.2949 19.2484 71.7708 19.2454 72.2451 19.2315C72.2878 19.1371 72.3733 18.9478 72.416 18.8517C72.4221 17.1662 72.3931 15.4794 72.4282 13.7937Z" fill="#ED1395"/>
<path d="M86.2339 12.7478L86.33 12.6638C87.2147 12.6868 88.0994 12.6668 88.9856 12.6806C89.1549 12.8544 89.3257 13.0253 89.4996 13.1961C89.6079 13.8018 89.7132 14.4119 89.6933 15.0296C89.6781 16.3888 89.704 17.7477 89.6765 19.1067C89.762 19.1906 89.8489 19.273 89.9389 19.3554C91.0417 19.3294 92.1476 19.3189 93.2504 19.3477C93.9551 19.325 94.5942 19.9672 94.5591 20.6732C94.5438 21.5061 94.7604 22.5418 94.0039 23.1322C93.9597 23.1764 93.8712 23.2663 93.8254 23.3105C92.5106 23.3654 91.1927 23.3075 89.8779 23.3456C89.8306 23.428 89.7391 23.5929 89.6918 23.6752C89.6918 25.9432 89.6872 28.213 89.6949 30.4826C89.8321 31.1371 90.3233 31.5947 90.8312 31.9835C90.9456 31.9987 91.1729 32.0277 91.2873 32.0429C91.629 32.1497 91.9905 32.2001 92.3459 32.1238C93.4014 31.9194 94.4844 31.7486 95.5597 31.8889C95.6085 31.9393 95.7077 32.0399 95.758 32.0918C95.8343 32.9079 95.7961 33.7346 95.7855 34.5552C95.334 35.5848 94.1259 35.9129 93.0948 35.8839C91.7952 35.8336 90.4606 36.0273 89.1945 35.6412C87.6494 35.2782 86.2888 34.0396 85.9334 32.47C85.6177 31.6266 85.5506 30.7281 85.4743 29.8389C85.3965 29.3279 85.3767 28.811 85.3843 28.2954C85.398 26.6418 85.3782 24.9884 85.395 23.3364C84.4584 23.0863 83.3739 23.4997 82.5609 22.8499C82.4282 22.0308 82.4297 21.1949 82.4831 20.3697C82.4892 20.0372 82.7363 19.7901 82.9224 19.5399C83.2107 19.4455 83.4975 19.3477 83.7842 19.244C84.3196 19.2471 84.8565 19.2487 85.3919 19.2242C85.5155 17.4258 85.305 15.6153 85.5231 13.8245C85.5429 13.3547 85.8922 13.0222 86.2339 12.7478Z" fill="#ED1395"/>
<path d="M49.0493 13.0198C49.7586 12.6599 50.567 12.797 51.3312 12.7711C51.7522 12.7529 52.1778 12.8046 52.5683 12.9755C52.6842 13.1495 52.8047 13.3202 52.9282 13.4927C52.9679 17.1716 52.9389 20.8537 52.942 24.5343L53.0503 24.7662C53.0823 24.8363 53.1464 24.9752 53.1784 25.0439C53.4987 24.7801 53.8053 24.4947 54.0555 24.1591C54.8684 23.0716 55.7882 22.0696 56.6104 20.9864C57.1854 20.2238 57.942 19.4596 58.9426 19.3574C60.0347 19.301 61.1299 19.3591 62.222 19.3345C62.3685 19.4506 62.5149 19.5664 62.6628 19.6853C62.5073 20.0546 62.3151 20.4099 62.0558 20.7165C60.7074 22.3669 59.3605 24.0205 58.006 25.6676C57.6811 26.0688 57.2815 26.441 57.1122 26.9413C57.129 27.1886 57.1961 27.434 57.3349 27.6414C58.9258 29.5099 60.4328 31.4486 62.0115 33.328C62.4432 33.8754 62.9359 34.3879 63.2577 35.0117C63.4057 35.239 63.1906 35.4755 63.1235 35.6891C61.8849 35.6997 60.6448 35.6997 59.4078 35.6891C58.4865 35.4526 57.8154 34.7464 57.2815 33.9991C56.4472 32.977 55.6128 31.9535 54.812 30.9041C54.3544 30.3826 53.9502 29.818 53.4591 29.3271C53.337 29.3101 53.218 29.2949 53.0975 29.2797C53.0274 29.5055 52.9374 29.7326 52.9465 29.9736C52.9389 31.502 52.9557 33.0304 52.942 34.5587C52.9801 35.1018 52.4981 35.5151 52.0207 35.6707C51.226 35.7334 50.4252 35.6814 49.6274 35.6905C49.2202 35.4434 48.7321 35.1111 48.79 34.5649C48.7961 27.5422 48.7611 20.5197 48.8083 13.4971C48.8907 13.3385 48.97 13.1798 49.0493 13.0198Z" fill="#ED1395"/>
<path d="M65.1608 12.9551C65.6474 12.7064 66.2117 12.7796 66.738 12.7887C66.8966 12.8467 67.0568 12.9048 67.2169 12.9626C68.3472 13.35 68.8887 14.6681 68.7621 15.7892C68.5104 16.3687 68.2542 17.02 67.6761 17.351C67.2307 17.5859 66.7792 17.9046 66.2499 17.8558C64.9686 17.8773 63.9253 16.7973 63.5928 15.6275C63.4982 14.5186 64.177 13.4387 65.1608 12.9551Z" fill="#ED1395"/>
<path d="M38.311 19.2368C38.8266 19.1697 39.3299 19.0293 39.8424 18.9486C41.5477 18.9256 43.2866 18.8295 44.9309 19.3742C45.6707 19.5373 46.5859 19.934 46.5523 20.8292C46.7048 21.3646 46.6911 21.9381 46.5767 22.4796C46.5157 22.8152 46.4013 23.1433 46.1039 23.3445C45.3 23.4223 44.513 23.2407 43.7793 22.925C42.1502 22.9448 40.4114 22.4599 38.8769 23.2195C38.8677 23.5246 38.8586 23.831 38.8525 24.1378C39.2308 24.461 39.6441 24.7523 40.12 24.911C41.563 25.4374 42.9892 26.0138 44.4077 26.6025C45.2436 26.9917 46.084 27.4813 46.5874 28.2835C46.9764 28.8768 47.2967 29.5557 47.2768 30.2833C47.2509 31.267 47.3897 32.2813 47.0709 33.2346C46.8543 33.5732 46.6423 33.9134 46.441 34.2612C45.5624 35.306 44.1957 35.7011 42.9037 35.939C42.4019 36.0765 41.8559 35.9148 41.3738 36.1375C40.509 36.1497 39.6258 36.2411 38.7762 36.0336C38.3827 35.9911 37.9846 36.0092 37.5911 35.985C37.3012 35.8477 36.9779 35.8446 36.6652 35.8246C35.9513 35.605 35.1109 35.4984 34.6472 34.8393C34.275 34.1392 34.4184 33.3124 34.426 32.5544C34.4825 32.3394 34.5419 32.1242 34.6014 31.9108C34.7112 31.7886 34.8226 31.6697 34.9339 31.5491C35.2573 31.5477 35.5792 31.5522 35.9025 31.572C37.3287 32.0235 38.8372 32.1045 40.3214 32.1547C41.2595 32.141 42.3379 32.3256 43.1112 31.659C43.1569 31.1893 43.1798 30.6751 42.7222 30.4006C41.1634 29.6029 39.4977 29.0478 37.9068 28.3202C36.9825 27.8579 35.9452 27.4445 35.3626 26.5371C34.5785 25.4509 34.6731 24.0507 34.7311 22.7847C34.8394 21.1526 36.1695 19.8332 37.6887 19.3847C37.8961 19.3391 38.1036 19.2871 38.311 19.2368Z" fill="#ED1395"/>
<path d="M102.464 22.8942C101.805 23.2435 101.153 23.6782 100.783 24.3463C100.609 24.6544 100.498 24.9993 100.523 25.3561C100.45 26.796 100.449 28.2436 100.525 29.6834C100.54 30.173 100.719 30.6642 101.001 31.0655C101.489 31.7593 102.384 31.9592 103.178 32.0553C104.318 32.063 105.569 32.1895 106.584 31.5551C107.325 31.1128 107.567 30.1806 107.563 29.3722C107.548 28.001 107.586 26.6282 107.544 25.2584C107.477 24.894 107.39 24.5339 107.307 24.1726C106.782 23.6387 106.228 23.0101 105.429 22.9432C104.44 22.8927 103.451 22.9537 102.464 22.8942ZM98.6488 20.4415C99.7791 19.5615 101.199 19.2136 102.577 18.9483C103.64 18.9223 104.704 18.9238 105.767 18.9483C106.983 19.27 108.292 19.45 109.332 20.2203C110.479 21.012 111.24 22.2398 111.611 23.5684C111.664 24.0841 111.844 24.5812 111.812 25.1044C111.793 26.9332 111.846 28.7621 111.783 30.5894C111.712 30.7893 111.654 30.9936 111.605 31.2011C111.55 31.3582 111.498 31.5184 111.449 31.677C111.399 31.8251 111.352 31.9746 111.311 32.1254C110.929 32.9643 110.469 33.8018 109.735 34.3844C109.145 34.8237 108.537 35.2662 107.824 35.4811C107.499 35.6047 107.168 35.7116 106.837 35.8167C106.684 35.8396 106.533 35.8642 106.384 35.8915C104.936 36.1538 103.438 36.035 101.973 35.986C101.198 35.8122 100.406 35.6565 99.6815 35.321C97.8785 34.5141 96.55 32.7082 96.3593 30.7374C96.1 29.3768 96.2602 27.9873 96.2175 26.6131C96.2403 26.0441 96.1382 25.4552 96.3242 24.9061C96.3715 24.2243 96.5103 23.5486 96.7925 22.9232C97.2196 21.979 97.7321 20.9984 98.6488 20.4415Z" fill="#ED1395"/>
<path d="M64.4356 19.6044C64.9054 19.2307 65.5461 19.359 66.1028 19.33C66.7084 19.3695 67.4069 19.2034 67.9256 19.6C68.281 19.902 68.1971 20.4037 68.2154 20.8186C68.1925 25.5623 68.2459 30.3062 68.1879 35.0498C67.8706 35.4495 67.4024 35.7744 66.867 35.695C66.0342 35.6388 65.1098 35.8933 64.3944 35.3459C64.3167 35.1948 64.2404 35.0422 64.1641 34.8914C64.1367 30.2024 64.1626 25.5135 64.1504 20.8247C64.1672 20.4098 64.1229 19.928 64.4356 19.6044Z" fill="#ED1395"/>
</svg>
