<svg width="17" height="16" viewBox="0 0 17 16" fill="none" xmlns="http://www.w3.org/2000/svg">
<path d="M10.0957 2.00194V14.4287C10.0957 14.5073 10.16 14.5716 10.2386 14.5716H11.31C11.3886 14.5716 11.4529 14.5073 11.4529 14.4287V3.62158L14.7207 6.19837C14.8136 6.27158 14.9529 6.20551 14.9529 6.08587V4.79122C14.9529 4.70372 14.9136 4.62158 14.8439 4.56622L11.0207 1.55194C10.6457 1.25729 10.0957 1.52337 10.0957 2.00194ZM5.88144 1.57158L5.88144 12.3787L2.61358 9.80194C2.52072 9.72872 2.38144 9.7948 2.38144 9.91444L2.38144 11.2091C2.38144 11.2966 2.42073 11.3787 2.49037 11.4341L6.31358 14.4484C6.68858 14.743 7.23858 14.4769 7.23858 14.0002L7.23858 1.57158C7.23858 1.49301 7.1743 1.42872 7.09573 1.42872H6.0243C5.94572 1.42872 5.88144 1.49301 5.88144 1.57158Z" fill="white"/>
</svg>
