<svg width="20" height="21" viewBox="0 0 20 21" fill="none" xmlns="http://www.w3.org/2000/svg">
<path d="M3.15789 15.0342L0 17.9559V9.56832H3.15789M8.42105 13.2056L6.76842 11.8739L5.26316 13.1857V5.59317H8.42105M13.6842 11.5559L10.5263 14.5373V1.61801H13.6842M16.6421 11.3671L14.7368 9.56832H20V14.5373L18.1158 12.7584L10.5263 19.864L6.87368 16.8627L2.89474 20.5H0L6.81053 14.1994L10.5263 17.1609" fill="white"/>
<path d="M16.0612 1.1448C15.873 1.18407 15.6546 1.19009 15.5128 1.07872C15.3515 0.952044 15.3494 0.732618 15.5442 0.645529C15.752 0.552628 15.989 0.5 16.2407 0.5C17.0601 0.5 17.7249 1.0582 17.7281 1.74782C17.7281 1.74951 17.7281 1.7512 17.7281 1.75289V2.48375H18.4719C18.6773 2.48375 18.8437 2.62398 18.8437 2.79697C18.8437 2.96996 18.6773 3.11019 18.4719 3.11019H17.7281V5.19825C17.7281 5.54422 18.0611 5.82469 18.4719 5.82469C18.8826 5.82469 19.2156 5.54422 19.2156 5.19825C19.2156 5.10016 19.1889 5.00734 19.1411 4.92469C19.0177 5.02923 18.8467 5.09394 18.6578 5.09394C18.2813 5.09394 17.9761 4.83684 17.9761 4.5197C17.9761 4.20255 18.2813 3.94546 18.6578 3.94546C18.791 3.94546 18.9153 3.97763 19.0203 4.03325C19.5704 4.21713 19.9593 4.66943 19.9593 5.19825C19.9593 5.8902 19.2934 6.45114 18.4719 6.45114C17.6504 6.45114 16.9844 5.8902 16.9844 5.19825C16.9844 5.1511 16.9875 5.10456 16.9935 5.05876C16.9876 5.03649 16.9844 5.01332 16.9844 4.98953V3.11019H16.1167C15.9114 3.11019 15.7449 2.96996 15.7449 2.79697C15.7449 2.62398 15.9114 2.48375 16.1167 2.48375H16.9844V2.11932C16.9844 2.11759 16.9844 2.11585 16.9844 2.11411V1.75289C16.9844 1.40692 16.6514 1.12645 16.2407 1.12645C16.1788 1.12645 16.1187 1.13281 16.0612 1.1448Z" fill="white"/>
</svg>
