<svg width="36" height="36" viewBox="0 0 36 36" fill="none" xmlns="http://www.w3.org/2000/svg">
<path d="M5.68421 26.1615L0 31.4206V16.323H5.68421M15.1579 22.8701L12.1832 20.473L9.47368 22.8343V9.1677H15.1579M24.6316 19.9006L18.9474 25.2671V2.01242H24.6316M29.9558 19.5607L26.5263 16.323H36V25.2671L32.6084 22.0651L18.9474 34.8552L12.3726 29.4529L5.21053 36H0L12.2589 24.6589L18.9474 29.9896" fill="#209AF2"/>
<path d="M28.9102 1.16064C28.5715 1.23132 28.1782 1.24217 27.923 1.04169C27.6327 0.81368 27.629 0.418712 27.9796 0.261952C28.3536 0.0947298 28.7802 0 29.2332 0C30.7083 0 31.9047 1.00476 31.9106 2.24607C31.9106 2.24911 31.9107 2.25215 31.9107 2.25521V3.57074H33.2494C33.6191 3.57074 33.9187 3.82317 33.9187 4.13455C33.9187 4.44593 33.6191 4.69835 33.2494 4.69835H31.9107V8.45684C31.9107 9.0796 32.51 9.58445 33.2494 9.58445C33.9887 9.58445 34.5881 9.0796 34.5881 8.45684C34.5881 8.28029 34.5399 8.11322 34.4541 7.96444C34.2318 8.15261 33.9241 8.26909 33.5841 8.26909C32.9063 8.26909 32.3569 7.80632 32.3569 7.23546C32.3569 6.66459 32.9063 6.20182 33.5841 6.20182C33.8238 6.20182 34.0475 6.25973 34.2365 6.35986C35.2267 6.69083 35.9268 7.50497 35.9268 8.45684C35.9268 9.70236 34.7281 10.7121 33.2494 10.7121C31.7707 10.7121 30.572 9.70236 30.572 8.45684C30.572 8.37198 30.5775 8.28821 30.5884 8.20578C30.5776 8.16569 30.572 8.12398 30.572 8.08116V4.69835H29.0101C28.6404 4.69835 28.3408 4.44593 28.3408 4.13455C28.3408 3.82317 28.6404 3.57074 29.0101 3.57074H30.572V2.91478C30.5719 2.91166 30.5719 2.90854 30.5719 2.9054V2.25521C30.5719 1.63245 29.9725 1.1276 29.2332 1.1276C29.1218 1.1276 29.0136 1.13906 28.9102 1.16064Z" fill="#209AF2"/>
</svg>
