<svg width="64" height="65" viewBox="0 0 64 65" fill="none" xmlns="http://www.w3.org/2000/svg">
<path d="M26.666 32.8548L18.666 24.8548H13.3327C12.6254 24.8548 11.9472 25.1358 11.4471 25.6359C10.947 26.136 10.666 26.8142 10.666 27.5215V38.1882C10.666 38.8954 10.947 39.5737 11.4471 40.0738C11.9472 40.5739 12.6254 40.8548 13.3327 40.8548H18.666L26.666 32.8548ZM37.3327 32.8548L45.3327 24.8548H50.666C51.3733 24.8548 52.0515 25.1358 52.5516 25.6359C53.0517 26.136 53.3327 26.8142 53.3327 27.5215V38.1882C53.3327 38.8954 53.0517 39.5737 52.5516 40.0738C52.0515 40.5739 51.3733 40.8548 50.666 40.8548H45.3327L37.3327 32.8548ZM31.9993 38.1882L23.9993 46.1882V51.5215C23.9993 52.2287 24.2803 52.907 24.7804 53.4071C25.2805 53.9072 25.9588 54.1882 26.666 54.1882H37.3327C38.0399 54.1882 38.7182 53.9072 39.2183 53.4071C39.7184 52.907 39.9993 52.2287 39.9993 51.5215V46.1882L31.9993 38.1882ZM31.9993 27.5215L23.9993 19.5215V14.1882C23.9993 13.4809 24.2803 12.8026 24.7804 12.3025C25.2805 11.8024 25.9588 11.5215 26.666 11.5215H37.3327C38.0399 11.5215 38.7182 11.8024 39.2183 12.3025C39.7184 12.8026 39.9993 13.4809 39.9993 14.1882V19.5215L31.9993 27.5215Z" stroke="#2C7C7A" stroke-width="2" stroke-linecap="round" stroke-linejoin="round"/>
</svg>
