<svg width="22" height="28" viewBox="0 0 22 28" fill="none" xmlns="http://www.w3.org/2000/svg">
<path d="M18.1667 21.1673C19.0871 21.1673 19.8333 20.4211 19.8333 19.5007C19.8333 18.5802 19.0871 17.834 18.1667 17.834C17.2462 17.834 16.5 18.5802 16.5 19.5007C16.5 20.4211 17.2462 21.1673 18.1667 21.1673Z" stroke="white" stroke-width="4" stroke-linecap="round" stroke-linejoin="round"/>
<path d="M2.3335 5.33333C2.3335 4.44928 2.68469 3.60143 3.30981 2.97631C3.93493 2.35119 4.78277 2 5.66683 2C6.55088 2 7.39873 2.35119 8.02385 2.97631C8.64897 3.60143 9.00016 4.44928 9.00016 5.33333V20.3333C9.00016 21.6594 9.52695 22.9312 10.4646 23.8689C11.4023 24.8066 12.6741 25.3333 14.0002 25.3333C15.3262 25.3333 16.598 24.8066 17.5357 23.8689C18.4734 22.9312 19.0002 21.6594 19.0002 20.3333V19.5M4.00016 12H14.0002" stroke="white" stroke-width="4" stroke-linecap="round" stroke-linejoin="round"/>
</svg>
