<svg width="112" height="57" viewBox="0 0 112 57" fill="none" xmlns="http://www.w3.org/2000/svg">
<mask id="mask0_4119_27758" style="mask-type:luminance" maskUnits="userSpaceOnUse" x="0" y="0" width="112" height="57">
<path d="M0 57V3.8147e-06H111.42V57H0Z" fill="white"/>
</mask>
<g mask="url(#mask0_4119_27758)">
<path fill-rule="evenodd" clip-rule="evenodd" d="M72.7188 57.0361C72.7188 57.0361 84.7135 43.545 99.7763 41.5897C99.7763 41.5897 106.563 39.439 110.097 46.6746C110.097 46.6746 113.165 37.2879 109.911 32.1074C109.911 32.1074 107.679 27.5116 100.799 28.5867C100.799 28.5867 90.1069 29.9551 76.8105 42.3713C76.8105 42.3713 73.5561 55.3744 72.7188 57.0361Z" fill="#7BCB2A"/>
<path fill-rule="evenodd" clip-rule="evenodd" d="M77.6312 32.7266C77.6312 32.7266 93.4609 16.8152 102.875 19.4551C102.875 19.4551 105.455 19.2342 109.151 23.9275C109.151 23.9275 105.037 10.6553 96.1803 9.62907C96.1803 9.62907 86.7659 8.30975 76.2363 20.4809C76.2363 20.4809 77.8398 29.0596 77.6312 32.7266Z" fill="#7BCB2A"/>
<path fill-rule="evenodd" clip-rule="evenodd" d="M73.5558 11.8236C73.5558 11.8236 78.6459 4.49141 87.9212 2.65826C87.9212 2.65826 88.572 2.3406 87.5495 2.097C87.5495 2.097 75.3686 -1.86304 67.5583 1.06892C67.5583 1.06892 67.1749 1.11843 67.523 1.48498C67.523 1.48498 71.9515 8.37657 72.9276 11.6763C72.9276 11.6763 73.0672 12.1652 73.5558 11.8236Z" fill="#7BCB2A"/>
<path fill-rule="evenodd" clip-rule="evenodd" d="M33.4384 22.3807L33.3789 22.381L33.3916 22.3309L33.4384 22.3807ZM33.4384 22.3807L46.8733 22.3074L51.4061 22.1853C51.4061 22.1853 51.3713 19.4478 49.9062 19.3742L40.8415 19.2641C40.8415 19.2641 40.5272 17.3579 41.8875 17.2471L49.3489 17.1381C49.3489 17.1381 53.1146 17.0634 53.7075 20.987L53.9309 22.2271L53.9513 22.3432L70.6995 22.381C70.6995 22.381 70.7925 23.5175 69.5375 23.9939L66.1554 24.2868C66.1554 24.2868 66.503 25.4973 66.3293 26.2298C66.3293 26.2298 70.478 26.6338 70.6877 30.9959C70.6877 30.9959 70.8279 33.3423 68.3515 33.4885L68.5263 32.278C68.5263 32.278 69.0139 28.7226 66.8874 28.356L66.3293 28.246V39.9042C66.3293 39.9042 65.1096 39.9778 64.3415 38.5112L64.1678 38.4007C64.1678 38.4007 58.2398 38.1457 56.6709 35.9449C56.6709 35.9449 52.766 30.7392 58.4843 27.2564C58.4843 27.2564 61.3438 26.3398 63.9933 26.1925C63.9933 26.1925 64.3769 26.2416 64.2373 25.5331C64.2373 25.5331 64.4699 24.458 63.4235 24.385H44.2701L44.398 36.7879C44.398 36.7879 44.1767 37.779 45.0835 37.6564C45.0835 37.6564 49.3372 37.1426 50.4296 33.6233C50.4296 33.6233 50.7554 31.8153 50.0574 31.2035C50.0574 31.2035 49.2095 30.2807 47.3614 30.9223L46.9607 28.8507C46.9607 28.8507 49.5053 27.8617 51.3366 29.2364C51.3366 29.2364 53.4978 30.3733 52.2659 34.6499C52.2659 34.6499 50.9879 37.9482 46.2921 39.5135C46.2921 39.5135 42.7939 40.3812 42.2882 39.5748L42.1542 25.8996L42.1082 25.5331C42.1082 25.5331 42.0381 24.4576 41.248 24.3348H35.2745L33.4384 22.3807ZM57.5437 30.9846C57.9152 28.0524 64.2844 28.2471 64.2844 28.2471V36.2148L61.1236 35.8724C56.4272 34.944 57.5437 30.9846 57.5437 30.9846Z" fill="#7BCB2A"/>
<path fill-rule="evenodd" clip-rule="evenodd" d="M2.02276 22.4372H15.3653C15.3653 22.4372 15.691 19.6757 12.9013 19.235H4.67294C4.67294 19.235 3.99813 17.5001 6.27663 17.2072C6.27663 17.2072 11.065 16.9869 13.204 17.2552C13.204 17.2552 16.6673 17.1575 17.3411 20.3361C17.3411 20.3361 17.5032 21.1916 17.4572 22.4137H20.1537C20.1537 22.4137 19.9099 17.3289 23.6402 17.2925H35.8794C35.8794 17.2925 36.8555 17.5134 36.5414 18.9064C36.5414 18.9064 36.402 19.4067 35.7047 19.3823L23.7336 19.529C23.7336 19.529 22.0134 19.5781 22.0134 21.4838V22.3155V22.4137H34.833C34.833 22.4137 37.1338 22.7183 36.9258 26.2379C36.9597 29.7578 37.0296 39.0329 37.0296 39.0329C37.0296 39.0329 36.8436 39.9614 36.402 39.7405C36.402 39.7405 35.1469 39.5949 34.9843 38.1539C34.8212 36.7106 34.8678 33.2774 34.8678 33.2774C34.8678 33.2774 34.5651 31.3829 33.3331 31.1624C33.3331 31.1624 32.4969 30.7709 31.8925 31.7979L30.7307 33.8275C30.7307 33.8275 30.0215 34.0284 29.864 32.7636C29.864 32.7636 29.3589 30.7836 28.1035 30.8015C28.1035 30.8015 26.3255 30.7653 26.0985 33.0565C26.0985 33.0565 25.5587 35.9157 27.7896 36.4116L29.1322 36.6313C29.1322 36.6313 29.4985 37.1261 28.9577 38.3914C28.9577 38.3914 28.7486 39.0515 27.8944 38.8859C27.8944 38.8859 24.5818 38.7397 24.024 34.7066C24.024 34.7066 23.4137 29.0605 27.6152 28.4919C27.6152 28.4919 29.3764 28.1268 30.7363 30.1969L30.9622 29.8312C30.9622 29.8312 31.7473 27.5213 33.8567 28.9142L34.7987 29.6473V25.4682C34.7987 25.4682 34.693 24.2766 33.9967 24.2949H22.059C22.059 24.2949 22.2926 24.7341 22.2687 25.2483L22.3852 39.6444C22.3852 39.6444 21.7349 39.8152 21.3862 39.693C21.3862 39.693 20.3629 39.2523 20.3169 38.3731L20.0838 25.3216C20.0838 25.3216 20.1185 24.5148 19.0373 24.3869L7.85724 24.3686L8.02025 36.7597C8.02025 36.7597 7.83367 37.5909 8.99564 37.5909C8.99564 37.5909 10.1817 37.5179 10.9955 37.029C10.9955 37.029 14.2728 35.3176 14.3194 32.8741C14.3194 32.8741 14.4707 30.9488 12.9013 30.7653L11.1407 30.8015C11.1407 30.8015 10.8089 30.069 10.8269 29.3359C10.8269 29.3359 10.5303 28.566 12.431 28.5294C12.431 28.5294 14.4707 28.1447 15.6035 29.8491C15.6035 29.8491 16.3877 30.4351 16.2661 33.0207C16.2661 33.0207 16.7134 34.9269 14.0173 37.4443C14.0173 37.4443 11.8548 39.375 8.92616 39.7405C8.92616 39.7405 7.29956 40.1331 6.5551 39.8632C6.5551 39.8632 5.90495 39.5707 5.83488 39.1301L5.57932 25.2121C5.57932 25.2121 5.6488 24.3318 4.39333 24.3318L2.0924 24.3686L2.05713 38.116C2.05713 38.116 1.98806 40.9762 4.28946 41.1228L5.96216 41.2323C5.96216 41.2323 6.83424 41.3789 5.92794 42.5522C5.92794 42.5522 5.68367 43.3599 2.89445 42.9192C2.89445 42.9192 0.244353 41.8553 0.174306 38.0796L0 24.2577C0 24.2577 0.383959 22.8161 2.02276 22.4372Z" fill="#7BCB2A"/>
</g>
</svg>
