<svg width="200" height="201" viewBox="0 0 200 201" fill="none" xmlns="http://www.w3.org/2000/svg">
<g clip-path="url(#clip0_634_1738)">
<path d="M0 4.85473C0 2.64559 1.79086 0.854736 4 0.854736H196C198.209 0.854736 200 2.6456 200 4.85474V196.855C200 199.064 198.209 200.855 196 200.855H4C1.79086 200.855 0 199.064 0 196.855V4.85473Z" fill="white"/>
<g opacity="0.36">
<path d="M1 155.355H18.5L102.5 39.8547L136.5 60.8547L199.5 11.8547M11.5 200.355L46.5 145.855L83 168.855L118 77.8547H165L199.5 43.3547" stroke="#6DE2D9"/>
<circle cx="18.5" cy="154.355" r="4" fill="#6DE2D9" stroke="#6DE2D9"/>
<circle cx="102.5" cy="40.3547" r="4" fill="#6DE2D9" stroke="#6DE2D9"/>
<circle cx="136.5" cy="59.3547" r="4" fill="#6DE2D9" stroke="#6DE2D9"/>
<circle cx="165.5" cy="78.3547" r="4" fill="#6DE2D9" stroke="#6DE2D9"/>
<circle cx="119.5" cy="78.3547" r="4" fill="#6DE2D9" stroke="#6DE2D9"/>
<circle cx="83.5" cy="168.355" r="4" fill="#6DE2D9" stroke="#6DE2D9"/>
<circle cx="46.5" cy="146.355" r="4" fill="#6DE2D9" stroke="#6DE2D9"/>
</g>
<g filter="url(#filter0_d_634_1738)">
<path d="M60.728 105.875V104.364H69.7337V105.875H66.103V116H64.353V105.875H60.728ZM70.6811 116V107.273H72.3232V108.659H72.4141C72.5732 108.19 72.8535 107.82 73.255 107.551C73.6603 107.279 74.1186 107.142 74.63 107.142C74.736 107.142 74.861 107.146 75.005 107.154C75.1527 107.161 75.2682 107.171 75.3516 107.182V108.807C75.2834 108.788 75.1622 108.767 74.9879 108.745C74.8137 108.718 74.6394 108.705 74.4652 108.705C74.0637 108.705 73.7057 108.79 73.3913 108.96C73.0807 109.127 72.8345 109.36 72.6527 109.659C72.4709 109.955 72.38 110.292 72.38 110.671V116H70.6811ZM79.2834 116.193C78.7304 116.193 78.2304 116.091 77.7834 115.887C77.3364 115.678 76.9822 115.377 76.7209 114.983C76.4633 114.589 76.3345 114.106 76.3345 113.534C76.3345 113.042 76.4292 112.637 76.6186 112.318C76.808 112 77.0637 111.748 77.3857 111.563C77.7076 111.377 78.0675 111.237 78.4652 111.142C78.8629 111.048 79.2682 110.976 79.6811 110.926C80.2038 110.866 80.6281 110.817 80.9538 110.779C81.2796 110.737 81.5163 110.671 81.6641 110.58C81.8118 110.489 81.8857 110.341 81.8857 110.137V110.097C81.8857 109.601 81.7455 109.216 81.4652 108.943C81.1887 108.671 80.7758 108.534 80.2266 108.534C79.6546 108.534 79.2038 108.661 78.8743 108.915C78.5485 109.165 78.3232 109.443 78.1982 109.75L76.6016 109.387C76.791 108.856 77.0675 108.428 77.4311 108.103C77.7985 107.773 78.2209 107.534 78.6982 107.387C79.1754 107.235 79.6773 107.159 80.2038 107.159C80.5523 107.159 80.9216 107.201 81.3118 107.284C81.7057 107.364 82.0732 107.512 82.4141 107.728C82.7588 107.943 83.041 108.252 83.2607 108.654C83.4804 109.051 83.5902 109.568 83.5902 110.205V116H81.9311V114.807H81.8629C81.7531 115.027 81.5883 115.243 81.3686 115.455C81.1489 115.667 80.8667 115.843 80.522 115.983C80.1773 116.123 79.7644 116.193 79.2834 116.193ZM79.6527 114.83C80.1224 114.83 80.5239 114.737 80.8572 114.551C81.1944 114.366 81.45 114.123 81.6243 113.824C81.8023 113.521 81.8913 113.197 81.8913 112.853V111.728C81.8307 111.788 81.7133 111.845 81.5391 111.898C81.3686 111.947 81.1735 111.991 80.9538 112.029C80.7341 112.063 80.5201 112.095 80.3118 112.125C80.1035 112.152 79.9292 112.174 79.7891 112.193C79.4595 112.235 79.1584 112.305 78.8857 112.404C78.6167 112.502 78.4008 112.644 78.2379 112.83C78.0788 113.012 77.9993 113.254 77.9993 113.557C77.9993 113.978 78.1546 114.296 78.4652 114.512C78.7758 114.724 79.1716 114.83 79.6527 114.83ZM89.12 116.171C88.4155 116.171 87.7867 115.991 87.2337 115.631C86.6844 115.267 86.2526 114.75 85.9382 114.08C85.6276 113.406 85.4723 112.597 85.4723 111.654C85.4723 110.71 85.6295 109.904 85.9439 109.233C86.2621 108.563 86.6977 108.049 87.2507 107.693C87.8037 107.337 88.4306 107.159 89.1314 107.159C89.6731 107.159 90.1087 107.25 90.4382 107.432C90.7715 107.61 91.0291 107.818 91.2109 108.057C91.3965 108.296 91.5405 108.506 91.6428 108.688H91.745V104.364H93.4439V116H91.7848V114.642H91.6428C91.5405 114.828 91.3928 115.04 91.1996 115.279C91.0102 115.517 90.7488 115.726 90.4155 115.904C90.0821 116.082 89.6503 116.171 89.12 116.171ZM89.495 114.722C89.9837 114.722 90.3965 114.593 90.7337 114.335C91.0746 114.074 91.3321 113.712 91.5064 113.25C91.6844 112.788 91.7734 112.25 91.7734 111.637C91.7734 111.031 91.6863 110.5 91.5121 110.046C91.3378 109.591 91.0821 109.237 90.745 108.983C90.4079 108.729 89.9912 108.603 89.495 108.603C88.9837 108.603 88.5575 108.735 88.2166 109C87.8757 109.265 87.6181 109.627 87.4439 110.085C87.2734 110.544 87.1882 111.061 87.1882 111.637C87.1882 112.22 87.2753 112.745 87.4496 113.21C87.6238 113.676 87.8814 114.046 88.2223 114.318C88.567 114.587 88.9912 114.722 89.495 114.722ZM95.8686 116V107.273H97.5675V116H95.8686ZM96.7266 105.926C96.4311 105.926 96.1773 105.828 95.9652 105.631C95.7569 105.43 95.6527 105.192 95.6527 104.915C95.6527 104.635 95.7569 104.396 95.9652 104.199C96.1773 103.998 96.4311 103.898 96.7266 103.898C97.022 103.898 97.2739 103.998 97.4822 104.199C97.6944 104.396 97.8004 104.635 97.8004 104.915C97.8004 105.192 97.6944 105.43 97.4822 105.631C97.2739 105.828 97.022 105.926 96.7266 105.926ZM101.552 110.818V116H99.853V107.273H101.484V108.693H101.592C101.792 108.231 102.107 107.86 102.535 107.58C102.967 107.299 103.51 107.159 104.165 107.159C104.76 107.159 105.281 107.284 105.728 107.534C106.175 107.781 106.522 108.148 106.768 108.637C107.014 109.125 107.137 109.729 107.137 110.449V116H105.438V110.654C105.438 110.021 105.273 109.527 104.944 109.171C104.614 108.811 104.162 108.631 103.586 108.631C103.192 108.631 102.842 108.716 102.535 108.887C102.232 109.057 101.991 109.307 101.813 109.637C101.639 109.962 101.552 110.356 101.552 110.818ZM113.075 119.455C112.381 119.455 111.785 119.364 111.285 119.182C110.789 119 110.383 118.76 110.069 118.46C109.754 118.161 109.52 117.834 109.364 117.478L110.825 116.875C110.927 117.042 111.063 117.218 111.234 117.404C111.408 117.593 111.643 117.754 111.938 117.887C112.237 118.019 112.622 118.085 113.092 118.085C113.736 118.085 114.268 117.928 114.688 117.614C115.109 117.303 115.319 116.807 115.319 116.125V114.409H115.211C115.109 114.595 114.961 114.801 114.768 115.029C114.578 115.256 114.317 115.453 113.984 115.62C113.65 115.786 113.217 115.87 112.683 115.87C111.993 115.87 111.372 115.709 110.819 115.387C110.27 115.061 109.834 114.582 109.512 113.949C109.194 113.313 109.035 112.531 109.035 111.603C109.035 110.674 109.192 109.879 109.506 109.216C109.825 108.553 110.26 108.046 110.813 107.693C111.366 107.337 111.993 107.159 112.694 107.159C113.236 107.159 113.673 107.25 114.006 107.432C114.34 107.61 114.599 107.818 114.785 108.057C114.974 108.296 115.12 108.506 115.222 108.688H115.347V107.273H117.012V116.193C117.012 116.943 116.838 117.559 116.489 118.04C116.141 118.521 115.669 118.877 115.075 119.108C114.484 119.339 113.817 119.455 113.075 119.455ZM113.058 114.46C113.546 114.46 113.959 114.347 114.296 114.12C114.637 113.889 114.895 113.559 115.069 113.131C115.247 112.699 115.336 112.182 115.336 111.58C115.336 110.993 115.249 110.476 115.075 110.029C114.9 109.582 114.645 109.233 114.308 108.983C113.97 108.729 113.554 108.603 113.058 108.603C112.546 108.603 112.12 108.735 111.779 109C111.438 109.262 111.181 109.618 111.006 110.068C110.836 110.519 110.751 111.023 110.751 111.58C110.751 112.152 110.838 112.654 111.012 113.085C111.186 113.517 111.444 113.854 111.785 114.097C112.129 114.339 112.554 114.46 113.058 114.46ZM123.087 105.875V104.364H132.093V105.875H128.462V116H126.712V105.875H123.087ZM138.288 112.381V107.273H139.992V116H138.322V114.489H138.231C138.03 114.955 137.708 115.343 137.265 115.654C136.826 115.96 136.278 116.114 135.623 116.114C135.062 116.114 134.566 115.991 134.134 115.745C133.706 115.495 133.369 115.125 133.123 114.637C132.88 114.148 132.759 113.544 132.759 112.824V107.273H134.458V112.62C134.458 113.214 134.623 113.688 134.952 114.04C135.282 114.392 135.71 114.568 136.237 114.568C136.555 114.568 136.871 114.489 137.185 114.33C137.504 114.171 137.767 113.93 137.975 113.608C138.187 113.286 138.291 112.877 138.288 112.381ZM146.036 116.176C145.176 116.176 144.436 115.993 143.815 115.625C143.197 115.254 142.72 114.733 142.383 114.063C142.049 113.389 141.883 112.599 141.883 111.693C141.883 110.799 142.049 110.012 142.383 109.33C142.72 108.648 143.19 108.116 143.792 107.733C144.398 107.351 145.106 107.159 145.917 107.159C146.409 107.159 146.887 107.241 147.349 107.404C147.811 107.567 148.226 107.822 148.593 108.171C148.96 108.519 149.25 108.972 149.462 109.529C149.674 110.082 149.781 110.754 149.781 111.546V112.148H142.843V110.875H148.116C148.116 110.428 148.025 110.032 147.843 109.688C147.661 109.339 147.406 109.065 147.076 108.864C146.75 108.663 146.368 108.563 145.928 108.563C145.451 108.563 145.034 108.68 144.678 108.915C144.326 109.146 144.053 109.449 143.86 109.824C143.671 110.195 143.576 110.599 143.576 111.034V112.029C143.576 112.612 143.678 113.108 143.883 113.517C144.091 113.926 144.381 114.239 144.752 114.455C145.123 114.667 145.557 114.773 146.053 114.773C146.375 114.773 146.669 114.728 146.934 114.637C147.199 114.542 147.428 114.402 147.621 114.216C147.815 114.031 147.962 113.801 148.065 113.529L149.673 113.818C149.544 114.292 149.313 114.707 148.979 115.063C148.65 115.415 148.235 115.69 147.735 115.887C147.239 116.08 146.673 116.176 146.036 116.176ZM158.205 109.404L156.665 109.676C156.601 109.479 156.499 109.292 156.359 109.114C156.222 108.936 156.037 108.79 155.802 108.676C155.567 108.563 155.273 108.506 154.921 108.506C154.44 108.506 154.039 108.614 153.717 108.83C153.395 109.042 153.234 109.317 153.234 109.654C153.234 109.945 153.342 110.18 153.558 110.358C153.773 110.536 154.122 110.682 154.603 110.796L155.989 111.114C156.792 111.299 157.391 111.585 157.785 111.972C158.179 112.358 158.376 112.86 158.376 113.478C158.376 114 158.224 114.466 157.921 114.875C157.622 115.281 157.203 115.599 156.665 115.83C156.131 116.061 155.512 116.176 154.808 116.176C153.83 116.176 153.033 115.968 152.415 115.551C151.798 115.131 151.419 114.534 151.279 113.762L152.921 113.512C153.023 113.94 153.234 114.264 153.552 114.483C153.87 114.699 154.285 114.807 154.796 114.807C155.353 114.807 155.798 114.692 156.131 114.46C156.465 114.226 156.631 113.94 156.631 113.603C156.631 113.33 156.529 113.101 156.325 112.915C156.124 112.729 155.815 112.589 155.398 112.495L153.921 112.171C153.107 111.985 152.504 111.69 152.114 111.284C151.728 110.879 151.535 110.366 151.535 109.745C151.535 109.229 151.679 108.779 151.967 108.392C152.254 108.006 152.652 107.705 153.16 107.489C153.667 107.269 154.249 107.159 154.904 107.159C155.847 107.159 156.59 107.364 157.131 107.773C157.673 108.178 158.031 108.722 158.205 109.404ZM163.511 116.171C162.806 116.171 162.177 115.991 161.624 115.631C161.075 115.267 160.643 114.75 160.329 114.08C160.018 113.406 159.863 112.597 159.863 111.654C159.863 110.71 160.02 109.904 160.335 109.233C160.653 108.563 161.088 108.049 161.641 107.693C162.194 107.337 162.821 107.159 163.522 107.159C164.064 107.159 164.499 107.25 164.829 107.432C165.162 107.61 165.42 107.818 165.602 108.057C165.787 108.296 165.931 108.506 166.033 108.688H166.136V104.364H167.835V116H166.175V114.642H166.033C165.931 114.828 165.783 115.04 165.59 115.279C165.401 115.517 165.139 115.726 164.806 115.904C164.473 116.082 164.041 116.171 163.511 116.171ZM163.886 114.722C164.374 114.722 164.787 114.593 165.124 114.335C165.465 114.074 165.723 113.712 165.897 113.25C166.075 112.788 166.164 112.25 166.164 111.637C166.164 111.031 166.077 110.5 165.903 110.046C165.728 109.591 165.473 109.237 165.136 108.983C164.799 108.729 164.382 108.603 163.886 108.603C163.374 108.603 162.948 108.735 162.607 109C162.266 109.265 162.009 109.627 161.835 110.085C161.664 110.544 161.579 111.061 161.579 111.637C161.579 112.22 161.666 112.745 161.84 113.21C162.014 113.676 162.272 114.046 162.613 114.318C162.958 114.587 163.382 114.722 163.886 114.722ZM172.799 116.193C172.246 116.193 171.746 116.091 171.299 115.887C170.852 115.678 170.498 115.377 170.237 114.983C169.979 114.589 169.85 114.106 169.85 113.534C169.85 113.042 169.945 112.637 170.134 112.318C170.324 112 170.579 111.748 170.901 111.563C171.223 111.377 171.583 111.237 171.981 111.142C172.379 111.048 172.784 110.976 173.197 110.926C173.719 110.866 174.144 110.817 174.469 110.779C174.795 110.737 175.032 110.671 175.18 110.58C175.327 110.489 175.401 110.341 175.401 110.137V110.097C175.401 109.601 175.261 109.216 174.981 108.943C174.704 108.671 174.291 108.534 173.742 108.534C173.17 108.534 172.719 108.661 172.39 108.915C172.064 109.165 171.839 109.443 171.714 109.75L170.117 109.387C170.307 108.856 170.583 108.428 170.947 108.103C171.314 107.773 171.737 107.534 172.214 107.387C172.691 107.235 173.193 107.159 173.719 107.159C174.068 107.159 174.437 107.201 174.827 107.284C175.221 107.364 175.589 107.512 175.93 107.728C176.274 107.943 176.557 108.252 176.776 108.654C176.996 109.051 177.106 109.568 177.106 110.205V116H175.447V114.807H175.379C175.269 115.027 175.104 115.243 174.884 115.455C174.665 115.667 174.382 115.843 174.038 115.983C173.693 116.123 173.28 116.193 172.799 116.193ZM173.168 114.83C173.638 114.83 174.04 114.737 174.373 114.551C174.71 114.366 174.966 114.123 175.14 113.824C175.318 113.521 175.407 113.197 175.407 112.853V111.728C175.346 111.788 175.229 111.845 175.055 111.898C174.884 111.947 174.689 111.991 174.469 112.029C174.25 112.063 174.036 112.095 173.827 112.125C173.619 112.152 173.445 112.174 173.305 112.193C172.975 112.235 172.674 112.305 172.401 112.404C172.132 112.502 171.916 112.644 171.754 112.83C171.594 113.012 171.515 113.254 171.515 113.557C171.515 113.978 171.67 114.296 171.981 114.512C172.291 114.724 172.687 114.83 173.168 114.83ZM180.13 119.273C179.876 119.273 179.645 119.252 179.437 119.21C179.228 119.173 179.073 119.131 178.971 119.085L179.38 117.693C179.691 117.777 179.967 117.813 180.21 117.801C180.452 117.79 180.666 117.699 180.852 117.529C181.041 117.358 181.208 117.08 181.352 116.693L181.562 116.114L178.369 107.273H180.187L182.397 114.046H182.488L184.698 107.273H186.522L182.925 117.165C182.759 117.62 182.547 118.004 182.289 118.318C182.031 118.637 181.725 118.875 181.369 119.034C181.013 119.193 180.6 119.273 180.13 119.273Z" fill="#359A9C"/>
</g>
<rect width="185" height="32" transform="translate(14 124)" fill="#359A9C"/>
<path d="M79.7777 138C79.6527 137.618 79.4879 137.275 79.2834 136.972C79.0826 136.665 78.8421 136.404 78.5618 136.188C78.2853 135.972 77.9709 135.807 77.6186 135.693C77.2663 135.58 76.88 135.523 76.4595 135.523C75.7701 135.523 75.1432 135.701 74.5788 136.057C74.0144 136.413 73.5656 136.938 73.2322 137.631C72.8989 138.324 72.7322 139.174 72.7322 140.182C72.7322 141.19 72.9008 142.04 73.2379 142.733C73.575 143.426 74.0315 143.951 74.6072 144.307C75.183 144.663 75.8307 144.841 76.5504 144.841C77.2171 144.841 77.8042 144.699 78.3118 144.415C78.8232 144.127 79.2209 143.722 79.505 143.199C79.7929 142.673 79.9368 142.053 79.9368 141.341L80.3686 141.432H76.8686V140.182H81.3004V141.432C81.3004 142.39 81.0959 143.224 80.6868 143.932C80.2815 144.64 79.7209 145.19 79.005 145.58C78.2929 145.966 77.4747 146.159 76.5504 146.159C75.5201 146.159 74.6148 145.917 73.8345 145.432C73.058 144.947 72.4519 144.258 72.0163 143.364C71.5845 142.47 71.3686 141.409 71.3686 140.182C71.3686 139.262 71.4917 138.434 71.7379 137.699C71.9879 136.96 72.3402 136.332 72.7947 135.813C73.2493 135.294 73.7872 134.896 74.4084 134.62C75.0296 134.343 75.7133 134.205 76.4595 134.205C77.0732 134.205 77.6451 134.298 78.1754 134.483C78.7095 134.665 79.1849 134.924 79.6016 135.262C80.022 135.595 80.3724 135.995 80.6527 136.46C80.933 136.923 81.1262 137.436 81.2322 138H79.7777ZM83.532 146V137.273H84.8274V138.591H84.9183C85.0774 138.159 85.3653 137.809 85.782 137.54C86.1986 137.271 86.6683 137.137 87.1911 137.137C87.2895 137.137 87.4126 137.139 87.5604 137.142C87.7081 137.146 87.8198 137.152 87.8956 137.159V138.523C87.8501 138.512 87.746 138.495 87.5831 138.472C87.424 138.445 87.2554 138.432 87.0774 138.432C86.6532 138.432 86.2744 138.521 85.9411 138.699C85.6115 138.873 85.3501 139.116 85.157 139.426C84.9676 139.733 84.8729 140.084 84.8729 140.478V146H83.532ZM92.0533 146.205C91.5002 146.205 90.9983 146.101 90.5476 145.892C90.0968 145.68 89.7389 145.375 89.4737 144.978C89.2086 144.576 89.076 144.091 89.076 143.523C89.076 143.023 89.1745 142.618 89.3714 142.307C89.5684 141.993 89.8317 141.746 90.1612 141.568C90.4908 141.39 90.8544 141.258 91.2521 141.171C91.6536 141.08 92.0571 141.008 92.4624 140.955C92.9927 140.887 93.4226 140.835 93.7521 140.801C94.0855 140.764 94.3279 140.701 94.4794 140.614C94.6347 140.527 94.7124 140.375 94.7124 140.159V140.114C94.7124 139.553 94.5589 139.118 94.2521 138.807C93.9491 138.496 93.4889 138.341 92.8714 138.341C92.2313 138.341 91.7294 138.481 91.3658 138.762C91.0021 139.042 90.7464 139.341 90.5987 139.659L89.326 139.205C89.5533 138.674 89.8563 138.262 90.2351 137.966C90.6177 137.667 91.0343 137.459 91.4851 137.341C91.9396 137.22 92.3866 137.159 92.826 137.159C93.1063 137.159 93.4283 137.193 93.7919 137.262C94.1593 137.326 94.5135 137.46 94.8544 137.665C95.1991 137.87 95.4851 138.178 95.7124 138.591C95.9396 139.004 96.0533 139.557 96.0533 140.25V146H94.7124V144.818H94.6442C94.5533 145.008 94.4018 145.21 94.1896 145.426C93.9775 145.642 93.6953 145.826 93.343 145.978C92.9908 146.129 92.5608 146.205 92.0533 146.205ZM92.2578 145C92.7881 145 93.2351 144.896 93.5987 144.688C93.9661 144.479 94.2427 144.21 94.4283 143.881C94.6177 143.551 94.7124 143.205 94.7124 142.841V141.614C94.6555 141.682 94.5305 141.745 94.3374 141.801C94.148 141.854 93.9283 141.902 93.6783 141.943C93.4321 141.981 93.1915 142.015 92.9567 142.046C92.7256 142.072 92.5381 142.095 92.3942 142.114C92.0457 142.159 91.7199 142.233 91.4169 142.335C91.1177 142.434 90.8752 142.584 90.6896 142.784C90.5078 142.981 90.4169 143.25 90.4169 143.591C90.4169 144.057 90.5893 144.409 90.9339 144.648C91.2824 144.883 91.7237 145 92.2578 145ZM98.5007 146V137.273H99.7962V138.637H99.9098C100.092 138.171 100.385 137.809 100.79 137.551C101.196 137.29 101.683 137.159 102.251 137.159C102.826 137.159 103.306 137.29 103.688 137.551C104.075 137.809 104.376 138.171 104.592 138.637H104.683C104.906 138.186 105.241 137.828 105.688 137.563C106.135 137.294 106.671 137.159 107.296 137.159C108.076 137.159 108.715 137.404 109.211 137.892C109.707 138.377 109.955 139.133 109.955 140.159V146H108.614V140.159C108.614 139.515 108.438 139.055 108.086 138.779C107.734 138.502 107.319 138.364 106.842 138.364C106.228 138.364 105.753 138.549 105.415 138.921C105.078 139.288 104.91 139.754 104.91 140.318V146H103.546V140.023C103.546 139.527 103.385 139.127 103.063 138.824C102.741 138.517 102.326 138.364 101.819 138.364C101.47 138.364 101.145 138.457 100.842 138.642C100.542 138.828 100.3 139.085 100.114 139.415C99.9325 139.741 99.8416 140.118 99.8416 140.546V146H98.5007ZM116.066 146.182C115.225 146.182 114.5 145.996 113.89 145.625C113.284 145.25 112.816 144.728 112.487 144.057C112.161 143.383 111.998 142.599 111.998 141.705C111.998 140.811 112.161 140.023 112.487 139.341C112.816 138.656 113.274 138.121 113.862 137.739C114.452 137.353 115.142 137.159 115.93 137.159C116.384 137.159 116.833 137.235 117.276 137.387C117.719 137.538 118.123 137.784 118.487 138.125C118.85 138.462 119.14 138.909 119.356 139.466C119.572 140.023 119.68 140.709 119.68 141.523V142.091H112.952V140.932H118.316C118.316 140.44 118.218 140 118.021 139.614C117.827 139.228 117.551 138.923 117.191 138.699C116.835 138.476 116.415 138.364 115.93 138.364C115.396 138.364 114.933 138.496 114.543 138.762C114.157 139.023 113.86 139.364 113.651 139.784C113.443 140.205 113.339 140.656 113.339 141.137V141.909C113.339 142.568 113.452 143.127 113.68 143.585C113.911 144.04 114.231 144.387 114.64 144.625C115.049 144.86 115.524 144.978 116.066 144.978C116.418 144.978 116.737 144.928 117.021 144.83C117.308 144.728 117.557 144.576 117.765 144.375C117.973 144.171 118.134 143.917 118.248 143.614L119.543 143.978C119.407 144.417 119.178 144.803 118.856 145.137C118.534 145.466 118.136 145.724 117.663 145.909C117.189 146.091 116.657 146.182 116.066 146.182ZM125.379 146.182C124.538 146.182 123.812 145.996 123.202 145.625C122.596 145.25 122.129 144.728 121.799 144.057C121.473 143.383 121.31 142.599 121.31 141.705C121.31 140.811 121.473 140.023 121.799 139.341C122.129 138.656 122.587 138.121 123.174 137.739C123.765 137.353 124.454 137.159 125.242 137.159C125.697 137.159 126.146 137.235 126.589 137.387C127.032 137.538 127.435 137.784 127.799 138.125C128.163 138.462 128.452 138.909 128.668 139.466C128.884 140.023 128.992 140.709 128.992 141.523V142.091H122.265V140.932H127.629C127.629 140.44 127.53 140 127.333 139.614C127.14 139.228 126.863 138.923 126.504 138.699C126.147 138.476 125.727 138.364 125.242 138.364C124.708 138.364 124.246 138.496 123.856 138.762C123.469 139.023 123.172 139.364 122.964 139.784C122.755 140.205 122.651 140.656 122.651 141.137V141.909C122.651 142.568 122.765 143.127 122.992 143.585C123.223 144.04 123.543 144.387 123.952 144.625C124.362 144.86 124.837 144.978 125.379 144.978C125.731 144.978 126.049 144.928 126.333 144.83C126.621 144.728 126.869 144.576 127.077 144.375C127.286 144.171 127.447 143.917 127.56 143.614L128.856 143.978C128.719 144.417 128.49 144.803 128.168 145.137C127.846 145.466 127.449 145.724 126.975 145.909C126.502 146.091 125.969 146.182 125.379 146.182ZM132.373 140.75V146H131.032V137.273H132.327V138.637H132.441C132.646 138.193 132.956 137.837 133.373 137.568C133.79 137.296 134.327 137.159 134.987 137.159C135.577 137.159 136.094 137.281 136.538 137.523C136.981 137.762 137.326 138.125 137.572 138.614C137.818 139.099 137.941 139.712 137.941 140.455V146H136.6V140.546C136.6 139.86 136.422 139.326 136.066 138.943C135.71 138.557 135.221 138.364 134.6 138.364C134.172 138.364 133.79 138.457 133.452 138.642C133.119 138.828 132.856 139.099 132.663 139.455C132.469 139.811 132.373 140.243 132.373 140.75ZM140.391 149.273V137.273H141.687V138.659H141.846C141.944 138.508 142.081 138.315 142.255 138.08C142.433 137.841 142.687 137.629 143.016 137.443C143.35 137.254 143.8 137.159 144.369 137.159C145.103 137.159 145.751 137.343 146.312 137.71C146.872 138.078 147.31 138.599 147.624 139.273C147.939 139.947 148.096 140.743 148.096 141.659C148.096 142.584 147.939 143.385 147.624 144.063C147.31 144.737 146.874 145.26 146.317 145.631C145.761 145.998 145.119 146.182 144.391 146.182C143.831 146.182 143.382 146.089 143.045 145.904C142.708 145.714 142.448 145.5 142.266 145.262C142.085 145.019 141.944 144.818 141.846 144.659H141.732V149.273H140.391ZM141.71 141.637C141.71 142.296 141.806 142.877 141.999 143.381C142.192 143.881 142.475 144.273 142.846 144.557C143.217 144.837 143.672 144.978 144.21 144.978C144.77 144.978 145.238 144.83 145.613 144.534C145.992 144.235 146.276 143.834 146.465 143.33C146.658 142.822 146.755 142.258 146.755 141.637C146.755 141.023 146.66 140.47 146.471 139.978C146.285 139.481 146.003 139.089 145.624 138.801C145.249 138.51 144.778 138.364 144.21 138.364C143.664 138.364 143.206 138.502 142.835 138.779C142.463 139.051 142.183 139.434 141.994 139.926C141.804 140.415 141.71 140.985 141.71 141.637ZM151.482 140.75V146H150.141V134.364H151.482V138.637H151.596C151.8 138.186 152.107 137.828 152.516 137.563C152.929 137.294 153.478 137.159 154.164 137.159C154.759 137.159 155.28 137.279 155.727 137.517C156.174 137.752 156.52 138.114 156.766 138.603C157.016 139.087 157.141 139.705 157.141 140.455V146H155.8V140.546C155.8 139.853 155.621 139.317 155.261 138.938C154.905 138.555 154.41 138.364 153.778 138.364C153.338 138.364 152.944 138.457 152.596 138.642C152.251 138.828 151.978 139.099 151.778 139.455C151.581 139.811 151.482 140.243 151.482 140.75ZM163.14 146.182C162.352 146.182 161.661 145.995 161.066 145.62C160.475 145.245 160.013 144.72 159.68 144.046C159.35 143.371 159.185 142.584 159.185 141.682C159.185 140.773 159.35 139.979 159.68 139.301C160.013 138.623 160.475 138.097 161.066 137.722C161.661 137.347 162.352 137.159 163.14 137.159C163.928 137.159 164.617 137.347 165.208 137.722C165.803 138.097 166.265 138.623 166.594 139.301C166.928 139.979 167.094 140.773 167.094 141.682C167.094 142.584 166.928 143.371 166.594 144.046C166.265 144.72 165.803 145.245 165.208 145.62C164.617 145.995 163.928 146.182 163.14 146.182ZM163.14 144.978C163.738 144.978 164.231 144.824 164.617 144.517C165.004 144.21 165.29 143.807 165.475 143.307C165.661 142.807 165.754 142.265 165.754 141.682C165.754 141.099 165.661 140.555 165.475 140.051C165.29 139.548 165.004 139.14 164.617 138.83C164.231 138.519 163.738 138.364 163.14 138.364C162.541 138.364 162.049 138.519 161.663 138.83C161.276 139.14 160.99 139.548 160.805 140.051C160.619 140.555 160.526 141.099 160.526 141.682C160.526 142.265 160.619 142.807 160.805 143.307C160.99 143.807 161.276 144.21 161.663 144.517C162.049 144.824 162.541 144.978 163.14 144.978ZM170.482 140.75V146H169.141V137.273H170.437V138.637H170.55C170.755 138.193 171.066 137.837 171.482 137.568C171.899 137.296 172.437 137.159 173.096 137.159C173.687 137.159 174.204 137.281 174.647 137.523C175.09 137.762 175.435 138.125 175.681 138.614C175.927 139.099 176.05 139.712 176.05 140.455V146H174.71V140.546C174.71 139.86 174.531 139.326 174.175 138.943C173.819 138.557 173.331 138.364 172.71 138.364C172.281 138.364 171.899 138.457 171.562 138.642C171.228 138.828 170.965 139.099 170.772 139.455C170.579 139.811 170.482 140.243 170.482 140.75ZM182.16 146.182C181.319 146.182 180.594 145.996 179.984 145.625C179.378 145.25 178.91 144.728 178.58 144.057C178.254 143.383 178.092 142.599 178.092 141.705C178.092 140.811 178.254 140.023 178.58 139.341C178.91 138.656 179.368 138.121 179.955 137.739C180.546 137.353 181.236 137.159 182.023 137.159C182.478 137.159 182.927 137.235 183.37 137.387C183.813 137.538 184.217 137.784 184.58 138.125C184.944 138.462 185.234 138.909 185.45 139.466C185.665 140.023 185.773 140.709 185.773 141.523V142.091H179.046V140.932H184.41C184.41 140.44 184.311 140 184.114 139.614C183.921 139.228 183.645 138.923 183.285 138.699C182.929 138.476 182.508 138.364 182.023 138.364C181.489 138.364 181.027 138.496 180.637 138.762C180.251 139.023 179.953 139.364 179.745 139.784C179.537 140.205 179.433 140.656 179.433 141.137V141.909C179.433 142.568 179.546 143.127 179.773 143.585C180.004 144.04 180.325 144.387 180.734 144.625C181.143 144.86 181.618 144.978 182.16 144.978C182.512 144.978 182.83 144.928 183.114 144.83C183.402 144.728 183.65 144.576 183.859 144.375C184.067 144.171 184.228 143.917 184.342 143.614L185.637 143.978C185.501 144.417 185.272 144.803 184.95 145.137C184.628 145.466 184.23 145.724 183.756 145.909C183.283 146.091 182.751 146.182 182.16 146.182Z" fill="white"/>
<path d="M115.5 185V176.273H116.557V180.159H121.21V176.273H122.267V185H121.21V181.097H116.557V185H115.5ZM124.247 185V178.455H125.252V185H124.247ZM124.758 177.364C124.562 177.364 124.393 177.297 124.251 177.164C124.112 177.03 124.042 176.87 124.042 176.682C124.042 176.495 124.112 176.334 124.251 176.201C124.393 176.067 124.562 176 124.758 176C124.954 176 125.122 176.067 125.261 176.201C125.403 176.334 125.474 176.495 125.474 176.682C125.474 176.87 125.403 177.03 125.261 177.164C125.122 177.297 124.954 177.364 124.758 177.364ZM129.736 187.591C129.251 187.591 128.833 187.529 128.483 187.404C128.134 187.281 127.843 187.12 127.61 186.918C127.38 186.719 127.197 186.506 127.06 186.279L127.861 185.716C127.952 185.835 128.067 185.972 128.206 186.125C128.346 186.281 128.536 186.416 128.778 186.53C129.022 186.647 129.341 186.705 129.736 186.705C130.265 186.705 130.701 186.577 131.045 186.321C131.388 186.066 131.56 185.665 131.56 185.12V183.79H131.475C131.401 183.909 131.296 184.057 131.16 184.233C131.026 184.406 130.833 184.561 130.58 184.698C130.33 184.831 129.992 184.898 129.566 184.898C129.037 184.898 128.563 184.773 128.143 184.523C127.725 184.273 127.394 183.909 127.15 183.432C126.908 182.955 126.787 182.375 126.787 181.693C126.787 181.023 126.905 180.439 127.141 179.942C127.377 179.442 127.705 179.056 128.126 178.783C128.546 178.507 129.032 178.37 129.583 178.37C130.009 178.37 130.347 178.441 130.597 178.583C130.85 178.722 131.043 178.881 131.177 179.06C131.313 179.236 131.418 179.381 131.492 179.495H131.594V178.455H132.566V185.188C132.566 185.75 132.438 186.208 132.182 186.56C131.93 186.915 131.589 187.175 131.16 187.34C130.733 187.507 130.259 187.591 129.736 187.591ZM129.702 183.995C130.106 183.995 130.447 183.902 130.725 183.718C131.003 183.533 131.215 183.267 131.36 182.921C131.505 182.574 131.577 182.159 131.577 181.676C131.577 181.205 131.506 180.789 131.364 180.428C131.222 180.067 131.012 179.784 130.733 179.58C130.455 179.375 130.111 179.273 129.702 179.273C129.276 179.273 128.921 179.381 128.637 179.597C128.356 179.813 128.144 180.103 128.002 180.466C127.863 180.83 127.793 181.233 127.793 181.676C127.793 182.131 127.864 182.533 128.006 182.882C128.151 183.229 128.364 183.502 128.645 183.701C128.93 183.897 129.282 183.995 129.702 183.995ZM135.412 181.063V185H134.407V176.273H135.412V179.478H135.498C135.651 179.139 135.881 178.871 136.188 178.672C136.498 178.47 136.91 178.37 137.424 178.37C137.87 178.37 138.26 178.459 138.596 178.638C138.931 178.814 139.191 179.085 139.376 179.452C139.563 179.816 139.657 180.279 139.657 180.841V185H138.651V180.909C138.651 180.389 138.516 179.987 138.246 179.703C137.979 179.416 137.608 179.273 137.134 179.273C136.805 179.273 136.509 179.343 136.248 179.482C135.989 179.621 135.785 179.824 135.634 180.091C135.486 180.358 135.412 180.682 135.412 181.063ZM142.502 176.273V185H141.497V176.273H142.502ZM144.344 185V178.455H145.35V185H144.344ZM144.856 177.364C144.66 177.364 144.491 177.297 144.349 177.164C144.209 177.03 144.14 176.87 144.14 176.682C144.14 176.495 144.209 176.334 144.349 176.201C144.491 176.067 144.66 176 144.856 176C145.052 176 145.219 176.067 145.358 176.201C145.501 176.334 145.572 176.495 145.572 176.682C145.572 176.87 145.501 177.03 145.358 177.164C145.219 177.297 145.052 177.364 144.856 177.364ZM149.834 187.591C149.348 187.591 148.931 187.529 148.581 187.404C148.232 187.281 147.941 187.12 147.708 186.918C147.477 186.719 147.294 186.506 147.158 186.279L147.959 185.716C148.05 185.835 148.165 185.972 148.304 186.125C148.443 186.281 148.634 186.416 148.875 186.53C149.119 186.647 149.439 186.705 149.834 186.705C150.362 186.705 150.798 186.577 151.142 186.321C151.486 186.066 151.658 185.665 151.658 185.12V183.79H151.573C151.499 183.909 151.394 184.057 151.257 184.233C151.124 184.406 150.931 184.561 150.678 184.698C150.428 184.831 150.09 184.898 149.664 184.898C149.135 184.898 148.661 184.773 148.24 184.523C147.823 184.273 147.492 183.909 147.247 183.432C147.006 182.955 146.885 182.375 146.885 181.693C146.885 181.023 147.003 180.439 147.239 179.942C147.475 179.442 147.803 179.056 148.223 178.783C148.644 178.507 149.129 178.37 149.681 178.37C150.107 178.37 150.445 178.441 150.695 178.583C150.948 178.722 151.141 178.881 151.274 179.06C151.411 179.236 151.516 179.381 151.59 179.495H151.692V178.455H152.664V185.188C152.664 185.75 152.536 186.208 152.28 186.56C152.027 186.915 151.686 187.175 151.257 187.34C150.831 187.507 150.357 187.591 149.834 187.591ZM149.8 183.995C150.203 183.995 150.544 183.902 150.823 183.718C151.101 183.533 151.313 183.267 151.458 182.921C151.602 182.574 151.675 182.159 151.675 181.676C151.675 181.205 151.604 180.789 151.462 180.428C151.32 180.067 151.11 179.784 150.831 179.58C150.553 179.375 150.209 179.273 149.8 179.273C149.374 179.273 149.019 179.381 148.735 179.597C148.453 179.813 148.242 180.103 148.1 180.466C147.96 180.83 147.891 181.233 147.891 181.676C147.891 182.131 147.962 182.533 148.104 182.882C148.249 183.229 148.462 183.502 148.743 183.701C149.027 183.897 149.379 183.995 149.8 183.995ZM155.51 181.063V185H154.504V176.273H155.51V179.478H155.595C155.749 179.139 155.979 178.871 156.286 178.672C156.595 178.47 157.007 178.37 157.521 178.37C157.968 178.37 158.358 178.459 158.693 178.638C159.029 178.814 159.289 179.085 159.473 179.452C159.661 179.816 159.754 180.279 159.754 180.841V185H158.749V180.909C158.749 180.389 158.614 179.987 158.344 179.703C158.077 179.416 157.706 179.273 157.232 179.273C156.902 179.273 156.607 179.343 156.345 179.482C156.087 179.621 155.882 179.824 155.732 180.091C155.584 180.358 155.51 180.682 155.51 181.063ZM164.441 178.455V179.307H161.049V178.455H164.441ZM162.037 176.887H163.043V183.125C163.043 183.409 163.084 183.622 163.167 183.764C163.252 183.904 163.36 183.997 163.491 184.046C163.624 184.091 163.765 184.114 163.912 184.114C164.023 184.114 164.114 184.108 164.185 184.097C164.256 184.083 164.313 184.071 164.356 184.063L164.56 184.966C164.492 184.992 164.397 185.017 164.275 185.043C164.153 185.071 163.998 185.085 163.81 185.085C163.526 185.085 163.248 185.024 162.975 184.902C162.705 184.78 162.481 184.594 162.302 184.344C162.126 184.094 162.037 183.779 162.037 183.398V176.887ZM172.584 185L174.016 176.273H174.868L173.437 185H172.584ZM168.613 182.58L168.749 181.728H175.26L175.124 182.58H168.613ZM169.516 185L170.948 176.273H171.8L170.368 185H169.516ZM169.124 179.546L169.26 178.693H175.772L175.635 179.546H169.124ZM179.95 176.273V185H178.893V177.381H178.842L176.711 178.796V177.722L178.893 176.273H179.95Z" fill="#1E1E24"/>
</g>
<path d="M0.5 4.85473C0.5 2.92174 2.067 1.35474 4 1.35474H196C197.933 1.35474 199.5 2.92174 199.5 4.85474V196.855C199.5 198.788 197.933 200.355 196 200.355H4C2.067 200.355 0.5 198.788 0.5 196.855V4.85473Z" stroke="#6DE2D9"/>
<defs>
<filter id="filter0_d_634_1738" x="56.7275" y="103.898" width="133.794" height="23.5569" filterUnits="userSpaceOnUse" color-interpolation-filters="sRGB">
<feFlood flood-opacity="0" result="BackgroundImageFix"/>
<feColorMatrix in="SourceAlpha" type="matrix" values="0 0 0 0 0 0 0 0 0 0 0 0 0 0 0 0 0 0 127 0" result="hardAlpha"/>
<feOffset dy="4"/>
<feGaussianBlur stdDeviation="2"/>
<feComposite in2="hardAlpha" operator="out"/>
<feColorMatrix type="matrix" values="0 0 0 0 0 0 0 0 0 0 0 0 0 0 0 0 0 0 0.16 0"/>
<feBlend mode="normal" in2="BackgroundImageFix" result="effect1_dropShadow_634_1738"/>
<feBlend mode="normal" in="SourceGraphic" in2="effect1_dropShadow_634_1738" result="shape"/>
</filter>
<clipPath id="clip0_634_1738">
<path d="M0 4.85473C0 2.64559 1.79086 0.854736 4 0.854736H196C198.209 0.854736 200 2.6456 200 4.85474V196.855C200 199.064 198.209 200.855 196 200.855H4C1.79086 200.855 0 199.064 0 196.855V4.85473Z" fill="white"/>
</clipPath>
</defs>
</svg>
