<svg width="19" height="18" viewBox="0 0 19 18" fill="none" xmlns="http://www.w3.org/2000/svg">
<path d="M6.93843 4.55312H8.63291V12.3102C8.63291 12.411 8.71546 12.4936 8.81635 12.4936H10.1921C10.293 12.4936 10.3756 12.411 10.3756 12.3102V4.55312H12.0746C12.2283 4.55312 12.3131 4.37656 12.2191 4.25733L9.65098 1.00593C9.63382 0.984004 9.6119 0.966273 9.58687 0.954078C9.56184 0.941884 9.53437 0.935547 9.50653 0.935547C9.47869 0.935547 9.45121 0.941884 9.42618 0.954078C9.40115 0.966273 9.37923 0.984004 9.36207 1.00593L6.79397 4.25503C6.69996 4.37656 6.7848 4.55312 6.93843 4.55312ZM17.8987 11.6223H16.5229C16.4221 11.6223 16.3395 11.7048 16.3395 11.8057V15.3368H2.67355V11.8057C2.67355 11.7048 2.591 11.6223 2.49011 11.6223H1.11434C1.01345 11.6223 0.930908 11.7048 0.930908 11.8057V16.3457C0.930908 16.7516 1.2588 17.0795 1.66465 17.0795H17.3484C17.7543 17.0795 18.0821 16.7516 18.0821 16.3457V11.8057C18.0821 11.7048 17.9996 11.6223 17.8987 11.6223Z" fill="white"/>
</svg>
