<svg width="17" height="16" viewBox="0 0 17 16" fill="none" xmlns="http://www.w3.org/2000/svg">
<path d="M6.24997 4.10307H7.73456V10.8993C7.73456 10.9877 7.80689 11.06 7.89528 11.06H9.10064C9.18903 11.06 9.26135 10.9877 9.26135 10.8993V4.10307H10.75C10.8846 4.10307 10.9589 3.94838 10.8765 3.84392L8.62653 0.995258C8.61149 0.976049 8.59229 0.960514 8.57036 0.94983C8.54843 0.939146 8.52436 0.933594 8.49997 0.933594C8.47557 0.933594 8.4515 0.939146 8.42957 0.94983C8.40764 0.960514 8.38844 0.976049 8.3734 0.995258L6.1234 3.84191C6.04104 3.94838 6.11537 4.10307 6.24997 4.10307ZM15.8526 10.2966H14.6473C14.5589 10.2966 14.4866 10.3689 14.4866 10.4573V13.5511H2.51336V10.4573C2.51336 10.3689 2.44104 10.2966 2.35264 10.2966H1.14729C1.05889 10.2966 0.986572 10.3689 0.986572 10.4573V14.435C0.986572 14.7906 1.27385 15.0778 1.62943 15.0778H15.3705C15.7261 15.0778 16.0134 14.7906 16.0134 14.435V10.4573C16.0134 10.3689 15.941 10.2966 15.8526 10.2966Z" fill="#2C7C7A"/>
</svg>
