<svg width="24" height="24" viewBox="0 0 24 24" fill="none" xmlns="http://www.w3.org/2000/svg">
<path d="M22.4406 19.5779C21.8722 18.2315 21.0472 17.0084 20.0118 15.9769C18.9795 14.9425 17.7567 14.1177 16.4108 13.5481C16.3987 13.5421 16.3867 13.5391 16.3746 13.5331C18.252 12.177 19.4724 9.96822 19.4724 7.47615C19.4724 3.3478 16.1275 0.00292969 11.9992 0.00292969C7.87085 0.00292969 4.52598 3.3478 4.52598 7.47615C4.52598 9.96822 5.7464 12.177 7.62375 13.5361C7.61169 13.5421 7.59964 13.5451 7.58759 13.5511C6.23759 14.1207 5.0262 14.9373 3.98658 15.9799C2.95211 17.0122 2.12733 18.2351 1.55779 19.5809C0.998268 20.8986 0.696506 22.3112 0.668838 23.7424C0.668033 23.7746 0.673674 23.8066 0.685429 23.8365C0.697183 23.8665 0.714813 23.8938 0.737279 23.9168C0.759745 23.9398 0.786593 23.9581 0.816241 23.9706C0.845889 23.9831 0.877737 23.9896 0.909909 23.9895H2.71794C2.85053 23.9895 2.956 23.8841 2.95902 23.7545C3.01928 21.4282 3.95344 19.2495 5.60477 17.5981C7.31337 15.8895 9.58245 14.9494 11.9992 14.9494C14.4159 14.9494 16.685 15.8895 18.3936 17.5981C20.045 19.2495 20.9791 21.4282 21.0394 23.7545C21.0424 23.8871 21.1479 23.9895 21.2804 23.9895H23.0885C23.1207 23.9896 23.1525 23.9831 23.1821 23.9706C23.2118 23.9581 23.2386 23.9398 23.2611 23.9168C23.2836 23.8938 23.3012 23.8665 23.313 23.8365C23.3247 23.8066 23.3304 23.7746 23.3296 23.7424C23.2994 22.302 23.0011 20.9008 22.4406 19.5779ZM11.9992 12.6592C10.616 12.6592 9.31426 12.1198 8.33491 11.1404C7.35556 10.1611 6.81616 8.85929 6.81616 7.47615C6.81616 6.093 7.35556 4.79121 8.33491 3.81186C9.31426 2.83251 10.616 2.29311 11.9992 2.29311C13.3823 2.29311 14.6841 2.83251 15.6635 3.81186C16.6428 4.79121 17.1822 6.093 17.1822 7.47615C17.1822 8.85929 16.6428 10.1611 15.6635 11.1404C14.6841 12.1198 13.3823 12.6592 11.9992 12.6592Z" fill="#2C7C7A"/>
</svg>
