<svg width="19" height="16" viewBox="0 0 19 16" fill="none" xmlns="http://www.w3.org/2000/svg">
<path d="M8.60229 0.114284L0.182373 7.38284C-0.060791 7.59085 -0.060791 7.99222 0.182373 8.20022L8.60229 15.4717C8.91577 15.7412 9.37573 15.4981 9.37573 15.0616V0.521511C9.37573 0.0879168 8.91577 -0.158177 8.60229 0.114284V0.114284ZM17.9773 0.114284L9.55737 7.38284C9.49972 7.4344 9.45371 7.49764 9.42239 7.56836C9.39107 7.63908 9.37517 7.71565 9.37573 7.793C9.37573 7.94534 9.43726 8.09768 9.55737 8.20315L17.9773 15.4746C18.2908 15.7442 18.7507 15.501 18.7507 15.0645V0.521511C18.7507 0.0879168 18.2908 -0.158177 17.9773 0.114284Z" fill="#B6B6B8"/>
</svg>
